<svg width="38" height="36" viewBox="0 0 38 36" fill="none" xmlns="http://www.w3.org/2000/svg">
<path d="M35.1301 23.7238C33.729 22.3706 32.0202 21.6934 30.0032 21.6923C27.9945 21.6908 26.2761 22.368 24.8485 23.7238L24.8203 23.751C23.4179 25.1315 22.7175 26.7931 22.7191 28.7351C22.7204 30.6854 23.4208 32.3376 24.8203 33.692C26.2614 35.0842 27.989 35.7794 30.0032 35.7779C32.0125 35.7768 33.7215 35.0905 35.1301 33.7191C35.1395 33.7101 35.1489 33.7014 35.158 33.6919C36.5763 32.33 37.286 30.6779 37.2873 28.7351C37.2889 26.7878 36.5697 25.1172 35.1302 23.7238H35.1301ZM32.7489 26.0264C33.5315 26.7818 33.9239 27.685 33.9254 28.7351C33.9267 29.7773 33.5437 30.662 32.7766 31.3898L32.7488 31.4166C31.9962 32.1581 31.081 32.5284 30.0032 32.5272C28.917 32.5257 27.983 32.1467 27.2016 31.3897C26.4531 30.6672 26.0797 29.7826 26.081 28.7351C26.0826 27.6925 26.4559 26.7983 27.2016 26.0535C27.211 26.0444 27.2204 26.0353 27.2298 26.0263C28.0002 25.3053 28.9248 24.9443 30.0032 24.9429C31.0866 24.9414 32.0018 25.3026 32.7488 26.0263L32.7489 26.0264ZM12.7176 2.05384C11.3165 0.700627 9.60772 0.0234395 7.59067 0.0222786C5.58203 0.020767 3.86363 0.697957 2.43596 2.05384L2.40781 2.08105C1.00543 3.46154 0.305042 5.12307 0.306643 7.06515C0.307894 9.01545 1.00828 10.6676 2.40781 12.022C3.84894 13.4142 5.57646 14.1094 7.59071 14.1079C9.59999 14.1068 11.309 13.4205 12.7176 12.0492C12.727 12.0401 12.7364 12.0314 12.7455 12.0219C14.1638 10.66 14.8735 9.00788 14.8748 7.06513C14.8764 5.11782 14.1572 3.4472 12.7177 2.05384H12.7176ZM11.5129 7.06513C11.5142 8.10732 11.1312 8.99202 10.3641 9.7198L10.3363 9.74663C9.58371 10.4881 8.66851 10.8584 7.59071 10.8572C6.5045 10.8557 5.57054 10.4767 4.78914 9.71974C4.0406 8.9972 3.66724 8.11257 3.66852 7.06506C3.67008 6.02248 4.04342 5.12831 4.78914 4.3835C4.79852 4.37443 4.8079 4.36536 4.81728 4.35629C5.58771 3.63527 6.51231 3.27434 7.59067 3.27288C8.67407 3.27137 9.58931 3.63265 10.3363 4.35629C11.1189 5.1117 11.5113 6.01491 11.5129 7.06504L11.5129 7.06513ZM36.783 2.78541C37.1197 2.47629 37.2879 2.09688 37.2873 1.64754C37.2879 1.19822 37.1197 0.809741 36.783 0.482872C36.4634 0.175264 36.0713 0.0218423 35.6064 0.0222196C35.1414 0.0214637 34.74 0.175264 34.4016 0.482872L0.782873 32.9879C0.464568 33.3148 0.306048 33.7028 0.306672 34.1525C0.306047 34.6019 0.464888 34.9813 0.782873 35.2904C1.12119 35.6158 1.52266 35.7783 1.98763 35.7779C2.45257 35.7783 2.84466 35.6158 3.1642 35.2904L36.783 2.78541Z" fill="white"/>
</svg>
