<svg width="44" height="44" viewBox="0 0 44 44" fill="none" xmlns="http://www.w3.org/2000/svg">
<g clip-path="url(#clip0_346_3106)">
<path d="M41.2499 7.28931H35.5922C35.2297 7.28938 34.8753 7.39695 34.5739 7.5984C34.2725 7.79986 34.0376 8.08616 33.8988 8.42111C33.7601 8.75606 33.7238 9.12462 33.7945 9.4802C33.8652 9.83578 34.0398 10.1624 34.2961 10.4188L36.2871 12.4098L29.7127 18.9823C29.3634 19.3162 28.8989 19.5025 28.4157 19.5025C27.9325 19.5025 27.4679 19.3162 27.1186 18.9823L26.8069 18.6688C25.7594 17.6679 24.3663 17.1094 22.9175 17.1094C21.4687 17.1094 20.0756 17.6679 19.0281 18.6688L9.67807 28.0188C9.33358 28.3643 9.14043 28.8324 9.14112 29.3203C9.1418 29.8082 9.33627 30.2758 9.68174 30.6203C10.0272 30.9648 10.4954 31.158 10.9832 31.1573C11.4711 31.1566 11.9387 30.9621 12.2832 30.6166L21.6332 21.2666C21.9823 20.9324 22.447 20.7458 22.9303 20.7458C23.4136 20.7458 23.8783 20.9324 24.2274 21.2666L24.5391 21.5801C25.587 22.5802 26.9799 23.1381 28.4285 23.1381C29.8771 23.1381 31.2699 22.5802 32.3179 21.5801L38.8923 15.0058L40.8833 16.9968C41.1405 17.249 41.4664 17.4198 41.8201 17.4879C42.1739 17.5559 42.5398 17.5183 42.8723 17.3796C43.2048 17.241 43.489 17.0074 43.6896 16.7082C43.8901 16.4089 43.9981 16.0572 43.9999 15.697V10.0393C43.9999 9.30996 43.7102 8.61049 43.1945 8.09476C42.6787 7.57904 41.9793 7.28931 41.2499 7.28931Z" fill="white"/>
<path d="M42.1667 40.2893H9.16667C7.70798 40.2893 6.30903 39.7099 5.27758 38.6784C4.24613 37.647 3.66667 36.248 3.66667 34.7893V1.83333C3.66667 1.3471 3.47351 0.880788 3.1297 0.536971C2.78588 0.193154 2.31956 0 1.83333 0C1.3471 0 0.880788 0.193154 0.536971 0.536971C0.193154 0.880788 0 1.3471 0 1.83333L0 34.7893C0.00291107 37.2196 0.969617 39.5495 2.68807 41.2679C4.40652 42.9864 6.73641 43.9531 9.16667 43.956H42.1667C42.6529 43.956 43.1192 43.7628 43.463 43.419C43.8068 43.0752 44 42.6089 44 42.1227C44 41.6364 43.8068 41.1701 43.463 40.8263C43.1192 40.4825 42.6529 40.2893 42.1667 40.2893Z" fill="white"/>
</g>
<defs>
<clipPath id="clip0_346_3106">
<rect width="44" height="44" fill="white"/>
</clipPath>
</defs>
</svg>
