<svg width="44" height="44" viewBox="0 0 44 44" fill="none" xmlns="http://www.w3.org/2000/svg">
<g clip-path="url(#clip0_347_3111)">
<path d="M16.5 43.9999H1.83333C1.3471 43.9999 0.880787 43.8068 0.536971 43.463C0.193154 43.1191 0 42.6528 0 42.1666C0 41.6804 0.193154 41.214 0.536971 40.8702C0.880787 40.5264 1.3471 40.3333 1.83333 40.3333H16.5C16.9862 40.3333 17.4525 40.5264 17.7964 40.8702C18.1402 41.214 18.3333 41.6804 18.3333 42.1666C18.3333 42.6528 18.1402 43.1191 17.7964 43.463C17.4525 43.8068 16.9862 43.9999 16.5 43.9999Z" fill="white"/>
<path d="M12.8333 36.6667H1.83333C1.3471 36.6667 0.880788 36.4735 0.536971 36.1297C0.193154 35.7859 0 35.3196 0 34.8333C0 34.3471 0.193154 33.8808 0.536971 33.537C0.880788 33.1932 1.3471 33 1.83333 33H12.8333C13.3196 33 13.7859 33.1932 14.1297 33.537C14.4735 33.8808 14.6667 34.3471 14.6667 34.8333C14.6667 35.3196 14.4735 35.7859 14.1297 36.1297C13.7859 36.4735 13.3196 36.6667 12.8333 36.6667Z" fill="white"/>
<path d="M9.16667 29.3334H1.83333C1.3471 29.3334 0.880788 29.1403 0.536971 28.7965C0.193154 28.4526 0 27.9863 0 27.5001C0 27.0139 0.193154 26.5475 0.536971 26.2037C0.880788 25.8599 1.3471 25.6667 1.83333 25.6667H9.16667C9.6529 25.6667 10.1192 25.8599 10.463 26.2037C10.8068 26.5475 11 27.0139 11 27.5001C11 27.9863 10.8068 28.4526 10.463 28.7965C10.1192 29.1403 9.6529 29.3334 9.16667 29.3334Z" fill="white"/>
<path d="M23.8335 43.9176C23.3472 43.9392 22.8723 43.7668 22.5132 43.4383C22.1541 43.1098 21.9402 42.6521 21.9185 42.1658C21.8969 41.6796 22.0693 41.2047 22.3978 40.8456C22.7263 40.4865 23.1841 40.2726 23.6703 40.2509C27.1398 39.9335 30.447 38.634 33.2046 36.5047C35.9622 34.3753 38.0559 31.5044 39.2406 28.228C40.4254 24.9516 40.652 21.4054 39.8939 18.0049C39.1359 14.6044 37.4246 11.4902 34.9604 9.02724C32.4963 6.56425 29.3814 4.85438 25.9805 4.0979C22.5796 3.34142 19.0336 3.56965 15.7578 4.75587C12.4819 5.94208 9.61189 8.03716 7.48384 10.7957C5.35579 13.5543 4.05782 16.8621 3.74196 20.3318C3.6982 20.816 3.46385 21.2631 3.09047 21.5746C2.71708 21.8861 2.23525 22.0365 1.75096 21.9928C1.26668 21.949 0.819612 21.7146 0.508115 21.3413C0.196617 20.9679 0.0462036 20.486 0.0899643 20.0018C0.60126 14.3612 3.26824 9.13504 7.53573 5.41129C11.8032 1.68754 17.3424 -0.246927 23.0003 0.0105603C28.6582 0.268048 33.9988 2.69766 37.9104 6.79363C41.822 10.8896 44.0033 16.3364 44.0001 22.0001C44.0282 27.4971 41.9861 32.8032 38.2799 36.863C34.5738 40.9227 29.4752 43.4387 23.9985 43.9103C23.9435 43.9158 23.8866 43.9176 23.8335 43.9176Z" fill="white"/>
<path d="M21.9998 11C21.5136 11 21.0473 11.1932 20.7035 11.537C20.3597 11.8808 20.1665 12.3471 20.1665 12.8333V22C20.1666 22.4862 20.3598 22.9524 20.7037 23.2962L26.2037 28.7962C26.5494 29.1301 27.0126 29.3149 27.4932 29.3107C27.9739 29.3066 28.4338 29.1138 28.7737 28.7738C29.1136 28.4339 29.3064 27.9741 29.3106 27.4934C29.3148 27.0127 29.13 26.5496 28.796 26.2038L23.8332 21.241V12.8333C23.8332 12.3471 23.64 11.8808 23.2962 11.537C22.9524 11.1932 22.4861 11 21.9998 11Z" fill="white"/>
</g>
<defs>
<clipPath id="clip0_347_3111">
<rect width="44" height="44" fill="white"/>
</clipPath>
</defs>
</svg>
