<svg width="44" height="44" viewBox="0 0 44 44" fill="none" xmlns="http://www.w3.org/2000/svg">
<path d="M39.8108 33.6654C37.7109 36.2115 34.9626 38.1435 31.8559 39.2575C28.7493 40.3715 25.3995 40.6263 22.1601 39.9949C18.9207 39.3635 15.9118 37.8694 13.451 35.6702C10.9901 33.471 9.16855 30.6483 8.1785 27.4999H27.5C27.9862 27.4999 28.4525 27.3067 28.7964 26.9629C29.1402 26.6191 29.3333 26.1528 29.3333 25.6666C29.3333 25.1803 29.1402 24.714 28.7964 24.3702C28.4525 24.0264 27.9862 23.8332 27.5 23.8332H7.42683C7.30216 22.6142 7.30216 21.3856 7.42683 20.1666H27.5C27.9862 20.1666 28.4525 19.9734 28.7964 19.6296C29.1402 19.2858 29.3333 18.8195 29.3333 18.3332C29.3333 17.847 29.1402 17.3807 28.7964 17.0369C28.4525 16.6931 27.9862 16.4999 27.5 16.4999H8.1785C9.16855 13.3515 10.9901 10.5288 13.451 8.32962C15.9118 6.13042 18.9207 4.63628 22.1601 4.00489C25.3995 3.37349 28.7493 3.62825 31.8559 4.74229C34.9626 5.85633 37.7109 7.78832 39.8108 10.3344C39.9642 10.52 40.1526 10.6736 40.3653 10.7864C40.5781 10.8992 40.8109 10.969 41.0506 10.9918C41.2903 11.0147 41.5322 10.99 41.7623 10.9194C41.9925 10.8487 42.2065 10.7334 42.3922 10.5801C42.5778 10.4267 42.7314 10.2383 42.8442 10.0256C42.957 9.81284 43.0268 9.57998 43.0496 9.34028C43.0724 9.10058 43.0478 8.85874 42.9771 8.62855C42.9065 8.39837 42.7912 8.18436 42.6378 7.99873C40.0577 4.8716 36.6629 2.51899 32.829 1.20109C28.995 -0.116813 24.8712 -0.348659 20.9137 0.531192C16.9562 1.41104 13.3191 3.3683 10.4047 6.18653C7.49029 9.00475 5.41212 12.5741 4.4 16.4999H1.83333C1.3471 16.4999 0.880788 16.6931 0.536971 17.0369C0.193154 17.3807 0 17.847 0 18.3332C0 18.8195 0.193154 19.2858 0.536971 19.6296C0.880788 19.9734 1.3471 20.1666 1.83333 20.1666H3.76017C3.70883 20.7734 3.66667 21.3802 3.66667 21.9999C3.66667 22.6196 3.70883 23.2264 3.76017 23.8332H1.83333C1.3471 23.8332 0.880788 24.0264 0.536971 24.3702C0.193154 24.714 0 25.1803 0 25.6666C0 26.1528 0.193154 26.6191 0.536971 26.9629C0.880788 27.3067 1.3471 27.4999 1.83333 27.4999H4.4C5.41097 31.4277 7.48902 34.9992 10.4041 37.8191C13.3193 40.639 16.9578 42.5973 20.917 43.4773C24.8762 44.3573 29.0017 44.1247 32.8369 42.8052C36.672 41.4857 40.0673 39.1308 42.647 36.0011C42.9567 35.6262 43.1048 35.1436 43.0588 34.6595C43.0127 34.1754 42.7762 33.7295 42.4013 33.4197C42.0264 33.11 41.5439 32.9619 41.0598 33.008C40.5757 33.054 40.1297 33.2905 39.82 33.6654H39.8108Z" fill="white"/>
</svg>
