<svg width="41" height="55" viewBox="0 0 41 55" fill="none" xmlns="http://www.w3.org/2000/svg">
<path d="M4.14078 0.712891C1.95618 0.712891 0.144043 2.52503 0.144043 4.70963V50.3878C0.144043 52.5724 1.95618 54.3845 4.14078 54.3845H36.1155C38.3001 54.3845 40.1122 52.5724 40.1122 50.3878V4.70963C40.1122 2.52503 38.3001 0.712891 36.1155 0.712891H4.14078ZM4.14078 4.13896H36.1155C36.4616 4.13896 36.6866 4.36398 36.6866 4.7101V50.3882C36.6866 50.7339 36.4616 50.9594 36.1155 50.9594H4.14078C3.79467 50.9594 3.56964 50.7344 3.56964 50.3882V4.7101C3.56964 4.36399 3.79466 4.13896 4.14078 4.13896ZM26.2661 7.54708C25.8288 7.5873 25.4106 7.80317 25.1243 8.13573L18.1655 16.0759L14.8825 13.6137C14.1692 13.0577 13.011 13.2095 12.4645 13.93C11.9181 14.6509 12.0849 15.8067 12.8126 16.3436L17.3805 19.7696C18.0616 20.2858 19.1349 20.1787 19.7001 19.5379L27.6936 10.402C28.1528 9.89421 28.2611 9.09928 27.9553 8.48711C27.649 7.87415 26.948 7.48424 26.2662 7.54676L26.2661 7.54708ZM8.70859 24.6937C7.76268 24.6937 6.99556 25.4608 6.99556 26.4067C6.99556 27.3527 7.76265 28.1198 8.70859 28.1198H31.5477C32.4936 28.1198 33.2607 27.3531 33.2607 26.4067C33.2607 25.4608 32.4936 24.6937 31.5477 24.6937H8.70859ZM8.70859 33.8295C7.76268 33.8295 6.99556 34.5966 6.99556 35.5426C6.99556 36.4885 7.76265 37.2556 8.70859 37.2556H31.5477C32.4936 37.2556 33.2607 36.4889 33.2607 35.5426C33.2607 34.5967 32.4936 33.8295 31.5477 33.8295H8.70859ZM8.70859 42.9654C7.76268 42.9654 6.99556 43.7325 6.99556 44.6784C6.99556 45.6244 7.76265 46.3914 8.70859 46.3914H31.5477C32.4936 46.3914 33.2607 45.6248 33.2607 44.6784C33.2607 43.7325 32.4936 42.9654 31.5477 42.9654H8.70859Z" fill="white"/>
</svg>
