<svg width="26" height="44" viewBox="0 0 26 44" fill="none" xmlns="http://www.w3.org/2000/svg">
<path d="M15.972 7.33333C17.4266 7.33479 18.8212 7.92785 19.8497 8.98237C20.8783 10.0369 21.4567 11.4667 21.4581 12.958C21.4581 13.4442 21.6465 13.9105 21.9819 14.2544C22.3172 14.5982 22.7721 14.7913 23.2463 14.7913C23.7206 14.7913 24.1754 14.5982 24.5107 14.2544C24.8461 13.9105 25.0345 13.4442 25.0345 12.958V12.8333C25.0345 12.7985 25.0345 12.7673 25.0345 12.7325C24.9748 10.3083 23.994 8.00393 22.3011 6.31044C20.6083 4.61694 18.3372 3.66828 15.972 3.66667H14.3054V1.83333C14.3054 1.3471 14.117 0.880788 13.7817 0.536971C13.4463 0.193154 12.9915 0 12.5172 0C12.043 0 11.5882 0.193154 11.2528 0.536971C10.9175 0.880788 10.7291 1.3471 10.7291 1.83333V3.66667H9.06248C6.91187 3.66902 4.83217 4.45543 3.1951 5.88533C1.55804 7.31522 0.470307 9.29541 0.12634 11.4719C-0.217627 13.6485 0.204587 15.8795 1.31751 17.7662C2.43044 19.6529 4.16154 21.0724 6.2014 21.7708L10.7291 23.32V36.6667H9.06248C7.60791 36.6652 6.21331 36.0721 5.18477 35.0176C4.15623 33.9631 3.57777 32.5333 3.57635 31.042C3.57635 30.5558 3.38796 30.0895 3.05261 29.7456C2.71726 29.4018 2.26243 29.2087 1.78818 29.2087C1.31392 29.2087 0.859094 29.4018 0.523745 29.7456C0.188397 30.0895 0 30.5558 0 31.042V31.1667C0 31.2015 0 31.2327 0 31.2675C0.0596775 33.6917 1.04047 35.9961 2.73334 37.6896C4.42622 39.3831 6.69728 40.3317 9.06248 40.3333H10.7291V42.1667C10.7291 42.6529 10.9175 43.1192 11.2528 43.463C11.5882 43.8068 12.043 44 12.5172 44C12.9915 44 13.4463 43.8068 13.7817 43.463C14.117 43.1192 14.3054 42.6529 14.3054 42.1667V40.3333H15.972C18.1226 40.331 20.2023 39.5446 21.8394 38.1147C23.4764 36.6848 24.5642 34.7046 24.9081 32.5281C25.2521 30.3515 24.8299 28.1205 23.717 26.2338C22.604 24.3471 20.8729 22.9276 18.8331 22.2292L14.3054 20.68V7.33333H15.972ZM17.7065 25.7052C18.9429 26.1271 19.9925 26.9864 20.6673 28.1293C21.3421 29.2722 21.598 30.624 21.3894 31.9427C21.1807 33.2615 20.521 34.461 19.5284 35.3266C18.5358 36.1921 17.2751 36.6672 15.972 36.6667H14.3054V24.5428L17.7065 25.7052ZM10.7291 19.4572L7.33153 18.2948C6.09543 17.873 5.04608 17.014 4.37126 15.8715C3.69645 14.729 3.44021 13.3776 3.64842 12.0591C3.85663 10.7406 4.51568 9.54107 5.50764 8.67523C6.4996 7.80939 7.75972 7.33371 9.06248 7.33333H10.7291V19.4572Z" fill="white"/>
</svg>
