<svg width="44" height="44" fill="none" xmlns="http://www.w3.org/2000/svg"><path d="M39.81 33.665A18.332 18.332 0 018.179 27.5H27.5a1.834 1.834 0 000-3.667H7.427a18.02 18.02 0 010-3.666H27.5a1.834 1.834 0 000-3.667H8.178a18.333 18.333 0 0131.633-6.166A1.834 1.834 0 0042.638 8 21.98 21.98 0 004.4 16.5H1.833a1.833 1.833 0 000 3.668H3.76A21.64 21.64 0 003.667 22c0 .62.042 1.226.093 1.833H1.833a1.833 1.833 0 000 3.667H4.4A21.98 21.98 0 0042.647 36a1.834 1.834 0 00-2.827-2.336h-.01z" fill="#fff"/></svg>