<svg width="44" height="44" fill="none" xmlns="http://www.w3.org/2000/svg"><g clip-path="url(#clip0_346_3106)" fill="#fff"><path d="M41.25 7.29h-5.658a1.833 1.833 0 00-1.296 3.129l1.991 1.99-6.574 6.573a1.877 1.877 0 01-2.594 0l-.312-.313a5.63 5.63 0 00-7.779 0l-9.35 9.35a1.84 1.84 0 002.605 2.598l9.35-9.35a1.876 1.876 0 012.594 0l.312.313a5.633 5.633 0 007.779 0l6.574-6.574 1.991 1.99A1.833 1.833 0 0044 15.698V10.04a2.75 2.75 0 00-2.75-2.75z"/><path d="M42.167 40.29h-33a5.5 5.5 0 01-5.5-5.5V1.832a1.833 1.833 0 00-3.667 0V34.79a9.178 9.178 0 009.167 9.167h33a1.833 1.833 0 000-3.667z"/></g><defs><clipPath id="clip0_346_3106"><path fill="#fff" d="M0 0h44v44H0z"/></clipPath></defs></svg>