<svg width="26" height="44" fill="none" xmlns="http://www.w3.org/2000/svg"><path d="M15.972 7.333a5.424 5.424 0 013.878 1.65 5.703 5.703 0 011.608 3.975c0 .486.189.953.524 1.296.335.344.79.537 1.264.537.475 0 .93-.193 1.265-.537.335-.343.524-.81.524-1.296v-.225A9.412 9.412 0 0022.3 6.31a8.956 8.956 0 00-6.329-2.643h-1.667V1.833c0-.486-.188-.952-.523-1.296A1.766 1.766 0 0012.517 0c-.474 0-.929.193-1.264.537-.335.344-.524.81-.524 1.296v1.834H9.062a8.931 8.931 0 00-5.867 2.218 9.351 9.351 0 00-3.069 5.587 9.488 9.488 0 001.192 6.294A9.108 9.108 0 006.2 21.771l4.528 1.549v13.347H9.062a5.424 5.424 0 01-3.877-1.65 5.703 5.703 0 01-1.609-3.975c0-.486-.188-.953-.523-1.296a1.766 1.766 0 00-1.265-.537c-.474 0-.929.193-1.264.537-.336.344-.524.81-.524 1.296v.225a9.412 9.412 0 002.733 6.423 8.956 8.956 0 006.33 2.643h1.666v1.834c0 .486.189.952.524 1.296.335.344.79.537 1.264.537.475 0 .93-.193 1.265-.537.335-.344.523-.81.523-1.296v-1.834h1.667a8.93 8.93 0 005.867-2.218 9.351 9.351 0 003.07-5.587 9.487 9.487 0 00-1.192-6.294 9.108 9.108 0 00-4.884-4.005l-4.528-1.549V7.333h1.667zm1.734 18.372a5.513 5.513 0 012.961 2.424 5.744 5.744 0 01.722 3.814 5.661 5.661 0 01-1.86 3.384 5.406 5.406 0 01-3.557 1.34h-1.667V24.543l3.401 1.162zm-6.977-6.248l-3.397-1.162a5.513 5.513 0 01-2.96-2.424 5.743 5.743 0 01-.724-3.812 5.661 5.661 0 011.86-3.384 5.406 5.406 0 013.554-1.342h1.667v12.124z" fill="#fff"/></svg>