<svg width="44" height="44" fill="none" xmlns="http://www.w3.org/2000/svg"><g clip-path="url(#clip0_347_3111)" fill="#fff"><path d="M16.5 44H1.833a1.833 1.833 0 110-3.667H16.5a1.834 1.834 0 010 3.667zm-3.667-7.333h-11a1.833 1.833 0 010-3.667h11a1.833 1.833 0 010 3.667zm-3.666-7.334H1.833a1.833 1.833 0 110-3.666h7.334a1.833 1.833 0 010 3.666z"/><path d="M23.834 43.918a1.835 1.835 0 01-.164-3.667A18.333 18.333 0 103.742 20.33 1.834 1.834 0 01.09 20 22 22 0 0144 22a21.879 21.879 0 01-20.002 21.91 1.681 1.681 0 01-.165.007z"/><path d="M22 11a1.833 1.833 0 00-1.834 1.833V22c0 .486.194.952.538 1.296l5.5 5.5a1.833 1.833 0 002.592-2.592l-4.963-4.963v-8.408A1.833 1.833 0 0022 11z"/></g><defs><clipPath id="clip0_347_3111"><path fill="#fff" d="M0 0h44v44H0z"/></clipPath></defs></svg>