<svg width="38" height="36" fill="none" xmlns="http://www.w3.org/2000/svg"><path d="M35.13 23.724c-1.401-1.353-3.11-2.03-5.127-2.032-2.009-.001-3.727.676-5.154 2.032l-.029.027c-1.402 1.38-2.102 3.042-2.1 4.984 0 1.95.7 3.603 2.1 4.957 1.441 1.392 3.169 2.087 5.183 2.086 2.01-.001 3.718-.688 5.127-2.059l.028-.027c1.418-1.362 2.128-3.014 2.13-4.957 0-1.947-.718-3.618-2.158-5.011zm-2.381 2.302c.782.756 1.175 1.659 1.176 2.71.002 1.041-.381 1.926-1.148 2.654l-.028.027c-.753.741-1.668 1.111-2.746 1.11a3.894 3.894 0 01-2.801-1.137c-.749-.723-1.122-1.607-1.121-2.655.002-1.043.375-1.937 1.12-2.681l.029-.028c.77-.72 1.695-1.082 2.773-1.083 1.084-.002 1.999.36 2.746 1.083zM12.718 2.054C11.316.7 9.608.024 7.59.022 5.582.021 3.864.698 2.436 2.054l-.028.027C1.005 3.461.305 5.123.307 7.065c0 1.95.701 3.603 2.1 4.957 1.442 1.392 3.17 2.087 5.184 2.086 2.009-.001 3.718-.688 5.127-2.059l.027-.027c1.419-1.362 2.129-3.014 2.13-4.957.001-1.947-.718-3.618-2.157-5.011zm-1.205 5.011c.001 1.042-.382 1.927-1.149 2.655l-.028.027c-.752.741-1.667 1.111-2.745 1.11A3.894 3.894 0 014.789 9.72c-.748-.723-1.122-1.607-1.12-2.655.001-1.043.374-1.937 1.12-2.682l.028-.027c.77-.72 1.695-1.082 2.774-1.083 1.083-.002 1.998.36 2.745 1.083.783.756 1.175 1.659 1.177 2.709zm25.27-4.28c.337-.309.505-.688.504-1.137 0-.45-.167-.838-.504-1.165a1.63 1.63 0 00-1.177-.46 1.716 1.716 0 00-1.204.46L.782 32.988a1.608 1.608 0 00-.475 1.165 1.52 1.52 0 00.476 1.137c.338.326.74.488 1.205.488a1.58 1.58 0 001.176-.488L36.783 2.785z" fill="#fff"/></svg>