<svg width="41" height="55" fill="none" xmlns="http://www.w3.org/2000/svg"><path d="M4.14.713C1.957.713.145 2.525.145 4.71v45.678c0 2.184 1.812 3.997 3.997 3.997h31.974c2.185 0 3.997-1.813 3.997-3.997V4.71c0-2.185-1.812-3.997-3.997-3.997H4.141zm0 3.426h31.975c.347 0 .572.225.572.571v45.678c0 .346-.225.571-.572.571H4.141c-.346 0-.571-.225-.571-.57V4.71c0-.346.225-.571.57-.571zm22.126 3.408c-.437.04-.855.256-1.142.589l-6.958 7.94-3.284-2.462c-.713-.556-1.871-.405-2.418.316-.546.72-.38 1.877.349 2.414l4.568 3.426c.68.516 1.754.409 2.32-.232l7.993-9.136a1.758 1.758 0 00.261-1.915 1.757 1.757 0 00-1.689-.94zM8.71 24.694a1.713 1.713 0 000 3.426h22.839a1.713 1.713 0 100-3.426H8.708zm0 9.136a1.713 1.713 0 000 3.426h22.839a1.713 1.713 0 100-3.426H8.708zm0 9.135a1.713 1.713 0 000 3.426h22.839a1.713 1.713 0 100-3.426H8.708z" fill="#fff"/></svg>