<svg width="133" height="46" fill="none" xmlns="http://www.w3.org/2000/svg"><path d="M5.425 0h122.15c2.979 0 5.401 2.475 5.401 5.52v34.96c0 3.045-2.422 5.52-5.401 5.52H5.425c-2.98 0-5.4-2.475-5.4-5.52V5.52c0-3.045 2.42-5.52 5.4-5.52z" fill="#fff"/><path d="M29.126 21.95c-.027-3.293 2.638-4.894 2.755-4.967-1.513-2.245-3.853-2.558-4.672-2.585-1.962-.212-3.87 1.205-4.87 1.205-1.017 0-2.565-1.178-4.221-1.15-2.134.037-4.141 1.297-5.23 3.266-2.26 4.002-.576 9.89 1.593 13.128 1.09 1.583 2.35 3.358 4.015 3.294 1.62-.065 2.232-1.058 4.185-1.058 1.945 0 2.512 1.058 4.204 1.021 1.746-.028 2.835-1.592 3.888-3.192 1.252-1.813 1.756-3.607 1.774-3.699-.045-.018-3.385-1.325-3.42-5.262zm-3.196-9.678c.873-1.113 1.468-2.63 1.305-4.176-1.26.055-2.844.892-3.753 1.987-.801.966-1.521 2.539-1.341 4.02 1.422.11 2.88-.736 3.79-1.83zm26.708 21.64H50.37l-1.243-3.993h-4.32l-1.18 3.993h-2.205l4.276-13.589h2.646l4.294 13.589zm-3.88-5.668l-1.125-3.542c-.117-.368-.342-1.214-.666-2.557h-.045c-.135.58-.342 1.435-.63 2.557l-1.107 3.542h3.574zm14.871.653c0 1.665-.441 2.981-1.332 3.947-.792.865-1.782 1.288-2.953 1.288-1.269 0-2.178-.46-2.736-1.39v5.144h-2.133V27.333c0-1.048-.027-2.116-.081-3.22h1.872l.117 1.555h.036c.71-1.168 1.791-1.757 3.231-1.757 1.135 0 2.07.46 2.827 1.37.774.92 1.152 2.117 1.152 3.616zm-2.17.074c0-.957-.206-1.739-.63-2.355-.459-.644-1.08-.966-1.854-.966-.522 0-.999.184-1.431.533a2.473 2.473 0 00-.837 1.399 3.04 3.04 0 00-.1.662v1.638c0 .708.217 1.315.64 1.803.423.487.98.736 1.665.736.801 0 1.422-.322 1.873-.948.45-.635.675-1.463.675-2.502zm13.186-.074c0 1.665-.44 2.981-1.331 3.947-.793.865-1.783 1.288-2.953 1.288-1.27 0-2.178-.46-2.737-1.39v5.144h-2.133V27.333c0-1.048-.027-2.116-.08-3.22h1.872l.116 1.555h.036c.712-1.168 1.792-1.757 3.232-1.757 1.134 0 2.07.46 2.826 1.37.775.92 1.153 2.117 1.153 3.616zm-2.169.074c0-.957-.207-1.739-.63-2.355-.459-.644-1.08-.966-1.854-.966-.522 0-1 .184-1.431.533a2.523 2.523 0 00-.838 1.399 3.04 3.04 0 00-.099.662v1.638c0 .708.217 1.315.64 1.803.423.487.98.736 1.665.736.801 0 1.431-.322 1.872-.948.46-.635.675-1.463.675-2.502zm14.502 1.131c0 1.16-.396 2.098-1.18 2.825-.863.791-2.07 1.187-3.618 1.187-1.43 0-2.574-.286-3.438-.847l.495-1.812a5.881 5.881 0 003.078.846c.802 0 1.432-.184 1.873-.552.45-.368.675-.865.675-1.481 0-.552-.19-1.012-.55-1.39-.368-.376-.98-.726-1.836-1.048-2.349-.892-3.51-2.19-3.51-3.892 0-1.113.414-2.024 1.233-2.741.82-.709 1.908-1.067 3.267-1.067 1.207 0 2.215.211 3.016.644l-.54 1.766c-.756-.414-1.602-.626-2.556-.626-.748 0-1.342.194-1.765.562-.35.34-.53.745-.53 1.232 0 .534.206.985.611 1.325.351.322 1 .672 1.936 1.049 1.143.47 1.98 1.021 2.52 1.656.549.635.82 1.426.82 2.364zm7.057-4.352h-2.35v4.757c0 1.205.415 1.813 1.243 1.813.378 0 .693-.037.945-.102l.063 1.656c-.423.157-.972.24-1.656.24-.846 0-1.494-.267-1.971-.792-.477-.524-.712-1.407-.712-2.64v-4.94h-1.395v-1.629h1.395V22.32l2.089-.644v2.438h2.35v1.638zm10.568 3.184c0 1.51-.423 2.742-1.26 3.708-.882.994-2.053 1.49-3.51 1.49-1.405 0-2.53-.478-3.367-1.426-.837-.947-1.252-2.152-1.252-3.606 0-1.518.433-2.76 1.287-3.726.865-.966 2.026-1.454 3.484-1.454 1.404 0 2.539.479 3.394 1.436.819.92 1.224 2.116 1.224 3.578zm-2.205.046c0-.901-.19-1.665-.568-2.309-.45-.782-1.089-1.168-1.917-1.168-.855 0-1.512.386-1.953 1.168-.387.644-.567 1.426-.567 2.355 0 .902.189 1.675.567 2.31.459.782 1.107 1.168 1.935 1.168.81 0 1.449-.396 1.917-1.187.387-.662.586-1.435.586-2.337zm9.136-2.953a3.862 3.862 0 00-.675-.055c-.747 0-1.332.285-1.737.864-.351.507-.531 1.16-.531 1.933v5.142h-2.133v-6.716c0-1.131-.018-2.162-.063-3.082h1.854l.081 1.877h.063c.225-.644.576-1.168 1.062-1.555.477-.35.99-.524 1.539-.524.198 0 .378.018.531.037l.009 2.079zm9.524 2.52c0 .387-.027.718-.081.985h-6.391c.027.966.333 1.71.927 2.217.54.45 1.233.68 2.088.68.945 0 1.81-.156 2.583-.46l.334 1.51c-.909.404-1.981.607-3.214.607-1.485 0-2.655-.451-3.501-1.344-.847-.892-1.27-2.097-1.27-3.597 0-1.472.396-2.705 1.188-3.689.829-1.049 1.945-1.573 3.349-1.573 1.377 0 2.431.524 3.132 1.573.568.846.856 1.868.856 3.091zm-2.035-.561c.018-.644-.126-1.205-.414-1.674-.369-.608-.936-.911-1.692-.911-.693 0-1.26.294-1.692.883-.351.47-.567 1.04-.63 1.693l4.428.009zm-72.548-13.77v1.05c-.333.18-.706.27-1.116.27-.658 0-1.209-.214-1.65-.643-.483-.475-.724-1.062-.724-1.763 0-.746.241-1.348.724-1.804.423-.406.976-.608 1.657-.608.397 0 .766.094 1.11.283v1.05c-.294-.345-.657-.518-1.09-.518-.442 0-.803.16-1.082.477a1.66 1.66 0 00-.413 1.134c0 .484.154.869.46 1.155.307.28.663.421 1.07.421.423 0 .775-.168 1.054-.504zm2.026-3.395v1.95l1.658-1.95h1.109l-1.908 2.13 2.01 2.481h-1.164l-1.603-2.067-.102.104v1.963h-.88v-4.61h.88zm6.897 4.611l-.4-.968H53.18l-.4.968h-.953l1.941-4.61h.69l1.888 4.61h-.947zm-1.942-1.7h1.286l-.643-1.66-.643 1.66zm5.763 1.7v-1.838a7.834 7.834 0 01-.805.048c-.546 0-.947-.1-1.204-.297-.303-.23-.453-.6-.453-1.107v-1.417h.879v1.258c0 .305.074.517.223.636.13.102.345.153.643.153.257 0 .496-.017.717-.049v-1.998h.879v4.611h-.88zm5.317 0l-.399-.968h-1.82l-.398.968h-.954l1.941-4.61h.69l1.887 4.61h-.947zm-1.94-1.7h1.284l-.642-1.66-.643 1.66zm5.976-2.136h-1.014v3.836h-.88v-3.836h-1.015v-.775h2.91v.775zm.896 3.836v-4.61h.88v1.804h.703c.468 0 .838.126 1.11.38.278.262.418.606.418 1.03 0 .313-.08.59-.243.83-.253.377-.679.566-1.278.566h-1.59zm.88-2.032v1.258h.513c.541 0 .812-.207.812-.622a.62.62 0 00-.183-.45c-.117-.124-.322-.186-.615-.186h-.528zm5.134-2.579h1.116c.492 0 .859.097 1.103.29.28.222.419.54.419.955 0 .41-.17.712-.508.905.23.037.427.134.59.29.216.213.324.5.324.865 0 .387-.129.698-.386.933-.275.249-.656.373-1.143.373h-1.515v-4.61zm.88.733v1.182h.371a.95.95 0 00.17-.041.611.611 0 00.189-.09.529.529 0 00.142-.18c.04-.083.06-.18.06-.29 0-.198-.063-.344-.189-.436a.778.778 0 00-.487-.145h-.257zm0 1.874V14.7h.378c.261 0 .462-.042.602-.125.185-.11.277-.288.277-.532a.534.534 0 00-.331-.526c-.126-.06-.327-.09-.602-.09h-.325z" fill="#000"/></svg>