<svg width="133" height="46" fill="none" xmlns="http://www.w3.org/2000/svg"><path d="M5.425 0h122.15c2.979 0 5.401 2.475 5.401 5.52v34.96c0 3.045-2.422 5.52-5.401 5.52H5.425c-2.98 0-5.4-2.475-5.4-5.52V5.52c0-3.045 2.42-5.52 5.4-5.52z" fill="#fff"/><path d="M28.282 18.592L14.54 10.608c-.847-.481-1.506-.385-1.976.096L24.33 22.633l3.953-4.04z" fill="url(#paint0_linear_20714_1723)"/><path opacity=".2" d="M28.188 26.577l-13.649 7.888c-.753.481-1.412.385-1.882 0l-.095.096.095.097c.47.385 1.13.48 1.882 0l13.649-8.08z" fill="#000"/><path opacity=".12" d="M12.562 34.465c-.282-.289-.377-.77-.377-1.347v.097c0 .577.189 1.058.471 1.346v-.096h-.094zm20.332-10.582l-4.706 2.694.094.096 4.612-2.693c.659-.385.941-.866.941-1.347 0 .48-.376.866-.94 1.25z" fill="#000"/><path d="M66.875 24.364c-2.26 0-4.048 1.732-4.048 4.137 0 2.309 1.788 4.136 4.048 4.136 2.259 0 4.047-1.731 4.047-4.136 0-2.501-1.788-4.137-4.047-4.137zm0 6.542c-1.224 0-2.26-1.058-2.26-2.501 0-1.443 1.036-2.502 2.26-2.502 1.223 0 2.259.963 2.259 2.502 0 1.442-1.036 2.5-2.26 2.5zm-8.755-6.542c-2.258 0-4.047 1.732-4.047 4.137 0 2.309 1.788 4.136 4.047 4.136 2.26 0 4.048-1.731 4.048-4.136 0-2.501-1.788-4.137-4.047-4.137zm0 6.542c-1.223 0-2.258-1.058-2.258-2.501 0-1.443 1.035-2.502 2.258-2.502 1.224 0 2.26.963 2.26 2.502 0 1.442-1.036 2.5-2.26 2.5zm-10.448-5.291v1.732h4.048c-.094.961-.47 1.731-.941 2.212-.565.577-1.507 1.25-3.107 1.25-2.541 0-4.424-2.02-4.424-4.617s1.977-4.617 4.424-4.617c1.318 0 2.354.577 3.107 1.25l1.223-1.25c-1.035-.962-2.353-1.732-4.236-1.732-3.388 0-6.306 2.886-6.306 6.35 0 3.462 2.918 6.348 6.306 6.348 1.883 0 3.2-.577 4.33-1.827 1.13-1.155 1.506-2.79 1.506-4.04 0-.386 0-.77-.094-1.06h-5.836zm42.735 1.347c-.376-.962-1.318-2.598-3.389-2.598-2.07 0-3.765 1.636-3.765 4.137 0 2.309 1.695 4.136 3.954 4.136 1.788 0 2.918-1.154 3.294-1.827l-1.318-.962c-.47.673-1.035 1.154-1.977 1.154-.94 0-1.505-.385-1.976-1.25l5.365-2.31-.188-.48zm-5.46 1.346c0-1.539 1.224-2.404 2.071-2.404.66 0 1.318.384 1.506.865l-3.576 1.54zm-4.424 3.944h1.789V20.228h-1.789v12.024zM77.7 25.23c-.471-.48-1.224-.962-2.166-.962-1.976 0-3.859 1.828-3.859 4.137 0 2.308 1.789 4.04 3.86 4.04.94 0 1.694-.48 2.07-.962h.095v.577c0 1.54-.848 2.405-2.166 2.405-1.035 0-1.788-.77-1.976-1.443l-1.506.673c.47 1.059 1.6 2.405 3.577 2.405 2.07 0 3.765-1.25 3.765-4.232v-7.311H77.7v.673zm-2.071 5.676c-1.224 0-2.26-1.058-2.26-2.501 0-1.443 1.036-2.502 2.26-2.502 1.223 0 2.165 1.059 2.165 2.502 0 1.442-.942 2.5-2.165 2.5zm22.967-10.678H94.36v12.024h1.789v-4.52h2.447c1.977 0 3.86-1.444 3.86-3.752 0-2.31-1.883-3.752-3.86-3.752zM98.69 26h-2.54v-4.137h2.541c1.318 0 2.071 1.154 2.071 2.02-.094 1.059-.847 2.117-2.07 2.117zm10.825-1.732c-1.317 0-2.635.577-3.106 1.828l1.6.673c.377-.673.942-.865 1.6-.865.942 0 1.789.577 1.883 1.539v.096c-.282-.193-1.035-.481-1.788-.481-1.695 0-3.389.962-3.389 2.693 0 1.636 1.412 2.694 2.918 2.694 1.224 0 1.788-.577 2.259-1.154h.094v.961h1.695v-4.617c-.189-2.116-1.789-3.367-3.766-3.367zm-.188 6.638c-.565 0-1.412-.289-1.412-1.058 0-.962 1.036-1.251 1.883-1.251.753 0 1.129.192 1.6.385-.188 1.154-1.13 1.924-2.071 1.924zm9.884-6.35l-1.977 5.195h-.094l-2.071-5.194h-1.882l3.106 7.31-1.789 4.041h1.789l4.8-11.351h-1.882zm-15.814 7.696h1.788V20.228h-1.788v12.024z" fill="#000"/><path d="M12.562 10.608c-.282.288-.377.77-.377 1.347v21.26c0 .577.189 1.058.471 1.346l.094.097 11.672-11.93v-.192l-11.86-11.928z" fill="url(#paint1_linear_20714_1723)"/><path d="M28.187 26.77l-3.859-3.945v-.288l3.86-3.945.094.097 4.612 2.693c1.318.77 1.318 2.02 0 2.79l-4.707 2.597z" fill="url(#paint2_linear_20714_1723)"/><path d="M28.282 26.673l-3.953-4.04-11.767 12.025c.471.48 1.13.48 1.977.096l13.743-8.08z" fill="url(#paint3_linear_20714_1723)"/><path opacity=".25" d="M14.539 10.704l18.355 10.678c.565.385.941.77.941 1.25 0-.48-.282-.961-.94-1.346L14.538 10.608c-1.318-.77-2.354-.193-2.354 1.347v.096c0-1.443 1.036-2.116 2.354-1.347z" fill="#000"/><path d="M46.475 14.216v1.05c-.333.18-.706.27-1.116.27-.658 0-1.209-.214-1.65-.643-.483-.475-.724-1.062-.724-1.763 0-.746.241-1.348.724-1.804.423-.406.976-.608 1.657-.608.397 0 .766.094 1.11.283v1.05c-.294-.345-.657-.518-1.09-.518-.442 0-.803.16-1.082.477a1.66 1.66 0 00-.413 1.134c0 .484.154.869.46 1.155.307.28.663.421 1.07.421.423 0 .775-.168 1.054-.504zm2.026-3.395v1.95l1.658-1.95h1.109l-1.908 2.13 2.01 2.481h-1.164l-1.603-2.067-.102.104v1.963h-.88v-4.61h.88zm6.897 4.611l-.4-.968H53.18l-.4.968h-.953l1.941-4.61h.69l1.888 4.61h-.947zm-1.942-1.7h1.286l-.643-1.66-.643 1.66zm5.763 1.7v-1.838a7.834 7.834 0 01-.805.048c-.546 0-.947-.1-1.204-.297-.303-.23-.453-.6-.453-1.107v-1.417h.879v1.258c0 .305.074.517.223.636.13.102.345.153.643.153.257 0 .496-.017.717-.049v-1.998h.879v4.611h-.88zm5.317 0l-.399-.968h-1.82l-.398.968h-.954l1.941-4.61h.69l1.887 4.61h-.947zm-1.94-1.7h1.284l-.642-1.66-.643 1.66zm5.976-2.136h-1.014v3.836h-.88v-3.836h-1.015v-.775h2.91v.775zm.896 3.836v-4.61h.88v1.804h.703c.468 0 .838.126 1.11.38.278.262.418.606.418 1.03 0 .313-.08.59-.243.83-.253.377-.679.566-1.278.566h-1.59zm.88-2.032v1.258h.513c.541 0 .812-.207.812-.622a.62.62 0 00-.183-.45c-.117-.124-.322-.186-.615-.186h-.528zm5.134-2.579h1.116c.492 0 .859.097 1.103.29.28.222.419.54.419.955 0 .41-.17.712-.508.905.23.037.427.134.59.29.216.213.324.5.324.865 0 .387-.129.698-.386.933-.275.249-.656.373-1.143.373h-1.515v-4.61zm.88.733v1.182h.371a.95.95 0 00.17-.041.611.611 0 00.189-.09.529.529 0 00.142-.18c.04-.083.06-.18.06-.29 0-.198-.063-.344-.189-.436a.778.778 0 00-.487-.145h-.257zm0 1.874V14.7h.378c.261 0 .462-.042.602-.125.185-.11.277-.288.277-.532a.534.534 0 00-.331-.526c-.126-.06-.327-.09-.602-.09h-.325z" fill="#000"/><defs><linearGradient id="paint0_linear_20714_1723" x1="9.642" y1="3.562" x2="19.416" y2="13.127" gradientUnits="userSpaceOnUse"><stop stop-color="#32A071"/><stop offset=".069" stop-color="#2DA771"/><stop offset=".476" stop-color="#15CF74"/><stop offset=".801" stop-color="#06E775"/><stop offset="1" stop-color="#00F076"/></linearGradient><linearGradient id="paint1_linear_20714_1723" x1="23.293" y1="11.772" x2="7.152" y2="27.565" gradientUnits="userSpaceOnUse"><stop stop-color="#00A0FF"/><stop offset=".007" stop-color="#00A1FF"/><stop offset=".26" stop-color="#00BEFF"/><stop offset=".512" stop-color="#00D2FF"/><stop offset=".76" stop-color="#00DFFF"/><stop offset="1" stop-color="#00E3FF"/></linearGradient><linearGradient id="paint2_linear_20714_1723" x1="34.62" y1="22.634" x2="11.844" y2="22.634" gradientUnits="userSpaceOnUse"><stop stop-color="#FFE000"/><stop offset=".409" stop-color="#FFBD00"/><stop offset=".775" stop-color="orange"/><stop offset="1" stop-color="#FF9C00"/></linearGradient><linearGradient id="paint3_linear_20714_1723" x1="26.143" y1="24.841" x2="4.255" y2="46.258" gradientUnits="userSpaceOnUse"><stop stop-color="#FF3A44"/><stop offset="1" stop-color="#C31162"/></linearGradient></defs></svg>