<svg width="24" height="24" fill="none" xmlns="http://www.w3.org/2000/svg"><path d="M15.585 4h-7.17A4.42 4.42 0 004 8.415v7.17A4.42 4.42 0 008.415 20h7.17A4.42 4.42 0 0020 15.585v-7.17A4.42 4.42 0 0015.585 4zm2.995 11.585a3 3 0 01-2.995 2.995h-7.17a3 3 0 01-2.995-2.995v-7.17A3 3 0 018.415 5.42h7.17a3 3 0 012.995 2.995v7.17z" fill="#fff"/><path d="M12 7.877A4.127 4.127 0 007.877 12 4.127 4.127 0 0012 16.123 4.127 4.127 0 0016.123 12 4.127 4.127 0 0012 7.877zm0 6.826A2.706 2.706 0 019.297 12 2.706 2.706 0 0112 9.297 2.706 2.706 0 0114.703 12 2.706 2.706 0 0112 14.703zm4.296-8.029a1.045 1.045 0 00-1.041 1.04c0 .274.111.543.305.737.193.193.462.305.736.305.274 0 .542-.112.736-.305a1.046 1.046 0 000-1.473 1.046 1.046 0 00-.736-.304z" fill="#fff"/></svg>