<svg width="50" height="62" fill="none" xmlns="http://www.w3.org/2000/svg"><path d="M43.5 61.834h-37a6.167 6.167 0 01-6.167-6.167V6.334A6.167 6.167 0 016.5.167h21.584a.323.323 0 01.083 0h.018c.03.009.06.015.09.018.272.018.54.07.798.158h.13c.057.04.11.084.16.132.336.15.642.358.904.617l18.5 18.5c.258.261.467.567.616.903.028.068.05.133.071.204l.03.086a3 3 0 01.152.796c.003.03.01.06.022.089v.018a.33.33 0 01.009.062v33.917a6.167 6.167 0 01-6.167 6.166zM32.474 37.166v15.416h2.899v-6.29h4.501V43.71h-4.502v-3.95h5.045v-2.593h-7.943zm-11.408 0v15.416h3.718a5.152 5.152 0 004.107-1.726 7.091 7.091 0 001.499-4.776v-2.498a7.055 7.055 0 00-1.542-4.705 5.045 5.045 0 00-3.987-1.711h-3.795zm-11.482 0v15.416h2.898V47.16h1.93a4.57 4.57 0 003.466-1.313 4.989 4.989 0 001.264-3.577 5.32 5.32 0 00-1.27-3.682 4.317 4.317 0 00-3.401-1.421H9.584zm18.5-30.833V21.75H43.5L28.084 6.334zM24.834 50h-.87V39.76h1.055a2.207 2.207 0 011.911.9c.452.935.646 1.974.561 3.01v2.679a5.214 5.214 0 01-.616 2.84 2.359 2.359 0 01-2.041.81zM14.47 44.567h-1.992V39.76h2.02c.503.005.97.27 1.233.7.333.55.494 1.188.462 1.831.039.6-.12 1.196-.453 1.696-.307.385-.779.6-1.27.58z" fill="#6D89AF"/></svg>