<svg width="20" height="20" fill="none" xmlns="http://www.w3.org/2000/svg"><mask id="a" fill="#fff"><path d="M10.8.851a.834.834 0 01.834-.833 8.343 8.343 0 018.333 8.333.834.834 0 01-1.666 0 6.674 6.674 0 00-6.667-6.666.833.833 0 01-.833-.834zm.834 4.167a3.333 3.333 0 013.333 3.333.833.833 0 101.667 0 5.005 5.005 0 00-5-5 .833.833 0 000 1.667zm7.578 8.95a2.584 2.584 0 010 3.647l-.759.875c-6.825 6.534-23.433-10.07-17-16.917L2.412.74a2.568 2.568 0 013.605.033c.026.026 1.57 2.032 1.57 2.032a2.583 2.583 0 01-.005 3.568l-.965 1.213a10.65 10.65 0 005.775 5.788l1.221-.971a2.584 2.584 0 013.568-.005s2.005 1.543 2.03 1.57zm-1.147 1.21s-1.994-1.533-2.02-1.56a.916.916 0 00-1.29 0c-.023.024-1.704 1.363-1.704 1.363a.834.834 0 01-.816.127 12.508 12.508 0 01-7.35-7.34.833.833 0 01.12-.833s1.34-1.682 1.362-1.704a.917.917 0 000-1.29c-.026-.026-1.56-2.021-1.56-2.021a.917.917 0 00-1.259.032l-.958.833c-4.702 5.654 9.69 19.248 14.645 14.566l.76-.875a.934.934 0 00.07-1.297z"/></mask><path d="M10.8.851a.834.834 0 01.834-.833 8.343 8.343 0 018.333 8.333.834.834 0 01-1.666 0 6.674 6.674 0 00-6.667-6.666.833.833 0 01-.833-.834zm.834 4.167a3.333 3.333 0 013.333 3.333.833.833 0 101.667 0 5.005 5.005 0 00-5-5 .833.833 0 000 1.667zm7.578 8.95a2.584 2.584 0 010 3.647l-.759.875c-6.825 6.534-23.433-10.07-17-16.917L2.412.74a2.568 2.568 0 013.605.033c.026.026 1.57 2.032 1.57 2.032a2.583 2.583 0 01-.005 3.568l-.965 1.213a10.65 10.65 0 005.775 5.788l1.221-.971a2.584 2.584 0 013.568-.005s2.005 1.543 2.03 1.57zm-1.147 1.21s-1.994-1.533-2.02-1.56a.916.916 0 00-1.29 0c-.023.024-1.704 1.363-1.704 1.363a.834.834 0 01-.816.127 12.508 12.508 0 01-7.35-7.34.833.833 0 01.12-.833s1.34-1.682 1.362-1.704a.917.917 0 000-1.29c-.026-.026-1.56-2.021-1.56-2.021a.917.917 0 00-1.259.032l-.958.833c-4.702 5.654 9.69 19.248 14.645 14.566l.76-.875a.934.934 0 00.07-1.297z" fill="#C60C30"/><path d="M11.634.018l.024-21.333h-.024V.018zm8.333 8.333h21.334v-.023l-21.334.023zm-1.666 0h21.333v-.024l-21.333.024zm-6.667-6.666l.024-21.334h-.024V1.685zm5 6.666h21.333V8.33l-21.333.021zm-5-5l.021-21.333h-.02V3.35zm7.578 10.616L34.317-1.097l-.01-.01-.01-.01-15.085 15.084zm.754 1.824H-1.368h21.334zm-.754 1.824L4.106 2.551l-.524.525-.485.56 16.115 13.98zm-.759.875L33.206 33.9l.714-.684.648-.747-16.115-13.98zm-17-16.917l-13.998-16.098-.812.706-.737.784L1.453 1.573zM2.412.74L16.41 16.838l.431-.375.41-.397L2.412.74zm3.605.033l-15.12 15.049.018.018.017.018L6.017.773zm1.57 2.032L-9.317 15.818l.682.886.77.81L7.587 2.803zm-.005 3.568L-7.822-8.386l-.68.71-.613.77L7.582 6.373zm-.965 1.213L-10.08-5.693l-7.801 9.809 4.77 11.59 19.728-8.12zm5.775 5.788L4.233 33.085 15.84 37.89l9.832-7.818-13.279-16.697zm1.221-.971L26.891 29.1l.767-.61.707-.676-14.752-15.411zm3.568-.005L2.472 27.85l6.179 5.881h8.53V12.398zm-1.136 1.22L31.13-1.465l-.032-.032-.032-.032L16.045 13.62zm-1.29 0L-.268-1.53l-.17.168-.166.173 15.357 14.808zm-1.704 1.363l13.286 16.692.007-.007-13.293-16.685zm-.816.127l7.6-19.934-.078-.03-.078-.029-7.444 19.993zm-7.35-7.34L24.864.295l-.103-.278-.111-.274L4.884 7.768zm.12-.833l16.673 13.308.008-.01.007-.009L5.005 6.934zM6.367 5.23l14.797 15.367.178-.171.174-.175-15.15-15.02zm.265-.645h21.334H6.632zm-.265-.646l15.149-15.02-.155-.157-.159-.153L6.367 3.94zm-1.56-2.02L21.72-11.082l-1.202-1.564-1.47-1.318L4.808 1.92zm-1.259.032L17.547 18.05l.538-.468.506-.503L3.548 1.952zm-.958.833l-13.998-16.098-1.302 1.132-1.102 1.325L2.59 2.785zM17.235 17.35l14.652 15.506.769-.727.693-.798-16.114-13.98zm.76-.875L3.496.826l-.854.79-.763.88 16.114 13.98zM32.134.851a20.5 20.5 0 01-6.005 14.496l-30.17-30.17A22.167 22.167 0 00-10.533.851h42.667zM26.13 15.347a20.5 20.5 0 01-14.496 6.004v-42.666A22.166 22.166 0 00-4.04-14.823l30.17 30.17zm-14.52 6.004a12.99 12.99 0 01-9.171-3.805l30.17-30.17a29.676 29.676 0 00-20.952-8.691l-.046 42.666zm-9.17-3.805a12.99 12.99 0 01-3.805-9.171l42.667-.047a29.676 29.676 0 00-8.692-20.952L2.44 17.546zm-3.805-9.195A20.5 20.5 0 014.638-6.144l30.17 30.17A22.167 22.167 0 0041.301 8.35H-1.366zM4.638-6.144a20.5 20.5 0 0114.496-6.005v42.667a22.167 22.167 0 0015.674-6.492L4.638-6.145zm14.496-6.005A20.5 20.5 0 0133.63-6.144L3.46 24.026a22.167 22.167 0 0015.674 6.492V-12.15zM33.63-6.144A20.5 20.5 0 0139.634 8.35H-3.033A22.167 22.167 0 003.46 24.026l30.17-30.17zm6.004 14.471a28.007 28.007 0 00-8.203-19.773L1.26 18.725a14.66 14.66 0 01-4.293-10.35l42.667-.048zm-8.203-19.773a28.007 28.007 0 00-19.773-8.203l-.048 42.667a14.66 14.66 0 01-10.349-4.294l30.17-30.17zm-19.797-8.203a20.5 20.5 0 0114.496 6.005l-30.17 30.17a22.167 22.167 0 0015.674 6.492V-19.65zm14.496 6.005A20.5 20.5 0 0132.134.85h-42.667A22.167 22.167 0 00-4.04 16.526l30.17-30.17zM11.634 26.35a18 18 0 01-12.728-5.27l30.17-30.17a24.667 24.667 0 00-17.442-7.224V26.35zm-12.728-5.27A18 18 0 01-6.366 8.351h42.667A24.667 24.667 0 0029.076-9.09l-30.17 30.17zM-6.366 8.351A22.167 22.167 0 00.127 24.026l30.17-30.17A20.5 20.5 0 0136.3 8.35H-6.366zM.127 24.026A22.167 22.167 0 0015.8 30.518V-12.15a20.5 20.5 0 0114.496 6.005L.127 24.026zM15.8 30.518a22.167 22.167 0 0015.674-6.492L1.305-6.145a20.5 20.5 0 0114.496-6.005v42.667zm15.674-6.492A22.167 22.167 0 0037.967 8.35H-4.699A20.5 20.5 0 011.305-6.144l30.17 30.17zM37.967 8.33a26.338 26.338 0 00-7.714-18.598L.083 19.902a16.328 16.328 0 01-4.782-11.53l42.666-.042zm-7.714-18.598a26.338 26.338 0 00-18.598-7.714l-.042 42.667a16.328 16.328 0 01-11.53-4.783l30.17-30.17zm-18.619-7.714A22.167 22.167 0 00-4.04-11.49l30.17 30.17a20.5 20.5 0 01-14.496 6.005v-42.667zM-4.04-11.49a22.167 22.167 0 00-6.493 15.675h42.667A20.5 20.5 0 0126.13 18.68L-4.04-11.49zm-6.493 15.675A22.167 22.167 0 00-4.04 19.859l30.17-30.17a20.5 20.5 0 016.004 14.496h-42.667zm6.493 15.674a22.167 22.167 0 0015.674 6.492v-42.666a20.5 20.5 0 0114.496 6.004l-30.17 30.17zm8.146 9.172a18.75 18.75 0 01-5.474-13.24H41.3c0-6.331-2.51-12.405-6.982-16.888L4.106 29.031zm-5.474-13.24a18.75 18.75 0 015.474-13.24L34.317 32.68A23.917 23.917 0 0041.3 15.791H-1.368zM3.097 3.636l-.759.874 32.23 27.96.758-.875L3.096 3.636zM3.7 3.08a16.066 16.066 0 018.753-4.275c2.772-.4 4.843.065 5.844.374 1.782.55 2.149 1.164 1.75.765-.396-.394.197-.05.742 1.689.306.975.78 3.013.409 5.758A16.076 16.076 0 0117 16.181l-31.094-29.216c-8.77 9.334-7.929 20.745-5.824 27.449 2.064 6.573 6.028 11.944 9.834 15.74 3.802 3.792 9.198 7.76 15.813 9.799 6.797 2.094 18.222 2.807 27.477-6.054L3.7 3.08zm11.752 14.59l.958-.833-27.997-32.197-.958.834L15.452 17.67zm1.8-1.605a18.766 18.766 0 01-13.228 5.283l.395-42.665a23.9 23.9 0 00-16.847 6.73l29.68 30.652zM4.024 21.349a18.766 18.766 0 01-13.127-5.527l30.241-30.098a23.901 23.901 0 00-16.72-7.04L4.025 21.35zm-13.092-5.491c-.534-.535-.925-.986-.982-1.05a21.686 21.686 0 01-.65-.782l-.031-.04.136.175a626.441 626.441 0 011.04 1.349l.173.224.049.063.012.016.003.004v.001h.001L7.587 2.805 24.492-10.21l-.002-.002-.003-.004-.013-.018-.05-.064a1810.686 1810.686 0 00-.72-.933l-.562-.729a119.595 119.595 0 00-.364-.467 23.853 23.853 0 00-.692-.833 20.446 20.446 0 00-.984-1.053l-30.17 30.17zm1.203 1.655a18.75 18.75 0 01-5.169-12.958l42.667.07a23.916 23.916 0 00-6.593-16.529L-7.865 17.513zm-5.169-12.958A18.75 18.75 0 01-7.822-8.386l30.808 29.518a23.916 23.916 0 006.647-16.507l-42.667-.07zm3.92-11.461l-.966 1.213 33.393 26.559.965-1.214L-9.115-6.906zm-3.997 22.611a31.985 31.985 0 006.938 10.421l30.2-30.14a10.683 10.683 0 012.317 3.481L-13.11 15.706zm6.938 10.421a31.984 31.984 0 0010.406 6.96L20.552-6.339c1.3.539 2.481 1.328 3.475 2.325l-30.2 30.14zm31.844 3.945l1.22-.97L.335-4.295l-1.22.97L25.67 30.071zm2.694-2.257a18.75 18.75 0 01-12.94 5.205l-.059-42.667a23.917 23.917 0 00-16.505 6.64l29.504 30.822zm-12.94 5.205A18.75 18.75 0 012.473 27.85L31.89-3.054a23.917 23.917 0 00-16.524-6.594l.06 42.667zm1.756-20.621L4.168 29.303l.001.001.004.003.017.013.062.048c.054.041.132.1.225.173l.681.525a570.76 570.76 0 01.842.65c.018.015-.002 0-.04-.031l-.165-.132a20.833 20.833 0 01-.618-.519c-.064-.056-.516-.447-1.05-.982l30.17-30.17c-.536-.535-.987-.926-1.053-.984a21.631 21.631 0 00-1.01-.83 557.028 557.028 0 00-1.722-1.33l-.23-.177-.065-.05a4.54 4.54 0 00-.023-.018L17.18 12.398zm.884 2.78L31.073-1.73h-.001l-.004-.004-.016-.012a26.186 26.186 0 01-.286-.22 1175.062 1175.062 0 01-1.34-1.033l-.173-.135.04.033.167.132a20.706 20.706 0 01.62.521c.066.058.516.448 1.05.982L.96 28.704c.534.534.985.924 1.052.983a21.265 21.265 0 001.013.833l.292.226a447.848 447.848 0 001.422 1.097l.23.177.064.05.018.013.004.003a.032.032 0 00.002.001L18.065 15.18zm13-16.708A22.25 22.25 0 0015.4-7.98v42.666a20.417 20.417 0 01-14.375-5.918L31.065-1.53zM15.4-7.98A22.25 22.25 0 00-.267-1.53l30.042 30.298A20.417 20.417 0 0115.4 34.686V-7.98zM-.602-1.19c.516-.534.95-.925 1.023-.991a21.242 21.242 0 01.625-.545l.173-.143.054-.045-.135.109a399.571 399.571 0 01-1.122.896l-.188.15-.052.041a65.187 65.187 0 00-.018.014l13.294 16.685 13.293 16.685h.002c0-.002.002-.003.004-.004l.014-.011.055-.044.194-.155a778.112 778.112 0 001.464-1.17l.168-.137a21.769 21.769 0 00.842-.725c.073-.066.508-.458 1.024-.993L-.603-1.189zm.368-.52a20.5 20.5 0 019.622-4.218l6.546 42.161a22.167 22.167 0 0010.404-4.56L-.235-1.71zm9.622-4.218a20.5 20.5 0 0110.447 1.102l-15.2 39.868a22.167 22.167 0 0011.298 1.191L9.387-5.928zM19.68-4.885a8.827 8.827 0 013.156 2.026L-7.312 27.333A33.84 33.84 0 004.79 35.1L19.68-4.885zm3.156 2.026a8.827 8.827 0 012.03 3.154L-15.096 15.24a33.84 33.84 0 007.785 12.092L22.835-2.859zm1.816 2.602a20.5 20.5 0 011.293 10.653L-16.28 4.274a22.166 22.166 0 001.399 11.519L24.65-.257zm1.293 10.653a20.5 20.5 0 01-4.266 9.847L-11.668-6.374a22.166 22.166 0 00-4.613 10.648l42.225 6.122zM5.004 6.935l16.69 13.29v-.001c0-.002.002-.003.003-.004l.01-.014a68.165 68.165 0 00.192-.24 1835.197 1835.197 0 01.896-1.123l.11-.137-.042.052-.14.17a20.678 20.678 0 01-.542.621c-.06.067-.464.517-1.017 1.05L-8.43-10.137c-.553.533-.958.984-1.018 1.05a21.447 21.447 0 00-.853 1.001l-.205.255a461.2 461.2 0 00-1.117 1.4l-.043.055-.012.015a.705.705 0 01-.004.005L5.005 6.935zm16.512 13.317a22.25 22.25 0 006.45-15.666h-42.667A20.416 20.416 0 01-8.782-9.79l30.298 30.04zm6.45-15.666a22.25 22.25 0 00-6.45-15.666L-8.782 18.96a20.416 20.416 0 01-5.919-14.375h42.667zM21.202-11.39a21.647 21.647 0 011.721 1.877c.08.098.138.172.15.188l.042.053-.13-.167a403.297 403.297 0 01-1.029-1.336l-.172-.223-.047-.063a1.77 1.77 0 00-.013-.016l-.003-.004-16.914 13-16.914 13.002.001.002.004.004.013.018.05.064.176.23.54.7a439.15 439.15 0 00.792 1.026l.147.188.18.224a21.566 21.566 0 00.602.71c.063.07.513.584 1.133 1.184l29.671-30.66zm-2.153-2.574A22.25 22.25 0 003.62-19.64l1.102 42.652a20.417 20.417 0 01-14.157-5.21l28.484-31.766zM3.62-19.64a22.25 22.25 0 00-15.115 6.465L18.591 17.08a20.416 20.416 0 01-13.87 5.933l-1.1-42.653zm-14.07 5.494l-.959.833 27.997 32.197.959-.834-27.997-32.196zm-3.362 3.29c-8.244 9.912-5.991 21.169-3.909 26.6 2.19 5.709 5.846 10.3 9.16 13.515 3.316 3.215 7.956 6.668 13.582 8.677 4.982 1.78 16.962 4.28 26.866-5.08L2.582 1.847c7.428-7.02 15.751-4.463 16.788-4.092 1.681.6 2.087 1.179 1.773.874-.315-.305.316.12.974 1.837.551 1.438 2.768 8.875-3.125 15.96l-32.804-27.282zm47.16 42.188l.76-.875L1.88 2.496l-.759.875L33.35 31.33zm-.857.795a22.267 22.267 0 007.103-15.122L-3.01 14.679A20.4 20.4 0 013.497.825l28.994 31.302zm7.103-15.122a22.267 22.267 0 00-5.415-15.806L1.95 29.159c-3.47-4-5.248-9.193-4.96-14.48l42.604 2.326z" fill="#C60C30" mask="url(#a)"/></svg>