<svg width="14" height="14" fill="none" xmlns="http://www.w3.org/2000/svg"><path fill-rule="evenodd" clip-rule="evenodd" d="M1.906 2.373c.002 0-.032.035-.074.076-.161.157-.495.483-.498 1.165-.006.954.622 2.725 3.642 5.745C7.983 12.365 9.752 13 10.708 13h.014c.682-.003 1.007-.338 1.164-.498a1.58 1.58 0 01.114-.108c.664-.668 1.004-1.166 1-1.484-.004-.325-.408-.71-.968-1.242-.178-.17-.371-.354-.575-.558-.529-.527-.79-.437-1.367-.234-.796.28-1.89.66-3.588-1.04C4.8 6.135 5.18 5.043 5.46 4.246c.2-.576.293-.839-.236-1.368-.208-.207-.394-.403-.565-.583-.529-.556-.91-.958-1.233-.962H3.42c-.32 0-.815.341-1.517 1.043l.003-.003zM10.708 14c-1.661 0-3.827-1.322-6.438-3.932C1.648 7.447.324 5.273.334 3.609c.006-1.1.582-1.664.799-1.875.011-.014.05-.052.063-.065C2.152.712 2.796.325 3.438.333c.745.01 1.275.567 1.946 1.273.166.175.346.365.546.565.974.973.696 1.767.474 2.404-.243.696-.453 1.296.804 2.553 1.259 1.257 1.859 1.047 2.552.803.638-.223 1.43-.502 2.404.472.198.197.385.375.558.54.709.674 1.269 1.206 1.278 1.953.008.637-.378 1.285-1.333 2.24l-.423-.286.358.35c-.212.216-.774.793-1.875.8h-.019z" fill="#fff"/></svg>