<svg width="24" height="24" fill="none" xmlns="http://www.w3.org/2000/svg"><g clip-path="url(#clip0_2431:5789)" fill="#fff"><path d="M18.143 4.756c-.447-.413-2.255-1.725-6.28-1.743 0 0-4.749-.286-7.063 1.837-1.288 1.288-1.742 3.174-1.79 5.512-.047 2.337-.11 6.718 4.114 7.906h.004l-.003 1.813s-.027.734.456.883c.585.182.928-.376 1.486-.977.306-.33.73-.815 1.048-1.186 2.888.243 5.11-.312 5.362-.394.583-.19 3.883-.612 4.42-4.993.553-4.515-.269-7.37-1.754-8.658zm.49 8.334c-.454 3.658-3.13 3.888-3.623 4.046-.21.068-2.161.553-4.614.393 0 0-1.828 2.205-2.4 2.779-.089.09-.193.125-.263.108-.099-.024-.126-.14-.125-.31l.016-3.013s-.002 0 0 0c-3.572-.992-3.364-4.72-3.323-6.673.04-1.953.407-3.552 1.496-4.628 1.958-1.773 5.99-1.508 5.99-1.508 3.406.015 5.038 1.04 5.417 1.384 1.256 1.076 1.896 3.65 1.428 7.421v.001z"/><path fill-rule="evenodd" clip-rule="evenodd" d="M11.931 8.84a.228.228 0 01.24-.215c.47.024.86.167 1.138.454.278.287.414.688.438 1.169a.228.228 0 11-.455.022c-.02-.411-.134-.692-.31-.874-.175-.181-.442-.296-.835-.316a.228.228 0 01-.216-.24z"/><path fill-rule="evenodd" clip-rule="evenodd" d="M11.587 7.614a.228.228 0 01.243-.21c.956.07 1.726.396 2.287 1.008.554.606.818 1.36.799 2.244a.228.228 0 11-.456-.01c.017-.78-.212-1.416-.68-1.926-.465-.509-1.116-.799-1.983-.862a.228.228 0 01-.21-.244z"/><path fill-rule="evenodd" clip-rule="evenodd" d="M11.185 6.448c0-.126.103-.227.229-.226 1.321.01 2.438.449 3.335 1.323.904.882 1.351 2.082 1.363 3.572a.228.228 0 01-.456.004c-.01-1.397-.426-2.47-1.225-3.25-.807-.786-1.808-1.185-3.02-1.194a.228.228 0 01-.226-.229z"/><path d="M12.204 13.31s.32.026.492-.186l.336-.423c.162-.21.553-.343.936-.13.287.164.566.342.835.533.254.187.775.622.776.622.248.209.305.516.137.84l-.002.007a3.504 3.504 0 01-.699.861c-.003.002-.003.004-.006.005-.241.201-.478.316-.71.343a.946.946 0 01-.406-.04l-.008-.01c-.358-.102-.956-.354-1.951-.904a11.623 11.623 0 01-1.64-1.083 8.598 8.598 0 01-.738-.654l-.025-.025-.025-.025-.025-.025-.025-.025a8.601 8.601 0 01-.654-.738 11.637 11.637 0 01-1.083-1.64c-.55-.995-.802-1.593-.903-1.952l-.011-.007a.945.945 0 01-.04-.406c.029-.232.143-.469.344-.71l.004-.006c.248-.278.54-.514.861-.7l.007-.001c.324-.169.632-.112.84.135.002.002.436.522.622.776.192.27.37.549.533.836.213.383.08.775-.13.936l-.422.336c-.214.172-.186.492-.186.492s.626 2.37 2.966 2.967z"/></g><defs><clipPath id="clip0_2431:5789"><path fill="#fff" transform="translate(3 3)" d="M0 0h17.07v18H0z"/></clipPath></defs></svg>