<svg width="70" height="70" fill="none" xmlns="http://www.w3.org/2000/svg"><g clip-path="url(#clip0_162_7532)"><path d="M69.983 34.534a2.022 2.022 0 00-2.02-2.022l-12.992-.007a2.021 2.021 0 00-.002 4.043l12.992.007a2.021 2.021 0 002.022-2.02z" fill="#C60C30"/><path d="M18.017 34.508a2.022 2.022 0 00-2.02-2.022l-12.991-.007a2.022 2.022 0 00-.002 4.043l12.99.007a2.021 2.021 0 002.023-2.02zm35.357-7.975l11.254-6.49a2.021 2.021 0 10-2.02-3.503l-11.254 6.49a2.02 2.02 0 102.02 3.503zM8.358 52.493l11.253-6.49a2.021 2.021 0 10-2.02-3.502l-11.253 6.49a2.02 2.02 0 00-.741 2.761 2.022 2.022 0 002.76.741zm38.627-33.836L53.486 7.41a2.021 2.021 0 10-3.5-2.023l-6.502 11.248a2.02 2.02 0 103.5 2.023zM20.98 63.648L27.481 52.4a2.021 2.021 0 10-3.5-2.023L17.48 61.624a2.02 2.02 0 00.738 2.762 2.022 2.022 0 002.762-.738zM37.514 15.03l.006-12.99a2.021 2.021 0 10-4.043-.003l-.006 12.992a2.022 2.022 0 004.043.002z" fill="#B3B3B3"/><path d="M37.488 66.996l.007-12.99a2.021 2.021 0 10-4.043-.003l-.007 12.992a2.022 2.022 0 004.043.001z" fill="#C60C30"/><path d="M26.757 19.387a2.021 2.021 0 00.742-2.761L21.009 5.37a2.021 2.021 0 00-3.503 2.02l6.49 11.254a2.021 2.021 0 002.761.742z" fill="#B3B3B3"/><path d="M52.718 64.403a2.021 2.021 0 00.741-2.761l-6.49-11.254a2.021 2.021 0 10-3.502 2.02l6.49 11.254a2.021 2.021 0 002.76.741z" fill="#C60C30"/><path d="M20.361 25.777a2.021 2.021 0 00-.738-2.762L8.375 16.514a2.021 2.021 0 10-2.023 3.5L17.6 26.515a2.021 2.021 0 002.761-.738z" fill="#B3B3B3"/><path d="M65.352 51.782a2.021 2.021 0 00-.738-2.762l-11.248-6.501a2.021 2.021 0 10-2.023 3.5L62.59 52.52a2.022 2.022 0 002.762-.739z" fill="#C60C30"/></g><defs><clipPath id="clip0_162_7532"><path fill="#fff" transform="rotate(90.028 34.983 35)" d="M0 0h69v69H0z"/></clipPath></defs></svg>