<svg width="104" height="54" fill="none" xmlns="http://www.w3.org/2000/svg"><g clip-path="url(#clip0_20714_1754)"><path d="M94.12 16.08a.38.38 0 00-.4.205.39.39 0 00-.042.155s-.562 1.33-1.555 1.843c-.452.234-.643.358-1.673.328h-5.18c-2.801-.201-3.09-3.16-3.09-3.16 0-.36-.039-.84-.039-1.045v-3.358c.076-3.025 2.4-3.72 2.4-3.72.362-.083.731-.12 1.1-.108h5.183c2.35.078 2.97 2.666 2.97 2.666a.505.505 0 00.436.326h9.412a.363.363 0 00.361-.368V8.827c-.141-7.032-6.469-8.735-7.782-8.703-.354 0-.843-.026-1.047-.026H80.54c-4.456.02-6.983 3.337-7.88 5.611a7.566 7.566 0 00-.526 2.219c-.018.41-.052 1.07-.052 1.276v7.8c.405 7.442 6.799 8.69 7.76 8.722.323.012.864.032 1.064.032h14.632c6.684-.36 8.409-6.275 8.437-8.167 0-.549.018-.761.018-.964v-.167a.365.365 0 00-.361-.376l-9.511-.005zM37.006.763c.102-.18.02-.318-.178-.318H.406A.36.36 0 00.15.55a.368.368 0 00-.108.257v7.074a.37.37 0 00.224.34.361.361 0 00.14.029h8.931a.36.36 0 01.335.228.37.37 0 01.027.14v16.388a.371.371 0 00.366.369h14.058a.372.372 0 00.365-.369V8.625a.37.37 0 01.223-.34.36.36 0 01.138-.029h7.374a.714.714 0 00.549-.317L37.006.763zM42.883.45a.916.916 0 00-.608.273s-6.462 6.483-6.441 15.494c.007 5.567 2.262 8.868 2.262 8.868.15.172.362.277.588.293h9.211c.2 0 .258-.128.132-.284 0 0-2.971-3.822-2.918-9.019.044-4.66 2.77-7.587 2.77-7.587a.818.818 0 01.58-.294h5.788a.36.36 0 01.335.227.37.37 0 01.027.14v16.452a.373.373 0 00.226.34.361.361 0 00.14.029H68.07a.364.364 0 00.34-.227.373.373 0 00.028-.142V.813a.37.37 0 00-.11-.257.363.363 0 00-.258-.105H42.883z" fill="#fff"/><path d="M45.11 16.08c0 .979.096 1.956.288 2.915h18.805l2.471-3.925h-21.52c-.027.326-.044.663-.044 1.008m.662-3.904a12.164 12.164 0 00-.57 2.402h21.784l1.513-2.402H45.772z" fill="#C64D4F"/><path d="M0 29.425a.37.37 0 01.106-.259.362.362 0 01.255-.108h103.232a.369.369 0 01.363.367v9.762a.359.359 0 01-.106.26.359.359 0 01-.257.109H.361a.358.358 0 01-.335-.228.368.368 0 01-.026-.141v-9.762z" fill="#fff"/><path d="M9.608 32.304H8.045v5.404H7.012v-5.404H5.443v-.868h4.299l-.134.868zm7.323 2.883c-.28-.946-.53-1.843-.736-2.715-.26.94-.532 1.843-.786 2.715h1.522zm.736 2.52l-.504-1.649h-2.008l-.5 1.651h-1.071l2.034-6.273h1.191l1.984 6.272h-1.125zm8.542.091a2.419 2.419 0 01-1.967-.907c-.466-.568-.713-1.335-.713-2.21a3.991 3.991 0 01.421-1.896c.212-.43.538-.793.942-1.047a2.55 2.55 0 011.346-.393c.606 0 1.178.18 1.546.491l-.478.678a1.69 1.69 0 00-1.06-.355 1.369 1.369 0 00-1.235.756c-.217.379-.325.905-.325 1.641s.08 1.186.242 1.54a1.442 1.442 0 001.384.885c.406.013.802-.128 1.11-.395l.487.66a2.676 2.676 0 01-1.7.554m11.456-5.731l-.281.073a.651.651 0 00-.351.156.959.959 0 00-.19.406l-.16.651c-.06.265-.115.526-.367.763a1.18 1.18 0 01-.438.254v.018c.142.05.274.126.388.224.198.197.335.448.393.722l.281 1.006c.028.163.1.315.207.44.11.093.239.158.377.19l.27.082-.19.74-.34-.041c-.296-.027-.702-.082-.983-.35-.233-.24-.28-.553-.331-.817l-.207-.965c-.045-.186-.115-.456-.29-.612a.877.877 0 00-.609-.193h-.591v2.893h-1.031v-6.273h1.03v2.529h.682a.857.857 0 00.63-.2c.16-.163.203-.411.248-.589l.171-.766c.04-.263.155-.51.332-.709.212-.211.441-.238.8-.29l.367-.054.198.709-.015.003zm7.489.073c-1.07 0-1.467.851-1.467 2.349 0 1.612.407 2.509 1.492 2.509.924 0 1.404-.69 1.404-2.376 0-1.524-.313-2.482-1.422-2.482h-.008zm.032 5.656c-1.769 0-2.641-1.38-2.641-3.233 0-2.06 1.04-3.221 2.596-3.221 1.75 0 2.592 1.402 2.592 3.226 0 1.959-.936 3.228-2.549 3.228m13.073-.09l-.29-3.888c-.023-.4-.043-.899-.043-1.086-.043.206-.125.603-.242 1.003l-1.133 3.97h-.878l-1.032-3.799a15.444 15.444 0 01-.273-1.185c0 .208-.034.81-.058 1.194l-.28 3.79h-1.013l.562-6.27h1.373l.951 3.545c.095.352.171.709.23 1.07.03-.19.11-.62.228-1.052l.984-3.57h1.373l.551 6.272-1.01.006zm8.493-.857c.468 0 .739-.142.88-.284a1.004 1.004 0 00.272-.747.984.984 0 00-.271-.746c-.246-.23-.6-.274-.881-.274h-.878v2.045l.878.006zm1.826-5.413l-.14.85h-2.568v1.661h.858c.47 0 1.264 0 1.818.545.437.435.501 1.022.501 1.378a1.728 1.728 0 01-.438 1.246c-.516.54-1.323.582-1.923.582h-1.85v-6.264l3.742.002zm8.557 3.749a47.657 47.657 0 01-.734-2.715c-.263.94-.53 1.843-.794 2.715h1.528zm.732 2.52l-.503-1.65h-2.01l-.503 1.65h-1.066l2.038-6.27h1.195l1.983 6.27h-1.134zm9.294.001v-2.904H85.04v2.904h-1.032v-6.272h1.032v2.519h2.119v-2.519h1.03v6.272h-1.03zm11.237-5.639l-.289.073a.639.639 0 00-.347.156.876.876 0 00-.19.406l-.165.651c-.06.265-.115.526-.37.763a1.11 1.11 0 01-.435.254v.018c.143.05.275.125.39.224.2.196.336.447.39.722l.282 1.006c.027.163.1.316.208.44a.865.865 0 00.377.19l.269.082-.19.74-.34-.041c-.296-.027-.71-.082-.983-.35-.233-.24-.281-.553-.334-.817l-.205-.965c-.045-.186-.116-.456-.281-.612a.88.88 0 00-.611-.193h-.593v2.893h-1.033v-6.273h1.033v2.529h.68a.855.855 0 00.63-.2c.135-.17.222-.373.25-.589l.175-.766c.036-.264.152-.512.331-.709.207-.211.438-.238.795-.29l.372-.054.198.709-.014.003zM8.816 48.415a3.18 3.18 0 01-.14.965 2.234 2.234 0 01-.4.754c-.172.21-.388.377-.633.49a2.114 2.114 0 01-.902.177h-.766v2.893a.143.143 0 01-.014.064.103.103 0 01-.045.046.329.329 0 01-.084.03.63.63 0 01-.14.011.643.643 0 01-.132-.01.328.328 0 01-.088-.03.104.104 0 01-.046-.047.143.143 0 01-.014-.064v-7.086a.385.385 0 01.087-.283.256.256 0 01.169-.08h1.198c.116 0 .232.007.347.02.134.018.266.048.395.088a1.4 1.4 0 01.46.251c.159.125.294.277.4.45.113.188.199.393.252.608.064.246.096.499.096.753zm-.589.064a2.064 2.064 0 00-.15-.832 1.276 1.276 0 00-.367-.51 1.055 1.055 0 00-.45-.21 2.423 2.423 0 00-.445-.044h-.843v3.285h.803c.222.007.443-.036.647-.126a1.25 1.25 0 00.441-.35c.124-.16.216-.34.271-.535a2.37 2.37 0 00.094-.685v.007zm6.321 5.084a.441.441 0 01.025.142.122.122 0 01-.032.085.159.159 0 01-.091.039 1.195 1.195 0 01-.158.008 1.12 1.12 0 01-.153-.008.278.278 0 01-.088-.027.116.116 0 01-.048-.047.434.434 0 01-.03-.07l-.562-2.016h-2.593l-.538 2.005a.225.225 0 01-.026.07.16.16 0 01-.05.05.268.268 0 01-.09.032.914.914 0 01-.3 0 .176.176 0 01-.094-.041.115.115 0 01-.032-.083.43.43 0 01.025-.142l2.065-7.194a.18.18 0 01.111-.13.45.45 0 01.105-.025.97.97 0 01.14-.008 1 1 0 01.141.008.45.45 0 01.105.026c.027.01.051.027.07.05.017.023.03.05.039.079l2.059 7.197zm-2.449-6.558l-1.116 4.068h2.256l-1.14-4.068zm6.774 4.717a2.75 2.75 0 01-.13.86 1.917 1.917 0 01-.394.692c-.183.202-.409.36-.66.462a2.393 2.393 0 01-.93.166 2.129 2.129 0 01-1.2-.354.895.895 0 01-.125-.105.322.322 0 01-.052-.077.351.351 0 01-.027-.09c0-.036-.011-.077-.015-.127-.005-.05 0-.105 0-.166a.601.601 0 01.022-.201.076.076 0 01.07-.055c.057.01.11.037.152.08.066.052.151.113.257.183a1.721 1.721 0 00.966.265c.207.002.412-.035.605-.109a1.335 1.335 0 00.777-.771 1.62 1.62 0 00.11-.604 1.932 1.932 0 00-.103-.643 1.398 1.398 0 00-.301-.502 1.36 1.36 0 00-.488-.327 1.75 1.75 0 00-.658-.117h-.725a.146.146 0 01-.076-.017.142.142 0 01-.05-.055.301.301 0 01-.03-.096.976.976 0 010-.277.338.338 0 01.03-.1.131.131 0 01.125-.08h.661c.198.002.395-.03.582-.096a1.24 1.24 0 00.757-.75c.075-.203.11-.419.107-.636a1.768 1.768 0 00-.073-.524 1.09 1.09 0 00-.22-.402.974.974 0 00-.362-.257 1.295 1.295 0 00-.504-.09 1.596 1.596 0 00-.536.081c-.137.048-.27.109-.396.182-.097.057-.19.12-.28.187a.342.342 0 01-.173.088.061.061 0 01-.044-.014.113.113 0 01-.028-.05.418.418 0 01-.015-.093v-.255a.912.912 0 01.013-.105.489.489 0 01.026-.091.332.332 0 01.048-.082.823.823 0 01.161-.13c.102-.066.21-.121.322-.166a2.94 2.94 0 01.438-.141c.169-.042.342-.064.516-.067.25-.005.5.043.732.142.2.088.379.22.522.386.143.17.25.37.312.584.07.24.105.49.102.742a2.43 2.43 0 01-.094.709c-.055.19-.14.371-.253.534a1.393 1.393 0 01-.366.363 1.223 1.223 0 01-.431.185v.011c.184.032.36.103.515.207.165.11.308.25.421.413.124.179.219.376.282.584.072.232.108.474.108.716zm6.258-1.788c.006.551-.048 1.1-.161 1.64a3.95 3.95 0 01-.486 1.25 2.385 2.385 0 01-3.091.813 2.13 2.13 0 01-.775-.76 3.68 3.68 0 01-.447-1.207 8.176 8.176 0 01-.14-1.607 7.511 7.511 0 01.16-1.612 3.8 3.8 0 01.486-1.237c.204-.327.484-.6.816-.791a2.277 2.277 0 011.15-.284c.388-.01.77.08 1.113.262.318.181.586.44.777.755.22.367.375.771.456 1.193a7.71 7.71 0 01.142 1.585zm-.592.064a7.666 7.666 0 00-.099-1.26 3.45 3.45 0 00-.323-1.022 1.791 1.791 0 00-.6-.683c-.277-.174-.6-.26-.925-.249a1.583 1.583 0 00-.923.26c-.257.18-.466.419-.611.698-.166.32-.28.665-.337 1.022-.07.408-.105.82-.103 1.234-.002.427.03.854.094 1.277.05.358.157.706.316 1.03.136.278.342.515.597.687.28.174.605.26.934.248.331.012.658-.08.934-.265.258-.183.468-.426.612-.71.163-.324.276-.673.332-1.033.069-.408.103-.82.102-1.234zm8.314 3.688a.151.151 0 01-.014.063.101.101 0 01-.047.047.374.374 0 01-.088.03.643.643 0 01-.14.011.616.616 0 01-.128-.011.328.328 0 01-.087-.03.104.104 0 01-.046-.047.15.15 0 01-.014-.063v-6.82h-.01l-2.32 6.86a.142.142 0 01-.08.08.35.35 0 01-.075.024.592.592 0 01-.212 0 .302.302 0 01-.068-.025.151.151 0 01-.048-.036.091.091 0 01-.022-.044l-2.207-6.861v6.82a.15.15 0 01-.014.064.102.102 0 01-.048.047.367.367 0 01-.087.03.662.662 0 01-.14.01.61.61 0 01-.13-.01.33.33 0 01-.084-.03.092.092 0 01-.043-.047.174.174 0 01-.012-.064V46.61a.386.386 0 01.087-.284.255.255 0 01.169-.08h.3a.577.577 0 01.201.033c.057.02.11.053.154.094a.547.547 0 01.11.149c.033.063.06.13.082.198l1.947 6.008h.023l2.028-5.985a1.36 1.36 0 01.098-.237.709.709 0 01.11-.155.325.325 0 01.123-.082.431.431 0 01.14-.024h.334c.03 0 .06.006.087.017.032.013.06.034.081.061a.374.374 0 01.062.114.53.53 0 01.025.175l.003 7.075zm7.286-1.963c.002.291-.041.581-.13.86a1.815 1.815 0 01-1.056 1.154 2.393 2.393 0 01-.93.165 2.134 2.134 0 01-.534-.06 2.044 2.044 0 01-.406-.142 1.834 1.834 0 01-.26-.152.895.895 0 01-.124-.105.32.32 0 01-.052-.077.345.345 0 01-.027-.09 1.193 1.193 0 01-.016-.293.601.601 0 01.023-.201.076.076 0 01.069-.055.28.28 0 01.153.08 3.6 3.6 0 00.257.183c.123.079.257.141.396.185.185.057.377.083.57.08.206.002.411-.035.604-.108a1.335 1.335 0 00.777-.772 1.62 1.62 0 00.11-.604 1.926 1.926 0 00-.103-.643 1.394 1.394 0 00-.3-.502 1.36 1.36 0 00-.488-.327 1.75 1.75 0 00-.659-.117h-.724a.139.139 0 01-.076-.017.142.142 0 01-.051-.055.304.304 0 01-.03-.096.96.96 0 01-.008-.142.88.88 0 01.008-.135.337.337 0 01.03-.1.152.152 0 01.052-.06.14.14 0 01.073-.02h.662c.198.002.394-.03.581-.096a1.242 1.242 0 00.757-.75c.075-.203.111-.419.107-.636a1.772 1.772 0 00-.073-.523 1.091 1.091 0 00-.219-.403.975.975 0 00-.362-.257 1.298 1.298 0 00-.505-.09 1.595 1.595 0 00-.535.082 2.24 2.24 0 00-.396.181c-.097.057-.191.12-.281.187a.343.343 0 01-.173.088.06.06 0 01-.043-.014.114.114 0 01-.027-.05.407.407 0 01-.016-.093v-.255a1.03 1.03 0 01.015-.105.482.482 0 01.025-.091.328.328 0 01.048-.082.823.823 0 01.161-.13c.102-.065.21-.121.322-.165a2.94 2.94 0 01.438-.142c.173-.04.35-.06.528-.058.251-.005.5.043.732.142.2.087.38.219.523.385.143.17.25.37.312.584.07.241.104.491.102.742.004.24-.028.479-.094.71-.055.19-.14.371-.253.534a1.395 1.395 0 01-.366.363 1.225 1.225 0 01-.432.184v.012c.185.032.36.102.516.207.164.11.307.25.421.413a2.1 2.1 0 01.281.584c.067.23.1.468.096.708zm7.677 1.962a.142.142 0 01-.015.064.101.101 0 01-.047.047.374.374 0 01-.087.03.637.637 0 01-.14.011.616.616 0 01-.129-.011.328.328 0 01-.087-.03.103.103 0 01-.045-.047.143.143 0 01-.014-.064v-6.82h-.008l-2.32 6.861a.143.143 0 01-.027.044.149.149 0 01-.051.036.343.343 0 01-.076.024.582.582 0 01-.212 0 .297.297 0 01-.076-.024.151.151 0 01-.048-.035.09.09 0 01-.022-.044l-2.207-6.862v6.82a.143.143 0 01-.014.064.101.101 0 01-.048.047.372.372 0 01-.087.03.668.668 0 01-.14.011.616.616 0 01-.13-.011.326.326 0 01-.084-.03.09.09 0 01-.043-.047.174.174 0 01-.012-.064v-7.077a.384.384 0 01.087-.283.256.256 0 01.169-.08h.3a.575.575 0 01.201.033.43.43 0 01.154.094.538.538 0 01.11.148c.034.064.061.13.084.199l1.944 6.002h.022l2.028-5.985c.026-.082.059-.161.099-.237a.702.702 0 01.11-.154.324.324 0 01.123-.083.426.426 0 01.14-.024h.333c.03 0 .06.006.087.017a.2.2 0 01.082.061.372.372 0 01.062.114.527.527 0 01.025.176l.008 7.08zm6.663-3.751c.005.551-.049 1.1-.161 1.64a3.95 3.95 0 01-.487 1.25 2.4 2.4 0 01-1.392 1c-.57.15-1.174.083-1.698-.187a2.129 2.129 0 01-.775-.76 3.684 3.684 0 01-.447-1.207 8.168 8.168 0 01-.14-1.607 7.517 7.517 0 01.16-1.612 3.8 3.8 0 01.486-1.237c.203-.327.483-.599.816-.791a2.277 2.277 0 011.15-.284c.387-.01.77.08 1.113.262.318.181.586.44.777.755.22.367.375.771.456 1.193.102.522.15 1.053.142 1.585zm-.593.064a7.654 7.654 0 00-.098-1.26 3.448 3.448 0 00-.323-1.022 1.79 1.79 0 00-.6-.683c-.277-.174-.6-.26-.926-.249a1.583 1.583 0 00-.923.26 1.95 1.95 0 00-.61.698c-.167.32-.28.665-.338 1.022-.07.408-.104.82-.102 1.234-.002.427.029.854.092 1.277.051.358.159.706.318 1.03.136.278.342.515.597.687.28.174.605.26.934.248.33.014.658-.076.936-.258.257-.183.467-.426.61-.709.164-.325.277-.674.333-1.034.069-.41.102-.825.1-1.24zm8.147 3.676a.163.163 0 01-.014.07.123.123 0 01-.044.049.24.24 0 01-.081.033.794.794 0 01-.281 0 .228.228 0 01-.089-.041.165.165 0 01-.047-.064.673.673 0 01-.03-.091l-.524-2.017a2.937 2.937 0 00-.226-.617 1.577 1.577 0 00-.319-.425 1.164 1.164 0 00-.428-.254 1.721 1.721 0 00-.55-.082h-.28v3.46a.143.143 0 01-.015.064.105.105 0 01-.046.047.33.33 0 01-.087.03.644.644 0 01-.132.01.616.616 0 01-.13-.01.332.332 0 01-.084-.03.09.09 0 01-.043-.047.172.172 0 01-.011-.064v-3.46h-.281c-.2-.005-.4.029-.589.099-.162.063-.31.16-.433.284a1.564 1.564 0 00-.304.438 3.24 3.24 0 00-.206.567l-.515 2.017a.7.7 0 01-.03.09.164.164 0 01-.047.064.228.228 0 01-.089.042.798.798 0 01-.28 0 .237.237 0 01-.082-.033.123.123 0 01-.044-.05.164.164 0 01-.014-.07v-.096c0-.02 0-.044.011-.066a.638.638 0 01.022-.077l.483-1.83a5.3 5.3 0 01.216-.66c.068-.17.156-.332.26-.483.09-.128.202-.24.329-.333.13-.091.272-.165.421-.22a1.075 1.075 0 01-.351-.163 1.108 1.108 0 01-.281-.303 2.442 2.442 0 01-.23-.471 6.745 6.745 0 01-.205-.658l-.447-1.702a1.01 1.01 0 01-.03-.12.644.644 0 01-.01-.118.19.19 0 01.008-.071.095.095 0 01.039-.05.232.232 0 01.08-.032.603.603 0 01.132-.012.64.64 0 01.153.014.228.228 0 01.088.042.14.14 0 01.046.066c.01.027.018.058.028.094l.456 1.888c.044.189.106.373.184.551.066.15.157.285.271.4.112.11.248.195.396.245.182.06.372.087.562.083h.281v-3.244a.2.2 0 01.011-.064.09.09 0 01.044-.046.324.324 0 01.084-.03.615.615 0 01.13-.011.653.653 0 01.132.01c.03.006.06.017.087.03.02.01.036.027.046.047.01.02.014.042.014.064v3.232h.281c.187.004.374-.027.55-.093.15-.059.288-.15.402-.265a1.49 1.49 0 00.281-.409c.078-.168.138-.343.18-.523l.457-1.877c.01-.035.018-.066.028-.093a.142.142 0 01.045-.067.228.228 0 01.088-.04.64.64 0 01.153-.015.604.604 0 01.132.011.231.231 0 01.08.033.095.095 0 01.04.05.235.235 0 01.008.07.48.48 0 01-.015.12 1.2 1.2 0 00-.026.119l-.448 1.663c-.06.23-.123.432-.187.606a2.18 2.18 0 01-.219.447c-.076.12-.17.226-.28.316-.116.09-.244.16-.381.21v.011a1.574 1.574 0 01.764.593c.103.153.188.317.253.49a7.1 7.1 0 01.21.664l.478 1.83c0 .027.013.052.018.077.006.024.012.045.016.066a.52.52 0 01.008.055l-.001.036zm4.677-.187a.88.88 0 01-.01.134.337.337 0 01-.03.1.17.17 0 01-.047.06.096.096 0 01-.059.02H63.8a.256.256 0 01-.169-.079.38.38 0 01-.072-.133c-.015-.048-.02-.1-.015-.15v-6.83a.384.384 0 01.087-.284.256.256 0 01.169-.08h2.72c.022 0 .043.007.06.02.02.016.035.037.044.061a.393.393 0 01.029.102 1.003 1.003 0 010 .277.345.345 0 01-.029.096.15.15 0 01-.044.058.096.096 0 01-.06.02h-2.417v2.657h2.085a.1.1 0 01.064.02c.02.015.035.035.045.058a.353.353 0 01.027.099.99.99 0 010 .273.303.303 0 01-.027.091.142.142 0 01-.045.053.118.118 0 01-.064.017h-2.085v3.02h2.461c.021 0 .042.006.059.02.02.015.036.035.048.057a.307.307 0 01.03.1c.006.047.01.095.01.143zm7.766.199a.151.151 0 01-.014.063.101.101 0 01-.048.047.375.375 0 01-.087.03.643.643 0 01-.14.011.616.616 0 01-.128-.011.328.328 0 01-.087-.03.104.104 0 01-.047-.047.15.15 0 01-.014-.063v-6.82h-.01l-2.32 6.86a.14.14 0 01-.028.045.14.14 0 01-.05.035.35.35 0 01-.077.024.592.592 0 01-.212 0 .3.3 0 01-.076-.024.152.152 0 01-.047-.035.09.09 0 01-.023-.044l-2.207-6.862v6.82a.143.143 0 01-.014.064.101.101 0 01-.047.047.374.374 0 01-.088.03.669.669 0 01-.14.011.615.615 0 01-.13-.011.332.332 0 01-.084-.03.092.092 0 01-.043-.047.176.176 0 01-.011-.063v-7.077a.384.384 0 01.087-.284.254.254 0 01.168-.08h.298a.577.577 0 01.2.033c.058.02.11.053.154.094a.543.543 0 01.111.149c.032.063.06.13.081.198l1.947 6.008h.036l2.028-5.985a1.36 1.36 0 01.098-.237.709.709 0 01.11-.155.325.325 0 01.124-.082.431.431 0 01.14-.024h.333c.03 0 .06.006.087.017.032.013.06.034.082.061a.374.374 0 01.061.114.532.532 0 01.026.175l.001 7.075zm6.658-3.752c.006.551-.048 1.1-.161 1.64a3.95 3.95 0 01-.486 1.25 2.385 2.385 0 01-3.091.813 2.13 2.13 0 01-.775-.76 3.683 3.683 0 01-.447-1.207 8.176 8.176 0 01-.14-1.607 7.505 7.505 0 01.16-1.612 3.8 3.8 0 01.486-1.237c.203-.327.484-.6.816-.791a2.277 2.277 0 011.15-.284c.388-.01.77.08 1.113.262.318.181.586.44.777.755.22.367.375.771.456 1.193a7.71 7.71 0 01.142 1.585zm-.593.064a7.676 7.676 0 00-.098-1.26 3.454 3.454 0 00-.323-1.022 1.792 1.792 0 00-.6-.683c-.277-.174-.6-.26-.925-.249a1.583 1.583 0 00-.923.26 1.95 1.95 0 00-.611.698c-.166.32-.28.665-.338 1.022-.07.408-.104.82-.102 1.234-.002.427.029.854.093 1.277.05.358.157.706.316 1.03.136.278.342.515.597.687.28.174.605.26.934.248.33.012.657-.08.934-.265a1.95 1.95 0 00.611-.71 3.51 3.51 0 00.333-1.033c.069-.408.103-.82.103-1.234zm8.137 1.689c.002.208-.019.416-.061.62a2.31 2.31 0 01-.176.52 1.766 1.766 0 01-.281.416 1.655 1.655 0 01-.82.496 2.185 2.185 0 01-.562.064h-1.524a.254.254 0 01-.169-.08.38.38 0 01-.072-.132c-.015-.049-.02-.1-.015-.15v-6.833a.385.385 0 01.087-.283.255.255 0 01.169-.08h1.264c.284-.01.567.036.834.135.204.083.385.214.527.383.144.177.25.382.31.603.072.255.106.52.103.785 0 .173-.015.346-.048.515a2.03 2.03 0 01-.14.456 1.618 1.618 0 01-.239.38 1.338 1.338 0 01-.34.283c.162.042.315.116.447.22.145.113.269.25.366.406.11.175.195.367.25.567.062.231.093.47.09.71zm-.976-3.494a2.129 2.129 0 00-.063-.54 1.098 1.098 0 00-.202-.416.905.905 0 00-.363-.266 1.58 1.58 0 00-.597-.093h-.921v2.712h1.011c.186.008.37-.031.538-.114a.987.987 0 00.337-.306c.092-.136.158-.287.197-.447.043-.173.064-.352.063-.53zm.384 3.554a2.135 2.135 0 00-.094-.661 1.264 1.264 0 00-.275-.48 1.153 1.153 0 00-.443-.292 1.882 1.882 0 00-.656-.099h-1.062v2.951h1.28c.171.004.34-.027.5-.09.145-.062.276-.153.383-.27a1.3 1.3 0 00.264-.444 1.78 1.78 0 00.103-.617v.002zm5.967 1.026v.117a.702.702 0 01-.014.093.402.402 0 01-.025.077.5.5 0 01-.06.09 2.183 2.183 0 01-.556.43 2.628 2.628 0 01-.508.21c-.206.06-.42.09-.634.088a2.052 2.052 0 01-1.007-.248 2.182 2.182 0 01-.768-.728 3.729 3.729 0 01-.488-1.18 6.785 6.785 0 01-.175-1.605A6.886 6.886 0 0190 48.461a4.11 4.11 0 01.512-1.246c.2-.32.472-.588.794-.783.31-.182.665-.276 1.024-.272.173 0 .345.021.513.064.157.04.31.094.458.163.133.062.259.139.376.228.083.06.16.13.228.207a.71.71 0 01.077.114c.011.025.02.052.025.08a.833.833 0 01.014.099v.126c.003.047.003.094 0 .142a.465.465 0 01-.022.105.19.19 0 01-.04.066.075.075 0 01-.054.023c-.043 0-.103-.04-.18-.12a2.965 2.965 0 00-.305-.264 2.204 2.204 0 00-.462-.266 1.617 1.617 0 00-.652-.119 1.423 1.423 0 00-.761.213 1.82 1.82 0 00-.596.628 3.51 3.51 0 00-.388 1.023 7.087 7.087 0 00-.01 2.736c.068.346.193.678.368.984.146.25.351.461.598.611.245.142.523.215.806.21.22.005.44-.035.645-.12.166-.069.325-.158.472-.264.112-.082.22-.17.321-.266a.35.35 0 01.194-.119.08.08 0 01.045.014.107.107 0 01.03.053.59.59 0 01.018.102c.004.053.005.107.004.16zm4.494.714a.88.88 0 01-.008.134.336.336 0 01-.03.1.17.17 0 01-.047.06.096.096 0 01-.06.02H95.64a.256.256 0 01-.168-.079.382.382 0 01-.087-.284v-6.83a.386.386 0 01.087-.283.256.256 0 01.168-.08h2.717c.021 0 .042.007.06.02a.16.16 0 01.044.061.405.405 0 01.028.102.989.989 0 01.009.142c0 .045-.003.09-.009.135a.352.352 0 01-.028.096.153.153 0 01-.045.058.096.096 0 01-.059.02H95.94v2.657h2.087a.1.1 0 01.064.02c.02.015.035.035.046.058a.36.36 0 01.027.099.989.989 0 010 .273.31.31 0 01-.027.091.141.141 0 01-.046.053.116.116 0 01-.064.017H95.94v3.02h2.461c.021 0 .042.006.06.02a.186.186 0 01.047.057.305.305 0 01.03.1c.006.047.01.095.01.143z" fill="#fff"/></g><defs><clipPath id="clip0_20714_1754"><path fill="#fff" d="M0 0h104v54H0z"/></clipPath></defs></svg>