<svg width="104" height="40" fill="none" xmlns="http://www.w3.org/2000/svg"><g clip-path="url(#clip0_611_942)"><path d="M94.12 16.08a.38.38 0 00-.4.205.39.39 0 00-.042.155s-.562 1.33-1.555 1.844c-.452.234-.643.357-1.673.327h-5.18c-2.801-.201-3.09-3.16-3.09-3.16 0-.36-.039-.84-.039-1.045v-3.358c.076-3.025 2.4-3.72 2.4-3.72.362-.083.731-.12 1.1-.108h5.183c2.35.078 2.97 2.666 2.97 2.666a.506.506 0 00.436.327h9.412a.364.364 0 00.361-.37V8.828c-.141-7.032-6.469-8.735-7.782-8.702-.354 0-.843-.027-1.047-.027H80.54c-4.456.02-6.983 3.337-7.88 5.612a7.566 7.566 0 00-.526 2.218c-.018.411-.052 1.07-.052 1.276v7.8c.405 7.442 6.799 8.69 7.76 8.723.323.01.864.03 1.064.03h14.632c6.684-.36 8.409-6.274 8.437-8.166 0-.548.018-.761.018-.964v-.167a.365.365 0 00-.361-.376l-9.511-.004zM37.006.763c.102-.18.02-.318-.178-.318H.406A.36.36 0 00.15.55a.368.368 0 00-.108.258v7.074a.37.37 0 00.224.34.36.36 0 00.14.029h8.931a.36.36 0 01.335.228.37.37 0 01.027.14v16.388c0 .098.04.191.108.26a.365.365 0 00.258.109h14.058a.372.372 0 00.365-.369V8.625a.37.37 0 01.223-.34.36.36 0 01.138-.029h7.374a.714.714 0 00.549-.317L37.006.763zM42.883.45a.916.916 0 00-.608.273s-6.462 6.483-6.441 15.494c.007 5.567 2.262 8.868 2.262 8.868.15.172.362.277.588.293h9.211c.2 0 .258-.128.132-.284 0 0-2.971-3.822-2.918-9.019.044-4.66 2.77-7.587 2.77-7.587a.818.818 0 01.58-.294h5.788a.36.36 0 01.335.227.37.37 0 01.027.14v16.452a.373.373 0 00.226.34.363.363 0 00.14.029H68.07a.364.364 0 00.34-.228.373.373 0 00.028-.141V.813a.37.37 0 00-.11-.257.363.363 0 00-.258-.105H42.883z" fill="#0B2265"/><path d="M45.11 16.08c0 .979.096 1.956.288 2.916h18.805l2.471-3.926h-21.52c-.027.326-.044.664-.044 1.008m.662-3.904a12.083 12.083 0 00-.57 2.402h21.784l1.513-2.402H45.772z" fill="#C60C30"/><path d="M0 29.425a.37.37 0 01.106-.258.362.362 0 01.255-.109h103.232a.369.369 0 01.363.367v9.762a.359.359 0 01-.106.26.357.357 0 01-.257.109H.361a.358.358 0 01-.335-.228.368.368 0 01-.026-.14v-9.763z" fill="#0B2265"/><path d="M9.608 32.304H8.045v5.403H7.012v-5.403H5.443v-.868h4.299l-.134.868zm7.323 2.883c-.28-.946-.53-1.843-.736-2.716-.26.94-.532 1.844-.786 2.716h1.522zm.736 2.52l-.504-1.649h-2.008l-.5 1.65h-1.071l2.034-6.272h1.191l1.984 6.271h-1.125zm8.542.091a2.419 2.419 0 01-1.967-.907c-.466-.568-.713-1.335-.713-2.21a3.991 3.991 0 01.421-1.896c.212-.43.538-.793.942-1.048a2.55 2.55 0 011.346-.392c.606 0 1.178.18 1.546.49l-.478.679a1.69 1.69 0 00-1.06-.355 1.368 1.368 0 00-1.235.756c-.217.379-.325.905-.325 1.641s.08 1.186.242 1.54a1.442 1.442 0 001.384.885c.406.013.802-.128 1.11-.395l.487.659a2.676 2.676 0 01-1.7.555m11.456-5.732l-.281.074a.652.652 0 00-.351.156.96.96 0 00-.19.406l-.16.65c-.06.266-.115.527-.367.764a1.178 1.178 0 01-.438.254v.018c.142.05.274.126.388.224.198.197.335.448.393.722l.281 1.006c.028.163.1.315.207.44.11.092.239.157.377.19l.27.081-.19.74-.34-.04c-.296-.027-.702-.083-.983-.35-.233-.24-.28-.554-.331-.817l-.207-.965c-.045-.186-.115-.457-.29-.613a.877.877 0 00-.609-.193h-.591v2.894h-1.031v-6.273h1.03v2.529h.682a.858.858 0 00.63-.2c.16-.163.203-.412.248-.589l.171-.766c.04-.264.155-.51.332-.709.212-.211.441-.238.8-.29l.367-.055.198.71-.015.002zm7.489.074c-1.07 0-1.467.851-1.467 2.349 0 1.612.407 2.509 1.492 2.509.924 0 1.404-.69 1.404-2.376 0-1.525-.313-2.482-1.422-2.482h-.008zm.032 5.656c-1.769 0-2.641-1.38-2.641-3.233 0-2.06 1.04-3.221 2.596-3.221 1.75 0 2.592 1.402 2.592 3.226 0 1.959-.936 3.228-2.549 3.228m13.073-.09l-.29-3.888c-.023-.4-.043-.899-.043-1.086-.043.206-.125.603-.242 1.003l-1.133 3.97h-.878l-1.032-3.799a15.444 15.444 0 01-.273-1.185c0 .208-.034.81-.058 1.194l-.28 3.79h-1.013l.562-6.27h1.373l.951 3.545c.095.352.171.709.23 1.07.03-.19.11-.62.228-1.052l.984-3.57h1.373l.551 6.272-1.01.006zm8.493-.858c.468 0 .739-.141.88-.283a1.005 1.005 0 00.272-.747.984.984 0 00-.271-.746c-.246-.23-.6-.274-.881-.274h-.878v2.045l.878.006zm1.826-5.413l-.14.851h-2.568v1.661h.858c.47 0 1.264 0 1.818.545.437.435.501 1.022.501 1.378a1.727 1.727 0 01-.438 1.245c-.516.54-1.323.583-1.923.583h-1.85v-6.264l3.742.002zm8.557 3.75a47.637 47.637 0 01-.734-2.716c-.263.94-.53 1.844-.794 2.716h1.528zm.732 2.52l-.503-1.65h-2.01l-.503 1.65h-1.066l2.038-6.271h1.195l1.983 6.271h-1.134zm9.294 0v-2.903H85.04v2.903h-1.032v-6.271h1.032v2.519h2.119v-2.519h1.03v6.271h-1.03zm11.237-5.639l-.289.074a.64.64 0 00-.347.156.877.877 0 00-.19.406l-.165.65c-.06.266-.115.527-.37.764a1.11 1.11 0 01-.435.254v.018c.143.05.275.125.39.224.2.195.336.447.39.722l.282 1.006c.027.163.1.316.208.44a.876.876 0 00.377.19l.269.081-.19.74-.34-.04c-.296-.027-.71-.083-.983-.35-.233-.24-.281-.554-.334-.817l-.205-.965c-.045-.186-.116-.457-.281-.613a.88.88 0 00-.611-.193h-.593v2.894h-1.033v-6.273h1.033v2.529h.68a.855.855 0 00.63-.2c.135-.17.222-.373.25-.589l.175-.766c.036-.265.152-.512.331-.709.207-.211.438-.238.795-.29l.372-.055.198.71-.014.002z" fill="#fff"/></g><defs><clipPath id="clip0_611_942"><path fill="#fff" d="M0 0h104v40H0z"/></clipPath></defs></svg>