<svg width="137" height="126" fill="none" xmlns="http://www.w3.org/2000/svg"><path d="M89.84 89.284h32.392c7.737 0 13.988-6.291 13.988-13.989v-24.85c0-4.26-1.914-8.089-4.923-10.668-2.462-2.07-5.627-3.36-9.065-3.36H89.84v52.867z" fill="#2B3872"/><path d="M14.349 116.869h64.706c10.003 0 18.09-8.088 18.09-18.09V26.921c0-10.003-8.087-18.091-18.09-18.091H14.349v108.038z" fill="#0B2265"/><path d="M.087 2.383v120.934A2.368 2.368 0 002.47 125.7h9.495a2.368 2.368 0 002.384-2.383V2.383A2.368 2.368 0 0011.965 0H2.47A2.368 2.368 0 00.087 2.383z" fill="#28356D"/><path d="M14.35 116.869h64.706c10.002 0 18.09-8.088 18.09-18.09V26.921c0-10.003-8.088-18.091-18.09-18.091-5.392 77.6-64.706 84.711-64.706 84.711v23.327z" fill="#28356D"/><path d="M19.534 116.868V8.83h-5.236v108.038h5.236zm22.167.001h37.355c10.002 0 18.09-8.088 18.09-18.09V48.333c0 50.913-55.445 68.535-55.445 68.535z" fill="#2B3872"/><path d="M100.524 89.251V36.424h-3.399V89.25h3.399z" fill="#0B2265"/><path d="M97.147 89.283h25.124c7.736 0 13.988-6.29 13.988-13.988V50.444c0-4.26-1.914-8.088-4.923-10.667 4.767 38.722-34.19 44.622-34.19 44.622v4.884z" fill="#0B2265"/></svg>