<svg width="190" height="126" fill="none" xmlns="http://www.w3.org/2000/svg"><path d="M46.941 89.284H14.549C6.812 89.284.56 82.993.56 75.295v-24.85c0-4.26 1.914-8.089 4.923-10.668 2.462-2.07 5.627-3.36 9.065-3.36H46.94v52.867z" fill="#2B3872"/><path d="M122.47 116.869H57.764c-10.003 0-18.091-8.088-18.091-18.09V26.921c0-10.003 8.088-18.091 18.09-18.091h64.707v108.038z" fill="#0B2265"/><path d="M136.732 2.383v120.934a2.368 2.368 0 01-2.384 2.383h-9.495a2.368 2.368 0 01-2.383-2.383V2.383A2.368 2.368 0 01124.853 0h9.495a2.393 2.393 0 012.384 2.383z" fill="#28356D"/><path d="M136.732 46.615V28.211h44.036c5.08 0 9.222 4.142 9.222 9.222a9.214 9.214 0 01-9.222 9.221h-44.036v-.039zm0 50.874V79.085h44.036a9.214 9.214 0 019.222 9.221 9.214 9.214 0 01-9.222 9.222h-44.036v-.04z" fill="#0B2265"/><path d="M122.471 116.869H57.765c-10.003 0-18.091-8.088-18.091-18.09V26.921c0-10.003 8.088-18.091 18.09-18.091 5.393 77.6 64.707 84.711 64.707 84.711v23.327z" fill="#28356D"/><path d="M122.457 116.87V8.832h-5.236V116.87h5.236zm-27.337-.001H57.764c-10.003 0-18.091-8.088-18.091-18.09V48.333c0 50.913 55.445 68.535 55.445 68.535z" fill="#2B3872"/><path d="M39.668 89.235V36.407h-3.4v52.828h3.4z" fill="#0B2265"/><path d="M143.176 46.633V28.23h-6.447v18.404h6.447zm.01 50.845V79.074h-6.448v18.404h6.448z" fill="#05103E"/><path d="M39.673 89.283H14.55c-7.738 0-13.99-6.29-13.99-13.988V50.444c0-4.26 1.914-8.088 4.923-10.667-4.767 38.722 34.19 44.622 34.19 44.622v4.884z" fill="#0B2265"/></svg>