<svg width="24" height="40" viewBox="0 0 24 40" fill="none" xmlns="http://www.w3.org/2000/svg">
<path d="M15.2202 6.66667C16.5759 6.66799 17.8757 7.20714 18.8344 8.16579C19.793 9.12444 20.3322 10.4243 20.3335 11.78C20.3335 12.222 20.5091 12.646 20.8217 12.9585C21.1342 13.2711 21.5581 13.4467 22.0002 13.4467C22.4422 13.4467 22.8661 13.2711 23.1787 12.9585C23.4912 12.646 23.6668 12.222 23.6668 11.78V11.6667C23.6668 11.635 23.6668 11.6067 23.6668 11.575C23.6112 9.37122 22.6971 7.2763 21.1192 5.73676C19.5414 4.19722 17.4247 3.3348 15.2202 3.33333H13.6668V1.66667C13.6668 1.22464 13.4912 0.800716 13.1787 0.488155C12.8661 0.175595 12.4422 0 12.0002 0C11.5581 0 11.1342 0.175595 10.8217 0.488155C10.5091 0.800716 10.3335 1.22464 10.3335 1.66667V3.33333H8.78016C6.77569 3.33547 4.83731 4.05039 3.31149 5.3503C1.78566 6.6502 0.771845 8.45037 0.451251 10.429C0.130657 12.4077 0.524181 14.4359 1.56148 16.1511C2.59879 17.8663 4.21226 19.1567 6.1135 19.7917L10.3335 21.2V33.3333H8.78016C7.42443 33.332 6.1246 32.7929 5.16595 31.8342C4.2073 30.8756 3.66815 29.5757 3.66683 28.22C3.66683 27.778 3.49123 27.354 3.17867 27.0415C2.86611 26.7289 2.44219 26.5533 2.00016 26.5533C1.55814 26.5533 1.13421 26.7289 0.821652 27.0415C0.509091 27.354 0.333496 27.778 0.333496 28.22V28.3333C0.333496 28.365 0.333496 28.3933 0.333496 28.425C0.389118 30.6288 1.30327 32.7237 2.8811 34.2632C4.45894 35.8028 6.57568 36.6652 8.78016 36.6667H10.3335V38.3333C10.3335 38.7754 10.5091 39.1993 10.8217 39.5118C11.1342 39.8244 11.5581 40 12.0002 40C12.4422 40 12.8661 39.8244 13.1787 39.5118C13.4912 39.1993 13.6668 38.7754 13.6668 38.3333V36.6667H15.2202C17.2246 36.6645 19.163 35.9496 20.6888 34.6497C22.2147 33.3498 23.2285 31.5496 23.5491 29.571C23.8697 27.5923 23.4761 25.5641 22.4388 23.8489C21.4015 22.1337 19.7881 20.8433 17.8868 20.2083L13.6668 18.8V6.66667H15.2202ZM16.8368 23.3683C17.9892 23.7519 18.9674 24.5331 19.5964 25.5721C20.2253 26.6111 20.4639 27.84 20.2694 29.0389C20.0749 30.2377 19.46 31.3282 18.5349 32.115C17.6097 32.9019 16.4347 33.3338 15.2202 33.3333H13.6668V22.3117L16.8368 23.3683ZM10.3335 17.6883L7.16683 16.6317C6.01473 16.2482 5.03668 15.4673 4.40772 14.4286C3.77876 13.39 3.53994 12.1614 3.734 10.9628C3.92806 9.76416 4.54233 8.6737 5.46688 7.88657C6.39144 7.09944 7.56593 6.66701 8.78016 6.66667H10.3335V17.6883Z" fill="#C60C30"/>
</svg>
