<svg width="30" height="40" viewBox="0 0 30 40" fill="none" xmlns="http://www.w3.org/2000/svg">
<path d="M11.6667 16.6667C10.3406 16.6667 9.06882 17.1935 8.13113 18.1312C7.19345 19.0688 6.66667 20.3406 6.66667 21.6667C6.66667 22.9928 7.19345 24.2645 8.13113 25.2022C9.06882 26.1399 10.3406 26.6667 11.6667 26.6667H18.3333C19.6594 26.6667 20.9312 26.1399 21.8689 25.2022C22.8066 24.2645 23.3333 22.9928 23.3333 21.6667C23.3333 20.3406 22.8066 19.0688 21.8689 18.1312C20.9312 17.1935 19.6594 16.6667 18.3333 16.6667H11.6667ZM20 21.6667C20 22.1087 19.8244 22.5326 19.5118 22.8452C19.1993 23.1578 18.7754 23.3334 18.3333 23.3334H11.6667C11.2246 23.3334 10.8007 23.1578 10.4882 22.8452C10.1756 22.5326 10 22.1087 10 21.6667C10 21.2247 10.1756 20.8007 10.4882 20.4882C10.8007 20.1756 11.2246 20 11.6667 20H18.3333C18.7754 20 19.1993 20.1756 19.5118 20.4882C19.8244 20.8007 20 21.2247 20 21.6667ZM23.3333 31.6667C23.3333 32.1087 23.1577 32.5326 22.8452 32.8452C22.5326 33.1578 22.1087 33.3334 21.6667 33.3334H8.33333C7.89131 33.3334 7.46738 33.1578 7.15482 32.8452C6.84226 32.5326 6.66667 32.1087 6.66667 31.6667C6.66667 31.2247 6.84226 30.8007 7.15482 30.4882C7.46738 30.1756 7.89131 30 8.33333 30H21.6667C22.1087 30 22.5326 30.1756 22.8452 30.4882C23.1577 30.8007 23.3333 31.2247 23.3333 31.6667ZM27.56 5.20169L24.7967 2.44169C24.0248 1.66544 23.1066 1.04996 22.0953 0.630855C21.0841 0.211748 19.9997 -0.00266329 18.905 2.49687e-05H8.33333C6.12401 0.0026714 4.00593 0.881495 2.4437 2.44373C0.88147 4.00596 0.00264643 6.12403 0 8.33336V31.6667C0.00264643 33.876 0.88147 35.9941 2.4437 37.5563C4.00593 39.1186 6.12401 39.9974 8.33333 40H21.6667C23.876 39.9974 25.9941 39.1186 27.5563 37.5563C29.1185 35.9941 29.9974 33.876 30 31.6667V11.095C30.0031 10.0002 29.7891 8.91556 29.3703 7.90398C28.9514 6.89239 28.3361 5.97391 27.56 5.20169ZM25.2033 7.55836C25.4379 7.79574 25.6489 8.05529 25.8333 8.33336H21.6667V4.16669C21.9452 4.34924 22.2043 4.55978 22.44 4.79503L25.2033 7.55836ZM26.6667 31.6667C26.6667 32.9928 26.1399 34.2645 25.2022 35.2022C24.2645 36.1399 22.9928 36.6667 21.6667 36.6667H8.33333C7.00725 36.6667 5.73548 36.1399 4.7978 35.2022C3.86012 34.2645 3.33333 32.9928 3.33333 31.6667V8.33336C3.33333 7.00728 3.86012 5.73551 4.7978 4.79783C5.73548 3.86014 7.00725 3.33336 8.33333 3.33336H18.3333V8.33336C18.3333 9.21741 18.6845 10.0653 19.3096 10.6904C19.9348 11.3155 20.7826 11.6667 21.6667 11.6667H26.6667V31.6667Z" fill="#C60C30"/>
</svg>
