<svg width="40" height="40" viewBox="0 0 40 40" fill="none" xmlns="http://www.w3.org/2000/svg">
<path d="M21.6665 1.66591C21.6665 1.22388 21.8421 0.79996 22.1546 0.487399C22.4672 0.174838 22.8911 -0.000756356 23.3331 -0.000756356C27.7519 0.00409631 31.9883 1.7616 35.1129 4.88616C38.2374 8.01071 39.995 12.2471 39.9998 16.6659C39.9998 17.1079 39.8242 17.5319 39.5117 17.8444C39.1991 18.157 38.7752 18.3326 38.3331 18.3326C37.8911 18.3326 37.4672 18.157 37.1546 17.8444C36.8421 17.5319 36.6665 17.1079 36.6665 16.6659C36.6625 13.1309 35.2565 9.74183 32.7568 7.2422C30.2572 4.74258 26.8681 3.33655 23.3331 3.33258C22.8911 3.33258 22.4672 3.15698 22.1546 2.84442C21.8421 2.53186 21.6665 2.10794 21.6665 1.66591ZM23.3331 9.99924C25.1013 9.99924 26.7969 10.7016 28.0472 11.9519C29.2974 13.2021 29.9998 14.8978 29.9998 16.6659C29.9998 17.1079 30.1754 17.5319 30.488 17.8444C30.8005 18.157 31.2244 18.3326 31.6665 18.3326C32.1085 18.3326 32.5324 18.157 32.845 17.8444C33.1575 17.5319 33.3331 17.1079 33.3331 16.6659C33.3305 14.0146 32.2761 11.4726 30.4013 9.59777C28.5265 7.72298 25.9845 6.66856 23.3331 6.66591C22.8911 6.66591 22.4672 6.84151 22.1546 7.15407C21.8421 7.46663 21.6665 7.89055 21.6665 8.33258C21.6665 8.7746 21.8421 9.19853 22.1546 9.51109C22.4672 9.82365 22.8911 9.99924 23.3331 9.99924ZM38.4881 27.8976C39.454 28.8661 39.9964 30.1781 39.9964 31.5459C39.9964 32.9137 39.454 34.2257 38.4881 35.1942L36.9715 36.9426C23.3215 50.0109 -9.89519 16.8026 2.97148 3.10924L4.88815 1.44258C5.85776 0.503706 7.15803 -0.0156746 8.50765 -0.00319829C9.85727 0.00927799 11.1477 0.552608 12.0998 1.50924C12.1515 1.56091 15.2398 5.57258 15.2398 5.57258C16.1562 6.53529 16.6663 7.81413 16.6641 9.14325C16.662 10.4724 16.1477 11.7495 15.2281 12.7092L13.2981 15.1359C14.3662 17.7311 15.9366 20.0897 17.919 22.0761C19.9014 24.0625 22.2568 25.6376 24.8498 26.7109L27.2915 24.7692C28.2513 23.8504 29.5282 23.3367 30.857 23.3349C32.1857 23.333 33.4641 23.8431 34.4265 24.7592C34.4265 24.7592 38.4365 27.8459 38.4881 27.8976ZM36.1948 30.3209C36.1948 30.3209 32.2065 27.2526 32.1548 27.2009C31.8115 26.8605 31.3475 26.6694 30.864 26.6694C30.3804 26.6694 29.9165 26.8605 29.5731 27.2009C29.5281 27.2476 26.1665 29.9259 26.1665 29.9259C25.9399 30.1062 25.6703 30.2244 25.3842 30.2688C25.0981 30.3133 24.8054 30.2824 24.5348 30.1792C21.1756 28.9285 18.1244 26.9705 15.5879 24.4377C13.0514 21.9049 11.0888 18.8566 9.83315 15.4992C9.72181 15.225 9.68551 14.9261 9.72799 14.6331C9.77046 14.3402 9.89017 14.0639 10.0748 13.8326C10.0748 13.8326 12.7531 10.4692 12.7981 10.4259C13.1386 10.0826 13.3296 9.6186 13.3296 9.13508C13.3296 8.65155 13.1386 8.1876 12.7981 7.84424C12.7465 7.79424 9.67815 3.80258 9.67815 3.80258C9.32965 3.49009 8.87482 3.32274 8.40689 3.33482C7.93897 3.34691 7.49338 3.53752 7.16148 3.86758L5.24481 5.53424C-4.15852 16.8409 24.6265 44.0292 34.5348 34.6659L36.0531 32.9159C36.4089 32.5863 36.6227 32.1313 36.6491 31.6471C36.6755 31.1628 36.5126 30.6873 36.1948 30.3209Z" fill="#C60C30"/>
</svg>
