<svg width="40" height="40" fill="none" xmlns="http://www.w3.org/2000/svg"><path d="M21.666 1.666a1.667 1.667 0 011.667-1.667A16.685 16.685 0 0140 16.666a1.667 1.667 0 01-3.334 0A13.348 13.348 0 0023.334 3.333a1.667 1.667 0 01-1.666-1.667zm1.667 8.333A6.667 6.667 0 0130 16.666a1.666 1.666 0 103.333 0 10.01 10.01 0 00-10-10 1.667 1.667 0 000 3.333zm15.155 17.899a5.166 5.166 0 010 7.296l-1.517 1.749c-13.65 13.068-46.866-20.14-34-33.834l1.917-1.666a5.135 5.135 0 017.212.066c.052.052 3.14 4.064 3.14 4.064a5.166 5.166 0 01-.012 7.136l-1.93 2.427A21.302 21.302 0 0024.85 26.71l2.441-1.942a5.166 5.166 0 017.135-.01s4.01 3.087 4.062 3.139zm-2.293 2.423s-3.989-3.068-4.04-3.12a1.833 1.833 0 00-2.582 0c-.045.047-3.407 2.725-3.407 2.725a1.667 1.667 0 01-1.631.253A25.014 25.014 0 019.833 15.5a1.666 1.666 0 01.242-1.666s2.678-3.364 2.723-3.407a1.833 1.833 0 000-2.582c-.052-.05-3.12-4.041-3.12-4.041a1.833 1.833 0 00-2.517.065L5.245 5.534C-4.16 16.841 24.626 44.03 34.535 34.666l1.518-1.75a1.868 1.868 0 00.142-2.595z" fill="#C60C30"/></svg>