<svg width="30" height="40" fill="none" xmlns="http://www.w3.org/2000/svg"><path d="M11.667 16.667a5 5 0 000 10h6.666a5 5 0 000-10h-6.666zm8.333 5a1.667 1.667 0 01-1.667 1.666h-6.666a1.666 1.666 0 110-3.333h6.666A1.666 1.666 0 0120 21.667zm3.333 10a1.667 1.667 0 01-1.666 1.666H8.333a1.667 1.667 0 110-3.333h13.334a1.667 1.667 0 011.666 1.667zM27.56 5.202l-2.763-2.76A8.28 8.28 0 0018.905 0H8.333A8.343 8.343 0 000 8.333v23.334A8.343 8.343 0 008.333 40h13.334A8.343 8.343 0 0030 31.667V11.095a8.28 8.28 0 00-2.44-5.893zm-2.357 2.356c.235.238.446.497.63.775h-4.166V4.167c.278.182.537.393.773.628l2.763 2.763zm1.464 24.109a5 5 0 01-5 5H8.333a5 5 0 01-5-5V8.333a5 5 0 015-5h10v5a3.333 3.333 0 003.334 3.334h5v20z" fill="#C60C30"/></svg>