<svg width="24" height="40" fill="none" xmlns="http://www.w3.org/2000/svg"><path d="M15.22 6.667a5.118 5.118 0 015.114 5.113 1.666 1.666 0 103.333 0v-.205a8.455 8.455 0 00-8.447-8.242h-1.553V1.667a1.667 1.667 0 00-3.333 0v1.666H8.78a8.447 8.447 0 00-2.666 16.459l4.22 1.408v12.133H8.78a5.118 5.118 0 01-5.113-5.113 1.667 1.667 0 10-3.334 0v.205a8.455 8.455 0 008.447 8.242h1.554v1.666a1.666 1.666 0 103.333 0v-1.666h1.553a8.447 8.447 0 002.667-16.459l-4.22-1.408V6.667h1.553zm1.617 16.701a5.114 5.114 0 01-1.617 9.965h-1.553V22.312l3.17 1.056zm-6.503-5.68l-3.167-1.056A5.113 5.113 0 018.78 6.667h1.554v11.021z" fill="#C60C30"/></svg>