<svg width="133" height="46" viewBox="0 0 133 46" fill="none" xmlns="http://www.w3.org/2000/svg">
<path d="M5.42526 0H127.575C130.554 0 132.976 2.4748 132.976 5.52V40.48C132.976 43.5252 130.554 46 127.575 46H5.42526C2.4458 46 0.0244141 43.5252 0.0244141 40.48V5.52C0.0244141 2.4748 2.4458 0 5.42526 0Z" fill="white"/>
<path d="M29.1264 21.9507C29.0993 18.6571 31.7637 17.0563 31.8807 16.9827C30.3684 14.7379 28.0281 14.4251 27.209 14.3975C25.2467 14.1859 23.3384 15.6027 22.3392 15.6027C21.322 15.6027 19.7738 14.4251 18.1175 14.4527C15.9842 14.4895 13.9769 15.7499 12.8877 17.7187C10.6283 21.7207 12.3116 27.6087 14.4809 30.8472C15.5701 32.4296 16.8303 34.2052 18.4956 34.1408C20.1158 34.0764 20.728 33.0828 22.6813 33.0828C24.6256 33.0828 25.1927 34.1408 26.8849 34.104C28.6312 34.0764 29.7205 32.5124 30.7735 30.9116C32.0248 29.0991 32.5289 27.3051 32.5469 27.2131C32.5019 27.1947 29.1624 25.8883 29.1264 21.9507Z" fill="black"/>
<path d="M25.9303 12.2724C26.8034 11.1592 27.3975 9.64115 27.2355 8.09555C25.9753 8.15075 24.391 8.98795 23.4819 10.0828C22.6808 11.0488 21.9606 12.622 22.1407 14.1032C23.5629 14.2136 25.0211 13.3672 25.9303 12.2724Z" fill="black"/>
<path d="M52.6379 33.9116H50.3697L49.1274 29.9188H44.8069L43.6276 33.9116H41.4224L45.6978 20.3232H48.3445L52.6379 33.9116ZM48.7586 28.2444L47.6333 24.7024C47.5163 24.3344 47.2912 23.488 46.9671 22.1448H46.9221C46.7871 22.7244 46.58 23.58 46.292 24.7024L45.185 28.2444H48.7586Z" fill="black"/>
<path d="M63.6289 28.8973C63.6289 30.5624 63.1878 31.878 62.2966 32.844C61.5047 33.7088 60.5145 34.132 59.3442 34.132C58.0752 34.132 57.1659 33.672 56.6078 32.7428V37.8856H54.4746V27.3333C54.4746 26.2845 54.4476 25.2173 54.3936 24.1133H56.2657L56.3827 25.6681H56.4188C57.1299 24.4997 58.2102 23.9109 59.6502 23.9109C60.7845 23.9109 61.7205 24.3709 62.4766 25.2817C63.2508 26.2017 63.6289 27.3977 63.6289 28.8973ZM61.4597 28.9709C61.4597 28.0141 61.2526 27.2321 60.8295 26.6157C60.3704 25.9717 59.7493 25.6497 58.9751 25.6497C58.453 25.6497 57.9761 25.8337 57.544 26.1833C57.1209 26.5421 56.8329 27.0021 56.7068 27.5817C56.6438 27.8485 56.6078 28.0693 56.6078 28.2441V29.8816C56.6078 30.59 56.8239 31.1972 57.247 31.6848C57.6701 32.1724 58.2279 32.4208 58.9121 32.4208C59.7133 32.4208 60.3344 32.0988 60.7845 31.4732C61.2346 30.8384 61.4597 30.0104 61.4597 28.9709Z" fill="black"/>
<path d="M74.6455 28.8973C74.6455 30.5624 74.2047 31.878 73.3135 32.844C72.5213 33.7088 71.5311 34.132 70.3611 34.132C69.0918 34.132 68.1825 33.672 67.6244 32.7428V37.8856H65.4912V27.3333C65.4912 26.2845 65.4642 25.2173 65.4102 24.1133H67.2826L67.3994 25.6681H67.4354C68.1465 24.4997 69.2268 23.9109 70.6671 23.9109C71.8011 23.9109 72.7374 24.3709 73.4935 25.2817C74.2677 26.2017 74.6455 27.3977 74.6455 28.8973ZM72.4763 28.9709C72.4763 28.0141 72.2692 27.2321 71.8461 26.6157C71.387 25.9717 70.7662 25.6497 69.992 25.6497C69.4699 25.6497 68.9927 25.8337 68.5606 26.1833C68.1375 26.5421 67.8585 27.0021 67.7234 27.5817C67.6604 27.8485 67.6244 28.0693 67.6244 28.2441V29.8816C67.6244 30.59 67.8405 31.1972 68.2636 31.6848C68.6867 32.1724 69.2448 32.4208 69.929 32.4208C70.7302 32.4208 71.36 32.0988 71.8011 31.4732C72.2602 30.8384 72.4763 30.0104 72.4763 28.9709Z" fill="black"/>
<path d="M86.9781 30.1024C86.9781 31.2616 86.582 32.2 85.7988 32.9268C84.9346 33.718 83.7286 34.1136 82.1802 34.1136C80.7492 34.1136 79.6059 33.8284 78.7417 33.2672L79.2368 31.4548C80.173 32.016 81.1993 32.3012 82.3153 32.3012C83.1165 32.3012 83.7466 32.1172 84.1877 31.7492C84.6378 31.3812 84.8626 30.8844 84.8626 30.268C84.8626 29.716 84.6738 29.256 84.3138 28.8788C83.9447 28.5016 83.3325 28.152 82.4773 27.83C80.128 26.9376 78.9668 25.6404 78.9668 23.9384C78.9668 22.8252 79.3809 21.9144 80.2001 21.1968C81.0193 20.4884 82.1082 20.1296 83.4675 20.1296C84.6738 20.1296 85.6818 20.3412 86.483 20.7736L85.9429 22.54C85.1867 22.126 84.3408 21.9144 83.3865 21.9144C82.6393 21.9144 82.0452 22.1076 81.6221 22.4756C81.2713 22.816 81.0913 23.2208 81.0913 23.7084C81.0913 24.242 81.2983 24.6928 81.7031 25.0332C82.0542 25.3552 82.7024 25.7048 83.6386 26.082C84.7819 26.5512 85.6188 27.1032 86.1589 27.738C86.708 28.3728 86.9781 29.164 86.9781 30.1024Z" fill="black"/>
<path d="M94.0353 25.7508H91.6857V30.5072C91.6857 31.7124 92.0998 32.3196 92.928 32.3196C93.3061 32.3196 93.6212 32.2828 93.8732 32.2184L93.9363 33.8744C93.5132 34.0308 92.964 34.1136 92.2799 34.1136C91.4339 34.1136 90.7858 33.8468 90.3087 33.3224C89.8315 32.798 89.5975 31.9148 89.5975 30.682V25.7416H88.2021V24.1132H89.5975V22.3192L91.6857 21.6752V24.1132H94.0353V25.7508Z" fill="black"/>
<path d="M104.603 28.9344C104.603 30.4432 104.18 31.676 103.343 32.642C102.461 33.6356 101.29 34.1324 99.8322 34.1324C98.4278 34.1324 97.3026 33.654 96.4657 32.7064C95.6285 31.7588 95.2144 30.5536 95.2144 29.1C95.2144 27.582 95.6465 26.34 96.5014 25.374C97.3656 24.408 98.5269 23.9204 99.9849 23.9204C101.389 23.9204 102.524 24.3988 103.379 25.3556C104.198 26.2756 104.603 27.4716 104.603 28.9344ZM102.398 28.9804C102.398 28.0788 102.208 27.3152 101.83 26.6712C101.38 25.8892 100.741 25.5028 99.9132 25.5028C99.058 25.5028 98.4008 25.8892 97.9597 26.6712C97.5726 27.3152 97.3926 28.0972 97.3926 29.0264C97.3926 29.928 97.5816 30.7008 97.9597 31.3356C98.4188 32.1176 99.067 32.504 99.8952 32.504C100.705 32.504 101.344 32.1084 101.812 31.3172C102.199 30.6548 102.398 29.882 102.398 28.9804Z" fill="black"/>
<path d="M111.534 26.0269C111.327 25.9901 111.102 25.9717 110.859 25.9717C110.112 25.9717 109.527 26.2569 109.122 26.8365C108.771 27.3425 108.591 27.9957 108.591 28.7685V33.9112H106.458V27.1953C106.458 26.0637 106.44 25.0333 106.395 24.1133H108.249L108.33 25.9901H108.393C108.618 25.3461 108.969 24.8217 109.455 24.4353C109.932 24.0857 110.445 23.9109 110.994 23.9109C111.192 23.9109 111.372 23.9293 111.525 23.9477L111.534 26.0269Z" fill="black"/>
<path d="M121.058 28.5472C121.058 28.9336 121.031 29.2648 120.977 29.5316H114.586C114.613 30.4976 114.919 31.2428 115.513 31.7488C116.053 32.1996 116.746 32.4296 117.601 32.4296C118.546 32.4296 119.411 32.2732 120.184 31.9696L120.518 33.4784C119.609 33.8832 118.537 34.0856 117.304 34.0856C115.819 34.0856 114.649 33.6348 113.803 32.7424C112.956 31.85 112.533 30.6448 112.533 29.1452C112.533 27.6732 112.929 26.4404 113.721 25.456C114.55 24.4072 115.666 23.8828 117.07 23.8828C118.447 23.8828 119.501 24.4072 120.202 25.456C120.77 26.3024 121.058 27.3236 121.058 28.5472ZM119.023 27.986C119.041 27.342 118.897 26.7808 118.609 26.3116C118.24 25.7044 117.673 25.4008 116.917 25.4008C116.224 25.4008 115.657 25.6952 115.225 26.284C114.874 26.7532 114.658 27.3236 114.595 27.9768L119.023 27.986Z" fill="black"/>
<path d="M46.4754 14.2156V15.2664C46.1417 15.4462 45.7694 15.536 45.3591 15.536C44.7008 15.536 44.1505 15.3217 43.7085 14.8931C43.2262 14.4184 42.9849 13.8308 42.9849 13.1303C42.9849 12.3837 43.2262 11.7822 43.7085 11.326C44.1325 10.9204 44.6851 10.7176 45.3658 10.7176C45.7628 10.7176 46.1324 10.8121 46.4754 11.0011V12.0519C46.1821 11.7062 45.8191 11.5334 45.3861 11.5334C44.9441 11.5334 44.5835 11.6924 44.3038 12.0104C44.0288 12.3238 43.8912 12.7017 43.8912 13.1441C43.8912 13.628 44.0445 14.0129 44.3512 14.2986C44.6578 14.5798 45.0141 14.7203 45.4201 14.7203C45.8441 14.7203 46.1957 14.5521 46.4754 14.2156ZM48.5015 10.8213V12.7708L50.1587 10.8213H51.268L49.3604 12.9506L51.3694 15.4324H50.2061L48.6028 13.3654L48.5015 13.469V15.4324H47.6219V10.8213H48.5015ZM55.3977 15.4324L54.9987 14.4645H53.1791L52.7798 15.4324H51.8262L53.7675 10.8213H54.4574L56.3447 15.4324H55.3977ZM53.4564 13.7317H54.7417L54.0991 12.0726L53.4564 13.7317ZM59.2187 15.4324V13.5935C58.9121 13.6257 58.6437 13.6419 58.4137 13.6419C57.8681 13.6419 57.4668 13.5428 57.2098 13.3446C56.9075 13.1142 56.7565 12.7455 56.7565 12.2385V10.8213H57.6358V12.0795C57.6358 12.3837 57.7104 12.5957 57.8591 12.7155C57.9898 12.8169 58.2041 12.8676 58.5017 12.8676C58.7587 12.8676 58.9977 12.8515 59.2187 12.8192V10.8213H60.098V15.4324H59.2187ZM64.5364 15.4324L64.1374 14.4645H62.3178L61.9185 15.4324H60.9648L62.9061 10.8213H63.5961L65.4834 15.4324H64.5364ZM62.5951 13.7317H63.8801L63.2377 12.0726L62.5951 13.7317ZM68.5723 11.5956H67.5576V15.4324H66.6783V11.5956H65.6634V10.8213H68.5723V11.5956ZM69.4678 15.4324V10.8213H70.3472V12.6256H71.0505C71.5195 12.6256 71.8894 12.7524 72.1601 13.0059C72.4394 13.2685 72.5794 13.6119 72.5794 14.0359C72.5794 14.3493 72.4981 14.6258 72.3358 14.8655C72.0834 15.2434 71.6571 15.4324 71.0575 15.4324H69.4678ZM70.3472 13.3999V14.6581H70.8611C71.4024 14.6581 71.6728 14.4507 71.6728 14.0359C71.6728 13.8608 71.6121 13.711 71.4904 13.5866C71.3731 13.4621 71.1678 13.3999 70.8748 13.3999H70.3472ZM75.4819 10.8213H76.5979C77.0895 10.8213 77.4568 10.9181 77.7005 11.1117C77.9801 11.3329 78.1198 11.6509 78.1198 12.0657C78.1198 12.4759 77.9508 12.7777 77.6125 12.9713C77.8425 13.0082 78.0388 13.1049 78.2011 13.2616C78.4175 13.4736 78.5258 13.7617 78.5258 14.1258C78.5258 14.5129 78.3971 14.824 78.1401 15.059C77.8651 15.3079 77.4841 15.4324 76.9969 15.4324H75.4819V10.8213ZM76.3612 11.5541V12.7362H76.6115C76.6565 12.7362 76.6972 12.7362 76.7332 12.7362C76.7738 12.7316 76.8302 12.7178 76.9022 12.6948C76.9789 12.6717 77.0422 12.6418 77.0918 12.6049C77.1458 12.5634 77.1932 12.5035 77.2338 12.4252C77.2742 12.3422 77.2945 12.2454 77.2945 12.1348C77.2945 11.9366 77.2315 11.7915 77.1052 11.6993C76.9789 11.6025 76.8165 11.5541 76.6182 11.5541H76.3612ZM76.3612 13.4276V14.6996H76.7399C77.0015 14.6996 77.2022 14.6581 77.3419 14.5751C77.5268 14.4645 77.6192 14.2871 77.6192 14.0428C77.6192 13.794 77.5088 13.6188 77.2878 13.5174C77.1615 13.4575 76.9609 13.4276 76.6859 13.4276H76.3612Z" fill="black"/>
</svg>
