<svg width="133" height="46" viewBox="0 0 133 46" fill="none" xmlns="http://www.w3.org/2000/svg">
<path d="M5.42526 0H127.575C130.554 0 132.976 2.4748 132.976 5.52V40.48C132.976 43.5252 130.554 46 127.575 46H5.42526C2.4458 46 0.0244141 43.5252 0.0244141 40.48V5.52C0.0244141 2.4748 2.4458 0 5.42526 0Z" fill="white"/>
<path d="M28.2821 18.5924L14.5392 10.608C13.692 10.127 13.0331 10.2232 12.5625 10.7042L24.3287 22.6327L28.2821 18.5924Z" fill="url(#paint0_linear_20714_1723)"/>
<path opacity="0.2" d="M28.188 26.5771L14.5392 34.4654C13.7862 34.9464 13.1273 34.8503 12.6566 34.4654L12.5625 34.5615L12.6566 34.6577C13.1273 35.0426 13.7862 35.1387 14.5392 34.6577L28.188 26.5771Z" fill="black"/>
<path opacity="0.12" d="M12.5621 34.4653C12.2797 34.1765 12.1855 33.6955 12.1855 33.1185V33.2147C12.1855 33.7919 12.3738 34.2727 12.6562 34.5614V34.4653H12.5621ZM32.8941 23.8834L28.1876 26.5769L28.2817 26.6731L32.8941 23.9796C33.553 23.5948 33.8353 23.1138 33.8353 22.6328C33.8353 23.1138 33.4589 23.4986 32.8941 23.8834Z" fill="black"/>
<path d="M66.8747 24.3643C64.6154 24.3643 62.8272 26.0959 62.8272 28.5008C62.8272 30.8096 64.6154 32.6374 66.8747 32.6374C69.1336 32.6374 70.9222 30.9058 70.9222 28.5008C70.9222 25.9997 69.1336 24.3643 66.8747 24.3643ZM66.8747 30.9058C65.651 30.9058 64.6154 29.8475 64.6154 28.4046C64.6154 26.9617 65.651 25.9035 66.8747 25.9035C68.0984 25.9035 69.1336 26.8655 69.1336 28.4046C69.1336 29.8475 68.0984 30.9058 66.8747 30.9058ZM58.1205 24.3643C55.8615 24.3643 54.073 26.0959 54.073 28.5008C54.073 30.8096 55.8615 32.6374 58.1205 32.6374C60.3797 32.6374 62.1683 30.9058 62.1683 28.5008C62.1683 25.9997 60.3797 24.3643 58.1205 24.3643ZM58.1205 30.9058C56.8968 30.9058 55.8615 29.8475 55.8615 28.4046C55.8615 26.9617 56.8968 25.9035 58.1205 25.9035C59.3442 25.9035 60.3797 26.8655 60.3797 28.4046C60.3797 29.8475 59.3442 30.9058 58.1205 30.9058ZM47.6721 25.6149V27.3465H51.7196C51.6256 28.3084 51.2492 29.078 50.7785 29.559C50.2137 30.1362 49.2725 30.8096 47.6721 30.8096C45.1306 30.8096 43.248 28.7894 43.248 26.1921C43.248 23.5947 45.2247 21.5746 47.6721 21.5746C48.9899 21.5746 50.0255 22.1518 50.7785 22.8251L52.0022 21.5746C50.9667 20.6126 49.6488 19.843 47.7662 19.843C44.3776 19.843 41.4595 22.729 41.4595 26.1921C41.4595 29.6552 44.3776 32.5413 47.7662 32.5413C49.6488 32.5413 50.9666 31.9641 52.0963 30.7135C53.2259 29.559 53.6023 27.9237 53.6023 26.6731C53.6023 26.2883 53.6023 25.9035 53.5082 25.6149H47.6721ZM90.407 26.9617C90.0306 25.9997 89.0892 24.3643 87.0184 24.3643C84.9476 24.3643 83.2531 25.9997 83.2531 28.5008C83.2531 30.8096 84.9476 32.6374 87.2065 32.6374C88.9951 32.6374 90.1247 31.483 90.501 30.8096L89.1832 29.8475C88.7128 30.5209 88.148 31.0019 87.2065 31.0019C86.2654 31.0019 85.7006 30.6173 85.2298 29.7513L90.5954 27.4427L90.407 26.9617ZM84.9476 28.3084C84.9476 26.7693 86.1713 25.9035 87.0184 25.9035C87.6773 25.9035 88.3362 26.2883 88.5243 26.7693L84.9476 28.3084ZM80.5234 32.2525H82.312V20.2278H80.5234V32.2525ZM77.6996 25.2301C77.2289 24.7491 76.4759 24.2681 75.5345 24.2681C73.5578 24.2681 71.6752 26.0959 71.6752 28.4046C71.6752 30.7135 73.4637 32.4448 75.5345 32.4448C76.4759 32.4448 77.2289 31.9641 77.6053 31.483H77.6996V32.0602C77.6996 33.5993 76.8523 34.465 75.5345 34.465C74.4992 34.465 73.7459 33.6954 73.5578 33.0221L72.0518 33.6954C72.5225 34.7537 73.6519 36.1005 75.6286 36.1005C77.6997 36.1005 79.3938 34.8499 79.3938 31.8679V24.5567H77.6996V25.2301ZM75.6286 30.9058C74.4051 30.9058 73.3696 29.8475 73.3696 28.4046C73.3696 26.9617 74.4051 25.9035 75.6286 25.9035C76.8523 25.9035 77.7937 26.9617 77.7937 28.4046C77.7937 29.8475 76.8523 30.9058 75.6286 30.9058ZM98.5963 20.2278H94.3604V32.2525H96.1489V27.7313H98.5963C100.573 27.7313 102.456 26.2883 102.456 23.9795C102.456 21.6708 100.573 20.2278 98.5963 20.2278ZM98.6904 25.9997H96.1489V21.8632H98.6904C100.008 21.8632 100.761 23.0175 100.761 23.8833C100.667 24.9415 99.9141 25.9997 98.6904 25.9997ZM109.515 24.2681C108.198 24.2681 106.88 24.8453 106.409 26.0959L108.009 26.7693C108.386 26.0959 108.951 25.9035 109.609 25.9035C110.551 25.9035 111.398 26.4807 111.492 27.4427V27.5389C111.21 27.3465 110.457 27.0579 109.704 27.0579C108.009 27.0579 106.315 28.0198 106.315 29.7513C106.315 31.3868 107.727 32.4448 109.233 32.4448C110.457 32.4448 111.021 31.8679 111.492 31.2907H111.586V32.2525H113.281V27.6351C113.092 25.5187 111.492 24.2681 109.515 24.2681ZM109.327 30.9058C108.762 30.9058 107.915 30.6173 107.915 29.8475C107.915 28.8856 108.951 28.597 109.798 28.597C110.551 28.597 110.927 28.7894 111.398 28.9818C111.21 30.1362 110.268 30.9058 109.327 30.9058ZM119.211 24.5567L117.234 29.7513H117.14L115.069 24.5567H113.187L116.293 31.8679L114.504 35.9082H116.293L121.093 24.5567H119.211ZM103.397 32.2525H105.185V20.2278H103.397V32.2525Z" fill="black"/>
<path d="M12.5621 10.6079C12.2797 10.8965 12.1855 11.3775 12.1855 11.9547V33.2144C12.1855 33.7916 12.3738 34.2726 12.6562 34.5611L12.7503 34.6576L24.4224 22.7289V22.5365L12.5621 10.6079Z" fill="url(#paint1_linear_20714_1723)"/>
<path d="M28.1874 26.7692L24.3281 22.8251V22.5365L28.1874 18.5924L28.2816 18.6886L32.894 21.3822C34.2118 22.1517 34.2118 23.4023 32.894 24.1719L28.1874 26.7692Z" fill="url(#paint2_linear_20714_1723)"/>
<path d="M28.2821 26.6731L24.3287 22.6328L12.5625 34.6576C13.0331 35.1387 13.692 35.1387 14.5392 34.7538L28.2821 26.6731Z" fill="url(#paint3_linear_20714_1723)"/>
<path opacity="0.25" d="M14.5388 10.7041L32.8941 21.3821C33.4589 21.7669 33.8353 22.1517 33.8353 22.6327C33.8353 22.1517 33.553 21.6707 32.8941 21.2859L14.5388 10.6079C13.221 9.83835 12.1855 10.4155 12.1855 11.9547V12.0509C12.1855 10.6079 13.221 9.93456 14.5388 10.7041Z" fill="black"/>
<path d="M46.4754 14.2156V15.2664C46.1417 15.4462 45.7694 15.536 45.3591 15.536C44.7008 15.536 44.1505 15.3217 43.7085 14.8931C43.2262 14.4184 42.9849 13.8308 42.9849 13.1303C42.9849 12.3837 43.2262 11.7822 43.7085 11.326C44.1325 10.9204 44.6851 10.7176 45.3658 10.7176C45.7628 10.7176 46.1324 10.8121 46.4754 11.0011V12.0519C46.1821 11.7062 45.8191 11.5334 45.3861 11.5334C44.9441 11.5334 44.5835 11.6924 44.3038 12.0104C44.0288 12.3238 43.8912 12.7017 43.8912 13.1441C43.8912 13.628 44.0445 14.0129 44.3512 14.2986C44.6578 14.5798 45.0141 14.7203 45.4201 14.7203C45.8441 14.7203 46.1957 14.5521 46.4754 14.2156ZM48.5015 10.8213V12.7708L50.1587 10.8213H51.268L49.3604 12.9506L51.3694 15.4324H50.2061L48.6028 13.3654L48.5015 13.469V15.4324H47.6219V10.8213H48.5015ZM55.3977 15.4324L54.9987 14.4645H53.1791L52.7798 15.4324H51.8262L53.7675 10.8213H54.4574L56.3447 15.4324H55.3977ZM53.4564 13.7317H54.7417L54.0991 12.0726L53.4564 13.7317ZM59.2187 15.4324V13.5935C58.9121 13.6257 58.6437 13.6419 58.4137 13.6419C57.8681 13.6419 57.4668 13.5428 57.2098 13.3446C56.9075 13.1142 56.7565 12.7455 56.7565 12.2385V10.8213H57.6358V12.0795C57.6358 12.3837 57.7104 12.5957 57.8591 12.7155C57.9898 12.8169 58.2041 12.8676 58.5017 12.8676C58.7587 12.8676 58.9977 12.8515 59.2187 12.8192V10.8213H60.098V15.4324H59.2187ZM64.5364 15.4324L64.1374 14.4645H62.3178L61.9185 15.4324H60.9648L62.9061 10.8213H63.5961L65.4834 15.4324H64.5364ZM62.5951 13.7317H63.8801L63.2377 12.0726L62.5951 13.7317ZM68.5723 11.5956H67.5576V15.4324H66.6783V11.5956H65.6634V10.8213H68.5723V11.5956ZM69.4678 15.4324V10.8213H70.3472V12.6256H71.0505C71.5195 12.6256 71.8894 12.7524 72.1601 13.0059C72.4394 13.2685 72.5794 13.6119 72.5794 14.0359C72.5794 14.3493 72.4981 14.6258 72.3358 14.8655C72.0834 15.2434 71.6571 15.4324 71.0575 15.4324H69.4678ZM70.3472 13.3999V14.6581H70.8611C71.4024 14.6581 71.6728 14.4507 71.6728 14.0359C71.6728 13.8608 71.6121 13.711 71.4904 13.5866C71.3731 13.4621 71.1678 13.3999 70.8748 13.3999H70.3472ZM75.4819 10.8213H76.5979C77.0895 10.8213 77.4568 10.9181 77.7005 11.1117C77.9801 11.3329 78.1198 11.6509 78.1198 12.0657C78.1198 12.4759 77.9508 12.7777 77.6125 12.9713C77.8425 13.0082 78.0388 13.1049 78.2011 13.2616C78.4175 13.4736 78.5258 13.7617 78.5258 14.1258C78.5258 14.5129 78.3971 14.824 78.1401 15.059C77.8651 15.3079 77.4841 15.4324 76.9969 15.4324H75.4819V10.8213ZM76.3612 11.5541V12.7362H76.6115C76.6565 12.7362 76.6972 12.7362 76.7332 12.7362C76.7738 12.7316 76.8302 12.7178 76.9022 12.6948C76.9789 12.6717 77.0422 12.6418 77.0918 12.6049C77.1458 12.5634 77.1932 12.5035 77.2338 12.4252C77.2742 12.3422 77.2945 12.2454 77.2945 12.1348C77.2945 11.9366 77.2315 11.7915 77.1052 11.6993C76.9789 11.6025 76.8165 11.5541 76.6182 11.5541H76.3612ZM76.3612 13.4276V14.6996H76.7399C77.0015 14.6996 77.2022 14.6581 77.3419 14.5751C77.5268 14.4645 77.6192 14.2871 77.6192 14.0428C77.6192 13.794 77.5088 13.6188 77.2878 13.5174C77.1615 13.4575 76.9609 13.4276 76.6859 13.4276H76.3612Z" fill="black"/>
<defs>
<linearGradient id="paint0_linear_20714_1723" x1="9.64164" y1="3.56242" x2="19.416" y2="13.1266" gradientUnits="userSpaceOnUse">
<stop stop-color="#32A071"/>
<stop offset="0.069" stop-color="#2DA771"/>
<stop offset="0.476" stop-color="#15CF74"/>
<stop offset="0.801" stop-color="#06E775"/>
<stop offset="1" stop-color="#00F076"/>
</linearGradient>
<linearGradient id="paint1_linear_20714_1723" x1="23.2928" y1="11.7719" x2="7.15175" y2="27.565" gradientUnits="userSpaceOnUse">
<stop stop-color="#00A0FF"/>
<stop offset="0.007" stop-color="#00A1FF"/>
<stop offset="0.26" stop-color="#00BEFF"/>
<stop offset="0.512" stop-color="#00D2FF"/>
<stop offset="0.76" stop-color="#00DFFF"/>
<stop offset="1" stop-color="#00E3FF"/>
</linearGradient>
<linearGradient id="paint2_linear_20714_1723" x1="34.6201" y1="22.6337" x2="11.8437" y2="22.6337" gradientUnits="userSpaceOnUse">
<stop stop-color="#FFE000"/>
<stop offset="0.409" stop-color="#FFBD00"/>
<stop offset="0.775" stop-color="#FFA500"/>
<stop offset="1" stop-color="#FF9C00"/>
</linearGradient>
<linearGradient id="paint3_linear_20714_1723" x1="26.1426" y1="24.8415" x2="4.25498" y2="46.2584" gradientUnits="userSpaceOnUse">
<stop stop-color="#FF3A44"/>
<stop offset="1" stop-color="#C31162"/>
</linearGradient>
</defs>
</svg>
