<svg width="50" height="62" viewBox="0 0 50 62" fill="none" xmlns="http://www.w3.org/2000/svg">
<path d="M43.5002 61.8335H6.50016C3.09441 61.8335 0.333496 59.0726 0.333496 55.6669V6.33354C0.333496 2.92778 3.09441 0.166872 6.50016 0.166872H28.0835C28.1111 0.163289 28.1391 0.163289 28.1667 0.166872H28.1852C28.2144 0.175992 28.2443 0.18219 28.2747 0.185372C28.5466 0.202802 28.815 0.255666 29.0732 0.342622H29.1195H29.1657H29.2027C29.2596 0.382476 29.3132 0.426812 29.3631 0.475205C29.699 0.624511 30.0051 0.833441 30.2665 1.09187L48.7665 19.5919C49.0249 19.8533 49.2339 20.1594 49.3832 20.4953C49.4109 20.5631 49.4325 20.6279 49.4541 20.6988L49.4849 20.7851C49.571 21.0422 49.6218 21.3098 49.636 21.5806C49.6387 21.6113 49.646 21.6415 49.6576 21.67V21.6885C49.6626 21.7087 49.6657 21.7294 49.6668 21.7502V55.6669C49.6668 57.3024 49.0171 58.8709 47.8606 60.0274C46.7042 61.1838 45.1357 61.8335 43.5002 61.8335ZM32.4742 37.1669V52.5835H35.3725V46.2935H39.8742V43.7097H35.3725V39.76H40.4168V37.1669H32.4742ZM21.0658 37.1669V52.5835H24.7843C26.3443 52.6602 27.8548 52.0252 28.8913 50.8569C29.9548 49.4999 30.4875 47.802 30.3898 46.0808V43.5833C30.4613 41.8801 29.9136 40.2087 28.8482 38.8781C27.8449 37.7362 26.3803 37.1075 24.8614 37.1669H21.0658ZM9.5835 37.1669V52.5835H12.4818V47.16H14.412C15.7009 47.2313 16.9598 46.7542 17.8777 45.8465C18.7536 44.8672 19.2078 43.582 19.1418 42.2698C19.199 40.9262 18.7451 39.6107 17.8715 38.5883C17.0073 37.63 15.7597 37.1085 14.4706 37.1669H9.5835ZM28.0835 6.33354V21.7502H43.5002L28.0835 6.33354ZM24.8337 49.9997H23.9642V39.76H25.0187C25.7675 39.7158 26.4874 40.0549 26.9303 40.6603C27.3824 41.5954 27.5761 42.6344 27.4915 43.6696V46.349C27.5592 47.3349 27.3453 48.3198 26.8748 49.1888C26.3695 49.7787 25.6061 50.082 24.8337 49.9997ZM14.4706 44.5669H12.4787V39.76H14.4983C15.0025 39.7654 15.4684 40.0298 15.7317 40.4599C16.0653 41.0105 16.2264 41.6484 16.1942 42.2914C16.2328 42.891 16.0736 43.4868 15.7409 43.9872C15.4343 44.3721 14.9623 44.5875 14.4706 44.5669Z" fill="#6D89AF"/>
</svg>
