<svg width="20" height="20" viewBox="0 0 20 20" fill="none" xmlns="http://www.w3.org/2000/svg">
<mask id="path-1-inside-1_20711_2218" fill="white">
<path d="M10.8008 0.851266C10.8008 0.630252 10.8886 0.41829 11.0448 0.26201C11.2011 0.10573 11.4131 0.0179324 11.6341 0.0179324C13.8435 0.0203587 15.9617 0.899112 17.524 2.46139C19.0863 4.02367 19.965 6.14187 19.9674 8.35127C19.9674 8.57228 19.8796 8.78424 19.7234 8.94052C19.5671 9.0968 19.3551 9.1846 19.1341 9.1846C18.9131 9.1846 18.7011 9.0968 18.5448 8.94052C18.3886 8.78424 18.3008 8.57228 18.3008 8.35127C18.2988 6.58377 17.5958 4.88923 16.346 3.63941C15.0961 2.3896 13.4016 1.68658 11.6341 1.6846C11.4131 1.6846 11.2011 1.5968 11.0448 1.44052C10.8886 1.28424 10.8008 1.07228 10.8008 0.851266V0.851266ZM11.6341 5.01793C12.5182 5.01793 13.366 5.36912 13.9911 5.99424C14.6162 6.61937 14.9674 7.46721 14.9674 8.35127C14.9674 8.57228 15.0552 8.78424 15.2115 8.94052C15.3678 9.0968 15.5798 9.1846 15.8008 9.1846C16.0218 9.1846 16.2337 9.0968 16.39 8.94052C16.5463 8.78424 16.6341 8.57228 16.6341 8.35127C16.6328 7.02559 16.1056 5.75459 15.1682 4.81719C14.2308 3.8798 12.9598 3.35259 11.6341 3.35127C11.4131 3.35127 11.2011 3.43906 11.0448 3.59534C10.8886 3.75162 10.8008 3.96359 10.8008 4.1846C10.8008 4.40561 10.8886 4.61758 11.0448 4.77386C11.2011 4.93014 11.4131 5.01793 11.6341 5.01793V5.01793ZM19.2116 13.9671C19.6945 14.4514 19.9657 15.1074 19.9657 15.7913C19.9657 16.4752 19.6945 17.1312 19.2116 17.6154L18.4533 18.4896C11.6283 25.0238 -4.98006 8.4196 1.45327 1.57293L2.4116 0.739599C2.89641 0.270163 3.54655 0.0104733 4.22136 0.0167114C4.89617 0.0229495 5.54139 0.294614 6.01744 0.772933C6.04327 0.798766 7.58744 2.8046 7.58744 2.8046C8.04563 3.28596 8.30069 3.92537 8.2996 4.58994C8.29852 5.2545 8.04136 5.89308 7.5816 6.37293L6.6166 7.58627C7.15064 8.88386 7.93582 10.0631 8.92703 11.0563C9.91823 12.0496 11.0959 12.8371 12.3924 13.3738L13.6133 12.4029C14.0932 11.9435 14.7317 11.6867 15.396 11.6857C16.0604 11.6848 16.6996 11.9399 17.1808 12.3979C17.1808 12.3979 19.1858 13.9413 19.2116 13.9671ZM18.0649 15.1788C18.0649 15.1788 16.0708 13.6446 16.0449 13.6188C15.8733 13.4485 15.6413 13.353 15.3995 13.353C15.1578 13.353 14.9258 13.4485 14.7541 13.6188C14.7316 13.6421 13.0508 14.9813 13.0508 14.9813C12.9375 15.0714 12.8027 15.1305 12.6596 15.1527C12.5166 15.1749 12.3702 15.1595 12.2349 15.1079C10.5553 14.4826 9.02972 13.5035 7.76146 12.2372C6.49321 10.9708 5.51194 9.44663 4.8841 7.76793C4.82843 7.63081 4.81029 7.48134 4.83152 7.33488C4.85276 7.18842 4.91261 7.05026 5.00494 6.9346C5.00494 6.9346 6.3441 5.25293 6.3666 5.23127C6.53683 5.05959 6.63233 4.82761 6.63233 4.58585C6.63233 4.34409 6.53683 4.11211 6.3666 3.94043C6.34077 3.91543 4.8066 1.9196 4.8066 1.9196C4.63235 1.76336 4.40494 1.67968 4.17098 1.68572C3.93701 1.69176 3.71422 1.78707 3.54827 1.9521L2.58994 2.78543C-2.11173 8.43877 12.2808 22.0329 17.2349 17.3513L17.9941 16.4763C18.172 16.3115 18.2789 16.084 18.2921 15.8419C18.3053 15.5997 18.2238 15.3619 18.0649 15.1788V15.1788Z"/>
</mask>
<path d="M10.8008 0.851266C10.8008 0.630252 10.8886 0.41829 11.0448 0.26201C11.2011 0.10573 11.4131 0.0179324 11.6341 0.0179324C13.8435 0.0203587 15.9617 0.899112 17.524 2.46139C19.0863 4.02367 19.965 6.14187 19.9674 8.35127C19.9674 8.57228 19.8796 8.78424 19.7234 8.94052C19.5671 9.0968 19.3551 9.1846 19.1341 9.1846C18.9131 9.1846 18.7011 9.0968 18.5448 8.94052C18.3886 8.78424 18.3008 8.57228 18.3008 8.35127C18.2988 6.58377 17.5958 4.88923 16.346 3.63941C15.0961 2.3896 13.4016 1.68658 11.6341 1.6846C11.4131 1.6846 11.2011 1.5968 11.0448 1.44052C10.8886 1.28424 10.8008 1.07228 10.8008 0.851266V0.851266ZM11.6341 5.01793C12.5182 5.01793 13.366 5.36912 13.9911 5.99424C14.6162 6.61937 14.9674 7.46721 14.9674 8.35127C14.9674 8.57228 15.0552 8.78424 15.2115 8.94052C15.3678 9.0968 15.5798 9.1846 15.8008 9.1846C16.0218 9.1846 16.2337 9.0968 16.39 8.94052C16.5463 8.78424 16.6341 8.57228 16.6341 8.35127C16.6328 7.02559 16.1056 5.75459 15.1682 4.81719C14.2308 3.8798 12.9598 3.35259 11.6341 3.35127C11.4131 3.35127 11.2011 3.43906 11.0448 3.59534C10.8886 3.75162 10.8008 3.96359 10.8008 4.1846C10.8008 4.40561 10.8886 4.61758 11.0448 4.77386C11.2011 4.93014 11.4131 5.01793 11.6341 5.01793V5.01793ZM19.2116 13.9671C19.6945 14.4514 19.9657 15.1074 19.9657 15.7913C19.9657 16.4752 19.6945 17.1312 19.2116 17.6154L18.4533 18.4896C11.6283 25.0238 -4.98006 8.4196 1.45327 1.57293L2.4116 0.739599C2.89641 0.270163 3.54655 0.0104733 4.22136 0.0167114C4.89617 0.0229495 5.54139 0.294614 6.01744 0.772933C6.04327 0.798766 7.58744 2.8046 7.58744 2.8046C8.04563 3.28596 8.30069 3.92537 8.2996 4.58994C8.29852 5.2545 8.04136 5.89308 7.5816 6.37293L6.6166 7.58627C7.15064 8.88386 7.93582 10.0631 8.92703 11.0563C9.91823 12.0496 11.0959 12.8371 12.3924 13.3738L13.6133 12.4029C14.0932 11.9435 14.7317 11.6867 15.396 11.6857C16.0604 11.6848 16.6996 11.9399 17.1808 12.3979C17.1808 12.3979 19.1858 13.9413 19.2116 13.9671ZM18.0649 15.1788C18.0649 15.1788 16.0708 13.6446 16.0449 13.6188C15.8733 13.4485 15.6413 13.353 15.3995 13.353C15.1578 13.353 14.9258 13.4485 14.7541 13.6188C14.7316 13.6421 13.0508 14.9813 13.0508 14.9813C12.9375 15.0714 12.8027 15.1305 12.6596 15.1527C12.5166 15.1749 12.3702 15.1595 12.2349 15.1079C10.5553 14.4826 9.02972 13.5035 7.76146 12.2372C6.49321 10.9708 5.51194 9.44663 4.8841 7.76793C4.82843 7.63081 4.81029 7.48134 4.83152 7.33488C4.85276 7.18842 4.91261 7.05026 5.00494 6.9346C5.00494 6.9346 6.3441 5.25293 6.3666 5.23127C6.53683 5.05959 6.63233 4.82761 6.63233 4.58585C6.63233 4.34409 6.53683 4.11211 6.3666 3.94043C6.34077 3.91543 4.8066 1.9196 4.8066 1.9196C4.63235 1.76336 4.40494 1.67968 4.17098 1.68572C3.93701 1.69176 3.71422 1.78707 3.54827 1.9521L2.58994 2.78543C-2.11173 8.43877 12.2808 22.0329 17.2349 17.3513L17.9941 16.4763C18.172 16.3115 18.2789 16.084 18.2921 15.8419C18.3053 15.5997 18.2238 15.3619 18.0649 15.1788V15.1788Z" fill="#C60C30"/>
<path d="M11.6341 0.0179324L11.6575 -21.3154L11.6458 -21.3154H11.6341V0.0179324ZM19.9674 8.35127H41.3008V8.33955L41.3008 8.32784L19.9674 8.35127ZM18.3008 8.35127H39.6341V8.33929L39.6341 8.32731L18.3008 8.35127ZM11.6341 1.6846L11.6581 -19.6487L11.6461 -19.6487H11.6341V1.6846ZM16.6341 8.35127H37.9674V8.34062L37.9674 8.32997L16.6341 8.35127ZM11.6341 3.35127L11.6554 -17.9821L11.6448 -17.9821H11.6341V3.35127ZM19.2116 13.9671L34.3174 -1.09698L34.307 -1.10742L34.2965 -1.11784L19.2116 13.9671ZM19.9657 15.7913H-1.36762H19.9657ZM19.2116 17.6154L4.10582 2.55135L3.58248 3.07614L3.09682 3.63598L19.2116 17.6154ZM18.4533 18.4896L33.2063 33.8993L33.9203 33.2157L34.568 32.4691L18.4533 18.4896ZM1.45327 1.57293L-12.5452 -14.5253L-13.357 -13.8194L-14.0937 -13.0354L1.45327 1.57293ZM2.4116 0.739599L16.4101 16.8379L16.8412 16.463L17.2516 16.0656L2.4116 0.739599ZM6.01744 0.772933L-9.10338 15.8219L-9.08547 15.8399L-9.06751 15.8579L6.01744 0.772933ZM7.58744 2.8046L-9.31692 15.8182L-8.63523 16.7037L-7.86475 17.5131L7.58744 2.8046ZM7.5816 6.37293L-7.82241 -8.38605L-8.50276 -7.67596L-9.11491 -6.90629L7.5816 6.37293ZM6.6166 7.58627L-10.0799 -5.69295L-17.8811 4.11585L-13.1113 15.7055L6.6166 7.58627ZM12.3924 13.3738L4.2334 33.0852L15.8393 37.8892L25.6706 30.0711L12.3924 13.3738ZM13.6133 12.4029L26.8914 29.1003L27.6578 28.4908L28.3652 27.8137L13.6133 12.4029ZM17.1808 12.3979L2.47207 27.85L8.65059 33.7313H17.1808V12.3979ZM16.0449 13.6188L31.1299 -1.46618L31.0978 -1.49828L31.0655 -1.53024L16.0449 13.6188ZM14.7541 13.6188L-0.266509 -1.53024L-0.436456 -1.36173L-0.602581 -1.18946L14.7541 13.6188ZM13.0508 14.9813L26.3367 31.6725L26.3443 31.6664L13.0508 14.9813ZM12.2349 15.1079L19.8344 -4.82594L19.7566 -4.85559L19.6786 -4.88464L12.2349 15.1079ZM4.8841 7.76793L24.8657 0.294787L24.762 0.0174723L24.6506 -0.256857L4.8841 7.76793ZM5.00494 6.9346L21.6781 20.2431L21.6857 20.2336L21.6933 20.2241L5.00494 6.9346ZM6.3666 5.23127L21.1643 20.5981L21.342 20.427L21.5156 20.2519L6.3666 5.23127ZM6.63233 4.58585H27.9657H6.63233ZM6.3666 3.94043L21.5156 -11.0802L21.3605 -11.2366L21.2023 -11.3897L6.3666 3.94043ZM4.8066 1.9196L21.7204 -11.0818L20.5178 -12.6463L19.0486 -13.9636L4.8066 1.9196ZM3.54827 1.9521L17.5468 18.0503L18.0852 17.5821L18.5912 17.079L3.54827 1.9521ZM2.58994 2.78543L-11.4085 -13.3128L-12.7097 -12.1814L-13.8123 -10.8557L2.58994 2.78543ZM17.2349 17.3513L31.8874 32.8566L32.6558 32.1305L33.3487 31.3319L17.2349 17.3513ZM17.9941 16.4763L3.4972 0.825355L2.64319 1.61639L1.88033 2.49566L17.9941 16.4763ZM32.1341 0.851266C32.1341 6.28821 29.9743 11.5025 26.1298 15.347L-4.0401 -14.8229C-8.19715 -10.6659 -10.5326 -5.02771 -10.5326 0.851266H32.1341ZM26.1298 15.347C22.2853 19.1914 17.071 21.3513 11.6341 21.3513V-21.3154C5.75513 -21.3154 0.116952 -18.98 -4.0401 -14.8229L26.1298 15.347ZM11.6107 21.3513C8.17023 21.3475 4.87179 19.9791 2.43903 17.5463L32.6089 -12.6236C27.0516 -18.1809 19.5168 -21.3068 11.6575 -21.3154L11.6107 21.3513ZM2.43903 17.5463C0.006271 15.1136 -1.36211 11.8151 -1.36589 8.3747L41.3008 8.32784C41.2921 0.468619 38.1662 -7.06624 32.6089 -12.6236L2.43903 17.5463ZM-1.3659 8.35127C-1.3659 2.91437 0.793887 -2.2999 4.63841 -6.14442L34.8083 24.0255C38.9654 19.8684 41.3008 14.2302 41.3008 8.35127H-1.3659ZM4.63841 -6.14442C8.48291 -9.98892 13.6972 -12.1487 19.1341 -12.1487V30.5179C25.0131 30.5179 30.6512 28.1825 34.8083 24.0255L4.63841 -6.14442ZM19.1341 -12.1487C24.571 -12.1487 29.7853 -9.98892 33.6298 -6.14442L3.4599 24.0255C7.61696 28.1825 13.2551 30.5179 19.1341 30.5179V-12.1487ZM33.6298 -6.14442C37.4743 -2.2999 39.6341 2.91437 39.6341 8.35127H-3.03257C-3.03257 14.2302 -0.697186 19.8684 3.4599 24.0255L33.6298 -6.14442ZM39.6341 8.32731C39.6258 0.910159 36.6756 -6.20081 31.4309 -11.4455L1.26101 18.7244C-1.48409 15.9793 -3.02819 12.2574 -3.03255 8.37523L39.6341 8.32731ZM31.4309 -11.4455C26.1862 -16.6902 19.0752 -19.6404 11.6581 -19.6487L11.6101 23.0179C7.72799 23.0136 4.0061 21.4694 1.26101 18.7244L31.4309 -11.4455ZM11.6341 -19.6487C17.071 -19.6487 22.2853 -17.4889 26.1298 -13.6444L-4.0401 16.5255C0.116954 20.6825 5.75513 23.0179 11.6341 23.0179V-19.6487ZM26.1298 -13.6444C29.9743 -9.79993 32.1341 -4.58568 32.1341 0.851266H-10.5326C-10.5326 6.73024 -8.19715 12.3684 -4.0401 16.5255L26.1298 -13.6444ZM11.6341 26.3513C6.8602 26.3513 2.28182 24.4548 -1.09382 21.0792L29.0761 -9.0907C24.4502 -13.7166 18.1761 -16.3154 11.6341 -16.3154V26.3513ZM-1.09382 21.0792C-4.46947 17.7035 -6.3659 13.1252 -6.3659 8.35127H36.3008C36.3008 1.80926 33.702 -4.46481 29.0761 -9.0907L-1.09382 21.0792ZM-6.3659 8.35127C-6.3659 14.2302 -4.03052 19.8684 0.126564 24.0255L30.2965 -6.14442C34.141 -2.2999 36.3008 2.91437 36.3008 8.35127H-6.3659ZM0.126564 24.0255C4.28362 28.1825 9.92181 30.5179 15.8008 30.5179V-12.1487C21.2377 -12.1487 26.452 -9.98892 30.2965 -6.14442L0.126564 24.0255ZM15.8008 30.5179C21.6797 30.5179 27.3179 28.1825 31.475 24.0255L1.30508 -6.14442C5.14958 -9.98892 10.3638 -12.1487 15.8008 -12.1487V30.5179ZM31.475 24.0255C35.6321 19.8684 37.9674 14.2302 37.9674 8.35127H-4.69923C-4.69923 2.91437 -2.53945 -2.2999 1.30508 -6.14442L31.475 24.0255ZM37.9674 8.32997C37.9605 1.35373 35.1861 -5.33479 30.2531 -10.2677L0.0832254 19.9021C-2.97494 16.844 -4.6949 12.6975 -4.69922 8.37257L37.9674 8.32997ZM30.2531 -10.2677C25.3202 -15.2007 18.6317 -17.9751 11.6554 -17.9821L11.6128 24.6846C7.2879 24.6803 3.14138 22.9603 0.0832254 19.9021L30.2531 -10.2677ZM11.6341 -17.9821C5.75512 -17.9821 0.116944 -15.6466 -4.0401 -11.4896L26.1298 18.6803C22.2853 22.5248 17.0711 24.6846 11.6341 24.6846V-17.9821ZM-4.0401 -11.4896C-8.19715 -7.33255 -10.5326 -1.69438 -10.5326 4.1846H32.1341C32.1341 9.62155 29.9743 14.8358 26.1298 18.6803L-4.0401 -11.4896ZM-10.5326 4.1846C-10.5326 10.0636 -8.19715 15.7018 -4.0401 19.8588L26.1298 -10.3111C29.9743 -6.4666 32.1341 -1.25235 32.1341 4.1846H-10.5326ZM-4.0401 19.8588C0.116944 24.0158 5.75512 26.3513 11.6341 26.3513V-16.3154C17.0711 -16.3154 22.2853 -14.1556 26.1298 -10.3111L-4.0401 19.8588ZM4.10582 29.0312C0.600715 25.5164 -1.36762 20.7551 -1.36762 15.7913H41.2991C41.2991 9.45963 38.7883 3.38635 34.3174 -1.09698L4.10582 29.0312ZM-1.36762 15.7913C-1.36762 10.8275 0.600705 6.06617 4.10582 2.55135L34.3174 32.6795C38.7883 28.1962 41.2991 22.1229 41.2991 15.7913H-1.36762ZM3.09682 3.63598L2.33849 4.51015L34.568 32.4691L35.3264 31.5949L3.09682 3.63598ZM3.70022 3.07991C6.25359 0.63534 9.4202 -0.757577 12.453 -1.19515C15.2251 -1.5951 17.2955 -1.12973 18.2968 -0.821119C20.0794 -0.271669 20.4459 0.342715 20.0467 -0.0555117C19.6513 -0.449838 20.2437 -0.105132 20.7894 1.63296C21.0955 2.60782 21.5689 4.64577 21.1978 7.39142C20.7916 10.3958 19.442 13.5826 17.0002 16.1813L-14.0937 -13.0354C-22.8647 -3.70084 -22.0229 7.7099 -19.918 14.414C-17.8543 20.9868 -13.8896 26.3579 -10.0839 30.1537C-6.2821 33.9456 -0.885876 37.9137 5.72931 39.9527C12.5256 42.0475 23.9513 42.7599 33.2063 33.8993L3.70022 3.07991ZM15.4517 17.6712L16.4101 16.8379L-11.5869 -15.3587L-12.5452 -14.5253L15.4517 17.6712ZM17.2516 16.0656C13.7082 19.4967 8.95634 21.3947 4.02415 21.3491L4.41856 -21.3157C-1.86325 -21.3738 -7.91536 -18.9563 -12.4284 -14.5864L17.2516 16.0656ZM4.02415 21.3491C-0.90803 21.3035 -5.62397 19.3179 -9.10338 15.8219L21.1383 -14.2761C16.7067 -18.7287 10.7004 -21.2576 4.41856 -21.3157L4.02415 21.3491ZM-9.06751 15.8579C-9.6022 15.3232 -9.99289 14.8721 -10.0495 14.8073C-10.1865 14.6504 -10.2925 14.5243 -10.3454 14.4611C-10.4548 14.3302 -10.5382 14.2273 -10.5682 14.19C-10.638 14.1037 -10.6896 14.0384 -10.6996 14.0257C-10.7299 13.9874 -10.7453 13.9674 -10.731 13.9859C-10.7096 14.0132 -10.6654 14.0702 -10.5951 14.161C-10.4589 14.337 -10.273 14.5778 -10.0802 14.8277C-9.88918 15.0753 -9.69823 15.3231 -9.55457 15.5096C-9.48286 15.6027 -9.42322 15.6802 -9.38159 15.7342C-9.36078 15.7612 -9.34449 15.7824 -9.33346 15.7967C-9.32794 15.8039 -9.32375 15.8093 -9.32096 15.813C-9.31956 15.8148 -9.31852 15.8161 -9.31784 15.817C-9.31751 15.8174 -9.31726 15.8178 -9.3171 15.818C-9.31703 15.8181 -9.31697 15.8181 -9.31694 15.8182C-9.31693 15.8182 -9.31692 15.8182 -9.31691 15.8182C-9.31691 15.8182 -9.31692 15.8182 7.58744 2.8046C24.4918 -10.209 24.4918 -10.209 24.4917 -10.2091C24.4917 -10.2091 24.4917 -10.2091 24.4917 -10.2092C24.4916 -10.2092 24.4915 -10.2094 24.4914 -10.2095C24.4912 -10.2098 24.4909 -10.2102 24.4905 -10.2107C24.4897 -10.2118 24.4885 -10.2133 24.487 -10.2153C24.4839 -10.2192 24.4794 -10.2251 24.4736 -10.2326C24.462 -10.2477 24.4451 -10.2696 24.4237 -10.2975C24.3807 -10.3532 24.3195 -10.4327 24.2461 -10.5281C24.0994 -10.7185 23.9027 -10.9737 23.7044 -11.2308C23.5079 -11.4855 23.303 -11.7511 23.1424 -11.9585C23.0643 -12.0593 22.9837 -12.1633 22.9156 -12.2506C22.8853 -12.2895 22.834 -12.3551 22.7783 -12.4256C22.7555 -12.4545 22.6938 -12.5325 22.6167 -12.628C22.5829 -12.6698 22.4966 -12.7764 22.3849 -12.91C22.3309 -12.9745 22.2239 -13.1017 22.0861 -13.2595C22.0288 -13.3252 21.6375 -13.7769 21.1024 -14.312L-9.06751 15.8579ZM-7.86475 17.5131C-11.1903 14.0194 -13.0416 9.37849 -13.0337 4.55506L29.6329 4.62481C29.643 -1.52774 27.2816 -7.44751 23.0396 -11.9039L-7.86475 17.5131ZM-13.0337 4.55506C-13.0258 -0.26837 -11.1594 -4.90323 -7.82241 -8.38605L22.9856 21.1319C27.2421 16.6894 29.6229 10.7774 29.6329 4.62481L-13.0337 4.55506ZM-9.11491 -6.90629L-10.0799 -5.69295L23.3131 20.8655L24.2781 19.6522L-9.11491 -6.90629ZM-13.1113 15.7055C-11.5076 19.6021 -9.1497 23.1435 -6.17313 26.1261L24.0272 -4.01337C25.0213 -3.01721 25.8089 -1.83442 26.3445 -0.532974L-13.1113 15.7055ZM-6.17313 26.1261C-3.19657 29.1086 0.340009 31.4737 4.2334 33.0852L20.5515 -6.33768C21.8518 -5.79943 23.033 -5.00953 24.0272 -4.01337L-6.17313 26.1261ZM25.6706 30.0711L26.8914 29.1003L0.335144 -4.29445L-0.885688 -3.32361L25.6706 30.0711ZM28.3652 27.8137C24.8819 31.1481 20.2479 33.0123 15.4259 33.0191L15.3661 -9.64756C9.21539 -9.63894 3.30445 -7.26101 -1.13869 -3.00781L28.3652 27.8137ZM15.4259 33.0191C10.6039 33.0258 5.96471 31.1746 2.47207 27.85L31.8895 -3.0541C27.4344 -7.29484 21.5168 -9.65618 15.3661 -9.64756L15.4259 33.0191ZM17.1808 12.3979C4.16817 29.3031 4.16816 29.3031 4.16816 29.3031C4.16817 29.3031 4.16818 29.3031 4.1682 29.3031C4.16824 29.3031 4.16831 29.3032 4.16841 29.3033C4.16861 29.3034 4.16894 29.3037 4.16938 29.304C4.17026 29.3047 4.17161 29.3057 4.17342 29.3071C4.17704 29.3099 4.18249 29.3141 4.18965 29.3196C4.20397 29.3306 4.22512 29.3469 4.25213 29.3677C4.30616 29.4093 4.38358 29.4689 4.47662 29.5406C4.66303 29.6842 4.91073 29.875 5.15827 30.0659C5.40808 30.2586 5.64874 30.4444 5.82459 30.5805C5.91541 30.6508 5.97229 30.695 5.99961 30.7163C6.01801 30.7306 5.99805 30.7151 5.9597 30.6848C5.94693 30.6747 5.88161 30.6232 5.79516 30.5533C5.75789 30.5232 5.65484 30.4398 5.52387 30.3303C5.46063 30.2774 5.33446 30.1714 5.17749 30.0343C5.11256 29.9776 4.66143 29.5868 4.12665 29.052L34.2965 -1.11784C33.7614 -1.65302 33.3096 -2.04434 33.2438 -2.10183C33.0859 -2.23968 32.9586 -2.34669 32.894 -2.40071C32.7604 -2.5125 32.6537 -2.59887 32.6118 -2.63267C32.5163 -2.70988 32.4383 -2.77158 32.4094 -2.7944C32.3388 -2.85014 32.2731 -2.90143 32.2342 -2.93175C32.147 -2.9998 32.043 -3.08044 31.9422 -3.15845C31.7348 -3.31897 31.4694 -3.52385 31.2147 -3.72026C30.9578 -3.91841 30.7026 -4.11502 30.5123 -4.26162C30.417 -4.33504 30.3375 -4.39621 30.2818 -4.4391C30.2539 -4.46056 30.232 -4.47746 30.2169 -4.48905C30.2094 -4.49485 30.2036 -4.49932 30.1996 -4.50238C30.1976 -4.50391 30.1961 -4.50508 30.1951 -4.50589C30.1945 -4.50629 30.1941 -4.5066 30.1939 -4.50682C30.1937 -4.50693 30.1936 -4.50702 30.1935 -4.50708C30.1935 -4.50711 30.1934 -4.50714 30.1934 -4.50716C30.1934 -4.50718 30.1934 -4.5072 17.1808 12.3979ZM18.0649 15.1788C31.0731 -1.72975 31.0731 -1.72974 31.0731 -1.72974C31.0731 -1.72975 31.0731 -1.72975 31.0731 -1.72977C31.0731 -1.7298 31.073 -1.72985 31.0729 -1.72993C31.0727 -1.73008 31.0724 -1.73033 31.0719 -1.73067C31.0711 -1.73134 31.0697 -1.73237 31.0679 -1.73376C31.0643 -1.73652 31.0589 -1.74069 31.0518 -1.74617C31.0375 -1.75712 31.0165 -1.77331 30.9897 -1.79398C30.9359 -1.83533 30.8589 -1.89457 30.7664 -1.9658C30.581 -2.10852 30.3347 -2.29819 30.0886 -2.48793C29.8401 -2.67942 29.6009 -2.864 29.4262 -2.99918C29.3359 -3.06903 29.2797 -3.11272 29.2528 -3.13361C29.2347 -3.14777 29.2551 -3.13198 29.2939 -3.10133C29.3068 -3.09108 29.3726 -3.03916 29.4596 -2.96887C29.4972 -2.93853 29.6007 -2.85475 29.7323 -2.74473C29.7959 -2.69157 29.9224 -2.58521 30.0798 -2.44775C30.1459 -2.38997 30.596 -2.00001 31.1299 -1.46618L0.959986 28.7037C1.49422 29.2379 1.94498 29.6285 2.01201 29.687C2.17027 29.8253 2.29792 29.9326 2.36284 29.9869C2.49712 30.0992 2.60429 30.1859 2.64638 30.2199C2.74245 30.2975 2.82089 30.3595 2.84989 30.3824C2.92075 30.4384 2.98661 30.4898 3.02544 30.52C3.11264 30.588 3.21639 30.6684 3.3167 30.746C3.52316 30.9058 3.78733 31.1096 4.04067 31.3048C4.29629 31.5019 4.55013 31.6974 4.73947 31.8431C4.8343 31.9161 4.91331 31.9769 4.96873 32.0196C4.99645 32.0409 5.01829 32.0577 5.03328 32.0692C5.04077 32.075 5.04655 32.0794 5.0505 32.0825C5.05248 32.084 5.05399 32.0852 5.05504 32.086C5.05556 32.0864 5.05596 32.0867 5.05625 32.0869C5.05639 32.087 5.0565 32.0871 5.05658 32.0872C5.05662 32.0872 5.05666 32.0872 5.05668 32.0872C5.05671 32.0873 5.05673 32.0873 18.0649 15.1788ZM31.0655 -1.53024C26.8984 -5.66206 21.2677 -7.9803 15.3995 -7.9803V34.6864C10.0148 34.6864 4.84811 32.5592 1.02432 28.7678L31.0655 -1.53024ZM15.3995 -7.9803C9.5313 -7.9803 3.90063 -5.66206 -0.266509 -1.53024L29.7747 28.7678C25.9509 32.5592 20.7842 34.6864 15.3995 34.6864V-7.9803ZM-0.602581 -1.18946C-0.0871157 -1.72401 0.347078 -2.1152 0.419781 -2.18115C0.576662 -2.32346 0.70309 -2.43381 0.76769 -2.48988C0.900798 -2.60542 1.00578 -2.69355 1.04478 -2.72623C1.13433 -2.80128 1.20259 -2.85713 1.21752 -2.86936C1.26029 -2.90437 1.28537 -2.92454 1.27202 -2.91376C1.25503 -2.90004 1.212 -2.86542 1.13683 -2.80518C0.992484 -2.68949 0.793155 -2.53019 0.584189 -2.36337C0.377574 -2.19842 0.170659 -2.0334 0.0147725 -1.90912C-0.0630018 -1.84711 -0.127697 -1.79555 -0.172827 -1.75958C-0.195385 -1.7416 -0.213034 -1.72754 -0.224963 -1.71803C-0.230927 -1.71328 -0.235459 -1.70967 -0.238458 -1.70728C-0.239958 -1.70609 -0.241074 -1.7052 -0.241794 -1.70462C-0.242153 -1.70434 -0.242414 -1.70413 -0.242574 -1.704C-0.242655 -1.70394 -0.242709 -1.70389 -0.242739 -1.70387C-0.242754 -1.70386 -0.242757 -1.70386 -0.242764 -1.70385C-0.242761 -1.70385 -0.242751 -1.70386 13.0508 14.9813C26.3443 31.6664 26.3443 31.6664 26.3443 31.6664C26.3444 31.6663 26.3444 31.6663 26.3444 31.6663C26.3445 31.6662 26.3446 31.6661 26.3447 31.666C26.345 31.6659 26.3453 31.6656 26.3458 31.6652C26.3467 31.6645 26.348 31.6635 26.3496 31.6621C26.353 31.6595 26.3579 31.6555 26.3643 31.6505C26.377 31.6404 26.3955 31.6256 26.4189 31.6069C26.4658 31.5696 26.5326 31.5163 26.6127 31.4524C26.7727 31.3249 26.9874 31.1537 27.2038 30.9809C27.4179 30.81 27.643 30.6302 27.8201 30.4882C27.9057 30.4196 27.9976 30.3458 28.0769 30.2818C28.1116 30.2537 28.1751 30.2024 28.245 30.1452C28.2735 30.1219 28.3525 30.0572 28.4497 29.9757C28.4925 29.9398 28.6006 29.849 28.736 29.7315C28.8017 29.6744 28.9291 29.5633 29.0868 29.4203C29.1602 29.3536 29.595 28.9619 30.1108 28.427L-0.602581 -1.18946ZM-0.235116 -1.70994C2.55123 -3.92782 5.86736 -5.38162 9.38663 -5.92803L15.9327 36.2335C19.738 35.6427 23.3238 34.0707 26.3367 31.6725L-0.235116 -1.70994ZM9.38663 -5.92803C12.9058 -6.47442 16.5067 -6.09458 19.8344 -4.82594L4.63548 35.0418C8.23375 36.4136 12.1273 36.8243 15.9327 36.2335L9.38663 -5.92803ZM19.6786 -4.88464C20.8638 -4.44336 21.9403 -3.75251 22.8353 -2.8589L-7.31236 27.3332C-3.88092 30.7596 0.246822 33.4085 4.79126 35.1005L19.6786 -4.88464ZM22.8353 -2.8589C23.7302 -1.96528 24.4226 -0.88977 24.8657 0.294787L-15.0975 15.2411C-13.3988 19.783 -10.7438 23.9069 -7.31236 27.3332L22.8353 -2.8589ZM24.6506 -0.256857C26.02 3.11632 26.4665 6.79333 25.9441 10.3962L-16.281 4.27356C-16.8459 8.16935 -16.3632 12.1453 -14.8824 15.7927L24.6506 -0.256857ZM25.9441 10.3962C25.4216 13.9991 23.9492 17.3979 21.6781 20.2431L-11.6682 -6.37394C-14.124 -3.29733 -15.7161 0.377763 -16.281 4.27356L25.9441 10.3962ZM5.00494 6.9346C21.6933 20.2241 21.6933 20.2241 21.6933 20.2241C21.6933 20.2241 21.6933 20.2241 21.6933 20.2241C21.6933 20.224 21.6934 20.224 21.6934 20.2239C21.6936 20.2237 21.6938 20.2235 21.6941 20.2231C21.6946 20.2224 21.6955 20.2213 21.6967 20.2198C21.6991 20.2168 21.7027 20.2122 21.7075 20.2062C21.717 20.1943 21.7311 20.1766 21.7491 20.154C21.785 20.1089 21.8366 20.0441 21.8987 19.9663C22.023 19.8103 22.1881 19.6032 22.3531 19.3963C22.5199 19.1872 22.6794 18.9875 22.7954 18.8428C22.8557 18.7674 22.8908 18.7238 22.9051 18.706C22.9161 18.6924 22.8968 18.7165 22.8629 18.758C22.8512 18.7723 22.7964 18.8393 22.7228 18.9272C22.691 18.9652 22.6038 19.0693 22.4894 19.2013C22.4342 19.2651 22.3237 19.3919 22.1811 19.5495C22.121 19.6159 21.7168 20.0661 21.1643 20.5981L-8.43109 -10.1356C-8.98393 -9.6032 -9.38868 -9.15245 -9.44946 -9.08531C-9.59275 -8.92703 -9.704 -8.79929 -9.76025 -8.73436C-9.87658 -8.60006 -9.96638 -8.49293 -10.0014 -8.45109C-10.0814 -8.3555 -10.1449 -8.27783 -10.1676 -8.25002C-10.2237 -8.18151 -10.2741 -8.11907 -10.3018 -8.08468C-10.3651 -8.00632 -10.4383 -7.91504 -10.5067 -7.82965C-10.6482 -7.65301 -10.8276 -7.42825 -10.9984 -7.21422C-11.171 -6.99791 -11.3421 -6.78325 -11.4696 -6.62327C-11.5335 -6.54312 -11.5867 -6.47632 -11.624 -6.42945C-11.6427 -6.406 -11.6574 -6.38752 -11.6675 -6.37483C-11.6726 -6.36848 -11.6765 -6.36357 -11.6792 -6.36021C-11.6805 -6.35853 -11.6815 -6.35724 -11.6822 -6.35635C-11.6826 -6.3559 -11.6829 -6.35555 -11.6831 -6.35531C-11.6832 -6.35518 -11.6832 -6.35508 -11.6833 -6.35501C-11.6833 -6.35498 -11.6834 -6.35494 -11.6834 -6.35492C-11.6834 -6.3549 -11.6834 -6.35487 5.00494 6.9346ZM21.5156 20.2519C25.6474 16.0848 27.9657 10.4541 27.9657 4.58585H-14.701C-14.701 -0.798881 -12.5738 -5.96559 -8.78241 -9.78934L21.5156 20.2519ZM27.9657 4.58585C27.9657 -1.2824 25.6474 -6.91306 21.5156 -11.0802L-8.78241 18.961C-12.5738 15.1373 -14.701 9.97057 -14.701 4.58585H27.9657ZM21.2023 -11.3897C21.8219 -10.7901 22.2711 -10.2781 22.3339 -10.2072C22.4902 -10.0307 22.6108 -9.8886 22.6707 -9.81763C22.7949 -9.67044 22.8892 -9.55434 22.9233 -9.51235C23.0025 -9.41485 23.0611 -9.3407 23.0732 -9.32543C23.1088 -9.28041 23.1285 -9.25513 23.1152 -9.27216C23.0969 -9.29556 23.0553 -9.34919 22.9859 -9.43894C22.852 -9.61193 22.6685 -9.84989 22.4772 -10.0982C22.2879 -10.344 22.0985 -10.5901 21.956 -10.7754C21.8849 -10.8679 21.8257 -10.9448 21.7844 -10.9985C21.7638 -11.0253 21.7476 -11.0463 21.7367 -11.0605C21.7313 -11.0676 21.7271 -11.073 21.7243 -11.0766C21.723 -11.0784 21.7219 -11.0797 21.7213 -11.0806C21.7209 -11.081 21.7207 -11.0813 21.7206 -11.0815C21.7205 -11.0816 21.7204 -11.0817 21.7204 -11.0817C21.7204 -11.0818 21.7204 -11.0818 21.7204 -11.0818C21.7204 -11.0818 21.7204 -11.0818 4.8066 1.9196C-12.1072 14.921 -12.1072 14.921 -12.1071 14.921C-12.1071 14.921 -12.1071 14.9211 -12.1071 14.9211C-12.107 14.9212 -12.1069 14.9213 -12.1068 14.9215C-12.1066 14.9217 -12.1063 14.9222 -12.1058 14.9227C-12.105 14.9237 -12.1039 14.9253 -12.1023 14.9273C-12.0993 14.9312 -12.0948 14.937 -12.089 14.9446C-12.0775 14.9596 -12.0606 14.9815 -12.0393 15.0093C-11.9965 15.0648 -11.9356 15.144 -11.8626 15.2391C-11.7166 15.4287 -11.5208 15.6832 -11.3234 15.9395C-11.1279 16.1933 -10.9231 16.4589 -10.7619 16.6672C-10.6839 16.7681 -10.6015 16.8745 -10.5309 16.965C-10.4997 17.0049 -10.4445 17.0757 -10.3836 17.1527C-10.3588 17.1839 -10.2901 17.2707 -10.2036 17.3772C-10.1659 17.4237 -10.0685 17.5434 -9.94209 17.6933C-9.88109 17.7656 -9.75954 17.9089 -9.60245 18.0862C-9.53886 18.1579 -9.0891 18.6706 -8.46906 19.2706L21.2023 -11.3897ZM19.0486 -13.9636C14.819 -17.7561 9.29909 -19.7872 3.62017 -19.6405L4.72179 23.0119C-0.489211 23.1465 -5.55434 21.2828 -9.43536 17.8028L19.0486 -13.9636ZM3.62017 -19.6405C-2.05876 -19.4938 -7.46651 -17.1805 -11.4946 -13.1748L18.5912 17.079C14.895 20.7547 9.93279 22.8774 4.72179 23.0119L3.62017 -19.6405ZM-10.4502 -14.1461L-11.4085 -13.3128L16.5884 18.8837L17.5468 18.0503L-10.4502 -14.1461ZM-13.8123 -10.8557C-22.0556 -0.943798 -19.8033 10.313 -17.7209 15.7431C-15.5314 21.4529 -11.8747 26.0442 -8.56028 29.2585C-5.24463 32.474 -0.6053 35.9269 5.02064 37.9361C10.0028 39.7153 21.9833 42.216 31.8874 32.8566L2.58245 1.84592C10.0095 -5.17263 18.3331 -2.61557 19.3702 -2.24519C21.0512 -1.6449 21.4573 -1.06604 21.1433 -1.37059C20.8281 -1.67628 21.4585 -1.25093 22.117 0.466261C22.6683 1.90384 24.8846 9.34133 18.9921 16.4265L-13.8123 -10.8557ZM33.3487 31.3319L34.1079 30.4569L1.88033 2.49566L1.12116 3.37066L33.3487 31.3319ZM32.491 32.1272C36.7316 28.1993 39.2786 22.7764 39.5937 17.0048L-3.00954 14.679C-2.72089 9.39158 -0.38755 4.42367 3.4972 0.825355L32.491 32.1272ZM39.5937 17.0048C39.9088 11.2331 37.9672 5.56513 34.1794 1.199L1.95043 29.1585C-1.5195 25.1587 -3.29819 19.9664 -3.00954 14.679L39.5937 17.0048Z" fill="#C60C30" mask="url(#path-1-inside-1_20711_2218)"/>
</svg>
