<svg width="14" height="14" viewBox="0 0 14 14" fill="none" xmlns="http://www.w3.org/2000/svg">
<path fill-rule="evenodd" clip-rule="evenodd" d="M1.90623 2.37346C1.90756 2.37346 1.87423 2.40813 1.83223 2.44946C1.6709 2.60613 1.3369 2.93213 1.33356 3.61413C1.32823 4.56813 1.95556 6.33946 4.97623 9.35946C7.9829 12.3648 9.75156 12.9995 10.7076 12.9995H10.7216C11.4036 12.9961 11.7289 12.6615 11.8862 12.5008C11.9342 12.4515 11.9729 12.4155 12.0002 12.3928C12.6642 11.7248 13.0042 11.2275 13.0009 10.9088C12.9962 10.5835 12.5916 10.1988 12.0322 9.6668C11.8542 9.49746 11.6609 9.31346 11.4569 9.10946C10.9282 8.58213 10.6662 8.67213 10.0902 8.87479C9.29356 9.15413 8.20023 9.53413 6.50156 7.8348C4.80023 6.1348 5.1809 5.0428 5.45956 4.24613C5.6609 3.67013 5.7529 3.40746 5.22356 2.87813C5.01623 2.67146 4.83023 2.47546 4.6589 2.29546C4.13023 1.73946 3.7489 1.33746 3.42556 1.33279H3.42023C3.1009 1.33279 2.6049 1.67413 1.9029 2.37613C1.9049 2.37413 1.90556 2.37346 1.90623 2.37346ZM10.7082 13.9994C9.04689 13.9994 6.88089 12.6767 4.26955 10.0667C1.64822 7.44608 0.323552 5.27341 0.333552 3.60874C0.339552 2.50874 0.916219 1.94541 1.13289 1.73408C1.14422 1.72008 1.18289 1.68208 1.19622 1.66874C2.15222 0.712077 2.79689 0.32541 3.43822 0.332744C4.18289 0.342744 4.71289 0.900077 5.38355 1.60608C5.54955 1.78074 5.72955 1.97074 5.93022 2.17074C6.90355 3.14408 6.62622 3.93808 6.40355 4.57541C6.16089 5.27074 5.95089 5.87074 7.20822 7.12808C8.46689 8.38541 9.06689 8.17541 9.75955 7.93074C10.3976 7.70808 11.1896 7.42941 12.1642 8.40274C12.3616 8.60008 12.5489 8.77808 12.7216 8.94274C13.4309 9.61674 13.9909 10.1494 14.0002 10.8961C14.0082 11.5327 13.6216 12.1814 12.6669 13.1367L12.2442 12.8501L12.6016 13.1994C12.3902 13.4161 11.8276 13.9934 10.7269 13.9994H10.7082Z" fill="white"/>
</svg>
