<svg width="24" height="24" viewBox="0 0 24 24" fill="none" xmlns="http://www.w3.org/2000/svg">
<path d="M4.28261 12.1924L7.96933 13.6741L9.39632 18.6155C9.48763 18.932 9.84704 19.049 10.0856 18.839L12.1406 17.0351C12.3561 16.8461 12.6629 16.8366 12.888 17.0126L16.5946 19.9102C16.8498 20.1099 17.2113 19.9594 17.2753 19.6273L19.9906 5.5639C20.0604 5.20119 19.7295 4.89861 19.4087 5.03219L4.27829 11.3171C3.9049 11.4721 3.90815 12.0414 4.28261 12.1924ZM9.16635 12.8854L16.3716 8.10701C16.5011 8.02139 16.6343 8.20992 16.5231 8.32099L10.5767 14.2727C10.3677 14.4822 10.2329 14.7626 10.1947 15.0669L9.99211 16.6833C9.96528 16.8991 9.68373 16.9205 9.62843 16.7116L8.84939 13.7642C8.76016 13.428 8.89019 13.0689 9.16635 12.8854Z" fill="white"/>
</svg>
