<svg width="24" height="24" viewBox="0 0 24 24" fill="none" xmlns="http://www.w3.org/2000/svg">
<g clip-path="url(#clip0_2431:5789)">
<path d="M18.143 4.75582C17.6957 4.34312 15.8882 3.03099 11.8621 3.01316C11.8621 3.01316 7.1144 2.72686 4.79995 4.84982C3.51159 6.13844 3.05837 8.02398 3.01057 10.3617C2.96276 12.6993 2.90091 17.0803 7.12386 18.2682H7.12791L7.12521 20.0808C7.12521 20.0808 7.0982 20.8146 7.5814 20.9643C8.16589 21.1458 8.50891 20.588 9.06693 19.9868C9.37322 19.6567 9.79619 19.1719 10.1149 18.8013C13.003 19.0444 15.2243 18.4888 15.4766 18.4067C16.0597 18.2177 19.3595 17.795 19.8962 13.4143C20.4501 8.89909 19.6282 6.0431 18.143 4.75582ZM18.6324 13.0904C18.1794 16.7481 15.503 16.9779 15.0096 17.1362C14.7997 17.2037 12.8488 17.6891 10.3955 17.5289C10.3955 17.5289 8.56752 19.7343 7.99654 20.3077C7.9074 20.3973 7.80261 20.4335 7.73265 20.4157C7.63434 20.3917 7.60733 20.2753 7.60841 20.1051C7.61003 19.862 7.62407 17.093 7.62407 17.093C7.62407 17.093 7.62191 17.093 7.62407 17.093C4.05179 16.1012 4.26003 12.3725 4.30054 10.42C4.34106 8.46748 4.70785 6.86797 5.79742 5.79218C7.75507 4.019 11.7879 4.28396 11.7879 4.28396C15.1935 4.29882 16.8254 5.32437 17.2038 5.66794C18.4603 6.74373 19.1005 9.31801 18.6324 13.0894V13.0904Z" fill="white"/>
<path fill-rule="evenodd" clip-rule="evenodd" d="M11.931 8.84035C11.9375 8.71477 12.0446 8.61828 12.1702 8.62483C12.6401 8.64934 13.031 8.79156 13.3094 9.07941C13.5867 9.36616 13.7227 9.76676 13.7465 10.2479C13.7528 10.3735 13.656 10.4803 13.5304 10.4866C13.4048 10.4928 13.2979 10.396 13.2917 10.2704C13.2713 9.85859 13.1583 9.57823 12.982 9.396C12.8069 9.21488 12.5395 9.1001 12.1465 9.07959C12.0209 9.07304 11.9244 8.96593 11.931 8.84035Z" fill="white"/>
<path fill-rule="evenodd" clip-rule="evenodd" d="M11.5866 7.61391C11.5957 7.4885 11.7048 7.39427 11.8303 7.40345C12.7864 7.47343 13.556 7.80013 14.1166 8.41207L14.1167 8.41216C14.6712 9.01807 14.9348 9.77183 14.9156 10.6559C14.9129 10.7817 14.8088 10.8814 14.6831 10.8787C14.5573 10.8759 14.4576 10.7718 14.4604 10.6461C14.4772 9.86641 14.2479 9.23008 13.7808 8.71959C13.315 8.21123 12.6639 7.92106 11.797 7.85762C11.6716 7.84844 11.5774 7.73933 11.5866 7.61391Z" fill="white"/>
<path fill-rule="evenodd" clip-rule="evenodd" d="M11.1846 6.44803C11.1855 6.32228 11.2881 6.22105 11.4138 6.22193C12.7352 6.23113 13.8521 6.67103 14.7489 7.54522C15.6531 8.42673 16.1003 9.62681 16.1117 11.1173C16.1126 11.243 16.0114 11.3458 15.8857 11.3467C15.76 11.3477 15.6572 11.2465 15.6563 11.1208C15.6457 9.7241 15.2302 8.65034 14.431 7.8713C13.6244 7.08495 12.6228 6.68574 11.4107 6.6773C11.2849 6.67642 11.1837 6.57378 11.1846 6.44803Z" fill="white"/>
<path d="M12.2036 13.3092C12.2036 13.3092 12.5237 13.3362 12.696 13.1239L13.032 12.7012C13.1941 12.4916 13.5852 12.3579 13.9682 12.5713C14.2552 12.735 14.5338 12.9129 14.803 13.1044C15.0572 13.2913 15.5777 13.7257 15.5793 13.7257C15.8272 13.935 15.8845 14.2424 15.7157 14.5665C15.7157 14.5684 15.7143 14.5716 15.7143 14.5732C15.5284 14.8955 15.2924 15.1862 15.015 15.4343C15.0118 15.4359 15.0118 15.4375 15.0088 15.4391C14.7679 15.6405 14.5312 15.7549 14.2988 15.7824C14.2645 15.7884 14.2297 15.7906 14.195 15.7889C14.0925 15.7899 13.9905 15.7742 13.8931 15.7425L13.8855 15.7314C13.5274 15.6304 12.9294 15.3776 11.9335 14.8282C11.3572 14.514 10.8086 14.1516 10.2935 13.7448C10.0353 13.5411 9.78903 13.3226 9.55587 13.0907L9.53102 13.0658L9.50617 13.041L9.48132 13.0158C9.47295 13.0077 9.46485 12.9994 9.45648 12.991C9.22449 12.7578 9.00607 12.5116 8.8023 12.2534C8.39559 11.7383 8.03318 11.1898 7.71895 10.6136C7.16957 9.6175 6.91676 9.02005 6.81575 8.66136L6.80467 8.6538C6.77301 8.55631 6.75741 8.45432 6.75849 8.35183C6.7566 8.31713 6.75868 8.28233 6.7647 8.24811C6.79369 8.01619 6.9083 7.77941 7.10853 7.53776C7.11015 7.53479 7.11177 7.53479 7.11339 7.53155C7.36142 7.25424 7.6521 7.01828 7.97446 6.83254C7.97608 6.83254 7.97932 6.83092 7.98121 6.83092C8.30533 6.66211 8.6127 6.71937 8.82175 6.96597C8.82337 6.96759 9.25687 7.48806 9.44297 7.74222C9.63453 8.01171 9.81248 8.29061 9.97614 8.5779C10.1895 8.96062 10.0558 9.35253 9.84622 9.51405L9.42352 9.85005C9.21015 10.0224 9.23824 10.3424 9.23824 10.3424C9.23824 10.3424 9.86432 12.712 12.2036 13.3092Z" fill="white"/>
</g>
<defs>
<clipPath id="clip0_2431:5789">
<rect width="17.0698" height="18" fill="white" transform="translate(3 3)"/>
</clipPath>
</defs>
</svg>
