<svg width="38" height="30" viewBox="0 0 38 30" fill="none" xmlns="http://www.w3.org/2000/svg">
<g clip-path="url(#clip0_478_3334)">
<path d="M37.2267 29.5119V29.5878H37.2976C37.3133 29.5878 37.3267 29.5841 37.3365 29.5782C37.3454 29.5723 37.3506 29.562 37.3506 29.5495C37.3506 29.537 37.3454 29.5274 37.3365 29.5215C37.3267 29.5149 37.3133 29.5119 37.2976 29.5119H37.2267ZM37.2984 29.4589C37.335 29.4589 37.3633 29.467 37.3835 29.4832C37.4036 29.4994 37.4134 29.5215 37.4134 29.5495C37.4134 29.5731 37.4059 29.5922 37.3895 29.6077C37.3738 29.6224 37.3514 29.632 37.3215 29.6357L37.4156 29.7425H37.3424L37.2551 29.6364H37.2267V29.7425H37.1655V29.4589H37.2984ZM37.2797 29.8405C37.3133 29.8405 37.3447 29.8339 37.373 29.8214C37.4022 29.8089 37.4275 29.7919 37.4492 29.7705C37.4708 29.7492 37.488 29.7241 37.5007 29.6947C37.5127 29.6659 37.5194 29.635 37.5194 29.6018C37.5194 29.5687 37.5127 29.5377 37.5007 29.509C37.488 29.4802 37.4708 29.4545 37.4492 29.4331C37.4275 29.4117 37.4022 29.3948 37.373 29.3823C37.3447 29.3705 37.3133 29.3646 37.2797 29.3646C37.2461 29.3646 37.214 29.3705 37.1849 29.3823C37.155 29.3948 37.1289 29.4117 37.1072 29.4331C37.0856 29.4545 37.0684 29.4802 37.0565 29.509C37.0438 29.5377 37.0378 29.5687 37.0378 29.6018C37.0378 29.635 37.0438 29.6659 37.0565 29.6947C37.0684 29.7241 37.0856 29.7492 37.1072 29.7705C37.1289 29.7919 37.155 29.8089 37.1849 29.8214C37.214 29.8339 37.2461 29.8405 37.2797 29.8405ZM37.2797 29.296C37.3238 29.296 37.3641 29.3041 37.4029 29.3204C37.441 29.3358 37.4738 29.3579 37.5029 29.3859C37.5313 29.4132 37.5537 29.4456 37.5701 29.4832C37.5866 29.52 37.5948 29.5598 37.5948 29.6018C37.5948 29.6438 37.5866 29.6836 37.5701 29.7204C37.5537 29.7573 37.5313 29.7897 37.5029 29.8177C37.4738 29.845 37.441 29.8671 37.4029 29.8833C37.3641 29.8995 37.3238 29.9076 37.2797 29.9076C37.2349 29.9076 37.1938 29.8995 37.155 29.8833C37.1162 29.8671 37.0826 29.845 37.0542 29.8177C37.0259 29.7897 37.0035 29.7573 36.987 29.7204C36.9706 29.6836 36.9624 29.6438 36.9624 29.6018C36.9624 29.5598 36.9706 29.52 36.987 29.4832C37.0035 29.4456 37.0259 29.4132 37.0542 29.3859C37.0826 29.3579 37.1162 29.3358 37.155 29.3204C37.1938 29.3041 37.2349 29.296 37.2797 29.296ZM8.19032 28.2034C8.19032 27.6625 8.54944 27.2183 9.13629 27.2183C9.69701 27.2183 10.0756 27.6434 10.0756 28.2034C10.0756 28.7633 9.69701 29.1885 9.13629 29.1885C8.54944 29.1885 8.19032 28.7442 8.19032 28.2034ZM10.7147 28.2034V26.6649H10.0367V27.0385C9.8217 26.7614 9.49542 26.5876 9.05192 26.5876C8.17762 26.5876 7.49222 27.2639 7.49222 28.2034C7.49222 29.1435 8.17762 29.8192 9.05192 29.8192C9.49542 29.8192 9.8217 29.6453 10.0367 29.3683V29.7418H10.7147V28.2034ZM33.6242 28.2034C33.6242 27.6625 33.9833 27.2183 34.5702 27.2183C35.1317 27.2183 35.5095 27.6434 35.5095 28.2034C35.5095 28.7633 35.1317 29.1885 34.5702 29.1885C33.9833 29.1885 33.6242 28.7442 33.6242 28.2034ZM36.1493 28.2034V25.4293H35.4706V27.0385C35.2556 26.7614 34.9293 26.5876 34.4858 26.5876C33.6115 26.5876 32.9261 27.2639 32.9261 28.2034C32.9261 29.1435 33.6115 29.8192 34.4858 29.8192C34.9293 29.8192 35.2556 29.6453 35.4706 29.3683V29.7418H36.1493V28.2034ZM19.1299 27.1866C19.5667 27.1866 19.8474 27.457 19.9191 27.933H18.3012C18.3736 27.4887 18.6468 27.1866 19.1299 27.1866ZM19.1434 26.5876C18.2295 26.5876 17.5904 27.244 17.5904 28.2034C17.5904 29.1818 18.2556 29.8192 19.1889 29.8192C19.6585 29.8192 20.0886 29.7035 20.4671 29.3881L20.1349 28.8923C19.8736 29.0978 19.5406 29.2143 19.2277 29.2143C18.7909 29.2143 18.393 29.0146 18.2952 28.4605H20.6105C20.6172 28.3772 20.6239 28.2933 20.6239 28.2034C20.6172 27.244 20.0169 26.5876 19.1434 26.5876ZM27.3294 28.2034C27.3294 27.6625 27.6885 27.2183 28.2754 27.2183C28.8361 27.2183 29.2146 27.6434 29.2146 28.2034C29.2146 28.7633 28.8361 29.1885 28.2754 29.1885C27.6885 29.1885 27.3294 28.7442 27.3294 28.2034ZM29.8537 28.2034V26.6649H29.1758V27.0385C28.96 26.7614 28.6345 26.5876 28.191 26.5876C27.3167 26.5876 26.6313 27.2639 26.6313 28.2034C26.6313 29.1435 27.3167 29.8192 28.191 29.8192C28.6345 29.8192 28.96 29.6453 29.1758 29.3683V29.7418H29.8537V28.2034ZM23.5007 28.2034C23.5007 29.1369 24.1592 29.8192 25.1642 29.8192C25.6338 29.8192 25.9466 29.716 26.2856 29.4522L25.9601 28.9114C25.7055 29.0919 25.4382 29.1885 25.144 29.1885C24.6027 29.1818 24.2047 28.7958 24.2047 28.2034C24.2047 27.611 24.6027 27.2249 25.144 27.2183C25.4382 27.2183 25.7055 27.3148 25.9601 27.4953L26.2856 26.9545C25.9466 26.6907 25.6338 26.5876 25.1642 26.5876C24.1592 26.5876 23.5007 27.2698 23.5007 28.2034ZM32.2415 26.5876C31.8502 26.5876 31.5956 26.7681 31.4194 27.0385V26.6649H30.7475V29.7418H31.4261V28.017C31.4261 27.5078 31.6479 27.2249 32.0914 27.2249C32.2288 27.2249 32.3721 27.244 32.5155 27.3023L32.7245 26.6715C32.5745 26.6133 32.3788 26.5876 32.2415 26.5876ZM14.0678 26.9095C13.7415 26.6973 13.292 26.5876 12.7963 26.5876C12.0063 26.5876 11.4979 26.9611 11.4979 27.5727C11.4979 28.0744 11.8764 28.3839 12.5738 28.4804L12.8941 28.5253C13.2659 28.5769 13.4414 28.6734 13.4414 28.8473C13.4414 29.0853 13.1935 29.2209 12.7306 29.2209C12.2609 29.2209 11.922 29.0728 11.6935 28.8989L11.3739 29.4198C11.7458 29.6902 12.2154 29.8192 12.7238 29.8192C13.6243 29.8192 14.1462 29.4007 14.1462 28.8149C14.1462 28.2741 13.7355 27.9912 13.0568 27.8946L12.7373 27.849C12.4439 27.8106 12.2087 27.7532 12.2087 27.5469C12.2087 27.3214 12.4304 27.1866 12.8022 27.1866C13.2002 27.1866 13.5855 27.3347 13.7743 27.4503L14.0678 26.9095ZM22.8153 26.5876C22.424 26.5876 22.1694 26.7681 21.994 27.0385V26.6649H21.322V29.7418H22V28.017C22 27.5078 22.2217 27.2249 22.6652 27.2249C22.8026 27.2249 22.9459 27.244 23.0893 27.3023L23.2983 26.6715C23.1483 26.6133 22.9527 26.5876 22.8153 26.5876ZM17.0296 26.6649H15.9209V25.7314H15.2355V26.6649H14.6031V27.2765H15.2355V28.6801C15.2355 29.394 15.5162 29.8192 16.3181 29.8192C16.6123 29.8192 16.9513 29.7293 17.1663 29.5812L16.9707 29.008C16.7683 29.1236 16.5466 29.1818 16.3704 29.1818C16.0314 29.1818 15.9209 28.9755 15.9209 28.6668V27.2765H17.0296V26.6649ZM6.89268 29.7418V27.8106C6.89268 27.0834 6.42304 26.5942 5.66596 26.5876C5.26801 26.5809 4.85737 26.7032 4.56991 27.135C4.35489 26.7939 4.01592 26.5876 3.53957 26.5876C3.20657 26.5876 2.88104 26.6841 2.62644 27.0444V26.6649H1.94775V29.7418H2.63241V28.0361C2.63241 27.5019 2.93256 27.2183 3.39621 27.2183C3.84643 27.2183 4.07415 27.5078 4.07415 28.0295V29.7418H4.75956V28.0361C4.75956 27.5019 5.07239 27.2183 5.52261 27.2183C5.98552 27.2183 6.20727 27.5078 6.20727 28.0295V29.7418H6.89268Z" fill="#231F20"/>
<path d="M37.6446 19.5089V19.0595H37.5258L37.3885 19.3682L37.2518 19.0595H37.1324V19.5089H37.2167V19.17L37.3452 19.4625H37.4325L37.5609 19.1692V19.5089H37.6446ZM36.8912 19.5089V19.1361H37.0435V19.0602H36.6553V19.1361H36.8076V19.5089H36.8912Z" fill="#F79410"/>
<path d="M24.1454 21.4424H13.8706V3.21973H24.1454V21.4424Z" fill="#FF5F00"/>
<path d="M14.5286 12.3296C14.5286 8.63308 16.2825 5.34029 19.0136 3.2183C17.0164 1.66659 14.4958 0.740424 11.7564 0.740424C5.27117 0.740424 0.0141602 5.929 0.0141602 12.3296C0.0141602 18.7302 5.27117 23.9188 11.7564 23.9188C14.4958 23.9188 17.0164 22.9927 19.0136 21.4409C16.2825 19.319 14.5286 16.0262 14.5286 12.3296Z" fill="#EB001B"/>
<path d="M38.0031 12.3296C38.0031 18.7302 32.7461 23.9188 26.2609 23.9188C23.5215 23.9188 21.0009 22.9927 19.0029 21.4409C21.7348 19.319 23.4887 16.0262 23.4887 12.3296C23.4887 8.63308 21.7348 5.3403 19.0029 3.2183C21.0009 1.66659 23.5215 0.740426 26.2609 0.740426C32.7461 0.740426 38.0031 5.929 38.0031 12.3296Z" fill="#F79E1B"/>
</g>
<defs>
<clipPath id="clip0_478_3334">
<rect width="38" height="30" fill="white"/>
</clipPath>
</defs>
</svg>
