<svg width="46" height="16" viewBox="0 0 46 16" fill="none" xmlns="http://www.w3.org/2000/svg">
<path d="M16.4375 0L13.9281 15.9679H17.939L20.4469 0H16.4375ZM28.5359 6.50444C27.1343 5.79666 26.275 5.31896 26.275 4.59506C26.2922 3.93687 27.0017 3.26256 28.586 3.26256C29.8891 3.22909 30.8469 3.54224 31.5735 3.85381L31.9375 4.01993L32.4828 0.679043C31.6905 0.365895 30.4344 0.0208524 28.8828 0.0208524C24.9219 0.0208524 22.1328 2.12667 22.1155 5.13847C22.0828 7.361 24.1123 8.59432 25.6312 9.33417C27.1828 10.0931 27.711 10.5852 27.711 11.2595C27.6938 12.2948 26.4564 12.7725 25.3017 12.7725C23.7017 12.7725 22.8423 12.5265 21.5377 11.9496L21.0095 11.7035L20.4486 15.1755C21.3908 15.6038 23.1235 15.9807 24.9221 16C29.1315 16 31.8705 13.9261 31.9049 10.7163C31.9186 8.95548 30.8484 7.60686 28.5359 6.50444ZM42.7656 0.0494164H39.6624C38.7061 0.0494164 37.9795 0.330672 37.5655 1.33408L31.6076 15.9679H35.817L36.9763 12.7996H41.6858L42.2873 15.9807H45.9999L42.7656 0.0494164ZM38.1437 9.60228C38.2249 9.61034 39.7594 4.43034 39.7594 4.43034L40.9813 9.60228C40.9813 9.60228 38.9359 9.60228 38.1437 9.60228ZM10.5766 0L6.6469 10.8487L6.21881 8.70927C5.4922 6.24071 3.21416 3.55818 0.671875 2.22568L4.27032 15.952H8.51416L14.8204 0.00175141H10.5766V0Z" fill="#005BAC"/>
</svg>
