<svg width="38" height="30" fill="none" xmlns="http://www.w3.org/2000/svg"><g clip-path="url(#clip0_478_3334)"><path d="M37.227 29.512v.076h.07c.016 0 .03-.004.04-.01a.033.033 0 00.014-.029.032.032 0 00-.014-.027.07.07 0 00-.04-.01h-.07zm.071-.053c.037 0 .065.008.085.024a.08.08 0 01.03.066.076.076 0 01-.023.059.118.118 0 01-.069.028l.095.107h-.074l-.087-.107h-.028v.107h-.061v-.284h.132zm-.018.381a.244.244 0 00.221-.146.24.24 0 00-.128-.312.252.252 0 00-.188 0 .23.23 0 00-.128.127.227.227 0 00-.02.093c0 .033.007.064.02.093.011.03.029.054.05.075a.243.243 0 00.173.07zm0-.544a.312.312 0 01.223.09.3.3 0 010 .432.314.314 0 01-.223.09.319.319 0 01-.293-.188.289.289 0 01-.025-.118.302.302 0 01.193-.281.317.317 0 01.125-.025zM8.19 28.203c0-.54.36-.985.946-.985.561 0 .94.425.94.985s-.379.986-.94.986c-.587 0-.946-.445-.946-.986zm2.525 0v-1.538h-.678v.373c-.215-.277-.542-.45-.985-.45-.874 0-1.56.676-1.56 1.615 0 .94.686 1.616 1.56 1.616.443 0 .77-.174.985-.45v.373h.678v-1.539zm22.91 0c0-.54.358-.985.945-.985.562 0 .94.425.94.985s-.378.986-.94.986c-.587 0-.946-.445-.946-.986zm2.524 0V25.43h-.678v1.61c-.215-.278-.542-.451-.985-.451-.874 0-1.56.676-1.56 1.615 0 .94.685 1.616 1.56 1.616.443 0 .77-.174.985-.45v.373h.678v-1.539zm-17.02-1.016c.438 0 .718.27.79.746h-1.618c.073-.444.346-.746.829-.746zm.014-.6c-.913 0-1.553.657-1.553 1.616 0 .979.666 1.616 1.599 1.616.47 0 .9-.116 1.278-.43l-.332-.497a1.504 1.504 0 01-.907.322c-.437 0-.835-.2-.933-.753h2.315c.007-.084.014-.168.014-.258-.007-.959-.607-1.615-1.48-1.615zm8.186 1.616c0-.54.36-.985.946-.985.561 0 .94.425.94.985s-.379.986-.94.986c-.586 0-.946-.445-.946-.986zm2.525 0v-1.538h-.678v.373c-.216-.277-.541-.45-.985-.45-.874 0-1.56.676-1.56 1.615 0 .94.686 1.616 1.56 1.616.444 0 .769-.174.985-.45v.373h.678v-1.539zm-6.353 0c0 .934.658 1.616 1.663 1.616.47 0 .783-.103 1.122-.367l-.326-.54c-.255.18-.522.277-.816.277-.541-.007-.94-.393-.94-.986 0-.592.399-.978.94-.985.294 0 .562.097.816.277l.326-.54c-.34-.264-.652-.367-1.122-.367-1.005 0-1.663.682-1.663 1.615zm8.74-1.615a.923.923 0 00-.822.45v-.373h-.672v3.077h.68v-1.725c0-.51.22-.792.664-.792.138 0 .281.019.425.077l.209-.63a1.46 1.46 0 00-.483-.084zm-18.173.322c-.326-.213-.776-.322-1.272-.322-.79 0-1.298.373-1.298.985 0 .501.378.81 1.076.907l.32.045c.372.052.547.148.547.322 0 .238-.248.374-.71.374-.47 0-.809-.148-1.037-.322l-.32.52c.372.271.841.4 1.35.4.9 0 1.422-.418 1.422-1.004 0-.54-.41-.824-1.09-.92l-.319-.046c-.293-.038-.528-.096-.528-.302 0-.226.221-.36.593-.36.398 0 .784.148.972.263l.294-.54zm8.747-.322a.92.92 0 00-.821.45v-.373h-.672v3.077H22v-1.725c0-.51.222-.792.665-.792.138 0 .28.019.424.077l.21-.63a1.46 1.46 0 00-.484-.084zm-5.785.077h-1.11v-.934h-.684v.934h-.633v.611h.633v1.404c0 .714.28 1.14 1.082 1.14.294 0 .633-.09.848-.239l-.195-.573a1.268 1.268 0 01-.6.174c-.34 0-.45-.206-.45-.515v-1.39h1.109v-.612zM6.893 29.742V27.81c0-.728-.47-1.217-1.227-1.223-.398-.007-.809.115-1.096.547-.215-.341-.554-.547-1.03-.547-.333 0-.659.096-.914.456v-.38h-.678v3.078h.684v-1.706c0-.534.3-.818.764-.818.45 0 .678.29.678.811v1.713h.686v-1.706c0-.534.312-.818.763-.818.463 0 .684.29.684.811v1.713h.686z" fill="#231F20"/><path d="M37.645 19.509v-.45h-.12l-.136.31-.137-.31h-.12v.45h.085v-.339l.128.292h.087l.129-.293v.34h.084zm-.754 0v-.373h.153v-.076h-.389v.076h.153v.373h.083z" fill="#F79410"/><path d="M24.145 21.442H13.871V3.22h10.274v18.222z" fill="#FF5F00"/><path d="M14.529 12.33c0-3.697 1.753-6.99 4.485-9.112A11.79 11.79 0 0011.756.74C5.271.74.014 5.93.014 12.33c0 6.4 5.257 11.589 11.742 11.589 2.74 0 5.26-.926 7.258-2.478-2.732-2.122-4.485-5.415-4.485-9.111z" fill="#EB001B"/><path d="M38.003 12.33c0 6.4-5.257 11.589-11.742 11.589-2.74 0-5.26-.926-7.258-2.478 2.732-2.122 4.486-5.415 4.486-9.111 0-3.697-1.754-6.99-4.486-9.112A11.795 11.795 0 0126.26.74c6.485 0 11.742 5.189 11.742 11.59z" fill="#F79E1B"/></g><defs><clipPath id="clip0_478_3334"><path fill="#fff" d="M0 0h38v30H0z"/></clipPath></defs></svg>