<svg width="46" height="16" fill="none" xmlns="http://www.w3.org/2000/svg"><path d="M16.438 0l-2.51 15.968h4.011L20.447 0h-4.01zm12.098 6.504c-1.402-.707-2.261-1.185-2.261-1.909.017-.658.727-1.332 2.311-1.332a6.848 6.848 0 012.988.59l.363.167.546-3.341a9.927 9.927 0 00-3.6-.658c-3.961 0-6.75 2.106-6.767 5.117-.033 2.223 1.996 3.456 3.515 4.196 1.552.76 2.08 1.251 2.08 1.925-.017 1.036-1.255 1.514-2.41 1.514-1.6 0-2.459-.246-3.763-.823l-.529-.246-.56 3.471c.942.429 2.674.806 4.473.825 4.21 0 6.948-2.074 6.983-5.284.014-1.76-1.057-3.11-3.37-4.212zM42.766.05h-3.104c-.956 0-1.682.282-2.096 1.285l-5.958 14.634h4.209l1.16-3.168h4.709l.601 3.18H46L42.766.05zm-4.622 9.553c.08.008 1.615-5.172 1.615-5.172l1.222 5.172h-2.837zM10.577 0l-3.93 10.849-.428-2.14C5.492 6.241 3.214 3.56.672 2.226L4.27 15.952h4.244L14.82.002h-4.243V0z" fill="#005BAC"/></svg>