<svg width="70" height="70" viewBox="0 0 70 70" fill="none" xmlns="http://www.w3.org/2000/svg">
<g clip-path="url(#clip0_162_7532)">
<path d="M69.9831 34.5342C69.9837 33.4178 69.079 32.5123 67.9626 32.5117L54.9712 32.5053C53.8548 32.5048 52.9493 33.4094 52.9488 34.5258C52.9482 35.6422 53.8529 36.5477 54.9693 36.5483L67.9607 36.5547C69.0771 36.5552 69.9826 35.6506 69.9831 34.5342Z" fill="#C60C30"/>
<path d="M18.0173 34.5083C18.0179 33.3919 17.1132 32.4864 15.9968 32.4858L3.00556 32.4794C1.88916 32.4789 0.983631 33.3835 0.983083 34.4999C0.982534 35.6163 1.88718 36.5219 3.00357 36.5224L15.9948 36.5288C17.1114 36.5293 18.0168 35.6247 18.0173 34.5083Z" fill="#B3B3B3"/>
<path d="M53.3741 26.5326L64.6281 20.0424C65.5954 19.4847 65.9272 18.2485 65.3694 17.2814C64.8116 16.3143 63.5755 15.9825 62.6084 16.5402L51.3543 23.0304C50.7055 23.4044 50.3428 24.0837 50.3424 24.7823C50.3422 25.1253 50.4294 25.4729 50.6131 25.7913C51.1708 26.7584 52.407 27.0903 53.3741 26.5326Z" fill="#B3B3B3"/>
<path d="M8.35771 52.4934L19.6115 46.0033C20.5788 45.4456 20.9106 44.2094 20.3528 43.2423C19.795 42.2753 18.5589 41.9434 17.5918 42.5011L6.33795 48.9912C5.68914 49.3652 5.32642 50.0445 5.32608 50.7432C5.32591 51.0861 5.41307 51.4337 5.59673 51.7521C6.15445 52.7192 7.39063 53.0511 8.35771 52.4934Z" fill="#B3B3B3"/>
<path d="M46.9849 18.6572L53.4862 7.40933C54.0452 6.44252 53.7144 5.20629 52.7477 4.64761C51.7812 4.08894 50.5447 4.41959 49.986 5.38612L43.4845 16.634C43.3005 16.9522 43.213 17.2997 43.2129 17.6427C43.2125 18.3413 43.5747 19.021 44.2232 19.3957C45.1897 19.9544 46.4262 19.6237 46.9849 18.6572Z" fill="#B3B3B3"/>
<path d="M20.9802 63.6476L27.4813 52.4C28.0399 51.4332 27.7093 50.1969 26.7426 49.6383C25.776 49.0797 24.5395 49.4103 23.9809 50.3768L17.4798 61.6244C17.2958 61.9428 17.2083 62.2902 17.2082 62.6331C17.2078 63.3318 17.57 64.0116 18.2183 64.3861C19.1851 64.9448 20.4216 64.6142 20.9802 63.6476Z" fill="#B3B3B3"/>
<path d="M37.5139 15.0306L37.5202 2.03906C37.5208 0.922664 36.6162 0.0171335 35.4998 0.0165851C34.3834 0.0160366 33.4778 0.920678 33.4773 2.03708L33.4709 15.0286C33.4703 16.145 34.375 17.0505 35.4914 17.0511C36.6078 17.0516 37.5133 16.147 37.5139 15.0306Z" fill="#B3B3B3"/>
<path d="M37.4882 66.9965L37.4946 54.0054C37.4952 52.889 36.5905 51.9834 35.4741 51.9829C34.3577 51.9823 33.4522 52.887 33.4516 54.0034L33.4453 66.9945C33.4447 68.1109 34.3494 69.0164 35.4658 69.017C36.5822 69.0175 37.4877 68.1129 37.4882 66.9965Z" fill="#C60C30"/>
<path d="M26.7574 19.3867C27.7246 18.829 28.0565 17.5931 27.4986 16.6257L21.0084 5.37147C20.4507 4.40438 19.2145 4.07252 18.2474 4.63025C17.5986 5.00431 17.2359 5.68362 17.2356 6.38224C17.2354 6.72522 17.3226 7.07283 17.5062 7.39123L23.9964 18.6455C24.5541 19.6126 25.7903 19.9444 26.7574 19.3867Z" fill="#B3B3B3"/>
<path d="M52.7179 64.403C53.6851 63.8453 54.0168 62.6092 53.4591 61.642L46.9689 50.3881C46.4114 49.421 45.1752 49.0891 44.2081 49.6468C43.5593 50.0209 43.1964 50.7002 43.1961 51.3988C43.1959 51.7417 43.2831 52.0894 43.4667 52.4078L49.9569 63.6618C50.5146 64.6289 51.7508 64.9607 52.7179 64.403Z" fill="#C60C30"/>
<path d="M20.3615 25.7766C20.9204 24.8101 20.5896 23.5734 19.623 23.0149L8.37524 16.5137C7.4087 15.955 6.1722 16.2856 5.61352 17.2522C5.42955 17.5704 5.34205 17.9179 5.34188 18.2609C5.34154 18.9595 5.70373 19.6393 6.35203 20.0139L17.5998 26.5151C18.5663 27.0738 19.8028 26.7431 20.3615 25.7766Z" fill="#B3B3B3"/>
<path d="M65.3522 51.7815C65.9111 50.8148 65.5803 49.5783 64.6137 49.0197L53.3662 42.5186C52.3997 41.9598 51.1632 42.2905 50.6045 43.2571C50.4205 43.5754 50.333 43.9229 50.3329 44.2659C50.3325 44.9645 50.6947 45.6442 51.343 46.0189L62.5905 52.52C63.557 53.0786 64.7935 52.748 65.3522 51.7815Z" fill="#C60C30"/>
</g>
<defs>
<clipPath id="clip0_162_7532">
<rect width="69" height="69" fill="white" transform="translate(70 0.0336914) rotate(90.0281)"/>
</clipPath>
</defs>
</svg>
