<svg width="104" height="40" viewBox="0 0 104 40" fill="none" xmlns="http://www.w3.org/2000/svg">
<g clip-path="url(#clip0_611_942)">
<path d="M94.1207 16.0797C94.0678 16.0713 94.0138 16.0741 93.962 16.0881C93.9103 16.1021 93.862 16.1268 93.8204 16.1607C93.7787 16.1947 93.7445 16.2371 93.72 16.2851C93.6955 16.3332 93.6813 16.3859 93.6782 16.4399C93.6782 16.4399 93.1163 17.7702 92.1232 18.2836C91.6709 18.5176 91.4798 18.641 90.4502 18.6112H85.2696C82.4685 18.4098 82.1792 15.4514 82.1792 15.4514C82.1792 15.0912 82.1412 14.6118 82.1412 14.4062V11.0478C82.2171 8.02272 84.5419 7.32779 84.5419 7.32779C84.9025 7.24485 85.2721 7.20863 85.6418 7.22H90.8238C93.1739 7.29801 93.7934 9.88627 93.7934 9.88627C93.8275 9.97727 93.8868 10.0564 93.9643 10.1143C94.0418 10.1721 94.1341 10.2062 94.2303 10.2125H103.642C103.738 10.2117 103.83 10.1725 103.898 10.1034C103.966 10.0343 104.003 9.9409 104.003 9.84373V8.82686C103.862 1.79528 97.5342 0.0919837 96.2208 0.124603C95.8668 0.124603 95.3779 0.0976562 95.1742 0.0976562H80.5399C76.0841 0.117511 73.557 3.43475 72.6594 5.70959C72.3734 6.41762 72.1962 7.16563 72.134 7.9277C72.1157 8.33899 72.082 8.99846 72.082 9.20411V17.0044C72.4866 24.4458 78.8809 25.6939 79.8417 25.7265C80.1648 25.7378 80.7056 25.7577 80.9065 25.7577H95.5381C102.222 25.3974 103.947 19.4834 103.975 17.5915C103.975 17.0427 103.993 16.8299 103.993 16.6271V16.4598C103.994 16.4112 103.985 16.3629 103.967 16.3177C103.95 16.2725 103.923 16.2313 103.89 16.1964C103.856 16.1615 103.816 16.1336 103.772 16.1143C103.728 16.095 103.68 16.0847 103.632 16.0839L94.1207 16.0797Z" fill="#0B2265"/>
<path d="M37.0059 0.762511C37.1084 0.583814 37.0269 0.444827 36.8275 0.444827H0.40582C0.309942 0.444449 0.217822 0.482445 0.149632 0.550493C0.0814418 0.618541 0.0427374 0.711098 0.0419949 0.807895V7.88202C0.04181 7.93038 0.0510841 7.97829 0.0692851 8.02302C0.0874861 8.06775 0.114256 8.10841 0.148059 8.14267C0.181861 8.17693 0.222032 8.20412 0.266265 8.22266C0.310498 8.24121 0.357923 8.25076 0.40582 8.25076H9.33704C9.38482 8.25095 9.43209 8.26063 9.47616 8.27926C9.52024 8.29789 9.56024 8.32511 9.59389 8.35935C9.62754 8.39359 9.65419 8.43419 9.6723 8.47882C9.69042 8.52346 9.69964 8.57126 9.69946 8.6195V25.0071C9.69983 25.1048 9.73843 25.1984 9.80684 25.2675C9.87525 25.3365 9.96794 25.3755 10.0647 25.3759H24.1231C24.2199 25.3755 24.3126 25.3365 24.381 25.2675C24.4494 25.1984 24.488 25.1048 24.4884 25.0071V8.62517C24.488 8.577 24.4971 8.52923 24.515 8.4846C24.533 8.43997 24.5595 8.39937 24.593 8.36511C24.6266 8.33085 24.6665 8.30361 24.7105 8.28496C24.7545 8.26631 24.8017 8.25662 24.8494 8.25643H32.2228C32.3323 8.24928 32.4387 8.21694 32.5339 8.16188C32.6291 8.10681 32.7105 8.03049 32.772 7.93875L37.0059 0.762511Z" fill="#0B2265"/>
<path d="M42.8829 0.450695C42.6536 0.461679 42.4367 0.558802 42.2747 0.722995C42.2747 0.722995 35.813 7.20572 35.834 16.2171C35.8411 21.7837 38.0956 25.0853 38.0956 25.0853C38.2459 25.2574 38.4575 25.3625 38.6842 25.3775H47.895C48.0944 25.3775 48.1534 25.2498 48.027 25.0938C48.027 25.0938 45.056 21.2717 45.1094 16.0753C45.153 11.415 47.8781 8.4878 47.8781 8.4878C47.9498 8.40148 48.0383 8.3309 48.1381 8.28041C48.2379 8.22992 48.3468 8.20059 48.4583 8.19422H54.2471C54.2948 8.19422 54.3421 8.20373 54.3861 8.22221C54.4302 8.24069 54.4702 8.26777 54.5039 8.3019C54.5376 8.33602 54.5642 8.37653 54.5824 8.42108C54.6005 8.46564 54.6097 8.51338 54.6095 8.56155V25.013C54.6095 25.0614 54.619 25.1094 54.6373 25.1541C54.6557 25.1988 54.6826 25.2395 54.7165 25.2737C54.7504 25.308 54.7907 25.3351 54.835 25.3537C54.8793 25.3722 54.9268 25.3817 54.9748 25.3817H68.071C68.1191 25.3819 68.1668 25.3725 68.2114 25.3541C68.2559 25.3357 68.2965 25.3086 68.3306 25.2743C68.3648 25.2401 68.392 25.1994 68.4106 25.1545C68.4292 25.1097 68.4388 25.0616 68.439 25.013V0.813761C68.4375 0.716459 68.398 0.623691 68.3291 0.555681C68.2601 0.487672 68.1674 0.449935 68.071 0.450695H42.8829Z" fill="#0B2265"/>
<path d="M45.1104 16.0796C45.1095 17.0588 45.2059 18.0357 45.3983 18.9955H64.2033L66.6742 15.0698H45.1539C45.1272 15.396 45.1104 15.7336 45.1104 16.0782" fill="#C60C30"/>
<path d="M45.7715 12.1738C45.5005 12.9529 45.3094 13.7579 45.2012 14.5763H66.9856L68.4985 12.1738H45.7715Z" fill="#C60C30"/>
<path d="M2.45994e-05 29.4254C2.17369e-05 29.3285 0.0379652 29.2355 0.105589 29.1667C0.173212 29.0979 0.265033 29.0589 0.361037 29.0581H103.593C103.689 29.0588 103.781 29.0978 103.849 29.1665C103.917 29.2352 103.956 29.3282 103.956 29.4254V39.1871C103.957 39.2355 103.947 39.2834 103.929 39.3281C103.911 39.3728 103.884 39.4135 103.85 39.4478C103.817 39.482 103.776 39.5092 103.732 39.5277C103.688 39.5463 103.641 39.5558 103.593 39.5558H0.361037C0.313271 39.5558 0.265979 39.5463 0.221902 39.5277C0.177825 39.5091 0.137839 39.4819 0.10426 39.4476C0.070681 39.4133 0.0441788 39.3726 0.026286 39.3279C0.00839314 39.2832 -0.000532977 39.2353 2.45994e-05 39.1871V29.4254Z" fill="#0B2265"/>
<path d="M9.60836 32.304H8.0449V37.7074H7.01243V32.304H5.44336V31.436H9.74181L9.60836 32.304Z" fill="white"/>
<path d="M16.9314 35.1873C16.6505 34.2413 16.4005 33.3436 16.1954 32.4713C15.9341 33.4116 15.663 34.315 15.4087 35.1873H16.9314ZM17.6675 37.7074L17.1632 36.058H15.1545L14.6544 37.7089H13.584L15.618 31.436H16.8092L18.7927 37.7074H17.6675Z" fill="white"/>
<path d="M26.209 37.7981C25.8341 37.8097 25.4617 37.7338 25.1206 37.5764C24.7795 37.419 24.479 37.1843 24.2424 36.8905C23.776 36.3232 23.5288 35.5559 23.5288 34.6809C23.5111 34.0233 23.6559 33.3716 23.9502 32.7847C24.162 32.3542 24.4881 31.9916 24.8922 31.7374C25.2963 31.4832 25.7624 31.3474 26.2385 31.3452C26.8439 31.3452 27.4157 31.5253 27.7837 31.8359L27.3061 32.5138C27.0026 32.2787 26.6294 32.1538 26.2469 32.1593C25.9918 32.1574 25.7411 32.227 25.5228 32.3605C25.3046 32.494 25.1273 32.686 25.0108 32.9152C24.7944 33.2939 24.6863 33.82 24.6863 34.5561C24.6863 35.2921 24.7664 35.7417 24.9279 36.0963C25.0431 36.3675 25.2369 36.5973 25.4839 36.7552C25.7309 36.9132 26.0194 36.992 26.3116 36.9812C26.7178 36.9938 27.1141 36.8526 27.4227 36.5856L27.9087 37.245C27.4211 37.6197 26.8216 37.8153 26.209 37.7996" fill="white"/>
<path d="M37.6648 32.0684L37.3839 32.1421C37.254 32.1576 37.1317 32.2119 37.0327 32.2981C36.9385 32.4163 36.8735 32.5553 36.8431 32.7038L36.6829 33.3547C36.6225 33.6199 36.5677 33.8809 36.3163 34.1177C36.19 34.2333 36.0405 34.3199 35.878 34.3716V34.39C36.02 34.4395 36.1516 34.5155 36.2657 34.6141C36.4641 34.8106 36.6009 35.0616 36.659 35.336L36.94 36.3415C36.9682 36.5046 37.0395 36.657 37.1465 36.7826C37.2563 36.8744 37.3856 36.9394 37.5243 36.9726L37.7941 37.0535L37.6044 37.7938L37.2645 37.7527C36.9681 37.7257 36.5621 37.6704 36.2812 37.4024C36.048 37.1627 36.0002 36.8493 35.9496 36.5855L35.7432 35.6211C35.6982 35.4353 35.628 35.1644 35.4538 35.0084C35.2816 34.8695 35.0641 34.8006 34.8441 34.8155H34.2527V37.7087H33.2217V31.4359H34.2527V33.9646H34.934C35.1618 33.9847 35.3881 33.9128 35.5634 33.7646C35.7235 33.6015 35.767 33.3533 35.812 33.176L35.9834 32.4102C36.0229 32.1462 36.1382 31.8997 36.3149 31.7011C36.527 31.4898 36.756 31.4628 37.1156 31.4103L37.4822 31.3564L37.6803 32.0656L37.6648 32.0684Z" fill="white"/>
<path d="M45.1535 32.1422C44.0831 32.1422 43.687 32.9932 43.687 34.4908C43.687 36.1033 44.0943 36.9996 45.1788 36.9996C46.1031 36.9996 46.5835 36.3104 46.5835 34.6241C46.5835 33.0995 46.2702 32.1422 45.1605 32.1422H45.1535ZM45.1858 37.7981C43.4173 37.7981 42.5449 36.4182 42.5449 34.5645C42.5449 32.5053 43.5858 31.3438 45.1408 31.3438C46.8911 31.3438 47.7326 32.7464 47.7326 34.5702C47.7326 36.5288 46.797 37.7981 45.1844 37.7981" fill="white"/>
<path d="M58.2571 37.7077L57.9677 33.8204C57.9438 33.4204 57.9242 32.9212 57.9242 32.734C57.8806 32.9397 57.7991 33.3368 57.6825 33.7367L56.5489 37.7077H55.671L54.6385 33.9083C54.5219 33.4928 54.4025 32.9297 54.366 32.7227C54.366 32.9312 54.3323 33.5325 54.3084 33.9168L54.0275 37.7077H53.0146L53.5765 31.4363H54.9504L55.9014 34.9819C55.996 35.3341 56.0724 35.691 56.1303 36.0513C56.1612 35.8612 56.2413 35.4329 56.3593 35.0003L57.3426 31.4307H58.7164L59.2671 37.7021L58.2571 37.7077Z" fill="white"/>
<path d="M66.75 36.8508C67.2178 36.8508 67.4889 36.709 67.6308 36.5672C67.7241 36.4678 67.7962 36.3503 67.8428 36.2218C67.8895 36.0932 67.9096 35.9564 67.9019 35.8198C67.9111 35.6832 67.8917 35.5462 67.845 35.4177C67.7983 35.2891 67.7253 35.172 67.6308 35.0738C67.385 34.844 67.031 34.8001 66.75 34.8001H65.8721V36.8452L66.75 36.8508ZM68.5762 31.4375L68.4357 32.2884H65.8679V33.9491H66.7261C67.1953 33.9491 67.9904 33.9491 68.5439 34.4937C68.9807 34.9291 69.0453 35.5163 69.0453 35.8723C69.0576 36.0988 69.0251 36.3255 68.9499 36.5392C68.8747 36.753 68.7581 36.9495 68.6071 37.1175C68.0915 37.6578 67.2838 37.7004 66.684 37.7004H64.834V31.436L68.5762 31.4375Z" fill="white"/>
<path d="M77.1335 35.1873C76.8525 34.2413 76.6025 33.3436 76.3988 32.4713C76.1361 33.4116 75.8692 34.315 75.6051 35.1873H77.1335ZM77.8653 37.7074L77.3624 36.0566H75.3523L74.8494 37.7074H73.7832L75.8215 31.436H77.0155L78.9989 37.7074H77.8653Z" fill="white"/>
<path d="M87.1586 37.7074V34.8043H85.0403V37.7074H84.0078V31.436H85.0403V33.9548H87.1586V31.436H88.1883V37.7074H87.1586Z" fill="white"/>
<path d="M98.3964 32.0684L98.1071 32.1421C97.9785 32.1576 97.8575 32.212 97.7601 32.2981C97.663 32.4144 97.5976 32.5542 97.5705 32.7038L97.4047 33.3547C97.3443 33.6199 97.2895 33.8809 97.0353 34.1177C96.9112 34.2348 96.7622 34.3216 96.5998 34.3716V34.39C96.7429 34.4391 96.8754 34.5151 96.9903 34.6141C97.1899 34.8092 97.3261 35.061 97.3808 35.336L97.6618 36.3415C97.6891 36.5052 97.7611 36.658 97.8697 36.7826C97.9788 36.8754 98.1084 36.9406 98.2475 36.9726L98.5158 37.0535L98.3262 37.7938L97.9863 37.7527C97.6899 37.7257 97.2769 37.6704 97.003 37.4024C96.7698 37.1627 96.722 36.8493 96.6686 36.5855L96.4636 35.6211C96.4186 35.4353 96.3484 35.1644 96.1826 35.0084C96.0099 34.8694 95.7919 34.8006 95.5716 34.8155H94.9788V37.7087H93.9463V31.4359H94.9788V33.9646H95.6586C95.7716 33.9748 95.8855 33.9623 95.9937 33.928C96.102 33.8937 96.2024 33.8382 96.2894 33.7646C96.4241 33.595 96.5106 33.3915 96.5394 33.176L96.7136 32.4102C96.7499 32.1452 96.8656 31.8978 97.0451 31.7011C97.2516 31.4898 97.4834 31.4628 97.8402 31.4103L98.2124 31.3564L98.4105 32.0656L98.3964 32.0684Z" fill="white"/>
</g>
<defs>
<clipPath id="clip0_611_942">
<rect width="104" height="40" fill="white"/>
</clipPath>
</defs>
</svg>
