<svg width="104" height="54" viewBox="0 0 104 54" fill="none" xmlns="http://www.w3.org/2000/svg">
<g clip-path="url(#clip0_20711_1427)">
<path d="M94.1207 16.0797C94.0678 16.0713 94.0138 16.0741 93.962 16.0881C93.9103 16.1021 93.862 16.1268 93.8204 16.1607C93.7787 16.1947 93.7445 16.2371 93.72 16.2851C93.6955 16.3332 93.6813 16.3859 93.6782 16.4399C93.6782 16.4399 93.1163 17.7702 92.1232 18.2836C91.6709 18.5176 91.4798 18.641 90.4502 18.6112H85.2696C82.4685 18.4098 82.1792 15.4514 82.1792 15.4514C82.1792 15.0912 82.1412 14.6118 82.1412 14.4062V11.0478C82.2171 8.02272 84.5419 7.32779 84.5419 7.32779C84.9025 7.24485 85.2721 7.20863 85.6418 7.22H90.8238C93.1739 7.29801 93.7934 9.88627 93.7934 9.88627C93.8275 9.97727 93.8868 10.0564 93.9643 10.1143C94.0418 10.1721 94.1341 10.2062 94.2303 10.2125H103.642C103.738 10.2117 103.83 10.1725 103.898 10.1034C103.966 10.0343 104.003 9.9409 104.003 9.84373V8.82686C103.862 1.79528 97.5342 0.0919837 96.2208 0.124603C95.8668 0.124603 95.3779 0.0976562 95.1742 0.0976562H80.5399C76.0841 0.117511 73.557 3.43475 72.6594 5.70959C72.3734 6.41762 72.1962 7.16563 72.134 7.9277C72.1157 8.33899 72.082 8.99846 72.082 9.20411V17.0044C72.4866 24.4458 78.8809 25.6939 79.8417 25.7265C80.1648 25.7378 80.7056 25.7577 80.9065 25.7577H95.5381C102.222 25.3974 103.947 19.4834 103.975 17.5915C103.975 17.0427 103.993 16.8299 103.993 16.6271V16.4598C103.994 16.4112 103.985 16.3629 103.967 16.3177C103.95 16.2725 103.923 16.2313 103.89 16.1964C103.856 16.1615 103.816 16.1336 103.772 16.1143C103.728 16.095 103.68 16.0847 103.632 16.0839L94.1207 16.0797Z" fill="#0B2265"/>
<path d="M37.0059 0.762511C37.1084 0.583814 37.0269 0.444827 36.8275 0.444827H0.40582C0.309942 0.444449 0.217822 0.482445 0.149632 0.550493C0.0814418 0.618541 0.0427374 0.711098 0.0419949 0.807895V7.88202C0.04181 7.93038 0.0510841 7.97829 0.0692851 8.02302C0.0874861 8.06775 0.114256 8.10841 0.148059 8.14267C0.181861 8.17693 0.222032 8.20412 0.266265 8.22266C0.310498 8.24121 0.357923 8.25076 0.40582 8.25076H9.33704C9.38482 8.25095 9.43209 8.26063 9.47616 8.27926C9.52024 8.29789 9.56024 8.32511 9.59389 8.35935C9.62754 8.39359 9.65419 8.43419 9.6723 8.47882C9.69042 8.52346 9.69964 8.57126 9.69946 8.6195V25.0071C9.69983 25.1048 9.73843 25.1984 9.80684 25.2675C9.87525 25.3365 9.96794 25.3755 10.0647 25.3759H24.1231C24.2199 25.3755 24.3126 25.3365 24.381 25.2675C24.4494 25.1984 24.488 25.1048 24.4884 25.0071V8.62517C24.488 8.577 24.4971 8.52923 24.515 8.4846C24.533 8.43997 24.5595 8.39937 24.593 8.36511C24.6266 8.33085 24.6665 8.30361 24.7105 8.28496C24.7545 8.26631 24.8017 8.25662 24.8494 8.25643H32.2228C32.3323 8.24928 32.4387 8.21694 32.5339 8.16188C32.6291 8.10681 32.7105 8.03049 32.772 7.93875L37.0059 0.762511Z" fill="#0B2265"/>
<path d="M42.8829 0.450695C42.6536 0.461679 42.4367 0.558802 42.2747 0.722995C42.2747 0.722995 35.813 7.20572 35.834 16.2171C35.8411 21.7837 38.0956 25.0853 38.0956 25.0853C38.2459 25.2574 38.4575 25.3625 38.6842 25.3775H47.895C48.0944 25.3775 48.1534 25.2498 48.027 25.0938C48.027 25.0938 45.056 21.2717 45.1094 16.0753C45.153 11.415 47.8781 8.4878 47.8781 8.4878C47.9498 8.40148 48.0383 8.3309 48.1381 8.28041C48.2379 8.22992 48.3468 8.20059 48.4583 8.19422H54.2471C54.2948 8.19422 54.3421 8.20373 54.3861 8.22221C54.4302 8.24069 54.4702 8.26777 54.5039 8.3019C54.5376 8.33602 54.5642 8.37653 54.5824 8.42108C54.6005 8.46564 54.6097 8.51338 54.6095 8.56155V25.013C54.6095 25.0614 54.619 25.1094 54.6373 25.1541C54.6557 25.1988 54.6826 25.2395 54.7165 25.2737C54.7504 25.308 54.7907 25.3351 54.835 25.3537C54.8793 25.3722 54.9268 25.3817 54.9748 25.3817H68.071C68.1191 25.3819 68.1668 25.3725 68.2114 25.3541C68.2559 25.3357 68.2965 25.3086 68.3306 25.2743C68.3648 25.2401 68.392 25.1994 68.4106 25.1545C68.4292 25.1097 68.4388 25.0616 68.439 25.013V0.813761C68.4375 0.716459 68.398 0.623691 68.3291 0.555681C68.2601 0.487672 68.1674 0.449935 68.071 0.450695H42.8829Z" fill="#0B2265"/>
<path d="M45.1104 16.0796C45.1095 17.0588 45.2059 18.0357 45.3983 18.9955H64.2033L66.6742 15.0698H45.1539C45.1272 15.396 45.1104 15.7336 45.1104 16.0782" fill="#C60C30"/>
<path d="M45.7715 12.1738C45.5005 12.9529 45.3094 13.7579 45.2012 14.5763H66.9856L68.4985 12.1738H45.7715Z" fill="#C60C30"/>
<path d="M2.45994e-05 29.4254C2.17369e-05 29.3285 0.0379652 29.2355 0.105589 29.1667C0.173212 29.0979 0.265033 29.0589 0.361037 29.0581H103.593C103.689 29.0588 103.781 29.0978 103.849 29.1665C103.917 29.2352 103.956 29.3282 103.956 29.4254V39.1871C103.957 39.2355 103.947 39.2834 103.929 39.3281C103.911 39.3728 103.884 39.4135 103.85 39.4478C103.817 39.482 103.776 39.5092 103.732 39.5277C103.688 39.5463 103.641 39.5558 103.593 39.5558H0.361037C0.313271 39.5558 0.265979 39.5463 0.221902 39.5277C0.177825 39.5091 0.137839 39.4819 0.10426 39.4476C0.070681 39.4133 0.0441788 39.3726 0.026286 39.3279C0.00839314 39.2832 -0.000532977 39.2353 2.45994e-05 39.1871V29.4254Z" fill="#0B2265"/>
<path d="M9.60836 32.304H8.0449V37.7074H7.01243V32.304H5.44336V31.436H9.74181L9.60836 32.304Z" fill="white"/>
<path d="M16.9314 35.1873C16.6505 34.2413 16.4005 33.3436 16.1954 32.4713C15.9341 33.4116 15.663 34.315 15.4087 35.1873H16.9314ZM17.6675 37.7074L17.1632 36.058H15.1545L14.6544 37.7089H13.584L15.618 31.436H16.8092L18.7927 37.7074H17.6675Z" fill="white"/>
<path d="M26.209 37.7981C25.8341 37.8097 25.4617 37.7338 25.1206 37.5764C24.7795 37.419 24.479 37.1843 24.2424 36.8905C23.776 36.3232 23.5288 35.5559 23.5288 34.6809C23.5111 34.0233 23.6559 33.3716 23.9502 32.7847C24.162 32.3542 24.4881 31.9916 24.8922 31.7374C25.2963 31.4832 25.7624 31.3474 26.2385 31.3452C26.8439 31.3452 27.4157 31.5253 27.7837 31.8359L27.3061 32.5138C27.0026 32.2787 26.6294 32.1538 26.2469 32.1593C25.9918 32.1574 25.7411 32.227 25.5228 32.3605C25.3046 32.494 25.1273 32.686 25.0108 32.9152C24.7944 33.2939 24.6863 33.82 24.6863 34.5561C24.6863 35.2921 24.7664 35.7417 24.9279 36.0963C25.0431 36.3675 25.2369 36.5973 25.4839 36.7552C25.7309 36.9132 26.0194 36.992 26.3116 36.9812C26.7178 36.9938 27.1141 36.8526 27.4227 36.5856L27.9087 37.245C27.4211 37.6197 26.8216 37.8153 26.209 37.7996" fill="white"/>
<path d="M37.6648 32.0684L37.3839 32.1421C37.254 32.1576 37.1317 32.2119 37.0327 32.2981C36.9385 32.4163 36.8735 32.5553 36.8431 32.7038L36.6829 33.3547C36.6225 33.6199 36.5677 33.8809 36.3163 34.1177C36.19 34.2333 36.0405 34.3199 35.878 34.3716V34.39C36.02 34.4395 36.1516 34.5155 36.2657 34.6141C36.4641 34.8106 36.6009 35.0616 36.659 35.336L36.94 36.3415C36.9682 36.5046 37.0395 36.657 37.1465 36.7826C37.2563 36.8744 37.3856 36.9394 37.5243 36.9726L37.7941 37.0535L37.6044 37.7938L37.2645 37.7527C36.9681 37.7257 36.5621 37.6704 36.2812 37.4024C36.048 37.1627 36.0002 36.8493 35.9496 36.5855L35.7432 35.6211C35.6982 35.4353 35.628 35.1644 35.4538 35.0084C35.2816 34.8695 35.0641 34.8006 34.8441 34.8155H34.2527V37.7087H33.2217V31.4359H34.2527V33.9646H34.934C35.1618 33.9847 35.3881 33.9128 35.5634 33.7646C35.7235 33.6015 35.767 33.3533 35.812 33.176L35.9834 32.4102C36.0229 32.1462 36.1382 31.8997 36.3149 31.7011C36.527 31.4898 36.756 31.4628 37.1156 31.4103L37.4822 31.3564L37.6803 32.0656L37.6648 32.0684Z" fill="white"/>
<path d="M45.1535 32.1422C44.0831 32.1422 43.687 32.9932 43.687 34.4908C43.687 36.1033 44.0943 36.9996 45.1788 36.9996C46.1031 36.9996 46.5835 36.3104 46.5835 34.6241C46.5835 33.0995 46.2702 32.1422 45.1605 32.1422H45.1535ZM45.1858 37.7981C43.4173 37.7981 42.5449 36.4182 42.5449 34.5645C42.5449 32.5053 43.5858 31.3438 45.1408 31.3438C46.8911 31.3438 47.7326 32.7464 47.7326 34.5702C47.7326 36.5288 46.797 37.7981 45.1844 37.7981" fill="white"/>
<path d="M58.2571 37.7077L57.9677 33.8204C57.9438 33.4204 57.9242 32.9212 57.9242 32.734C57.8806 32.9397 57.7991 33.3368 57.6825 33.7367L56.5489 37.7077H55.671L54.6385 33.9083C54.5219 33.4928 54.4025 32.9297 54.366 32.7227C54.366 32.9312 54.3323 33.5325 54.3084 33.9168L54.0275 37.7077H53.0146L53.5765 31.4363H54.9504L55.9014 34.9819C55.996 35.3341 56.0724 35.691 56.1303 36.0513C56.1612 35.8612 56.2413 35.4329 56.3593 35.0003L57.3426 31.4307H58.7164L59.2671 37.7021L58.2571 37.7077Z" fill="white"/>
<path d="M66.75 36.8508C67.2178 36.8508 67.4889 36.709 67.6308 36.5672C67.7241 36.4678 67.7962 36.3503 67.8428 36.2218C67.8895 36.0932 67.9096 35.9564 67.9019 35.8198C67.9111 35.6832 67.8917 35.5462 67.845 35.4177C67.7983 35.2891 67.7253 35.172 67.6308 35.0738C67.385 34.844 67.031 34.8001 66.75 34.8001H65.8721V36.8452L66.75 36.8508ZM68.5762 31.4375L68.4357 32.2884H65.8679V33.9491H66.7261C67.1953 33.9491 67.9904 33.9491 68.5439 34.4937C68.9807 34.9291 69.0453 35.5163 69.0453 35.8723C69.0576 36.0988 69.0251 36.3255 68.9499 36.5392C68.8747 36.753 68.7581 36.9495 68.6071 37.1175C68.0915 37.6578 67.2838 37.7004 66.684 37.7004H64.834V31.436L68.5762 31.4375Z" fill="white"/>
<path d="M77.1335 35.1873C76.8525 34.2413 76.6025 33.3436 76.3988 32.4713C76.1361 33.4116 75.8692 34.315 75.6051 35.1873H77.1335ZM77.8653 37.7074L77.3624 36.0566H75.3523L74.8494 37.7074H73.7832L75.8215 31.436H77.0155L78.9989 37.7074H77.8653Z" fill="white"/>
<path d="M87.1586 37.7074V34.8043H85.0403V37.7074H84.0078V31.436H85.0403V33.9548H87.1586V31.436H88.1883V37.7074H87.1586Z" fill="white"/>
<path d="M98.3964 32.0684L98.1071 32.1421C97.9785 32.1576 97.8575 32.212 97.7601 32.2981C97.663 32.4144 97.5976 32.5542 97.5705 32.7038L97.4047 33.3547C97.3443 33.6199 97.2895 33.8809 97.0353 34.1177C96.9112 34.2348 96.7622 34.3216 96.5998 34.3716V34.39C96.7429 34.4391 96.8754 34.5151 96.9903 34.6141C97.1899 34.8092 97.3261 35.061 97.3808 35.336L97.6618 36.3415C97.6891 36.5052 97.7611 36.658 97.8697 36.7826C97.9788 36.8754 98.1084 36.9406 98.2475 36.9726L98.5158 37.0535L98.3262 37.7938L97.9863 37.7527C97.6899 37.7257 97.2769 37.6704 97.003 37.4024C96.7698 37.1627 96.722 36.8493 96.6686 36.5855L96.4636 35.6211C96.4186 35.4353 96.3484 35.1644 96.1826 35.0084C96.0099 34.8694 95.7919 34.8006 95.5716 34.8155H94.9788V37.7087H93.9463V31.4359H94.9788V33.9646H95.6586C95.7716 33.9748 95.8855 33.9623 95.9937 33.928C96.102 33.8937 96.2024 33.8382 96.2894 33.7646C96.4241 33.595 96.5106 33.3915 96.5394 33.176L96.7136 32.4102C96.7499 32.1452 96.8656 31.8978 97.0451 31.7011C97.2516 31.4898 97.4834 31.4628 97.8402 31.4103L98.2124 31.3564L98.4105 32.0656L98.3964 32.0684Z" fill="white"/>
<path d="M8.81565 48.415C8.81865 48.7419 8.77126 49.0672 8.67518 49.3794C8.59171 49.6546 8.45623 49.9108 8.27624 50.1339C8.10413 50.3433 7.88762 50.511 7.64271 50.6246C7.35832 50.7487 7.05057 50.8087 6.74088 50.8005H5.97531V53.6937C5.97561 53.7158 5.9708 53.7376 5.96126 53.7575C5.95166 53.7776 5.93589 53.794 5.91631 53.8043C5.88967 53.818 5.86132 53.828 5.83202 53.8341C5.78575 53.843 5.73865 53.8468 5.69155 53.8454C5.64727 53.8462 5.60303 53.8424 5.55951 53.8341C5.52924 53.8283 5.49992 53.8183 5.47241 53.8043C5.45237 53.7941 5.43611 53.7777 5.42606 53.7575C5.41652 53.7376 5.41171 53.7158 5.41201 53.6937V46.6082C5.40701 46.5574 5.41214 46.5062 5.4271 46.4575C5.44206 46.4087 5.46654 46.3636 5.4991 46.3246C5.5435 46.2778 5.60363 46.2494 5.66767 46.2451H6.8659C6.98184 46.2448 7.09771 46.2514 7.21287 46.265C7.3466 46.2834 7.47861 46.3128 7.60759 46.3529C7.7754 46.4067 7.9317 46.4919 8.06834 46.6039C8.22679 46.7286 8.3619 46.8809 8.46728 47.0535C8.58146 47.2423 8.66671 47.4474 8.72013 47.6619C8.78392 47.9078 8.81603 48.1609 8.81565 48.415ZM8.22708 48.4788C8.23497 48.1938 8.18377 47.9102 8.07677 47.6463C7.99858 47.4484 7.87253 47.2733 7.71014 47.1372C7.57843 47.0321 7.42388 46.9602 7.25922 46.9273C7.11289 46.899 6.96431 46.8843 6.81533 46.8833H5.9725V50.1679H6.77459C6.99707 50.1751 7.21831 50.132 7.42217 50.0417C7.59362 49.9603 7.74445 49.8405 7.86325 49.6914C7.98707 49.5326 8.07915 49.351 8.13436 49.1568C8.19904 48.9344 8.23076 48.7035 8.22848 48.4718L8.22708 48.4788Z" fill="#0B2265"/>
<path d="M14.5479 53.5633C14.564 53.6089 14.5725 53.6568 14.5731 53.7051C14.5737 53.7366 14.5621 53.7671 14.5408 53.7902C14.5152 53.8124 14.4832 53.8258 14.4495 53.8285C14.3973 53.8349 14.3448 53.8378 14.2922 53.837C14.241 53.8379 14.1899 53.8351 14.1391 53.8285C14.1083 53.8245 14.0784 53.8154 14.0506 53.8016C14.0305 53.7911 14.0138 53.7748 14.0028 53.7548C13.991 53.7325 13.9811 53.7093 13.9733 53.6853L13.4114 51.6686H10.8183L10.2803 53.6739C10.2753 53.6984 10.2663 53.7219 10.2536 53.7434C10.2406 53.7636 10.2234 53.7805 10.2031 53.7931C10.1757 53.8091 10.1457 53.8201 10.1146 53.8257C10.0682 53.8339 10.0212 53.8377 9.97408 53.837C9.92048 53.838 9.86689 53.8342 9.81394 53.8257C9.77924 53.8217 9.74649 53.8073 9.71983 53.7845C9.70932 53.7737 9.70106 53.7608 9.69551 53.7467C9.68997 53.7326 9.68725 53.7175 9.68752 53.7023C9.6879 53.6539 9.69645 53.606 9.7128 53.5605L11.7777 46.3658C11.7855 46.3367 11.7994 46.3096 11.8185 46.2864C11.8376 46.2644 11.8617 46.2473 11.8887 46.2367C11.9227 46.224 11.9581 46.2155 11.9941 46.2112C12.0406 46.205 12.0876 46.2022 12.1345 46.2027C12.1815 46.2023 12.2284 46.2051 12.275 46.2112C12.311 46.2155 12.3464 46.2241 12.3804 46.2367C12.4072 46.2469 12.431 46.264 12.4492 46.2864C12.4672 46.3101 12.4806 46.337 12.4885 46.3658L14.5479 53.5633ZM12.0994 47.0054L10.9827 51.0729H13.2387L12.0994 47.0054Z" fill="#0B2265"/>
<path d="M18.8726 51.7224C18.8754 52.014 18.8317 52.3041 18.7434 52.5818C18.6616 52.838 18.527 53.0738 18.3487 53.2739C18.1656 53.4758 17.94 53.6338 17.6885 53.7362C17.3923 53.8529 17.0763 53.9093 16.7585 53.9022C16.5788 53.9045 16.3994 53.884 16.2247 53.8412C16.0849 53.8083 15.9488 53.7608 15.8188 53.6994C15.7282 53.656 15.6413 53.6052 15.5589 53.5476C15.5142 53.5165 15.4723 53.4814 15.4339 53.4427C15.413 53.4198 15.3955 53.394 15.3819 53.3661C15.3689 53.3372 15.36 53.3067 15.3552 53.2753C15.3552 53.2399 15.344 53.1987 15.3398 53.1491C15.3355 53.0995 15.3398 53.0441 15.3398 52.9832C15.3358 52.9152 15.3434 52.8471 15.3622 52.7818C15.3664 52.7664 15.3753 52.7527 15.3877 52.7428C15.4001 52.7328 15.4153 52.7271 15.4311 52.7265C15.4889 52.7366 15.5424 52.7643 15.5842 52.8059C15.6497 52.8588 15.7354 52.9203 15.8413 52.9902C15.9648 53.0688 16.098 53.1307 16.2374 53.1746C16.4221 53.2314 16.6146 53.2582 16.8077 53.254C17.0139 53.2565 17.2188 53.2199 17.4117 53.1463C17.5876 53.0799 17.7477 52.9769 17.8815 52.844C18.0153 52.7111 18.12 52.5512 18.1885 52.3747C18.2635 52.1824 18.3007 51.9772 18.2981 51.7706C18.3005 51.5521 18.2658 51.3348 18.1956 51.1281C18.1318 50.9411 18.0293 50.77 17.895 50.6261C17.758 50.4824 17.5916 50.3706 17.4075 50.2985C17.1973 50.2176 16.9736 50.1782 16.7487 50.1822H16.0239C15.9975 50.1834 15.9713 50.1776 15.948 50.1651C15.9265 50.1516 15.9091 50.1325 15.8974 50.1098C15.8822 50.0796 15.8723 50.047 15.8679 50.0134C15.8612 49.9664 15.8579 49.919 15.8581 49.8716C15.8579 49.8265 15.8612 49.7814 15.8679 49.7368C15.8726 49.7024 15.8825 49.6689 15.8974 49.6376C15.9089 49.6128 15.9269 49.5917 15.9494 49.5766C15.9713 49.5629 15.9967 49.556 16.0225 49.5567H16.6841C16.882 49.5587 17.0788 49.5261 17.2656 49.4603C17.437 49.4006 17.5933 49.3038 17.7236 49.1766C17.8549 49.0448 17.9569 48.8862 18.0228 48.7115C18.0976 48.5078 18.1338 48.2918 18.1295 48.0747C18.1315 47.8975 18.1069 47.7211 18.0565 47.5513C18.0127 47.4029 17.938 47.2655 17.8374 47.1486C17.7377 47.0361 17.6136 46.9482 17.4749 46.8919C17.3144 46.8283 17.143 46.7975 16.9706 46.8011C16.7889 46.7978 16.608 46.8256 16.4354 46.8834C16.2979 46.9308 16.1652 46.9916 16.0393 47.0649C15.9422 47.1218 15.8484 47.1843 15.7584 47.2521C15.7103 47.2976 15.6504 47.3281 15.5856 47.34C15.5698 47.3411 15.5542 47.336 15.542 47.3258C15.5286 47.312 15.519 47.2949 15.514 47.2762C15.5053 47.2457 15.5001 47.2143 15.4985 47.1826C15.4985 47.1438 15.4985 47.0966 15.4985 47.0408C15.4985 47.002 15.4985 46.9642 15.4985 46.9273C15.5014 46.8921 15.5061 46.8571 15.5125 46.8224C15.518 46.7914 15.5265 46.761 15.5378 46.7316C15.5497 46.702 15.5658 46.6743 15.5856 46.6493C15.6339 46.5997 15.6881 46.5563 15.7471 46.5203C15.8486 46.4543 15.9564 46.3987 16.0688 46.3544C16.211 46.2956 16.3576 46.2482 16.5071 46.2125C16.6759 46.1708 16.8488 46.1484 17.0226 46.1459C17.2737 46.1407 17.5231 46.1891 17.7545 46.2877C17.955 46.3753 18.1336 46.5071 18.277 46.6735C18.4204 46.844 18.5266 47.0431 18.5889 47.2578C18.6593 47.4985 18.6939 47.7485 18.6914 47.9995C18.6949 48.2393 18.6631 48.4782 18.5973 48.7086C18.5425 48.8996 18.4571 49.0802 18.3445 49.2433C18.2457 49.3863 18.1214 49.5094 17.9778 49.6064C17.8469 49.6948 17.7006 49.7574 17.5466 49.7907V49.8021C17.7309 49.8339 17.9065 49.9044 18.0621 50.0091C18.2268 50.119 18.3697 50.259 18.4835 50.4218C18.6069 50.6006 18.7017 50.7977 18.7645 51.0061C18.8365 51.2379 18.873 51.4794 18.8726 51.7224Z" fill="#0B2265"/>
<path d="M25.1314 49.9342C25.1368 50.485 25.0827 51.0347 24.9698 51.5736C24.8802 52.0157 24.7158 52.4389 24.4838 52.8245C24.1566 53.3185 23.6612 53.6741 23.0916 53.8239C22.522 53.9737 21.9177 53.9073 21.3934 53.6372C21.0742 53.4557 20.8071 53.1938 20.618 52.877C20.3996 52.5045 20.2483 52.0959 20.1713 51.6701C20.0716 51.1405 20.0246 50.6022 20.0308 50.0632C20.0259 49.5214 20.0796 48.9807 20.191 48.4507C20.2794 48.0127 20.4439 47.594 20.677 47.214C20.8805 46.8865 21.1608 46.6147 21.4931 46.4226C21.8454 46.228 22.2421 46.1302 22.6436 46.139C23.0306 46.1287 23.4137 46.219 23.7561 46.4013C24.0744 46.5821 24.3418 46.8418 24.533 47.1558C24.7538 47.523 24.9084 47.9269 24.9895 48.3486C25.0914 48.8707 25.1389 49.4021 25.1314 49.9342ZM24.5386 49.998C24.5405 49.5761 24.5076 49.1549 24.4402 48.7386C24.3864 48.3827 24.2774 48.0377 24.1172 47.716C23.9789 47.4398 23.7723 47.2044 23.5173 47.0325C23.2399 46.8591 22.9177 46.7727 22.5916 46.7843C22.2649 46.7732 21.9427 46.8638 21.6687 47.0438C21.4124 47.2234 21.2028 47.4627 21.0577 47.7416C20.8918 48.062 20.778 48.4073 20.7205 48.7641C20.6507 49.1716 20.6164 49.5844 20.618 49.998C20.6162 50.4253 20.6477 50.8521 20.7121 51.2744C20.7628 51.6328 20.8694 51.9808 21.0282 52.3054C21.1644 52.583 21.3702 52.8196 21.6252 52.9919C21.9054 53.166 22.2305 53.2524 22.5593 53.2401C22.8904 53.2517 23.2169 53.159 23.4935 52.9748C23.7511 52.792 23.9608 52.5486 24.1045 52.2657C24.2684 51.9408 24.3807 51.5919 24.4374 51.2318C24.5059 50.8242 24.5397 50.4114 24.5386 49.998Z" fill="#0B2265"/>
<path d="M32.8533 53.6856C32.8533 53.7076 32.8485 53.7294 32.8392 53.7494C32.829 53.77 32.8122 53.7865 32.7915 53.7962C32.7638 53.8097 32.7345 53.8197 32.7044 53.826C32.6581 53.8349 32.611 53.8387 32.5639 53.8373C32.521 53.838 32.4782 53.8342 32.4361 53.826C32.4058 53.8202 32.3765 53.8102 32.349 53.7962C32.3289 53.7862 32.3126 53.7697 32.3026 53.7494C32.2933 53.7294 32.2885 53.7076 32.2886 53.6856V46.8653H32.2787L29.9581 53.7267C29.9516 53.743 29.942 53.7579 29.9301 53.7707C29.916 53.7861 29.8987 53.7982 29.8795 53.8061C29.8552 53.8171 29.8297 53.8251 29.8036 53.8302C29.7698 53.8364 29.7355 53.8393 29.7011 53.8388C29.6644 53.8393 29.6277 53.8365 29.5915 53.8302C29.5681 53.8245 29.5455 53.8159 29.5241 53.8047C29.506 53.7962 29.4898 53.7841 29.4763 53.7693C29.4649 53.757 29.4572 53.7418 29.4538 53.7253L27.247 46.8639V53.6842C27.2471 53.7062 27.2423 53.728 27.233 53.748C27.2227 53.7686 27.2059 53.7851 27.1852 53.7948C27.1575 53.8083 27.1283 53.8183 27.0981 53.8246C27.0518 53.8333 27.0047 53.8371 26.9577 53.8359C26.9143 53.8367 26.871 53.8329 26.8284 53.8246C26.7991 53.8185 26.7708 53.8085 26.7441 53.7948C26.7245 53.785 26.7091 53.7684 26.7006 53.748C26.6929 53.7276 26.6891 53.706 26.6894 53.6842V46.6086C26.6844 46.5579 26.6895 46.5066 26.7044 46.4579C26.7194 46.4092 26.7439 46.364 26.7764 46.325C26.8208 46.2781 26.8809 46.2497 26.945 46.2456H27.2456C27.314 46.2444 27.382 46.2554 27.4465 46.2782C27.5032 46.2988 27.5552 46.3306 27.5996 46.3718C27.6448 46.4146 27.6823 46.465 27.7106 46.5207C27.743 46.5846 27.7702 46.651 27.7921 46.7192L29.739 52.7269H29.7615L31.7899 46.7419C31.8154 46.6601 31.8483 46.5808 31.8882 46.5051C31.9177 46.4488 31.9546 46.3968 31.9978 46.3505C32.0322 46.3138 32.0745 46.2857 32.1214 46.2682C32.1666 46.2524 32.2141 46.2443 32.2619 46.2441H32.5948C32.6246 46.2444 32.6541 46.2502 32.6819 46.2612C32.7138 46.2741 32.7418 46.2951 32.7634 46.3221C32.7904 46.356 32.8113 46.3944 32.8252 46.4356C32.8435 46.4923 32.852 46.5518 32.8505 46.6115L32.8533 53.6856Z" fill="#0B2265"/>
<path d="M40.1387 51.7226C40.1415 52.0143 40.0978 52.3044 40.0094 52.5821C39.9276 52.8383 39.7931 53.0741 39.6147 53.2742C39.4312 53.4763 39.2051 53.6343 38.9531 53.7365C38.6569 53.8532 38.3409 53.9096 38.0231 53.9025C37.8434 53.9048 37.664 53.8843 37.4893 53.8415C37.3495 53.8086 37.2134 53.7611 37.0834 53.6997C36.9928 53.6563 36.9059 53.6055 36.8235 53.5479C36.7788 53.5168 36.7369 53.4817 36.6985 53.443C36.6776 53.4201 36.6601 53.3943 36.6465 53.3664C36.6335 53.3375 36.6245 53.307 36.6198 53.2756C36.6133 53.2406 36.6081 53.1985 36.6044 53.1494C36.6006 53.1002 36.6006 53.0449 36.6044 52.9834C36.6004 52.9155 36.608 52.8474 36.6268 52.7821C36.631 52.7666 36.6399 52.753 36.6523 52.743C36.6647 52.7331 36.6799 52.7274 36.6957 52.7267C36.7537 52.7364 36.8072 52.7642 36.8488 52.8062C36.9144 52.8591 37 52.9206 37.1059 52.9905C37.2294 53.0691 37.3626 53.131 37.502 53.1749C37.6867 53.2317 37.8792 53.2585 38.0723 53.2543C38.2785 53.2568 38.4834 53.2202 38.6763 53.1465C38.8522 53.0803 39.0124 52.9773 39.1462 52.8444C39.28 52.7115 39.3846 52.5515 39.4531 52.375C39.5282 52.1827 39.5654 51.9775 39.5627 51.7709C39.5652 51.5524 39.5305 51.3351 39.4602 51.1284C39.3965 50.9414 39.294 50.7702 39.1596 50.6264C39.0226 50.4827 38.8562 50.3709 38.6721 50.2987C38.4619 50.2179 38.2382 50.1784 38.0133 50.1824H37.2885C37.2621 50.1841 37.2358 50.1782 37.2126 50.1654C37.1911 50.1519 37.1737 50.1328 37.162 50.1101C37.1469 50.0799 37.1369 50.0473 37.1325 50.0137C37.1262 49.9667 37.1234 49.9193 37.1241 49.8719C37.1234 49.8268 37.1263 49.7817 37.1325 49.7371C37.1372 49.7027 37.1471 49.6692 37.162 49.6378C37.1736 49.6132 37.1916 49.5921 37.214 49.5769C37.2361 49.5636 37.2614 49.5568 37.2871 49.557H37.9487C38.1466 49.559 38.3434 49.5264 38.5302 49.4606C38.7015 49.4008 38.8578 49.304 38.9882 49.1769C39.1195 49.0451 39.2215 48.8865 39.2874 48.7117C39.3622 48.5081 39.3985 48.2921 39.3942 48.075C39.3961 47.8978 39.3715 47.7213 39.3211 47.5516C39.2773 47.4032 39.2026 47.2659 39.102 47.1489C39.0023 47.0364 38.8783 46.9485 38.7396 46.8922C38.579 46.8287 38.4076 46.7978 38.2353 46.8014C38.0535 46.7981 37.8726 46.8259 37.7001 46.8836C37.5625 46.9311 37.4298 46.9919 37.3039 47.0652C37.2068 47.1221 37.113 47.1846 37.023 47.2524C36.9749 47.2978 36.915 47.3284 36.8502 47.3403C36.8344 47.3414 36.8188 47.3363 36.8067 47.3261C36.7938 47.3121 36.7846 47.295 36.78 47.2765C36.7712 47.246 36.766 47.2146 36.7645 47.1829C36.7645 47.1441 36.7645 47.0969 36.7645 47.0411C36.7645 47.0023 36.7645 46.9645 36.7645 46.9276C36.7674 46.8924 36.7721 46.8574 36.7786 46.8227C36.784 46.7916 36.7925 46.7612 36.8038 46.7319C36.8157 46.7023 36.8318 46.6745 36.8516 46.6496C36.8999 46.5999 36.9541 46.5566 37.0131 46.5206C37.1146 46.4546 37.2224 46.399 37.3348 46.3546C37.4771 46.296 37.6236 46.2485 37.7731 46.2128C37.9464 46.173 38.1236 46.1535 38.3013 46.1547C38.5524 46.1495 38.8018 46.1978 39.0331 46.2965C39.2337 46.3841 39.4122 46.5159 39.5557 46.6823C39.699 46.8529 39.8052 47.0519 39.8675 47.2666C39.9379 47.5073 39.9725 47.7573 39.9701 48.0083C39.9736 48.2481 39.9419 48.487 39.876 48.7174C39.8212 48.9084 39.7358 49.089 39.6231 49.2521C39.5243 49.3951 39.4 49.5182 39.2565 49.6152C39.1256 49.7036 38.9793 49.7662 38.8252 49.7995V49.8109C39.0096 49.8427 39.1852 49.9132 39.3408 50.0179C39.5054 50.1279 39.6483 50.2678 39.7622 50.4306C39.8855 50.6094 39.9803 50.8065 40.0431 51.0149C40.11 51.2447 40.1422 51.4832 40.1387 51.7226Z" fill="#0B2265"/>
<path d="M47.8155 53.6854C47.8158 53.7075 47.811 53.7293 47.8014 53.7492C47.7912 53.7698 47.7744 53.7863 47.7537 53.796C47.726 53.8095 47.6967 53.8195 47.6666 53.8258C47.6203 53.8348 47.5732 53.8386 47.5261 53.8372C47.4832 53.8378 47.4404 53.834 47.3983 53.8258C47.368 53.82 47.3387 53.81 47.3112 53.796C47.2916 53.7857 47.2758 53.7693 47.2662 53.7492C47.2567 53.7293 47.2519 53.7075 47.2522 53.6854V46.8651H47.2438L44.9232 53.7265C44.917 53.7427 44.908 53.7576 44.8965 53.7705C44.8823 53.7858 44.865 53.7978 44.8459 53.806C44.8216 53.8169 44.7962 53.825 44.7701 53.8301C44.7362 53.8362 44.7019 53.8391 44.6675 53.8386C44.6308 53.8392 44.5941 53.8363 44.558 53.8301C44.5317 53.8255 44.5062 53.8174 44.4821 53.806C44.464 53.7975 44.4478 53.7854 44.4343 53.7705C44.4229 53.7583 44.4151 53.743 44.4119 53.7265L42.205 46.8651V53.6854C42.2053 53.7075 42.2005 53.7293 42.191 53.7492C42.1808 53.7698 42.1639 53.7863 42.1432 53.796C42.1155 53.8095 42.0863 53.8195 42.0561 53.8258C42.0098 53.8346 41.9628 53.8383 41.9157 53.8372C41.8723 53.838 41.829 53.8342 41.7864 53.8258C41.7571 53.8198 41.7288 53.8098 41.7021 53.796C41.6825 53.7863 41.667 53.7697 41.6586 53.7492C41.6509 53.7289 41.6471 53.7072 41.6474 53.6854V46.6084C41.6424 46.5577 41.6475 46.5064 41.6625 46.4577C41.6774 46.409 41.7019 46.3638 41.7345 46.3248C41.7789 46.278 41.839 46.2497 41.903 46.2454H42.2036C42.272 46.2442 42.34 46.2552 42.4045 46.278C42.4612 46.2985 42.5133 46.3304 42.5576 46.3716C42.6029 46.4144 42.6404 46.4648 42.6686 46.5205C42.7015 46.5843 42.7292 46.6507 42.7515 46.7191L44.6956 52.721H44.7181L46.7465 46.7361C46.7721 46.6543 46.805 46.575 46.8448 46.4992C46.8742 46.4429 46.9111 46.3909 46.9544 46.3446C46.9888 46.308 47.0311 46.2798 47.078 46.2624C47.1232 46.2466 47.1707 46.2384 47.2185 46.2383H47.5514C47.5812 46.2385 47.6107 46.2443 47.6385 46.2553C47.6704 46.2683 47.6984 46.2893 47.72 46.3163C47.747 46.3502 47.7679 46.3886 47.7818 46.4297C47.8001 46.4865 47.8087 46.546 47.8071 46.6056L47.8155 53.6854Z" fill="#0B2265"/>
<path d="M54.479 49.9342C54.4845 50.485 54.4303 51.0347 54.3175 51.5736C54.2279 52.0157 54.0635 52.4389 53.8314 52.8245C53.5043 53.3185 53.0089 53.6741 52.4393 53.8239C51.8696 53.9737 51.2654 53.9073 50.7411 53.6372C50.4219 53.4557 50.1547 53.1938 49.9657 52.877C49.7473 52.5045 49.5961 52.0959 49.519 51.6701C49.4193 51.1405 49.3722 50.6022 49.3785 50.0632C49.3736 49.5214 49.4273 48.9807 49.5386 48.4507C49.627 48.0127 49.7916 47.594 50.0246 47.214C50.2283 46.8866 50.5085 46.6148 50.8408 46.4226C51.1931 46.228 51.5898 46.1302 51.9913 46.139C52.3783 46.1287 52.7614 46.219 53.1038 46.4013C53.4221 46.582 53.6895 46.8417 53.8806 47.1558C54.1015 47.523 54.2561 47.9269 54.3371 48.3486C54.4391 48.8707 54.4866 49.4021 54.479 49.9342ZM53.8862 49.998C53.8882 49.5761 53.8553 49.1549 53.7879 48.7386C53.7341 48.3827 53.6251 48.0376 53.4648 47.716C53.3266 47.4398 53.1199 47.2043 52.865 47.0325C52.5876 46.859 52.2654 46.7726 51.9393 46.7843C51.6126 46.7732 51.2904 46.8638 51.0164 47.0438C50.76 47.2233 50.5504 47.4627 50.4053 47.7416C50.2394 48.062 50.1256 48.4072 50.0682 48.7641C49.9983 49.1716 49.964 49.5844 49.9657 49.998C49.9635 50.4252 49.9945 50.852 50.0584 51.2744C50.1094 51.6329 50.2165 51.9809 50.3758 52.3054C50.512 52.583 50.7179 52.8196 50.9728 52.9919C51.2531 53.166 51.5781 53.2524 51.907 53.2401C52.2378 53.2542 52.5648 53.164 52.8425 52.9819C53.1002 52.7991 53.3099 52.5557 53.4536 52.2728C53.6173 51.9479 53.7297 51.599 53.7865 51.2389C53.8548 50.8289 53.8881 50.4137 53.8862 49.998Z" fill="#0B2265"/>
<path d="M62.0328 53.6741C62.0333 53.698 62.0285 53.7217 62.0188 53.7436C62.009 53.7638 61.994 53.781 61.9753 53.7932C61.9503 53.809 61.9227 53.8201 61.8938 53.8258C61.8009 53.8425 61.7058 53.8425 61.6128 53.8258C61.5808 53.8187 61.5506 53.8046 61.5243 53.7847C61.5035 53.7677 61.4871 53.7458 61.4766 53.7209C61.4646 53.6914 61.4548 53.661 61.4471 53.6301L60.9231 51.6134C60.871 51.3998 60.7951 51.1928 60.697 50.9965C60.6154 50.8374 60.5075 50.6935 60.3781 50.571C60.255 50.4562 60.1089 50.3696 59.9497 50.3171C59.7721 50.2601 59.5867 50.2324 59.4004 50.2349H59.1195V53.6953C59.1198 53.7174 59.115 53.7393 59.1054 53.7592C59.0954 53.7794 59.0791 53.7958 59.0591 53.806C59.0315 53.8199 59.0022 53.83 58.972 53.8357C58.9284 53.844 58.8842 53.8478 58.8399 53.8471C58.7966 53.8479 58.7533 53.8441 58.7107 53.8357C58.6814 53.8297 58.653 53.8197 58.6264 53.806C58.6067 53.7962 58.5912 53.7796 58.5829 53.7592C58.5751 53.7388 58.5713 53.7171 58.5716 53.6953V50.2349H58.2907C58.0901 50.2305 57.8904 50.2642 57.7021 50.3341C57.5401 50.3977 57.3928 50.4942 57.2694 50.6178C57.1436 50.745 57.0405 50.8933 56.9646 51.056C56.8788 51.2382 56.8101 51.4281 56.7595 51.6233L56.244 53.64C56.2362 53.6709 56.2264 53.7013 56.2145 53.7308C56.204 53.7557 56.1876 53.7776 56.1667 53.7946C56.1405 53.8146 56.1103 53.8286 56.0782 53.8357C55.9853 53.8524 55.8902 53.8524 55.7973 53.8357C55.7684 53.83 55.7408 53.819 55.7158 53.8031C55.6971 53.7908 55.6821 53.7737 55.6723 53.7535C55.6626 53.7316 55.6578 53.7079 55.6582 53.684C55.6582 53.6727 55.6582 53.6585 55.6582 53.6429C55.6582 53.6273 55.6582 53.6088 55.6582 53.5876C55.6582 53.5663 55.6582 53.5436 55.6695 53.5209C55.6749 53.4949 55.6819 53.4694 55.6905 53.4443L56.1738 51.6148C56.2311 51.3899 56.3034 51.1691 56.3901 50.9539C56.4584 50.7838 56.5456 50.622 56.65 50.4717C56.7404 50.3429 56.8515 50.2303 56.9787 50.1384C57.109 50.0468 57.2506 49.9728 57.4001 49.9186C57.2743 49.886 57.1553 49.8307 57.0489 49.7555C56.9372 49.673 56.8419 49.57 56.768 49.452C56.6746 49.3039 56.5973 49.146 56.5376 48.9811C56.4581 48.7655 56.3896 48.5459 56.3325 48.3231L55.8858 46.6212C55.8736 46.5821 55.8637 46.5424 55.8563 46.5021C55.8489 46.4628 55.8451 46.4229 55.8451 46.383C55.8443 46.359 55.8471 46.3351 55.8535 46.312C55.8606 46.2914 55.8745 46.2739 55.8928 46.2624C55.9173 46.2466 55.9444 46.2355 55.9729 46.2298C56.0164 46.2212 56.0606 46.2174 56.1049 46.2184C56.1563 46.217 56.2077 46.2218 56.258 46.2326C56.2901 46.2398 56.3203 46.2538 56.3465 46.2737C56.3676 46.2911 56.3832 46.3143 56.3915 46.3404C56.4013 46.3674 56.4098 46.3986 56.4196 46.434L56.8761 48.3217C56.9205 48.5109 56.9821 48.6956 57.0601 48.8734C57.1255 49.0223 57.2174 49.1579 57.3313 49.2733C57.4434 49.3841 57.5788 49.468 57.7274 49.5187C57.9088 49.5775 58.0987 49.6053 58.2893 49.6009H58.5702V46.3574C58.5699 46.3356 58.5738 46.314 58.5814 46.2936C58.5898 46.2732 58.6053 46.2565 58.625 46.2468C58.6516 46.233 58.68 46.2229 58.7093 46.217C58.7518 46.2087 58.7952 46.2049 58.8385 46.2057C58.8828 46.2049 58.927 46.2087 58.9706 46.217C59.0009 46.2227 59.0302 46.2327 59.0576 46.2468C59.0778 46.2569 59.094 46.2733 59.104 46.2936C59.1133 46.3136 59.1181 46.3354 59.1181 46.3574V49.5896H59.399C59.5863 49.5935 59.7726 49.5618 59.9482 49.496C60.0996 49.4372 60.237 49.3468 60.3514 49.2308C60.4671 49.1115 60.5621 48.9734 60.6323 48.8223C60.7101 48.6546 60.7704 48.4792 60.8121 48.299L61.2687 46.4227C61.2785 46.3872 61.2869 46.356 61.2968 46.3291C61.3051 46.3029 61.3207 46.2798 61.3417 46.2624C61.368 46.2424 61.3981 46.2284 61.4302 46.2213C61.4805 46.2104 61.5319 46.2056 61.5833 46.2071C61.6276 46.206 61.6719 46.2098 61.7154 46.2184C61.7438 46.2242 61.771 46.2352 61.7954 46.2511C61.8138 46.2626 61.8277 46.2801 61.8348 46.3007C61.8411 46.3238 61.8439 46.3477 61.8432 46.3716C61.8431 46.4118 61.8379 46.4518 61.8278 46.4907C61.8173 46.53 61.8089 46.5697 61.8025 46.6099L61.3544 48.2735C61.2935 48.5032 61.2312 48.7051 61.1675 48.879C61.1117 49.0359 61.0382 49.1858 60.9484 49.3258C60.872 49.4456 60.7772 49.5524 60.6675 49.642C60.5522 49.7317 60.4238 49.8026 60.2868 49.8519V49.8633C60.4425 49.9231 60.5891 50.0047 60.7222 50.1058C60.8489 50.2049 60.9598 50.3231 61.0509 50.4561C61.1542 50.609 61.2391 50.7737 61.3038 50.9468C61.3855 51.164 61.4554 51.3856 61.5131 51.6105L61.9921 53.4401C61.9921 53.467 62.0048 53.4925 62.0104 53.5166C62.016 53.5408 62.0216 53.562 62.0258 53.5833C62.0296 53.6016 62.0324 53.62 62.0342 53.6386C62.0328 53.6485 62.0328 53.6627 62.0328 53.6741Z" fill="#0B2265"/>
<path d="M66.7101 53.4866C66.7103 53.5317 66.707 53.5767 66.7003 53.6213C66.6956 53.6558 66.6857 53.6892 66.6708 53.7206C66.6597 53.7444 66.6434 53.7653 66.623 53.7816C66.6061 53.7946 66.5853 53.8015 66.564 53.8014H63.7996C63.7355 53.7971 63.6754 53.7688 63.631 53.722C63.5984 53.6831 63.5738 53.6379 63.5589 53.5891C63.5439 53.5404 63.5388 53.4891 63.5439 53.4384V46.6082C63.5389 46.5574 63.544 46.5062 63.559 46.4575C63.5739 46.4087 63.5984 46.3635 63.631 46.3245C63.6754 46.2777 63.7355 46.2494 63.7996 46.2451H66.5205C66.5418 46.2451 66.5625 46.2521 66.5795 46.265C66.5993 46.2811 66.6148 46.3021 66.6244 46.326C66.6383 46.3586 66.6478 46.3929 66.6525 46.4281C66.6587 46.4751 66.6615 46.5225 66.661 46.5699C66.6616 46.615 66.6588 46.66 66.6525 46.7046C66.6479 46.738 66.6384 46.7705 66.6244 46.8011C66.6144 46.8239 66.599 46.8439 66.5795 46.8592C66.5625 46.8722 66.5418 46.8792 66.5205 46.8791H64.103V49.5354H66.1876C66.2107 49.5347 66.2334 49.5417 66.2522 49.5553C66.2715 49.5708 66.2869 49.5907 66.2971 49.6134C66.3108 49.645 66.3198 49.6785 66.3238 49.7127C66.3305 49.7597 66.3338 49.8071 66.3337 49.8545C66.3339 49.8987 66.3306 49.9428 66.3238 49.9864C66.3197 50.0179 66.3107 50.0485 66.2971 50.0772C66.2867 50.0981 66.2712 50.1162 66.2522 50.1296C66.2327 50.1415 66.2103 50.1474 66.1876 50.1467H64.103V53.1661H66.564C66.5853 53.1661 66.606 53.173 66.623 53.1859C66.6429 53.2016 66.6592 53.2215 66.6708 53.2441C66.6862 53.2752 66.6961 53.3088 66.7003 53.3434C66.707 53.3908 66.7103 53.4387 66.7101 53.4866Z" fill="#0B2265"/>
<path d="M74.476 53.6856C74.476 53.7076 74.4712 53.7294 74.4619 53.7494C74.4517 53.77 74.4349 53.7865 74.4142 53.7962C74.3864 53.8097 74.3572 53.8197 74.3271 53.826C74.2808 53.835 74.2337 53.8387 74.1866 53.8373C74.1437 53.838 74.1009 53.8342 74.0588 53.826C74.0285 53.8202 73.9992 53.8102 73.9717 53.7962C73.9516 53.7862 73.9353 53.7697 73.9253 53.7494C73.916 53.7294 73.9112 53.7076 73.9113 53.6856V46.8653H73.9014L71.5808 53.7267C71.5743 53.743 71.5647 53.7579 71.5527 53.7707C71.5387 53.7861 71.5214 53.7982 71.5022 53.8061C71.4779 53.8171 71.4524 53.8251 71.4263 53.8302C71.3925 53.8364 71.3581 53.8393 71.3238 53.8388C71.2871 53.8393 71.2504 53.8365 71.2142 53.8302C71.188 53.8256 71.1625 53.8175 71.1383 53.8061C71.1203 53.7976 71.104 53.7856 71.0906 53.7707C71.0792 53.7584 71.0714 53.7432 71.0681 53.7267L68.8613 46.8653V53.6856C68.8616 53.7077 68.8568 53.7295 68.8472 53.7494C68.837 53.77 68.8202 53.7865 68.7995 53.7962C68.7718 53.8097 68.7425 53.8197 68.7124 53.826C68.6661 53.8347 68.619 53.8385 68.5719 53.8373C68.5286 53.8382 68.4852 53.8344 68.4427 53.826C68.4134 53.82 68.385 53.8099 68.3584 53.7962C68.3388 53.7864 68.3233 53.7698 68.3149 53.7494C68.3072 53.729 68.3034 53.7074 68.3036 53.6856V46.6086C68.2986 46.5579 68.3037 46.5066 68.3187 46.4579C68.3337 46.4092 68.3581 46.364 68.3907 46.325C68.435 46.2781 68.4952 46.2497 68.5593 46.2456H68.8571C68.9254 46.2444 68.9934 46.2554 69.0579 46.2782C69.1146 46.2988 69.1667 46.3306 69.2111 46.3718C69.2563 46.4146 69.2938 46.465 69.322 46.5207C69.3544 46.5846 69.3817 46.651 69.4035 46.7192L71.3505 52.7269H71.3856L73.414 46.7419C73.4395 46.6601 73.4724 46.5808 73.5123 46.5051C73.5418 46.4488 73.5787 46.3968 73.6219 46.3505C73.6563 46.3138 73.6986 46.2857 73.7455 46.2682C73.7907 46.2524 73.8382 46.2443 73.886 46.2441H74.2189C74.2487 46.2444 74.2782 46.2502 74.306 46.2612C74.3379 46.2741 74.3659 46.2951 74.3875 46.3221C74.4145 46.356 74.4354 46.3944 74.4493 46.4356C74.4675 46.4923 74.4761 46.5518 74.4746 46.6115L74.476 53.6856Z" fill="#0B2265"/>
<path d="M81.1343 49.9342C81.1398 50.485 81.0856 51.0347 80.9727 51.5736C80.8831 52.0157 80.7187 52.4389 80.4867 52.8245C80.1595 53.3185 79.6641 53.6741 79.0945 53.8239C78.5249 53.9737 77.9206 53.9073 77.3963 53.6372C77.0771 53.4557 76.81 53.1938 76.6209 52.877C76.4025 52.5045 76.2513 52.0959 76.1742 51.6701C76.0746 51.1405 76.0275 50.6022 76.0338 50.0632C76.0288 49.5214 76.0825 48.9807 76.1939 48.4507C76.2823 48.0127 76.4469 47.594 76.6799 47.214C76.8834 46.8865 77.1637 46.6147 77.4961 46.4226C77.8484 46.228 78.2451 46.1302 78.6465 46.139C79.0335 46.1287 79.4166 46.219 79.7591 46.4013C80.0773 46.5821 80.3447 46.8418 80.5359 47.1558C80.7567 47.523 80.9113 47.9269 80.9924 48.3486C81.0943 48.8707 81.1418 49.4021 81.1343 49.9342ZM80.5415 49.998C80.5434 49.5761 80.5105 49.1549 80.4432 48.7386C80.3893 48.3827 80.2803 48.0377 80.1201 47.716C79.9818 47.4398 79.7752 47.2044 79.5203 47.0325C79.2428 46.8591 78.9207 46.7727 78.5946 46.7843C78.2678 46.7732 77.9457 46.8638 77.6717 47.0438C77.4153 47.2234 77.2057 47.4627 77.0606 47.7416C76.8948 48.062 76.7809 48.4073 76.7235 48.7641C76.6536 49.1716 76.6193 49.5844 76.6209 49.998C76.6187 50.4252 76.6497 50.852 76.7136 51.2744C76.7643 51.6328 76.871 51.9808 77.0297 52.3054C77.1659 52.5829 77.3718 52.8196 77.6267 52.9919C77.9069 53.166 78.232 53.2524 78.5608 53.2401C78.8919 53.2517 79.2184 53.159 79.495 52.9748C79.7526 52.792 79.9623 52.5486 80.106 52.2657C80.2699 51.9408 80.3822 51.5919 80.439 51.2318C80.5079 50.8242 80.5422 50.4115 80.5415 49.998Z" fill="#0B2265"/>
<path d="M88.6784 51.6872C88.6797 51.8955 88.659 52.1032 88.6166 52.307C88.5791 52.4871 88.5202 52.6618 88.441 52.8275C88.3675 52.9788 88.2728 53.1188 88.16 53.243C88.0518 53.3628 87.9269 53.466 87.7892 53.5494C87.6491 53.634 87.4977 53.698 87.3397 53.7394C87.1559 53.7849 86.967 53.8063 86.7778 53.8032H85.2537C85.1896 53.7991 85.1294 53.7707 85.0851 53.7238C85.0525 53.6849 85.0279 53.6397 85.013 53.5909C84.998 53.5422 84.9929 53.4909 84.998 53.4402V46.6086C84.993 46.5578 84.9981 46.5066 85.0131 46.4578C85.0281 46.4091 85.0525 46.3639 85.0851 46.3249C85.1294 46.278 85.1896 46.2497 85.2537 46.2455H86.5179C86.8021 46.2354 87.0854 46.2812 87.3523 46.3802C87.5559 46.4631 87.7366 46.5945 87.8791 46.7632C88.0233 46.9398 88.1291 47.1452 88.1895 47.3659C88.2606 47.6215 88.2951 47.8861 88.2921 48.1516C88.2928 48.3244 88.2768 48.4968 88.2443 48.6664C88.2155 48.8232 88.1683 48.976 88.1038 49.1217C88.0422 49.259 87.9618 49.3869 87.865 49.5017C87.7681 49.6147 87.6532 49.7105 87.5251 49.7854C87.6875 49.8266 87.8396 49.9015 87.9718 50.0052C88.1165 50.1178 88.2406 50.2551 88.3384 50.4108C88.4487 50.5864 88.5325 50.7776 88.5871 50.9781C88.6498 51.2091 88.6805 51.4478 88.6784 51.6872ZM87.7021 48.1927C87.7042 48.0106 87.683 47.829 87.6389 47.6524C87.6016 47.5009 87.5326 47.3592 87.4366 47.2368C87.3397 47.1192 87.2151 47.028 87.0742 46.9716C86.8829 46.9022 86.6803 46.8705 86.4772 46.878H85.5557V49.5897H86.5671C86.753 49.5978 86.9379 49.5588 87.1051 49.4762C87.2396 49.402 87.355 49.2971 87.4422 49.1699C87.5337 49.0341 87.6004 48.8827 87.6389 48.7231C87.6818 48.5497 87.703 48.3715 87.7021 48.1927ZM88.0856 51.7468C88.0891 51.5229 88.0573 51.2998 87.9915 51.0859C87.9364 50.9076 87.8429 50.7439 87.7175 50.6066C87.594 50.4757 87.442 50.3757 87.2736 50.3144C87.0625 50.2427 86.8404 50.209 86.6176 50.2151H85.5557V53.1665H86.8368C87.0073 53.1697 87.1768 53.1389 87.3355 53.0757C87.4809 53.0146 87.6117 52.9227 87.719 52.8062C87.8356 52.6776 87.9254 52.5267 87.983 52.3623C88.0533 52.1645 88.0881 51.9556 88.0856 51.7454V51.7468Z" fill="#0B2265"/>
<path d="M94.0531 52.7735C94.0531 52.816 94.0531 52.8557 94.0531 52.8898C94.0505 52.9212 94.0458 52.9525 94.039 52.9834C94.0332 53.0097 94.0247 53.0354 94.0138 53.0599C93.9974 53.0923 93.9776 53.1227 93.9547 53.1507C93.8966 53.2164 93.8331 53.2771 93.7651 53.3322C93.6515 53.4272 93.5287 53.5104 93.3985 53.5804C93.2367 53.668 93.0662 53.7384 92.89 53.7903C92.6842 53.8509 92.4707 53.8805 92.2564 53.8783C91.9053 53.8832 91.5587 53.7978 91.2492 53.6301C90.9379 53.4549 90.674 53.205 90.4809 52.9025C90.252 52.5407 90.087 52.1414 89.9934 51.7226C89.8712 51.1965 89.8122 50.6575 89.8178 50.1171C89.8114 49.5595 89.8728 49.0032 90.0005 48.4606C90.1019 48.0198 90.2752 47.599 90.5132 47.2154C90.7129 46.8949 90.9849 46.6267 91.3068 46.4326C91.6177 46.2505 91.9715 46.1564 92.3309 46.1603C92.5038 46.1597 92.676 46.1812 92.8436 46.2241C93.001 46.2639 93.1543 46.3185 93.3016 46.3872C93.4347 46.4496 93.5609 46.5261 93.678 46.6155C93.7613 46.6757 93.8376 46.7452 93.9056 46.8226C93.9349 46.8578 93.9608 46.8958 93.9828 46.936C93.9942 46.9615 94.0027 46.9881 94.0081 47.0155C94.0148 47.0482 94.0195 47.0814 94.0222 47.1147C94.0222 47.1516 94.0222 47.1942 94.0222 47.241C94.0248 47.2882 94.0248 47.3355 94.0222 47.3828C94.0188 47.4185 94.0112 47.4538 93.9997 47.4877C93.9913 47.5125 93.9779 47.5352 93.9604 47.5544C93.9533 47.5618 93.9447 47.5676 93.9353 47.5715C93.9259 47.5754 93.9158 47.5773 93.9056 47.5771C93.8634 47.5771 93.8035 47.5374 93.7258 47.4579C93.6303 47.3626 93.5284 47.274 93.421 47.1927C93.278 47.0859 93.1229 46.9968 92.9588 46.9275C92.7519 46.8432 92.5301 46.8027 92.307 46.8084C92.0385 46.806 91.7747 46.8797 91.5457 47.0211C91.2996 47.1787 91.0952 47.3944 90.9501 47.6494C90.7683 47.9675 90.6375 48.3126 90.5623 48.672C90.3809 49.5743 90.3771 50.5039 90.5511 51.4077C90.6199 51.754 90.7447 52.0866 90.9205 52.392C91.0657 52.643 91.271 52.8531 91.5176 53.0032C91.7626 53.1454 92.0413 53.218 92.3239 53.2131C92.5446 53.2182 92.764 53.1776 92.9686 53.094C93.1355 53.0241 93.2938 52.9351 93.4406 52.8288C93.553 52.747 93.6604 52.6584 93.7623 52.5636C93.812 52.5032 93.8802 52.4613 93.9562 52.4444C93.9723 52.4439 93.9881 52.4489 94.0011 52.4586C94.0157 52.4729 94.026 52.4911 94.0306 52.5111C94.0397 52.5445 94.0458 52.5787 94.0489 52.6132C94.053 52.6665 94.0544 52.72 94.0531 52.7735Z" fill="#0B2265"/>
<path d="M98.5472 53.4866C98.5478 53.5317 98.545 53.5767 98.5387 53.6213C98.5341 53.6558 98.5241 53.6892 98.5093 53.7206C98.4982 53.7444 98.4819 53.7653 98.4615 53.7816C98.4445 53.7946 98.4238 53.8015 98.4025 53.8014H95.6394C95.5754 53.7971 95.5152 53.7688 95.4708 53.722C95.4382 53.6831 95.4137 53.6379 95.3987 53.5891C95.3838 53.5404 95.3787 53.4891 95.3837 53.4384V46.6082C95.3787 46.5574 95.3839 46.5062 95.3988 46.4575C95.4138 46.4087 95.4383 46.3635 95.4708 46.3245C95.5152 46.2777 95.5754 46.2494 95.6394 46.2451H98.3561C98.3774 46.2451 98.3981 46.2521 98.4151 46.265C98.435 46.2812 98.4504 46.3021 98.4601 46.326C98.4739 46.3586 98.4833 46.3929 98.4882 46.4281C98.4944 46.4751 98.4972 46.5225 98.4966 46.5699C98.4972 46.615 98.4944 46.66 98.4882 46.7046C98.4835 46.738 98.474 46.7704 98.4601 46.8011C98.45 46.8239 98.4346 46.8438 98.4151 46.8592C98.3982 46.8722 98.3774 46.8792 98.3561 46.8791H95.94V49.5354H98.0274C98.0501 49.5349 98.0723 49.5419 98.0906 49.5553C98.1105 49.5706 98.1264 49.5906 98.137 49.6134C98.1506 49.645 98.1596 49.6785 98.1637 49.7127C98.1699 49.7597 98.1727 49.8071 98.1721 49.8545C98.1728 49.8986 98.17 49.9427 98.1637 49.9864C98.1595 50.0179 98.1505 50.0485 98.137 50.0772C98.1262 50.0983 98.1102 50.1164 98.0906 50.1296C98.0716 50.1413 98.0497 50.1472 98.0274 50.1467H95.94V53.1661H98.4011C98.4224 53.1661 98.4431 53.173 98.4601 53.1859C98.48 53.2016 98.4963 53.2214 98.5078 53.2441C98.5232 53.2752 98.5332 53.3088 98.5373 53.3434C98.544 53.3908 98.5473 53.4387 98.5472 53.4866Z" fill="#0B2265"/>
</g>
<defs>
<clipPath id="clip0_20711_1427">
<rect width="104" height="54" fill="white"/>
</clipPath>
</defs>
</svg>
