<svg width="112" height="54" viewBox="0 0 112 54" fill="none" xmlns="http://www.w3.org/2000/svg">
<g clip-path="url(#clip0_20710_1015)" filter="url(#filter0_d_20710_1015)">
<path d="M98.1207 16.0795C98.0678 16.0711 98.0138 16.074 97.962 16.088C97.9103 16.1019 97.862 16.1267 97.8204 16.1606C97.7787 16.1945 97.7445 16.2369 97.72 16.285C97.6955 16.3331 97.6813 16.3858 97.6782 16.4398C97.6782 16.4398 97.1163 17.7701 96.1232 18.2835C95.6709 18.5175 95.4798 18.6409 94.4502 18.6111H89.2696C86.4685 18.4097 86.1792 15.4513 86.1792 15.4513C86.1792 15.091 86.1412 14.6117 86.1412 14.406V11.0476C86.2171 8.02257 88.5419 7.32763 88.5419 7.32763C88.9025 7.24469 89.2721 7.20848 89.6418 7.21985H94.8238C97.1739 7.29785 97.7934 9.88612 97.7934 9.88612C97.8275 9.97712 97.8868 10.0563 97.9643 10.1141C98.0418 10.172 98.1341 10.2061 98.2303 10.2123H107.642C107.738 10.2116 107.83 10.1723 107.898 10.1032C107.966 10.0341 108.003 9.94075 108.003 9.84357V8.8267C107.862 1.79512 101.534 0.0918311 100.221 0.12445C99.8668 0.12445 99.3779 0.0975037 99.1742 0.0975037H84.5399C80.0841 0.117359 77.557 3.4346 76.6594 5.70944C76.3734 6.41747 76.1962 7.16547 76.134 7.92755C76.1157 8.33883 76.082 8.99831 76.082 9.20395V17.0042C76.4866 24.4457 82.8809 25.6937 83.8417 25.7263C84.1648 25.7377 84.7056 25.7575 84.9065 25.7575H99.5381C106.222 25.3973 107.947 19.4833 107.975 17.5914C107.975 17.0425 107.993 16.8298 107.993 16.627V16.4596C107.994 16.411 107.985 16.3627 107.967 16.3175C107.95 16.2723 107.923 16.2311 107.89 16.1962C107.856 16.1613 107.816 16.1334 107.772 16.1141C107.728 16.0948 107.68 16.0845 107.632 16.0838L98.1207 16.0795Z" fill="white"/>
<path d="M41.0059 0.762572C41.1084 0.583875 41.0269 0.444888 40.8275 0.444888H4.40582C4.30994 0.44451 4.21782 0.482506 4.14963 0.550554C4.08144 0.618602 4.04274 0.711159 4.04199 0.807956V7.88208C4.04181 7.93044 4.05108 7.97835 4.06929 8.02308C4.08749 8.06781 4.11426 8.10847 4.14806 8.14273C4.18186 8.17699 4.22203 8.20418 4.26626 8.22273C4.3105 8.24127 4.35792 8.25082 4.40582 8.25082H13.337C13.3848 8.25101 13.4321 8.26069 13.4762 8.27932C13.5202 8.29796 13.5602 8.32517 13.5939 8.35941C13.6275 8.39365 13.6542 8.43425 13.6723 8.47888C13.6904 8.52352 13.6996 8.57132 13.6995 8.61956V25.0072C13.6998 25.1049 13.7384 25.1984 13.8068 25.2675C13.8753 25.3366 13.9679 25.3756 14.0647 25.3759H28.1231C28.2199 25.3756 28.3126 25.3366 28.381 25.2675C28.4494 25.1984 28.488 25.1049 28.4884 25.0072V8.62523C28.488 8.57706 28.4971 8.52929 28.515 8.48466C28.533 8.44003 28.5595 8.39943 28.593 8.36517C28.6266 8.33091 28.6665 8.30367 28.7105 8.28502C28.7545 8.26637 28.8017 8.25668 28.8494 8.25649H36.2228C36.3323 8.24934 36.4387 8.217 36.5339 8.16194C36.6291 8.10687 36.7105 8.03055 36.772 7.93881L41.0059 0.762572Z" fill="white"/>
<path d="M46.8829 0.450741C46.6536 0.461725 46.4367 0.558847 46.2747 0.72304C46.2747 0.72304 39.813 7.20576 39.834 16.2172C39.8411 21.7837 42.0956 25.0854 42.0956 25.0854C42.2459 25.2575 42.4575 25.3625 42.6842 25.3775H51.895C52.0944 25.3775 52.1534 25.2499 52.027 25.0939C52.027 25.0939 49.056 21.2718 49.1094 16.0754C49.153 11.4151 51.8781 8.48784 51.8781 8.48784C51.9498 8.40152 52.0383 8.33094 52.1381 8.28045C52.2379 8.22996 52.3468 8.20063 52.4583 8.19427H58.2471C58.2948 8.19427 58.3421 8.20378 58.3861 8.22226C58.4302 8.24073 58.4702 8.26781 58.5039 8.30194C58.5376 8.33607 58.5642 8.37657 58.5824 8.42113C58.6005 8.46569 58.6097 8.51342 58.6095 8.56159V25.013C58.6095 25.0615 58.619 25.1094 58.6373 25.1542C58.6557 25.1989 58.6826 25.2395 58.7165 25.2738C58.7504 25.308 58.7907 25.3352 58.835 25.3537C58.8793 25.3722 58.9268 25.3818 58.9748 25.3818H72.071C72.1191 25.382 72.1668 25.3726 72.2114 25.3542C72.2559 25.3357 72.2965 25.3086 72.3306 25.2744C72.3648 25.2401 72.392 25.1994 72.4106 25.1546C72.4292 25.1098 72.4388 25.0617 72.439 25.013V0.813807C72.4375 0.716504 72.398 0.623737 72.3291 0.555727C72.2601 0.487717 72.1674 0.449981 72.071 0.450741H46.8829Z" fill="white"/>
<path d="M49.1104 16.0795C49.1095 17.0588 49.2059 18.0356 49.3983 18.9954H68.2033L70.6742 15.0698H49.1539C49.1272 15.396 49.1104 15.7335 49.1104 16.0781" fill="#C64D4F"/>
<path d="M49.7715 12.174C49.5005 12.953 49.3094 13.758 49.2012 14.5764H70.9856L72.4985 12.174H49.7715Z" fill="#C64D4F"/>
<path d="M4.00002 29.4252C4.00002 29.3283 4.03797 29.2353 4.10559 29.1665C4.17321 29.0977 4.26503 29.0587 4.36104 29.0579H107.593C107.689 29.0586 107.781 29.0976 107.849 29.1663C107.917 29.235 107.956 29.328 107.956 29.4252V39.1869C107.957 39.2353 107.947 39.2832 107.929 39.3279C107.911 39.3726 107.884 39.4133 107.85 39.4476C107.817 39.4818 107.776 39.509 107.732 39.5275C107.688 39.5461 107.641 39.5556 107.593 39.5556H4.36104C4.31327 39.5556 4.26598 39.5461 4.2219 39.5275C4.17783 39.5089 4.13784 39.4817 4.10426 39.4474C4.07068 39.4131 4.04418 39.3724 4.02629 39.3277C4.00839 39.283 3.99947 39.2351 4.00002 39.1869V29.4252Z" fill="white"/>
<path d="M13.6084 32.3041H12.0449V37.7076H11.0124V32.3041H9.44336V31.4362H13.7418L13.6084 32.3041Z" fill="white"/>
<path d="M20.9314 35.1874C20.6505 34.2414 20.4005 33.3437 20.1954 32.4715C19.9341 33.4117 19.663 34.3152 19.4087 35.1874H20.9314ZM21.6675 37.7076L21.1632 36.0582H19.1545L18.6544 37.709H17.584L19.618 31.4362H20.8092L22.7927 37.7076H21.6675Z" fill="white"/>
<path d="M30.209 37.7983C29.8341 37.8099 29.4617 37.734 29.1206 37.5766C28.7795 37.4191 28.479 37.1844 28.2424 36.8906C27.776 36.3233 27.5288 35.5561 27.5288 34.681C27.5111 34.0235 27.6559 33.3718 27.9502 32.7849C28.162 32.3543 28.4881 31.9917 28.8922 31.7375C29.2963 31.4833 29.7624 31.3475 30.2385 31.3454C30.8439 31.3454 31.4157 31.5255 31.7837 31.8361L31.3061 32.514C31.0026 32.2788 30.6294 32.1539 30.2469 32.1594C29.9918 32.1575 29.7411 32.2272 29.5228 32.3606C29.3046 32.4941 29.1273 32.6861 29.0108 32.9153C28.7944 33.294 28.6863 33.8202 28.6863 34.5562C28.6863 35.2923 28.7664 35.7419 28.9279 36.0964C29.0431 36.3677 29.2369 36.5974 29.4839 36.7554C29.7309 36.9133 30.0194 36.9921 30.3116 36.9814C30.7178 36.9939 31.1141 36.8528 31.4227 36.5857L31.9087 37.2452C31.4211 37.6199 30.8216 37.8155 30.209 37.7997" fill="white"/>
<path d="M41.6648 32.0686L41.3839 32.1424C41.254 32.1578 41.1317 32.2121 41.0327 32.2984C40.9385 32.4165 40.8735 32.5555 40.8431 32.704L40.6829 33.355C40.6225 33.6202 40.5677 33.8811 40.3163 34.118C40.19 34.2335 40.0405 34.3201 39.878 34.3718V34.3903C40.02 34.4397 40.1516 34.5158 40.2657 34.6144C40.4641 34.8108 40.6009 35.0619 40.659 35.3362L40.94 36.3418C40.9682 36.5049 41.0395 36.6573 41.1465 36.7828C41.2563 36.8746 41.3856 36.9396 41.5243 36.9729L41.7941 37.0537L41.6044 37.794L41.2645 37.7529C40.9681 37.726 40.5621 37.6707 40.2812 37.4026C40.048 37.1629 40.0002 36.8495 39.9496 36.5857L39.7432 35.6213C39.6982 35.4355 39.628 35.1646 39.4538 35.0086C39.2816 34.8697 39.0641 34.8009 38.8441 34.8158H38.2527V37.7089H37.2217V31.4361H38.2527V33.9648H38.934C39.1618 33.985 39.3881 33.9131 39.5634 33.7648C39.7235 33.6018 39.767 33.3536 39.812 33.1763L39.9834 32.4104C40.0229 32.1465 40.1382 31.8999 40.3149 31.7013C40.527 31.49 40.756 31.4631 41.1156 31.4106L41.4822 31.3567L41.6803 32.0658L41.6648 32.0686Z" fill="white"/>
<path d="M49.1535 32.1423C48.0831 32.1423 47.687 32.9933 47.687 34.4909C47.687 36.1034 48.0943 36.9998 49.1788 36.9998C50.1031 36.9998 50.5835 36.3105 50.5835 34.6242C50.5835 33.0996 50.2702 32.1423 49.1605 32.1423H49.1535ZM49.1858 37.7982C47.4173 37.7982 46.5449 36.4183 46.5449 34.5647C46.5449 32.5054 47.5858 31.3439 49.1408 31.3439C50.8911 31.3439 51.7326 32.7465 51.7326 34.5703C51.7326 36.5289 50.797 37.7982 49.1844 37.7982" fill="white"/>
<path d="M62.2571 37.7077L61.9677 33.8204C61.9438 33.4204 61.9242 32.9212 61.9242 32.734C61.8806 32.9397 61.7991 33.3368 61.6825 33.7367L60.5489 37.7077H59.671L58.6385 33.9083C58.5219 33.4928 58.4025 32.9297 58.366 32.7227C58.366 32.9312 58.3323 33.5325 58.3084 33.9168L58.0275 37.7077H57.0146L57.5765 31.4363H58.9504L59.9014 34.9819C59.996 35.3341 60.0724 35.691 60.1303 36.0513C60.1612 35.8612 60.2413 35.4329 60.3593 35.0003L61.3426 31.4307H62.7164L63.2671 37.7021L62.2571 37.7077Z" fill="white"/>
<path d="M70.75 36.851C71.2178 36.851 71.4889 36.7091 71.6308 36.5673C71.7241 36.468 71.7962 36.3504 71.8428 36.2219C71.8895 36.0934 71.9096 35.9566 71.9019 35.8199C71.9111 35.6833 71.8917 35.5463 71.845 35.4178C71.7983 35.2893 71.7253 35.1721 71.6308 35.0739C71.385 34.8442 71.031 34.8002 70.75 34.8002H69.8721V36.8453L70.75 36.851ZM72.5762 31.4376L72.4357 32.2885H69.8679V33.9493H70.7261C71.1953 33.9493 71.9904 33.9493 72.5439 34.4939C72.9807 34.9293 73.0453 35.5164 73.0453 35.8724C73.0576 36.0989 73.0251 36.3256 72.9499 36.5394C72.8747 36.7531 72.7581 36.9497 72.6071 37.1176C72.0915 37.6579 71.2838 37.7005 70.684 37.7005H68.834V31.4362L72.5762 31.4376Z" fill="white"/>
<path d="M81.1335 35.1874C80.8525 34.2414 80.6025 33.3437 80.3988 32.4715C80.1361 33.4117 79.8692 34.3152 79.6051 35.1874H81.1335ZM81.8653 37.7076L81.3624 36.0567H79.3523L78.8494 37.7076H77.7832L79.8215 31.4362H81.0155L82.9989 37.7076H81.8653Z" fill="white"/>
<path d="M91.1586 37.7076V34.8045H89.0403V37.7076H88.0078V31.4362H89.0403V33.9549H91.1586V31.4362H92.1883V37.7076H91.1586Z" fill="white"/>
<path d="M102.396 32.0686L102.107 32.1424C101.978 32.1579 101.858 32.2122 101.76 32.2984C101.663 32.4146 101.598 32.5544 101.57 32.704L101.405 33.355C101.344 33.6202 101.29 33.8811 101.035 34.118C100.911 34.2351 100.762 34.3219 100.6 34.3718V34.3903C100.743 34.4393 100.875 34.5154 100.99 34.6144C101.19 34.8095 101.326 35.0612 101.381 35.3362L101.662 36.3418C101.689 36.5055 101.761 36.6582 101.87 36.7828C101.979 36.8757 102.108 36.9408 102.248 36.9729L102.516 37.0537L102.326 37.794L101.986 37.7529C101.69 37.726 101.277 37.6707 101.003 37.4026C100.77 37.1629 100.722 36.8495 100.669 36.5857L100.464 35.6213C100.419 35.4355 100.348 35.1646 100.183 35.0086C100.01 34.8696 99.7919 34.8008 99.5716 34.8158H98.9788V37.7089H97.9463V31.4361H98.9788V33.9648H99.6586C99.7716 33.975 99.8855 33.9626 99.9937 33.9283C100.102 33.8939 100.202 33.8384 100.289 33.7648C100.424 33.5952 100.511 33.3918 100.539 33.1763L100.714 32.4104C100.75 32.1455 100.866 31.898 101.045 31.7013C101.252 31.49 101.483 31.4631 101.84 31.4106L102.212 31.3567L102.41 32.0658L102.396 32.0686Z" fill="white"/>
</g>
<defs>
<filter id="filter0_d_20710_1015" x="0" y="0" width="112" height="62" filterUnits="userSpaceOnUse" color-interpolation-filters="sRGB">
<feFlood flood-opacity="0" result="BackgroundImageFix"/>
<feColorMatrix in="SourceAlpha" type="matrix" values="0 0 0 0 0 0 0 0 0 0 0 0 0 0 0 0 0 0 127 0" result="hardAlpha"/>
<feOffset dy="4"/>
<feGaussianBlur stdDeviation="2"/>
<feComposite in2="hardAlpha" operator="out"/>
<feColorMatrix type="matrix" values="0 0 0 0 0 0 0 0 0 0 0 0 0 0 0 0 0 0 0.25 0"/>
<feBlend mode="normal" in2="BackgroundImageFix" result="effect1_dropShadow_20710_1015"/>
<feBlend mode="normal" in="SourceGraphic" in2="effect1_dropShadow_20710_1015" result="shape"/>
</filter>
<clipPath id="clip0_20710_1015">
<rect width="104" height="54" fill="white" transform="translate(4)"/>
</clipPath>
</defs>
</svg>
