<svg width="104" height="54" viewBox="0 0 104 54" fill="none" xmlns="http://www.w3.org/2000/svg">
<g clip-path="url(#clip0_20714_1754)">
<path d="M94.1207 16.0795C94.0678 16.0711 94.0138 16.074 93.962 16.088C93.9103 16.1019 93.862 16.1267 93.8204 16.1606C93.7787 16.1945 93.7445 16.2369 93.72 16.285C93.6955 16.3331 93.6813 16.3858 93.6782 16.4398C93.6782 16.4398 93.1163 17.7701 92.1232 18.2835C91.6709 18.5175 91.4798 18.6409 90.4502 18.6111H85.2696C82.4685 18.4097 82.1792 15.4513 82.1792 15.4513C82.1792 15.091 82.1412 14.6117 82.1412 14.406V11.0476C82.2171 8.02257 84.5419 7.32763 84.5419 7.32763C84.9025 7.24469 85.2721 7.20848 85.6418 7.21985H90.8238C93.1739 7.29785 93.7934 9.88612 93.7934 9.88612C93.8275 9.97712 93.8868 10.0563 93.9643 10.1141C94.0418 10.172 94.1341 10.2061 94.2303 10.2123H103.642C103.738 10.2116 103.83 10.1723 103.898 10.1032C103.966 10.0341 104.003 9.94075 104.003 9.84357V8.8267C103.862 1.79512 97.5342 0.0918311 96.2208 0.12445C95.8668 0.12445 95.3779 0.0975037 95.1742 0.0975037H80.5399C76.0841 0.117359 73.557 3.4346 72.6594 5.70944C72.3734 6.41747 72.1962 7.16547 72.134 7.92755C72.1157 8.33883 72.082 8.99831 72.082 9.20395V17.0042C72.4866 24.4457 78.8809 25.6937 79.8417 25.7263C80.1648 25.7377 80.7056 25.7575 80.9065 25.7575H95.5381C102.222 25.3973 103.947 19.4833 103.975 17.5914C103.975 17.0425 103.993 16.8298 103.993 16.627V16.4596C103.994 16.411 103.985 16.3627 103.967 16.3175C103.95 16.2723 103.923 16.2311 103.89 16.1962C103.856 16.1613 103.816 16.1334 103.772 16.1141C103.728 16.0948 103.68 16.0845 103.632 16.0838L94.1207 16.0795Z" fill="white"/>
<path d="M37.0059 0.762572C37.1084 0.583875 37.0269 0.444888 36.8275 0.444888H0.40582C0.309942 0.44451 0.217822 0.482506 0.149632 0.550554C0.0814418 0.618602 0.0427374 0.711159 0.0419949 0.807956V7.88208C0.04181 7.93044 0.0510841 7.97835 0.0692851 8.02308C0.0874861 8.06781 0.114256 8.10847 0.148059 8.14273C0.181861 8.17699 0.222032 8.20418 0.266265 8.22273C0.310498 8.24127 0.357923 8.25082 0.40582 8.25082H9.33704C9.38482 8.25101 9.43209 8.26069 9.47616 8.27932C9.52024 8.29796 9.56024 8.32517 9.59389 8.35941C9.62754 8.39365 9.65419 8.43425 9.6723 8.47888C9.69042 8.52352 9.69964 8.57132 9.69946 8.61956V25.0072C9.69983 25.1049 9.73843 25.1984 9.80684 25.2675C9.87525 25.3366 9.96794 25.3756 10.0647 25.3759H24.1231C24.2199 25.3756 24.3126 25.3366 24.381 25.2675C24.4494 25.1984 24.488 25.1049 24.4884 25.0072V8.62523C24.488 8.57706 24.4971 8.52929 24.515 8.48466C24.533 8.44003 24.5595 8.39943 24.593 8.36517C24.6266 8.33091 24.6665 8.30367 24.7105 8.28502C24.7545 8.26637 24.8017 8.25668 24.8494 8.25649H32.2228C32.3323 8.24934 32.4387 8.217 32.5339 8.16194C32.6291 8.10687 32.7105 8.03055 32.772 7.93881L37.0059 0.762572Z" fill="white"/>
<path d="M42.8829 0.450756C42.6536 0.46174 42.4367 0.558863 42.2747 0.723056C42.2747 0.723056 35.813 7.20578 35.834 16.2172C35.8411 21.7838 38.0956 25.0854 38.0956 25.0854C38.2459 25.2575 38.4575 25.3625 38.6842 25.3775H47.895C48.0944 25.3775 48.1534 25.2499 48.027 25.0939C48.027 25.0939 45.056 21.2718 45.1094 16.0754C45.153 11.4151 47.8781 8.48786 47.8781 8.48786C47.9498 8.40154 48.0383 8.33096 48.1381 8.28047C48.2379 8.22998 48.3468 8.20065 48.4583 8.19428H54.2471C54.2948 8.19428 54.3421 8.20379 54.3861 8.22227C54.4302 8.24075 54.4702 8.26783 54.5039 8.30196C54.5376 8.33608 54.5642 8.37659 54.5824 8.42115C54.6005 8.4657 54.6097 8.51344 54.6095 8.56161V25.0131C54.6095 25.0615 54.619 25.1094 54.6373 25.1542C54.6557 25.1989 54.6826 25.2396 54.7165 25.2738C54.7504 25.308 54.7907 25.3352 54.835 25.3537C54.8793 25.3723 54.9268 25.3818 54.9748 25.3818H68.071C68.1191 25.382 68.1668 25.3726 68.2114 25.3542C68.2559 25.3357 68.2965 25.3086 68.3306 25.2744C68.3648 25.2401 68.392 25.1994 68.4106 25.1546C68.4292 25.1098 68.4388 25.0617 68.439 25.0131V0.813822C68.4375 0.71652 68.398 0.623752 68.3291 0.555742C68.2601 0.487733 68.1674 0.449996 68.071 0.450756H42.8829Z" fill="white"/>
<path d="M45.1104 16.0795C45.1095 17.0588 45.2059 18.0356 45.3983 18.9954H64.2033L66.6742 15.0698H45.1539C45.1272 15.396 45.1104 15.7335 45.1104 16.0781" fill="#C64D4F"/>
<path d="M45.7715 12.174C45.5005 12.953 45.3094 13.758 45.2012 14.5764H66.9856L68.4985 12.174H45.7715Z" fill="#C64D4F"/>
<path d="M2.45994e-05 29.4252C2.17369e-05 29.3283 0.0379652 29.2353 0.105589 29.1665C0.173212 29.0977 0.265033 29.0587 0.361037 29.0579H103.593C103.689 29.0587 103.781 29.0976 103.849 29.1663C103.917 29.2351 103.956 29.3281 103.956 29.4252V39.1869C103.957 39.2353 103.947 39.2832 103.929 39.3279C103.911 39.3726 103.884 39.4133 103.85 39.4476C103.817 39.4818 103.776 39.509 103.732 39.5276C103.688 39.5461 103.641 39.5557 103.593 39.5557H0.361037C0.313271 39.5557 0.265979 39.5461 0.221902 39.5275C0.177825 39.5089 0.137839 39.4817 0.10426 39.4474C0.070681 39.4131 0.0441788 39.3724 0.026286 39.3277C0.00839314 39.283 -0.000532977 39.2351 2.45994e-05 39.1869V29.4252Z" fill="white"/>
<path d="M9.60836 32.3041H8.0449V37.7076H7.01243V32.3041H5.44336V31.4362H9.74181L9.60836 32.3041Z" fill="white"/>
<path d="M16.9314 35.1874C16.6505 34.2414 16.4005 33.3437 16.1954 32.4715C15.9341 33.4117 15.663 34.3152 15.4087 35.1874H16.9314ZM17.6675 37.7076L17.1632 36.0582H15.1545L14.6544 37.709H13.584L15.618 31.4362H16.8092L18.7927 37.7076H17.6675Z" fill="white"/>
<path d="M26.209 37.7983C25.8341 37.8099 25.4617 37.734 25.1206 37.5766C24.7795 37.4191 24.479 37.1844 24.2424 36.8906C23.776 36.3233 23.5288 35.5561 23.5288 34.681C23.5111 34.0235 23.6559 33.3718 23.9502 32.7849C24.162 32.3543 24.4881 31.9917 24.8922 31.7375C25.2963 31.4833 25.7624 31.3475 26.2385 31.3454C26.8439 31.3454 27.4157 31.5255 27.7837 31.8361L27.3061 32.514C27.0026 32.2788 26.6294 32.1539 26.2469 32.1594C25.9918 32.1575 25.7411 32.2272 25.5228 32.3606C25.3046 32.4941 25.1273 32.6861 25.0108 32.9153C24.7944 33.294 24.6863 33.8202 24.6863 34.5562C24.6863 35.2923 24.7664 35.7419 24.9279 36.0964C25.0431 36.3677 25.2369 36.5974 25.4839 36.7554C25.7309 36.9133 26.0194 36.9921 26.3116 36.9814C26.7178 36.9939 27.1141 36.8528 27.4227 36.5857L27.9087 37.2452C27.4211 37.6199 26.8216 37.8155 26.209 37.7997" fill="white"/>
<path d="M37.6648 32.0686L37.3839 32.1424C37.254 32.1578 37.1317 32.2121 37.0327 32.2984C36.9385 32.4165 36.8735 32.5555 36.8431 32.704L36.6829 33.355C36.6225 33.6202 36.5677 33.8811 36.3163 34.118C36.19 34.2335 36.0405 34.3201 35.878 34.3718V34.3903C36.02 34.4397 36.1516 34.5158 36.2657 34.6144C36.4641 34.8108 36.6009 35.0619 36.659 35.3362L36.94 36.3418C36.9682 36.5049 37.0395 36.6573 37.1465 36.7828C37.2563 36.8746 37.3856 36.9396 37.5243 36.9729L37.7941 37.0537L37.6044 37.794L37.2645 37.7529C36.9681 37.726 36.5621 37.6707 36.2812 37.4026C36.048 37.1629 36.0002 36.8495 35.9496 36.5857L35.7432 35.6213C35.6982 35.4355 35.628 35.1646 35.4538 35.0086C35.2816 34.8697 35.0641 34.8009 34.8441 34.8158H34.2527V37.7089H33.2217V31.4361H34.2527V33.9648H34.934C35.1618 33.985 35.3881 33.9131 35.5634 33.7648C35.7235 33.6018 35.767 33.3536 35.812 33.1763L35.9834 32.4104C36.0229 32.1465 36.1382 31.8999 36.3149 31.7013C36.527 31.49 36.756 31.4631 37.1156 31.4106L37.4822 31.3567L37.6803 32.0658L37.6648 32.0686Z" fill="white"/>
<path d="M45.1535 32.1423C44.0831 32.1423 43.687 32.9933 43.687 34.4909C43.687 36.1034 44.0943 36.9998 45.1788 36.9998C46.1031 36.9998 46.5835 36.3105 46.5835 34.6242C46.5835 33.0996 46.2702 32.1423 45.1605 32.1423H45.1535ZM45.1858 37.7982C43.4173 37.7982 42.5449 36.4183 42.5449 34.5647C42.5449 32.5054 43.5858 31.3439 45.1408 31.3439C46.8911 31.3439 47.7326 32.7465 47.7326 34.5703C47.7326 36.5289 46.797 37.7982 45.1844 37.7982" fill="white"/>
<path d="M58.2571 37.7077L57.9677 33.8204C57.9438 33.4204 57.9242 32.9212 57.9242 32.734C57.8806 32.9397 57.7991 33.3368 57.6825 33.7367L56.5489 37.7077H55.671L54.6385 33.9083C54.5219 33.4928 54.4025 32.9297 54.366 32.7227C54.366 32.9312 54.3323 33.5325 54.3084 33.9168L54.0275 37.7077H53.0146L53.5765 31.4363H54.9504L55.9014 34.9819C55.996 35.3341 56.0724 35.691 56.1303 36.0513C56.1612 35.8612 56.2413 35.4329 56.3593 35.0003L57.3426 31.4307H58.7164L59.2671 37.7021L58.2571 37.7077Z" fill="white"/>
<path d="M66.75 36.851C67.2178 36.851 67.4889 36.7091 67.6308 36.5673C67.7241 36.468 67.7962 36.3504 67.8428 36.2219C67.8895 36.0934 67.9096 35.9566 67.9019 35.8199C67.9111 35.6833 67.8917 35.5463 67.845 35.4178C67.7983 35.2893 67.7253 35.1721 67.6308 35.0739C67.385 34.8442 67.031 34.8002 66.75 34.8002H65.8721V36.8453L66.75 36.851ZM68.5762 31.4376L68.4357 32.2885H65.8679V33.9493H66.7261C67.1953 33.9493 67.9904 33.9493 68.5439 34.4939C68.9807 34.9293 69.0453 35.5164 69.0453 35.8724C69.0576 36.0989 69.0251 36.3256 68.9499 36.5394C68.8747 36.7531 68.7581 36.9497 68.6071 37.1176C68.0915 37.6579 67.2838 37.7005 66.684 37.7005H64.834V31.4362L68.5762 31.4376Z" fill="white"/>
<path d="M77.1335 35.1874C76.8525 34.2414 76.6025 33.3437 76.3988 32.4715C76.1361 33.4117 75.8692 34.3152 75.6051 35.1874H77.1335ZM77.8653 37.7076L77.3624 36.0567H75.3523L74.8494 37.7076H73.7832L75.8215 31.4362H77.0155L78.9989 37.7076H77.8653Z" fill="white"/>
<path d="M87.1586 37.7076V34.8045H85.0403V37.7076H84.0078V31.4362H85.0403V33.9549H87.1586V31.4362H88.1883V37.7076H87.1586Z" fill="white"/>
<path d="M98.3964 32.0686L98.1071 32.1424C97.9785 32.1579 97.8575 32.2122 97.7601 32.2984C97.663 32.4146 97.5976 32.5544 97.5705 32.704L97.4047 33.355C97.3443 33.6202 97.2895 33.8811 97.0353 34.118C96.9112 34.2351 96.7622 34.3219 96.5998 34.3718V34.3903C96.7429 34.4393 96.8754 34.5154 96.9903 34.6144C97.1899 34.8095 97.3261 35.0612 97.3808 35.3362L97.6618 36.3418C97.6891 36.5055 97.7611 36.6582 97.8697 36.7828C97.9788 36.8757 98.1084 36.9408 98.2475 36.9729L98.5158 37.0537L98.3262 37.794L97.9863 37.7529C97.6899 37.726 97.2769 37.6707 97.003 37.4026C96.7698 37.1629 96.722 36.8495 96.6686 36.5857L96.4636 35.6213C96.4186 35.4355 96.3484 35.1646 96.1826 35.0086C96.0099 34.8696 95.7919 34.8008 95.5716 34.8158H94.9788V37.7089H93.9463V31.4361H94.9788V33.9648H95.6586C95.7716 33.975 95.8855 33.9626 95.9937 33.9283C96.102 33.8939 96.2024 33.8384 96.2894 33.7648C96.4241 33.5952 96.5106 33.3918 96.5394 33.1763L96.7136 32.4104C96.7499 32.1455 96.8656 31.898 97.0451 31.7013C97.2516 31.49 97.4834 31.4631 97.8402 31.4106L98.2124 31.3567L98.4105 32.0658L98.3964 32.0686Z" fill="white"/>
<path d="M8.81565 48.4151C8.81865 48.742 8.77126 49.0674 8.67518 49.3795C8.59171 49.6547 8.45623 49.9109 8.27624 50.134C8.10413 50.3434 7.88762 50.5111 7.64271 50.6247C7.35832 50.7488 7.05057 50.8088 6.74088 50.8006H5.97531V53.6938C5.97561 53.7159 5.9708 53.7377 5.96126 53.7576C5.95166 53.7777 5.93589 53.7941 5.91631 53.8044C5.88967 53.8181 5.86132 53.8282 5.83202 53.8342C5.78575 53.8432 5.73865 53.847 5.69155 53.8455C5.64727 53.8463 5.60303 53.8425 5.55951 53.8342C5.52924 53.8284 5.49992 53.8184 5.47241 53.8044C5.45237 53.7943 5.43611 53.7778 5.42606 53.7576C5.41652 53.7377 5.41171 53.7159 5.41201 53.6938V46.6083C5.40701 46.5576 5.41214 46.5063 5.4271 46.4576C5.44206 46.4089 5.46654 46.3637 5.4991 46.3247C5.5435 46.2779 5.60363 46.2496 5.66767 46.2453H6.8659C6.98184 46.2449 7.09771 46.2515 7.21287 46.2651C7.3466 46.2835 7.47861 46.3129 7.60759 46.353C7.7754 46.4068 7.9317 46.492 8.06834 46.6041C8.22679 46.7287 8.3619 46.881 8.46728 47.0536C8.58146 47.2424 8.66671 47.4475 8.72013 47.6621C8.78392 47.9079 8.81603 48.161 8.81565 48.4151ZM8.22708 48.479C8.23497 48.1939 8.18377 47.9104 8.07677 47.6465C7.99858 47.4485 7.87253 47.2735 7.71014 47.1373C7.57843 47.0323 7.42388 46.9603 7.25922 46.9274C7.11289 46.8992 6.96431 46.8844 6.81533 46.8835H5.9725V50.1681H6.77459C6.99707 50.1752 7.21831 50.1321 7.42217 50.0418C7.59362 49.9604 7.74445 49.8406 7.86325 49.6915C7.98707 49.5327 8.07915 49.3511 8.13436 49.1569C8.19904 48.9345 8.23076 48.7036 8.22848 48.4719L8.22708 48.479Z" fill="white"/>
<path d="M14.5479 53.5634C14.564 53.6089 14.5725 53.6568 14.5731 53.7052C14.5737 53.7367 14.5621 53.7672 14.5408 53.7903C14.5152 53.8125 14.4832 53.8259 14.4495 53.8286C14.3973 53.835 14.3448 53.8378 14.2922 53.8371C14.241 53.838 14.1899 53.8351 14.1391 53.8286C14.1083 53.8246 14.0784 53.8155 14.0506 53.8016C14.0305 53.7911 14.0138 53.7748 14.0028 53.7548C13.991 53.7326 13.9811 53.7093 13.9733 53.6853L13.4114 51.6686H10.8183L10.2803 53.674C10.2753 53.6985 10.2663 53.722 10.2536 53.7435C10.2406 53.7636 10.2234 53.7806 10.2031 53.7931C10.1757 53.8091 10.1457 53.8202 10.1146 53.8257C10.0682 53.834 10.0212 53.8378 9.97408 53.8371C9.92048 53.838 9.86689 53.8342 9.81394 53.8257C9.77924 53.8217 9.74649 53.8074 9.71983 53.7846C9.70932 53.7737 9.70106 53.7609 9.69551 53.7467C9.68997 53.7326 9.68725 53.7175 9.68752 53.7024C9.6879 53.654 9.69645 53.606 9.7128 53.5605L11.7777 46.3659C11.7855 46.3367 11.7994 46.3097 11.8185 46.2864C11.8376 46.2644 11.8617 46.2474 11.8887 46.2368C11.9227 46.2241 11.9581 46.2155 11.9941 46.2113C12.0406 46.2051 12.0876 46.2022 12.1345 46.2028C12.1815 46.2023 12.2284 46.2052 12.275 46.2113C12.311 46.2155 12.3464 46.2241 12.3804 46.2368C12.4072 46.2469 12.431 46.2641 12.4492 46.2864C12.4672 46.3101 12.4806 46.3371 12.4885 46.3659L14.5479 53.5634ZM12.0994 47.0055L10.9827 51.073H13.2387L12.0994 47.0055Z" fill="white"/>
<path d="M18.8726 51.7225C18.8754 52.0142 18.8317 52.3043 18.7434 52.582C18.6616 52.8382 18.527 53.074 18.3487 53.2741C18.1656 53.476 17.94 53.634 17.6885 53.7364C17.3923 53.8531 17.0763 53.9094 16.7585 53.9024C16.5788 53.9047 16.3994 53.8842 16.2247 53.8414C16.0849 53.8085 15.9488 53.761 15.8188 53.6995C15.7282 53.6562 15.6413 53.6054 15.5589 53.5478C15.5142 53.5167 15.4723 53.4816 15.4339 53.4428C15.413 53.42 15.3955 53.3942 15.3819 53.3663C15.3689 53.3374 15.36 53.3068 15.3552 53.2755C15.3552 53.24 15.344 53.1989 15.3398 53.1493C15.3355 53.0996 15.3398 53.0443 15.3398 52.9833C15.3358 52.9154 15.3434 52.8473 15.3622 52.7819C15.3664 52.7665 15.3753 52.7529 15.3877 52.7429C15.4001 52.733 15.4153 52.7273 15.4311 52.7266C15.4889 52.7367 15.5424 52.7644 15.5842 52.8061C15.6497 52.859 15.7354 52.9205 15.8413 52.9904C15.9648 53.069 16.098 53.1309 16.2374 53.1748C16.4221 53.2316 16.6146 53.2584 16.8077 53.2542C17.0139 53.2566 17.2188 53.2201 17.4117 53.1464C17.5876 53.0801 17.7477 52.9771 17.8815 52.8442C18.0153 52.7113 18.12 52.5514 18.1885 52.3749C18.2635 52.1826 18.3007 51.9774 18.2981 51.7708C18.3005 51.5523 18.2658 51.335 18.1956 51.1283C18.1318 50.9413 18.0293 50.7702 17.895 50.6262C17.758 50.4826 17.5916 50.3708 17.4075 50.2986C17.1973 50.2178 16.9736 50.1783 16.7487 50.1823H16.0239C15.9975 50.1836 15.9713 50.1777 15.948 50.1653C15.9265 50.1518 15.9091 50.1327 15.8974 50.11C15.8822 50.0798 15.8723 50.0472 15.8679 50.0136C15.8612 49.9666 15.8579 49.9192 15.8581 49.8717C15.8579 49.8266 15.8612 49.7816 15.8679 49.737C15.8726 49.7026 15.8825 49.6691 15.8974 49.6377C15.9089 49.613 15.9269 49.5919 15.9494 49.5768C15.9713 49.5631 15.9967 49.5562 16.0225 49.5569H16.6841C16.882 49.5589 17.0788 49.5263 17.2656 49.4605C17.437 49.4008 17.5933 49.304 17.7236 49.1768C17.8549 49.0449 17.9569 48.8864 18.0228 48.7116C18.0976 48.508 18.1338 48.292 18.1295 48.0748C18.1315 47.8977 18.1069 47.7212 18.0565 47.5515C18.0127 47.403 17.938 47.2657 17.8374 47.1488C17.7377 47.0363 17.6136 46.9484 17.4749 46.8921C17.3144 46.8285 17.143 46.7977 16.9706 46.8013C16.7889 46.798 16.608 46.8258 16.4354 46.8835C16.2979 46.931 16.1652 46.9918 16.0393 47.0651C15.9422 47.122 15.8484 47.1845 15.7584 47.2523C15.7103 47.2977 15.6504 47.3283 15.5856 47.3402C15.5698 47.3413 15.5542 47.3362 15.542 47.326C15.5286 47.3122 15.519 47.2951 15.514 47.2764C15.5053 47.2459 15.5001 47.2145 15.4985 47.1828C15.4985 47.144 15.4985 47.0967 15.4985 47.041C15.4985 47.0022 15.4985 46.9644 15.4985 46.9275C15.5014 46.8923 15.5061 46.8573 15.5125 46.8226C15.518 46.7915 15.5265 46.7611 15.5378 46.7318C15.5497 46.7022 15.5658 46.6745 15.5856 46.6495C15.6339 46.5998 15.6881 46.5565 15.7471 46.5205C15.8486 46.4544 15.9564 46.3989 16.0688 46.3545C16.211 46.2958 16.3576 46.2484 16.5071 46.2127C16.6759 46.171 16.8488 46.1486 17.0226 46.1461C17.2737 46.1409 17.5231 46.1892 17.7545 46.2879C17.955 46.3755 18.1336 46.5073 18.277 46.6736C18.4204 46.8442 18.5266 47.0433 18.5889 47.258C18.6593 47.4987 18.6939 47.7487 18.6914 47.9997C18.6949 48.2394 18.6631 48.4784 18.5973 48.7088C18.5425 48.8998 18.4571 49.0804 18.3445 49.2435C18.2457 49.3865 18.1214 49.5096 17.9778 49.6065C17.8469 49.695 17.7006 49.7576 17.5466 49.7909V49.8023C17.7309 49.8341 17.9065 49.9046 18.0621 50.0093C18.2268 50.1192 18.3697 50.2592 18.4835 50.422C18.6069 50.6007 18.7017 50.7979 18.7645 51.0063C18.8365 51.2381 18.873 51.4796 18.8726 51.7225Z" fill="white"/>
<path d="M25.1314 49.9343C25.1368 50.4851 25.0827 51.0349 24.9698 51.5738C24.8802 52.0158 24.7158 52.439 24.4838 52.8247C24.1566 53.3187 23.6612 53.6743 23.0916 53.8241C22.522 53.9739 21.9177 53.9074 21.3934 53.6373C21.0742 53.4558 20.8071 53.1939 20.618 52.8771C20.3996 52.5047 20.2483 52.096 20.1713 51.6702C20.0716 51.1407 20.0246 50.6024 20.0308 50.0634C20.0259 49.5216 20.0796 48.9809 20.191 48.4508C20.2794 48.0129 20.4439 47.5942 20.677 47.2141C20.8805 46.8867 21.1608 46.6149 21.4931 46.4228C21.8454 46.2282 22.2421 46.1304 22.6436 46.1391C23.0306 46.1288 23.4137 46.2192 23.7561 46.4015C24.0744 46.5822 24.3418 46.8419 24.533 47.156C24.7538 47.5232 24.9084 47.927 24.9895 48.3487C25.0914 48.8708 25.1389 49.4022 25.1314 49.9343ZM24.5386 49.9981C24.5405 49.5763 24.5076 49.1551 24.4402 48.7387C24.3864 48.3829 24.2774 48.0378 24.1172 47.7162C23.9789 47.44 23.7723 47.2045 23.5173 47.0326C23.2399 46.8592 22.9177 46.7729 22.5916 46.7844C22.2649 46.7734 21.9427 46.864 21.6687 47.044C21.4124 47.2235 21.2028 47.4629 21.0577 47.7417C20.8918 48.0622 20.778 48.4074 20.7205 48.7643C20.6507 49.1717 20.6164 49.5846 20.618 49.9981C20.6162 50.4254 20.6477 50.8522 20.7121 51.2745C20.7628 51.6329 20.8694 51.981 21.0282 52.3056C21.1644 52.5831 21.3702 52.8198 21.6252 52.992C21.9054 53.1661 22.2305 53.2525 22.5593 53.2402C22.8904 53.2518 23.2169 53.1592 23.4935 52.975C23.7511 52.7921 23.9608 52.5488 24.1045 52.2659C24.2684 51.9409 24.3807 51.5921 24.4374 51.232C24.5059 50.8244 24.5397 50.4116 24.5386 49.9981Z" fill="white"/>
<path d="M32.8533 53.6856C32.8533 53.7076 32.8485 53.7294 32.8392 53.7494C32.829 53.77 32.8122 53.7865 32.7915 53.7962C32.7638 53.8097 32.7345 53.8197 32.7044 53.826C32.6581 53.8349 32.611 53.8387 32.5639 53.8373C32.521 53.838 32.4782 53.8342 32.4361 53.826C32.4058 53.8202 32.3765 53.8102 32.349 53.7962C32.3289 53.7861 32.3126 53.7697 32.3026 53.7494C32.2933 53.7294 32.2885 53.7076 32.2886 53.6856V46.8653H32.2787L29.9581 53.7267C29.9516 53.743 29.942 53.7579 29.9301 53.7707C29.916 53.7861 29.8987 53.7982 29.8795 53.8061C29.8552 53.817 29.8297 53.8251 29.8036 53.8302C29.7698 53.8364 29.7355 53.8392 29.7011 53.8387C29.6644 53.8393 29.6277 53.8364 29.5915 53.8302C29.5681 53.8244 29.5455 53.8159 29.5241 53.8047C29.506 53.7962 29.4898 53.7841 29.4763 53.7692C29.4649 53.757 29.4572 53.7417 29.4538 53.7253L27.247 46.8639V53.6841C27.2471 53.7062 27.2423 53.728 27.233 53.748C27.2227 53.7686 27.2059 53.785 27.1852 53.7948C27.1575 53.8083 27.1283 53.8183 27.0981 53.8245C27.0518 53.8333 27.0047 53.8371 26.9577 53.8359C26.9143 53.8367 26.871 53.8329 26.8284 53.8245C26.7991 53.8185 26.7708 53.8085 26.7441 53.7948C26.7245 53.7849 26.7091 53.7683 26.7006 53.748C26.6929 53.7276 26.6891 53.7059 26.6894 53.6841V46.6086C26.6844 46.5578 26.6895 46.5066 26.7044 46.4579C26.7194 46.4091 26.7439 46.364 26.7764 46.325C26.8208 46.278 26.8809 46.2497 26.945 46.2455H27.2456C27.314 46.2444 27.382 46.2554 27.4465 46.2781C27.5032 46.2988 27.5552 46.3306 27.5996 46.3717C27.6448 46.4146 27.6823 46.465 27.7106 46.5207C27.743 46.5845 27.7702 46.6509 27.7921 46.7192L29.739 52.7268H29.7615L31.7899 46.7419C31.8154 46.6601 31.8483 46.5808 31.8882 46.5051C31.9177 46.4488 31.9546 46.3968 31.9978 46.3505C32.0322 46.3138 32.0745 46.2857 32.1214 46.2682C32.1666 46.2524 32.2141 46.2443 32.2619 46.2441H32.5948C32.6246 46.2444 32.6541 46.2501 32.6819 46.2611C32.7138 46.2741 32.7418 46.2951 32.7634 46.3221C32.7904 46.356 32.8113 46.3944 32.8252 46.4356C32.8435 46.4923 32.852 46.5518 32.8505 46.6114L32.8533 53.6856Z" fill="white"/>
<path d="M40.1387 51.7226C40.1415 52.0142 40.0978 52.3044 40.0094 52.5821C39.9276 52.8382 39.7931 53.0741 39.6147 53.2742C39.4312 53.4763 39.2051 53.6343 38.9531 53.7365C38.6569 53.8531 38.3409 53.9095 38.0231 53.9024C37.8434 53.9047 37.664 53.8843 37.4893 53.8414C37.3495 53.8086 37.2134 53.761 37.0834 53.6996C36.9928 53.6563 36.9059 53.6055 36.8235 53.5479C36.7788 53.5168 36.7369 53.4817 36.6985 53.4429C36.6776 53.4201 36.6601 53.3943 36.6465 53.3663C36.6335 53.3375 36.6245 53.3069 36.6198 53.2756C36.6133 53.2406 36.6081 53.1985 36.6044 53.1493C36.6006 53.1002 36.6006 53.0449 36.6044 52.9834C36.6004 52.9155 36.608 52.8474 36.6268 52.782C36.631 52.7666 36.6399 52.753 36.6523 52.743C36.6647 52.7331 36.6799 52.7274 36.6957 52.7267C36.7537 52.7364 36.8072 52.7641 36.8488 52.8061C36.9144 52.8591 37 52.9205 37.1059 52.9905C37.2294 53.069 37.3626 53.131 37.502 53.1749C37.6867 53.2316 37.8792 53.2584 38.0723 53.2543C38.2785 53.2567 38.4834 53.2202 38.6763 53.1465C38.8522 53.0802 39.0124 52.9773 39.1462 52.8444C39.28 52.7114 39.3846 52.5515 39.4531 52.375C39.5282 52.1827 39.5654 51.9775 39.5627 51.7708C39.5652 51.5523 39.5305 51.335 39.4602 51.1284C39.3965 50.9414 39.294 50.7702 39.1596 50.6263C39.0226 50.4827 38.8562 50.3709 38.6721 50.2987C38.4619 50.2179 38.2382 50.1784 38.0133 50.1824H37.2885C37.2621 50.1841 37.2358 50.1782 37.2126 50.1654C37.1911 50.1519 37.1737 50.1328 37.162 50.1101C37.1469 50.0799 37.1369 50.0473 37.1325 50.0136C37.1262 49.9667 37.1234 49.9192 37.1241 49.8718C37.1234 49.8268 37.1263 49.7817 37.1325 49.7371C37.1372 49.7026 37.1471 49.6691 37.162 49.6378C37.1736 49.6131 37.1916 49.5921 37.214 49.5768C37.2361 49.5636 37.2614 49.5567 37.2871 49.557H37.9487C38.1466 49.559 38.3434 49.5264 38.5302 49.4605C38.7015 49.4008 38.8578 49.304 38.9882 49.1769C39.1195 49.045 39.2215 48.8865 39.2874 48.7117C39.3622 48.5081 39.3985 48.2921 39.3942 48.0749C39.3961 47.8978 39.3715 47.7213 39.3211 47.5516C39.2773 47.4031 39.2026 47.2658 39.102 47.1488C39.0023 47.0363 38.8783 46.9485 38.7396 46.8921C38.579 46.8286 38.4076 46.7978 38.2353 46.8014C38.0535 46.7981 37.8726 46.8259 37.7001 46.8836C37.5625 46.9311 37.4298 46.9918 37.3039 47.0651C37.2068 47.122 37.113 47.1845 37.023 47.2524C36.9749 47.2978 36.915 47.3283 36.8502 47.3403C36.8344 47.3414 36.8188 47.3363 36.8067 47.3261C36.7938 47.3121 36.7846 47.295 36.78 47.2765C36.7712 47.246 36.766 47.2146 36.7645 47.1829C36.7645 47.1441 36.7645 47.0968 36.7645 47.041C36.7645 47.0023 36.7645 46.9645 36.7645 46.9276C36.7674 46.8924 36.7721 46.8573 36.7786 46.8226C36.784 46.7916 36.7925 46.7612 36.8038 46.7319C36.8157 46.7022 36.8318 46.6745 36.8516 46.6496C36.8999 46.5999 36.9541 46.5565 37.0131 46.5205C37.1146 46.4546 37.2224 46.399 37.3348 46.3546C37.4771 46.2959 37.6236 46.2485 37.7731 46.2128C37.9464 46.173 38.1236 46.1534 38.3013 46.1546C38.5524 46.1495 38.8018 46.1978 39.0331 46.2965C39.2337 46.384 39.4122 46.5158 39.5557 46.6822C39.699 46.8528 39.8052 47.0519 39.8675 47.2665C39.9379 47.5073 39.9725 47.7573 39.9701 48.0083C39.9736 48.248 39.9419 48.487 39.876 48.7174C39.8212 48.9083 39.7358 49.089 39.6231 49.2521C39.5243 49.395 39.4 49.5182 39.2565 49.6151C39.1256 49.7036 38.9793 49.7662 38.8252 49.7995V49.8108C39.0096 49.8426 39.1852 49.9132 39.3408 50.0179C39.5054 50.1278 39.6483 50.2678 39.7622 50.4306C39.8855 50.6093 39.9803 50.8065 40.0431 51.0149C40.11 51.2446 40.1422 51.4832 40.1387 51.7226Z" fill="white"/>
<path d="M47.8155 53.6854C47.8158 53.7075 47.811 53.7293 47.8014 53.7492C47.7912 53.7698 47.7744 53.7863 47.7537 53.796C47.726 53.8095 47.6967 53.8195 47.6666 53.8258C47.6203 53.8348 47.5732 53.8385 47.5261 53.8371C47.4832 53.8378 47.4404 53.834 47.3983 53.8258C47.368 53.82 47.3387 53.81 47.3112 53.796C47.2916 53.7857 47.2758 53.7693 47.2662 53.7492C47.2567 53.7293 47.2519 53.7075 47.2522 53.6854V46.8651H47.2438L44.9232 53.7265C44.917 53.7427 44.908 53.7576 44.8965 53.7705C44.8823 53.7857 44.865 53.7978 44.8459 53.8059C44.8216 53.8169 44.7962 53.8249 44.7701 53.83C44.7362 53.8362 44.7019 53.8391 44.6675 53.8385C44.6308 53.8391 44.5941 53.8363 44.558 53.83C44.5317 53.8254 44.5062 53.8173 44.4821 53.8059C44.464 53.7974 44.4478 53.7854 44.4343 53.7705C44.4229 53.7582 44.4151 53.743 44.4119 53.7265L42.205 46.8651V53.6854C42.2053 53.7075 42.2005 53.7293 42.191 53.7492C42.1808 53.7698 42.1639 53.7863 42.1432 53.796C42.1155 53.8095 42.0863 53.8195 42.0561 53.8258C42.0098 53.8345 41.9628 53.8383 41.9157 53.8371C41.8723 53.8379 41.829 53.8341 41.7864 53.8258C41.7571 53.8198 41.7288 53.8098 41.7021 53.796C41.6825 53.7863 41.667 53.7696 41.6586 53.7492C41.6509 53.7288 41.6471 53.7072 41.6474 53.6854V46.6084C41.6424 46.5577 41.6475 46.5064 41.6625 46.4577C41.6774 46.409 41.7019 46.3638 41.7345 46.3248C41.7789 46.278 41.839 46.2496 41.903 46.2453H42.2036C42.272 46.2442 42.34 46.2552 42.4045 46.278C42.4612 46.2985 42.5133 46.3303 42.5576 46.3716C42.6029 46.4143 42.6404 46.4647 42.6686 46.5205C42.7015 46.5843 42.7292 46.6507 42.7515 46.719L44.6956 52.721H44.7181L46.7465 46.736C46.7721 46.6543 46.805 46.575 46.8448 46.4992C46.8742 46.4429 46.9111 46.3909 46.9544 46.3446C46.9888 46.3079 47.0311 46.2798 47.078 46.2624C47.1232 46.2465 47.1707 46.2384 47.2185 46.2383H47.5514C47.5812 46.2385 47.6107 46.2443 47.6385 46.2553C47.6704 46.2682 47.6984 46.2892 47.72 46.3163C47.747 46.3501 47.7679 46.3885 47.7818 46.4297C47.8001 46.4864 47.8087 46.5459 47.8071 46.6056L47.8155 53.6854Z" fill="white"/>
<path d="M54.479 49.9343C54.4845 50.4851 54.4303 51.0349 54.3175 51.5738C54.2279 52.0159 54.0635 52.439 53.8314 52.8247C53.5043 53.3187 53.0089 53.6743 52.4393 53.8241C51.8696 53.9739 51.2654 53.9074 50.7411 53.6373C50.4219 53.4558 50.1547 53.1939 49.9657 52.8771C49.7473 52.5046 49.5961 52.096 49.519 51.6702C49.4193 51.1407 49.3722 50.6024 49.3785 50.0634C49.3736 49.5216 49.4273 48.9809 49.5386 48.4508C49.627 48.0129 49.7916 47.5942 50.0246 47.2141C50.2283 46.8867 50.5085 46.615 50.8408 46.4228C51.1931 46.2282 51.5898 46.1304 51.9913 46.1391C52.3783 46.1288 52.7614 46.2192 53.1038 46.4015C53.4221 46.5822 53.6895 46.8419 53.8806 47.156C54.1015 47.5232 54.2561 47.927 54.3371 48.3487C54.4391 48.8708 54.4866 49.4022 54.479 49.9343ZM53.8862 49.9981C53.8882 49.5763 53.8553 49.1551 53.7879 48.7387C53.7341 48.3829 53.6251 48.0378 53.4648 47.7162C53.3266 47.4399 53.1199 47.2045 52.865 47.0326C52.5876 46.8592 52.2654 46.7728 51.9393 46.7844C51.6126 46.7734 51.2904 46.864 51.0164 47.044C50.76 47.2235 50.5504 47.4628 50.4053 47.7417C50.2394 48.0621 50.1256 48.4074 50.0682 48.7643C49.9983 49.1717 49.964 49.5846 49.9657 49.9981C49.9635 50.4254 49.9945 50.8522 50.0584 51.2745C50.1094 51.633 50.2165 51.9811 50.3758 52.3056C50.512 52.5831 50.7179 52.8198 50.9728 52.992C51.2531 53.1661 51.5781 53.2525 51.907 53.2402C52.2378 53.2543 52.5648 53.1641 52.8425 52.9821C53.1002 52.7992 53.3099 52.5559 53.4536 52.273C53.6173 51.948 53.7297 51.5991 53.7865 51.2391C53.8548 50.8291 53.8881 50.4139 53.8862 49.9981Z" fill="white"/>
<path d="M62.0328 53.6739C62.0333 53.6978 62.0285 53.7216 62.0188 53.7434C62.009 53.7636 61.994 53.7808 61.9753 53.793C61.9503 53.8088 61.9227 53.8199 61.8938 53.8256C61.8009 53.8423 61.7058 53.8423 61.6128 53.8256C61.5808 53.8185 61.5506 53.8045 61.5243 53.7845C61.5035 53.7675 61.4871 53.7456 61.4766 53.7207C61.4646 53.6912 61.4548 53.6608 61.4471 53.6299L60.9231 51.6132C60.871 51.3996 60.7951 51.1926 60.697 50.9963C60.6154 50.8372 60.5075 50.6933 60.3781 50.5708C60.255 50.4561 60.1089 50.3695 59.9497 50.3169C59.7721 50.2599 59.5867 50.2322 59.4004 50.2347H59.1195V53.6952C59.1198 53.7172 59.115 53.7391 59.1054 53.759C59.0954 53.7792 59.0791 53.7956 59.0591 53.8058C59.0315 53.8198 59.0022 53.8298 58.972 53.8356C58.9284 53.8439 58.8842 53.8477 58.8399 53.8469C58.7966 53.8477 58.7533 53.8439 58.7107 53.8356C58.6814 53.8295 58.653 53.8195 58.6264 53.8058C58.6067 53.7961 58.5912 53.7794 58.5829 53.759C58.5751 53.7386 58.5713 53.717 58.5716 53.6952V50.2347H58.2907C58.0901 50.2304 57.8904 50.264 57.7021 50.334C57.5401 50.3975 57.3928 50.494 57.2694 50.6176C57.1436 50.7449 57.0405 50.8931 56.9646 51.0558C56.8788 51.238 56.8101 51.4279 56.7595 51.6231L56.244 53.6399C56.2362 53.6708 56.2264 53.7011 56.2145 53.7306C56.204 53.7555 56.1876 53.7775 56.1667 53.7944C56.1405 53.8144 56.1103 53.8284 56.0782 53.8356C55.9853 53.8522 55.8902 53.8522 55.7973 53.8356C55.7684 53.8299 55.7408 53.8188 55.7158 53.8029C55.6971 53.7907 55.6821 53.7735 55.6723 53.7533C55.6626 53.7315 55.6578 53.7077 55.6582 53.6838C55.6582 53.6725 55.6582 53.6583 55.6582 53.6427C55.6582 53.6271 55.6582 53.6086 55.6582 53.5874C55.6582 53.5661 55.6582 53.5434 55.6695 53.5207C55.6749 53.4948 55.6819 53.4692 55.6905 53.4441L56.1738 51.6146C56.2311 51.3897 56.3034 51.1689 56.3901 50.9537C56.4584 50.7836 56.5456 50.6218 56.65 50.4715C56.7404 50.3427 56.8515 50.2301 56.9787 50.1382C57.109 50.0466 57.2506 49.9727 57.4001 49.9184C57.2743 49.8858 57.1553 49.8306 57.0489 49.7553C56.9372 49.6728 56.8419 49.5699 56.768 49.4518C56.6746 49.3037 56.5973 49.1458 56.5376 48.981C56.4581 48.7653 56.3896 48.5457 56.3325 48.3229L55.8858 46.621C55.8736 46.582 55.8637 46.5422 55.8563 46.5019C55.8489 46.4626 55.8451 46.4227 55.8451 46.3828C55.8443 46.3588 55.8471 46.3349 55.8535 46.3119C55.8606 46.2912 55.8745 46.2737 55.8928 46.2622C55.9173 46.2464 55.9444 46.2353 55.9729 46.2296C56.0164 46.221 56.0606 46.2172 56.1049 46.2183C56.1563 46.2168 56.2077 46.2216 56.258 46.2324C56.2901 46.2396 56.3203 46.2536 56.3465 46.2736C56.3676 46.2909 56.3832 46.3141 56.3915 46.3402C56.4013 46.3672 56.4098 46.3984 56.4196 46.4338L56.8761 48.3215C56.9205 48.5107 56.9821 48.6954 57.0601 48.8732C57.1255 49.0221 57.2174 49.1577 57.3313 49.2731C57.4434 49.3839 57.5788 49.4678 57.7274 49.5185C57.9088 49.5773 58.0987 49.6051 58.2893 49.6007H58.5702V46.3572C58.5699 46.3354 58.5738 46.3138 58.5814 46.2934C58.5898 46.273 58.6053 46.2563 58.625 46.2466C58.6516 46.2328 58.68 46.2228 58.7093 46.2168C58.7518 46.2085 58.7952 46.2047 58.8385 46.2055C58.8828 46.2047 58.927 46.2085 58.9706 46.2168C59.0009 46.2225 59.0302 46.2325 59.0576 46.2466C59.0778 46.2567 59.094 46.2731 59.104 46.2934C59.1133 46.3134 59.1181 46.3352 59.1181 46.3572V49.5894H59.399C59.5863 49.5933 59.7726 49.5616 59.9482 49.4958C60.0996 49.437 60.237 49.3466 60.3514 49.2306C60.4671 49.1113 60.5621 48.9732 60.6323 48.8221C60.7101 48.6545 60.7704 48.4791 60.8121 48.2988L61.2687 46.4225C61.2785 46.387 61.2869 46.3558 61.2968 46.3289C61.3051 46.3027 61.3207 46.2796 61.3417 46.2622C61.368 46.2423 61.3981 46.2282 61.4302 46.2211C61.4805 46.2102 61.5319 46.2055 61.5833 46.2069C61.6276 46.2058 61.6719 46.2097 61.7154 46.2183C61.7438 46.224 61.771 46.2351 61.7954 46.2509C61.8138 46.2624 61.8277 46.2799 61.8348 46.3005C61.8411 46.3236 61.8439 46.3475 61.8432 46.3714C61.8431 46.4116 61.8379 46.4517 61.8278 46.4906C61.8173 46.5298 61.8089 46.5696 61.8025 46.6097L61.3544 48.2733C61.2935 48.503 61.2312 48.7049 61.1675 48.8789C61.1117 49.0358 61.0382 49.1856 60.9484 49.3256C60.872 49.4454 60.7772 49.5522 60.6675 49.6419C60.5522 49.7315 60.4238 49.8024 60.2868 49.8518V49.8631C60.4425 49.9229 60.5891 50.0045 60.7222 50.1056C60.8489 50.2047 60.9598 50.3229 61.0509 50.4559C61.1542 50.6088 61.2391 50.7735 61.3038 50.9466C61.3855 51.1638 61.4554 51.3854 61.5131 51.6104L61.9921 53.4399C61.9921 53.4668 62.0048 53.4923 62.0104 53.5165C62.016 53.5406 62.0216 53.5618 62.0258 53.5831C62.0296 53.6014 62.0324 53.6199 62.0342 53.6384C62.0328 53.6484 62.0328 53.6625 62.0328 53.6739Z" fill="white"/>
<path d="M66.7101 53.4867C66.7103 53.5318 66.707 53.5769 66.7003 53.6214C66.6956 53.6559 66.6857 53.6894 66.6708 53.7207C66.6597 53.7445 66.6434 53.7654 66.623 53.7817C66.6061 53.7947 66.5853 53.8017 66.564 53.8016H63.7996C63.7355 53.7973 63.6754 53.7689 63.631 53.7221C63.5984 53.6832 63.5738 53.638 63.5589 53.5893C63.5439 53.5405 63.5388 53.4893 63.5439 53.4385V46.6083C63.5389 46.5575 63.544 46.5063 63.559 46.4576C63.5739 46.4089 63.5984 46.3637 63.631 46.3247C63.6754 46.2779 63.7355 46.2495 63.7996 46.2452H66.5205C66.5418 46.2452 66.5625 46.2522 66.5795 46.2651C66.5993 46.2812 66.6148 46.3022 66.6244 46.3261C66.6383 46.3587 66.6478 46.393 66.6525 46.4282C66.6587 46.4752 66.6615 46.5226 66.661 46.57C66.6616 46.6151 66.6588 46.6601 66.6525 46.7047C66.6479 46.7381 66.6384 46.7706 66.6244 46.8012C66.6144 46.824 66.599 46.844 66.5795 46.8593C66.5625 46.8723 66.5418 46.8793 66.5205 46.8792H64.103V49.5355H66.1876C66.2107 49.5348 66.2334 49.5418 66.2522 49.5554C66.2715 49.5709 66.2869 49.5908 66.2971 49.6135C66.3108 49.6451 66.3198 49.6786 66.3238 49.7128C66.3305 49.7598 66.3338 49.8072 66.3337 49.8546C66.3339 49.8988 66.3306 49.9429 66.3238 49.9865C66.3197 50.018 66.3107 50.0486 66.2971 50.0773C66.2867 50.0983 66.2712 50.1163 66.2522 50.1298C66.2327 50.1416 66.2103 50.1475 66.1876 50.1468H64.103V53.1662H66.564C66.5853 53.1662 66.606 53.1732 66.623 53.1861C66.6429 53.2017 66.6592 53.2216 66.6708 53.2442C66.6862 53.2753 66.6961 53.3089 66.7003 53.3435C66.707 53.3909 66.7103 53.4388 66.7101 53.4867Z" fill="white"/>
<path d="M74.476 53.6856C74.476 53.7076 74.4712 53.7294 74.4619 53.7494C74.4517 53.77 74.4349 53.7865 74.4142 53.7962C74.3864 53.8097 74.3572 53.8197 74.3271 53.826C74.2808 53.8349 74.2337 53.8387 74.1866 53.8373C74.1437 53.838 74.1009 53.8342 74.0588 53.826C74.0285 53.8202 73.9992 53.8102 73.9717 53.7962C73.9516 53.7861 73.9353 53.7697 73.9253 53.7494C73.916 53.7294 73.9112 53.7076 73.9113 53.6856V46.8653H73.9014L71.5808 53.7267C71.5743 53.743 71.5647 53.7579 71.5527 53.7707C71.5387 53.7861 71.5214 53.7982 71.5022 53.8061C71.4779 53.817 71.4524 53.8251 71.4263 53.8302C71.3925 53.8364 71.3581 53.8392 71.3238 53.8387C71.2871 53.8393 71.2504 53.8364 71.2142 53.8302C71.188 53.8256 71.1625 53.8175 71.1383 53.8061C71.1203 53.7976 71.104 53.7855 71.0906 53.7707C71.0792 53.7584 71.0714 53.7432 71.0681 53.7267L68.8613 46.8653V53.6856C68.8616 53.7076 68.8568 53.7295 68.8472 53.7494C68.837 53.77 68.8202 53.7865 68.7995 53.7962C68.7718 53.8097 68.7425 53.8197 68.7124 53.826C68.6661 53.8347 68.619 53.8385 68.5719 53.8373C68.5286 53.8381 68.4852 53.8343 68.4427 53.826C68.4134 53.8199 68.385 53.8099 68.3584 53.7962C68.3388 53.7864 68.3233 53.7697 68.3149 53.7494C68.3072 53.729 68.3034 53.7074 68.3036 53.6856V46.6086C68.2986 46.5578 68.3037 46.5066 68.3187 46.4579C68.3337 46.4091 68.3581 46.364 68.3907 46.325C68.435 46.278 68.4952 46.2497 68.5593 46.2455H68.8571C68.9254 46.2444 68.9934 46.2554 69.0579 46.2781C69.1146 46.2988 69.1667 46.3306 69.2111 46.3717C69.2563 46.4146 69.2938 46.4649 69.322 46.5207C69.3544 46.5845 69.3817 46.6509 69.4035 46.7192L71.3505 52.7268H71.3856L73.414 46.7419C73.4395 46.6601 73.4724 46.5808 73.5123 46.5051C73.5418 46.4488 73.5787 46.3968 73.6219 46.3505C73.6563 46.3138 73.6986 46.2857 73.7455 46.2682C73.7907 46.2524 73.8382 46.2443 73.886 46.2441H74.2189C74.2487 46.2444 74.2782 46.2501 74.306 46.2611C74.3379 46.2741 74.3659 46.2951 74.3875 46.3221C74.4145 46.356 74.4354 46.3944 74.4493 46.4356C74.4675 46.4923 74.4761 46.5518 74.4746 46.6114L74.476 53.6856Z" fill="white"/>
<path d="M81.1343 49.9343C81.1398 50.4851 81.0856 51.0349 80.9727 51.5738C80.8831 52.0158 80.7187 52.439 80.4867 52.8247C80.1595 53.3187 79.6641 53.6743 79.0945 53.8241C78.5249 53.9739 77.9206 53.9074 77.3963 53.6373C77.0771 53.4558 76.81 53.1939 76.6209 52.8771C76.4025 52.5047 76.2513 52.096 76.1742 51.6702C76.0746 51.1407 76.0275 50.6024 76.0338 50.0634C76.0288 49.5216 76.0825 48.9809 76.1939 48.4508C76.2823 48.0129 76.4469 47.5942 76.6799 47.2141C76.8834 46.8867 77.1637 46.6149 77.4961 46.4228C77.8484 46.2282 78.2451 46.1304 78.6465 46.1391C79.0335 46.1288 79.4166 46.2192 79.7591 46.4015C80.0773 46.5822 80.3447 46.8419 80.5359 47.156C80.7567 47.5232 80.9113 47.927 80.9924 48.3487C81.0943 48.8708 81.1418 49.4022 81.1343 49.9343ZM80.5415 49.9981C80.5434 49.5763 80.5105 49.1551 80.4432 48.7387C80.3893 48.3829 80.2803 48.0378 80.1201 47.7162C79.9818 47.44 79.7752 47.2045 79.5203 47.0326C79.2428 46.8592 78.9207 46.7729 78.5946 46.7844C78.2678 46.7734 77.9457 46.864 77.6717 47.044C77.4153 47.2235 77.2057 47.4629 77.0606 47.7417C76.8948 48.0622 76.7809 48.4074 76.7235 48.7643C76.6536 49.1717 76.6193 49.5846 76.6209 49.9981C76.6187 50.4254 76.6497 50.8522 76.7136 51.2745C76.7643 51.6329 76.871 51.9809 77.0297 52.3056C77.1659 52.5831 77.3718 52.8197 77.6267 52.992C77.9069 53.1661 78.232 53.2525 78.5608 53.2402C78.8919 53.2518 79.2184 53.1592 79.495 52.975C79.7526 52.7921 79.9623 52.5488 80.106 52.2659C80.2699 51.9409 80.3822 51.5921 80.439 51.232C80.5079 50.8244 80.5422 50.4116 80.5415 49.9981Z" fill="white"/>
<path d="M88.6784 51.6872C88.6797 51.8954 88.659 52.1031 88.6166 52.3069C88.5791 52.487 88.5202 52.6617 88.441 52.8274C88.3675 52.9787 88.2728 53.1187 88.16 53.2429C88.0518 53.3627 87.9269 53.4659 87.7892 53.5493C87.6491 53.6339 87.4977 53.6979 87.3397 53.7393C87.1559 53.7848 86.967 53.8063 86.7778 53.8031H85.2537C85.1896 53.799 85.1294 53.7706 85.0851 53.7237C85.0525 53.6848 85.0279 53.6396 85.013 53.5908C84.998 53.5421 84.9929 53.4908 84.998 53.4401V46.6085C84.993 46.5577 84.9981 46.5065 85.0131 46.4577C85.0281 46.409 85.0525 46.3638 85.0851 46.3248C85.1294 46.2779 85.1896 46.2496 85.2537 46.2454H86.5179C86.8021 46.2354 87.0854 46.2811 87.3523 46.3801C87.5559 46.463 87.7366 46.5944 87.8791 46.7631C88.0233 46.9397 88.1291 47.1451 88.1895 47.3658C88.2606 47.6214 88.2951 47.886 88.2921 48.1515C88.2928 48.3243 88.2768 48.4967 88.2443 48.6663C88.2155 48.8231 88.1683 48.976 88.1038 49.1216C88.0422 49.2589 87.9618 49.3868 87.865 49.5017C87.7681 49.6146 87.6532 49.7104 87.5251 49.7853C87.6875 49.8265 87.8396 49.9014 87.9718 50.0051C88.1165 50.1177 88.2406 50.255 88.3384 50.4107C88.4487 50.5864 88.5325 50.7775 88.5871 50.978C88.6498 51.209 88.6805 51.4477 88.6784 51.6872ZM87.7021 48.1926C87.7042 48.0105 87.683 47.8289 87.6389 47.6523C87.6016 47.5008 87.5326 47.3591 87.4366 47.2368C87.3397 47.1191 87.2151 47.0279 87.0742 46.9715C86.8829 46.9021 86.6803 46.8704 86.4772 46.8779H85.5557V49.5896H86.5671C86.753 49.5977 86.9379 49.5587 87.1051 49.4761C87.2396 49.4019 87.355 49.297 87.4422 49.1698C87.5337 49.034 87.6004 48.8827 87.6389 48.7231C87.6818 48.5496 87.703 48.3714 87.7021 48.1926ZM88.0856 51.7467C88.0891 51.5228 88.0573 51.2997 87.9915 51.0858C87.9364 50.9075 87.8429 50.7438 87.7175 50.6065C87.594 50.4757 87.442 50.3756 87.2736 50.3143C87.0625 50.2426 86.8404 50.209 86.6176 50.215H85.5557V53.1664H86.8368C87.0073 53.1696 87.1768 53.1388 87.3355 53.0756C87.4809 53.0145 87.6117 52.9226 87.719 52.8061C87.8356 52.6775 87.9254 52.5266 87.983 52.3622C88.0533 52.1644 88.0881 51.9555 88.0856 51.7453V51.7467Z" fill="white"/>
<path d="M94.0531 52.7733C94.0531 52.8159 94.0531 52.8556 94.0531 52.8896C94.0505 52.9211 94.0458 52.9524 94.039 52.9832C94.0332 53.0096 94.0247 53.0352 94.0138 53.0598C93.9974 53.0922 93.9776 53.1226 93.9547 53.1506C93.8966 53.2162 93.8331 53.2769 93.7651 53.3321C93.6515 53.4271 93.5287 53.5103 93.3985 53.5803C93.2367 53.6679 93.0662 53.7383 92.89 53.7902C92.6842 53.8508 92.4707 53.8804 92.2564 53.8781C91.9053 53.8831 91.5587 53.7977 91.2492 53.63C90.9379 53.4547 90.674 53.2049 90.4809 52.9024C90.252 52.5405 90.087 52.1413 89.9934 51.7224C89.8712 51.1964 89.8122 50.6573 89.8178 50.117C89.8114 49.5594 89.8728 49.0031 90.0005 48.4605C90.1019 48.0197 90.2752 47.5989 90.5132 47.2153C90.7129 46.8948 90.9849 46.6266 91.3068 46.4324C91.6177 46.2504 91.9715 46.1563 92.3309 46.1601C92.5038 46.1596 92.676 46.1811 92.8436 46.224C93.001 46.2638 93.1543 46.3184 93.3016 46.3871C93.4347 46.4494 93.5609 46.526 93.678 46.6154C93.7613 46.6756 93.8376 46.7451 93.9056 46.8225C93.9349 46.8577 93.9608 46.8957 93.9828 46.9359C93.9942 46.9613 94.0027 46.988 94.0081 47.0153C94.0148 47.0481 94.0195 47.0813 94.0222 47.1146C94.0222 47.1515 94.0222 47.194 94.0222 47.2408C94.0248 47.2881 94.0248 47.3354 94.0222 47.3827C94.0188 47.4184 94.0112 47.4536 93.9997 47.4876C93.9913 47.5123 93.9779 47.535 93.9604 47.5543C93.9533 47.5616 93.9447 47.5674 93.9353 47.5713C93.9259 47.5752 93.9158 47.5772 93.9056 47.577C93.8634 47.577 93.8035 47.5372 93.7258 47.4578C93.6303 47.3625 93.5284 47.2739 93.421 47.1926C93.278 47.0857 93.1229 46.9967 92.9588 46.9274C92.7519 46.8431 92.5301 46.8026 92.307 46.8083C92.0385 46.8058 91.7747 46.8795 91.5457 47.021C91.2996 47.1786 91.0952 47.3942 90.9501 47.6493C90.7683 47.9674 90.6375 48.3125 90.5623 48.6718C90.3809 49.5742 90.3771 50.5038 90.5511 51.4076C90.6199 51.7539 90.7447 52.0865 90.9205 52.3918C91.0657 52.6428 91.271 52.853 91.5176 53.0031C91.7626 53.1453 92.0413 53.2178 92.3239 53.213C92.5446 53.218 92.764 53.1775 92.9686 53.0939C93.1355 53.024 93.2938 52.935 93.4406 52.8287C93.553 52.7468 93.6604 52.6583 93.7623 52.5634C93.812 52.5031 93.8802 52.4612 93.9562 52.4443C93.9723 52.4438 93.9881 52.4488 94.0011 52.4585C94.0157 52.4727 94.026 52.491 94.0306 52.511C94.0397 52.5444 94.0458 52.5786 94.0489 52.6131C94.053 52.6664 94.0544 52.7199 94.0531 52.7733Z" fill="white"/>
<path d="M98.5472 53.4867C98.5478 53.5318 98.545 53.5768 98.5387 53.6214C98.5341 53.6559 98.5241 53.6894 98.5093 53.7207C98.4982 53.7445 98.4819 53.7654 98.4615 53.7817C98.4445 53.7947 98.4238 53.8017 98.4025 53.8016H95.6394C95.5754 53.7973 95.5152 53.7689 95.4708 53.7221C95.4382 53.6832 95.4137 53.638 95.3987 53.5893C95.3838 53.5405 95.3787 53.4893 95.3837 53.4385V46.6083C95.3787 46.5575 95.3839 46.5063 95.3988 46.4576C95.4138 46.4089 95.4383 46.3637 95.4708 46.3247C95.5152 46.2779 95.5754 46.2495 95.6394 46.2452H98.3561C98.3774 46.2452 98.3981 46.2522 98.4151 46.2651C98.435 46.2813 98.4504 46.3023 98.4601 46.3261C98.4739 46.3587 98.4833 46.393 98.4882 46.4282C98.4944 46.4752 98.4972 46.5226 98.4966 46.57C98.4972 46.6151 98.4944 46.6601 98.4882 46.7047C98.4835 46.7381 98.474 46.7706 98.4601 46.8012C98.45 46.824 98.4346 46.8439 98.4151 46.8593C98.3982 46.8723 98.3774 46.8793 98.3561 46.8792H95.94V49.5355H98.0274C98.0501 49.535 98.0723 49.542 98.0906 49.5554C98.1105 49.5707 98.1264 49.5907 98.137 49.6135C98.1506 49.6452 98.1596 49.6786 98.1637 49.7128C98.1699 49.7598 98.1727 49.8072 98.1721 49.8546C98.1728 49.8988 98.17 49.9429 98.1637 49.9865C98.1595 50.018 98.1505 50.0486 98.137 50.0773C98.1262 50.0984 98.1102 50.1165 98.0906 50.1298C98.0716 50.1414 98.0497 50.1473 98.0274 50.1468H95.94V53.1662H98.4011C98.4224 53.1662 98.4431 53.1732 98.4601 53.1861C98.48 53.2017 98.4963 53.2215 98.5078 53.2442C98.5232 53.2753 98.5332 53.3089 98.5373 53.3435C98.544 53.3909 98.5473 53.4388 98.5472 53.4867Z" fill="white"/>
</g>
<defs>
<clipPath id="clip0_20714_1754">
<rect width="104" height="54" fill="white"/>
</clipPath>
</defs>
</svg>
