<svg width="137" height="126" viewBox="0 0 137 126" fill="none" xmlns="http://www.w3.org/2000/svg">
<path d="M89.8398 89.2837H122.232C129.969 89.2837 136.22 82.9928 136.22 75.2953V50.4444C136.22 46.1854 134.306 42.3562 131.297 39.7773C128.835 37.7064 125.67 36.417 122.232 36.417H89.8398V89.2837Z" fill="#2B3872"/>
<path d="M14.3486 116.869H79.0547C89.0576 116.869 97.1458 108.781 97.1458 98.7782V26.9217C97.1458 16.9188 89.0576 8.83057 79.0547 8.83057H14.3486V116.869Z" fill="#0B2265"/>
<path d="M0.0869141 2.38349V123.317C0.0869141 124.645 1.14194 125.7 2.47045 125.7H11.9654C13.2939 125.7 14.3488 124.645 14.3488 123.317V2.38349C14.3488 1.05498 13.2939 0 11.9654 0H2.47045C1.14194 0 0.0869141 1.05498 0.0869141 2.38349Z" fill="#28356D"/>
<path d="M14.3496 116.869H79.0557C89.0585 116.869 97.1468 108.781 97.1468 98.7782V26.9217C97.1468 16.9188 89.0585 8.83057 79.0557 8.83057C73.6635 86.4309 14.3496 93.5423 14.3496 93.5423V116.869Z" fill="#28356D"/>
<path d="M19.5342 116.868L19.5342 8.82959L14.2983 8.82959L14.2983 116.868H19.5342Z" fill="#2B3872"/>
<path d="M41.7012 116.869H79.0557C89.0585 116.869 97.1468 108.781 97.1468 98.7781V48.334C97.1468 99.247 41.7012 116.869 41.7012 116.869Z" fill="#2B3872"/>
<path d="M100.524 89.2514L100.524 36.4238H97.125L97.125 89.2514H100.524Z" fill="#0B2265"/>
<path d="M97.1465 89.2832H122.271C130.007 89.2832 136.259 82.9924 136.259 75.2948V50.4439C136.259 46.1849 134.345 42.3557 131.336 39.7769C136.103 78.4989 97.1465 84.399 97.1465 84.399V89.2832Z" fill="#0B2265"/>
</svg>
