<svg width="190" height="126" viewBox="0 0 190 126" fill="none" xmlns="http://www.w3.org/2000/svg">
<path d="M46.941 89.2837H14.5489C6.81236 89.2837 0.560547 82.9928 0.560547 75.2953V50.4444C0.560547 46.1854 2.4752 42.3562 5.48387 39.7773C7.94551 37.7064 11.1105 36.417 14.5489 36.417H46.941V89.2837Z" fill="#2B3872"/>
<path d="M122.47 116.869H57.7639C47.7611 116.869 39.6729 108.781 39.6729 98.7782V26.9217C39.6729 16.9188 47.7611 8.83057 57.7639 8.83057H122.47V116.869Z" fill="#0B2265"/>
<path d="M136.732 2.38349V123.317C136.732 124.645 135.677 125.7 134.348 125.7H124.853C123.525 125.7 122.47 124.645 122.47 123.317V2.38349C122.47 1.05498 123.525 0 124.853 0H134.348C135.638 0 136.732 1.05498 136.732 2.38349Z" fill="#28356D"/>
<path d="M136.732 46.6151V28.2114H180.768C185.848 28.2114 189.99 32.3532 189.99 37.4328C189.99 42.5124 185.887 46.6542 180.768 46.6542H136.732V46.6151Z" fill="#0B2265"/>
<path d="M136.732 97.4887V79.085H180.768C185.848 79.085 189.99 83.1877 189.99 88.3063C189.99 93.3859 185.887 97.5277 180.768 97.5277H136.732V97.4887Z" fill="#0B2265"/>
<path d="M122.471 116.869H57.7649C47.7621 116.869 39.6738 108.781 39.6738 98.7782V26.9217C39.6738 16.9188 47.7621 8.83057 57.7649 8.83057C63.1571 86.4309 122.471 93.5423 122.471 93.5423V116.869Z" fill="#28356D"/>
<path d="M122.457 116.87L122.457 8.83154L117.221 8.83154L117.221 116.87H122.457Z" fill="#2B3872"/>
<path d="M95.1194 116.869H57.7649C47.7621 116.869 39.6738 108.781 39.6738 98.7781V48.334C39.6738 99.247 95.1194 116.869 95.1194 116.869Z" fill="#2B3872"/>
<path d="M39.668 89.2348L39.668 36.4072H36.2685L36.2685 89.2348H39.668Z" fill="#0B2265"/>
<path d="M143.176 46.6332V28.2295H136.729V46.6332H143.176Z" fill="#05103E"/>
<path d="M143.186 97.4775V79.0737H136.738V97.4775H143.186Z" fill="#05103E"/>
<path d="M39.6733 89.2832H14.5489C6.81236 89.2832 0.560547 82.9924 0.560547 75.2948V50.4439C0.560547 46.1849 2.4752 42.3557 5.48387 39.7769C0.71688 78.4989 39.6733 84.399 39.6733 84.399V89.2832Z" fill="#0B2265"/>
</svg>
